/* XPM */
static char *pegdos_[] = {
/* columns rows colors chars-per-pixel */
"80 80 168 2",
"   c #59C768",
".  c #55558E",
"X  c #75759A",
"o  c #7B7BA5",
"O  c #7979AC",
"+  c #7B7BAD",
"@  c #7B7BAE",
"#  c #7C7CAE",
"$  c #7B809A",
"%  c #7B9597",
"&  c #73AC89",
"*  c #828D9F",
"=  c #86B89A",
"-  c #8383A3",
";  c #8989A7",
":  c #8C8CAA",
">  c #8E8EAD",
",  c #8B9CA5",
"<  c #9293AE",
"1  c #8787B0",
"2  c #8F8FB9",
"3  c #8E8EBB",
"4  c #9090B2",
"5  c #9595B1",
"6  c #9797B3",
"7  c #9292B5",
"8  c #9595B6",
"9  c #9999B5",
"0  c #9A9AB6",
"q  c #9D9DB7",
"w  c #9292B9",
"e  c #9595B9",
"r  c #9191BD",
"t  c #9393BE",
"y  c #9999BB",
"u  c #9E9EB8",
"i  c #9F9FBA",
"p  c #94AEAB",
"a  c #97A2B0",
"s  c #9EABB6",
"d  c #A0A1BA",
"f  c #A3A3BD",
"g  c #A5A5BE",
"h  c #A4ABBC",
"j  c #9BCCAA",
"k  c #9E9EC1",
"l  c #A8A8C0",
"z  c #AAAAC2",
"x  c #ABABC3",
"c  c #ACACC4",
"v  c #AEAEC4",
"b  c #ACACC7",
"n  c #AFAFC6",
"m  c #A3A3C9",
"M  c #A6A6C9",
"N  c #AFAFC9",
"B  c #A9A9CD",
"V  c #ADADCE",
"C  c #B0AFC7",
"Z  c #ACB3C1",
"A  c #B0B0C6",
"S  c #B0BCC3",
"D  c #B1B1C8",
"F  c #B3B3C9",
"G  c #B3B3CB",
"H  c #B4B4C9",
"J  c #B4B7C9",
"K  c #B5B5CA",
"L  c #B6B6CB",
"P  c #B3B3CE",
"I  c #B6B6CE",
"U  c #B8B8CC",
"Y  c #B9B9CD",
"T  c #BABACD",
"R  c #BABACE",
"E  c #BDBFCF",
"W  c #B3B3D2",
"Q  c #B7B7D5",
"!  c #BCBCD0",
"~  c #BEBED1",
"^  c #BDBDD2",
"/  c #BEBED2",
"(  c #B9B9D7",
")  c #BFBFD7",
"_  c #B3CCC2",
"`  c #B7C0C9",
"'  c #BFC8D0",
"]  c #C1CFCF",
"[  c #C1C1D3",
"{  c #C3C3D5",
"}  c #C4C4D5",
"|  c #C5C5D6",
" . c #C7C7D7",
".. c #C2C9D2",
"X. c #C9C9D9",
"o. c #C8C8DB",
"O. c #CACADA",
"+. c #CBCBDB",
"@. c #CCCCDB",
"#. c #C8C8DF",
"$. c #CDCDDC",
"%. c #CFCFDD",
"&. c #CFCFDF",
"*. c #D0D0DE",
"=. c #CACAE1",
"-. c #CBCBE2",
";. c #CECEE1",
":. c #CFCFE4",
">. c #D3D3E0",
",. c #D4D4E1",
"<. c #D4D4E3",
"1. c #D7D7E3",
"2. c #D2D2E4",
"3. c #D6D6E6",
"4. c #D9D9E3",
"5. c #DADAE5",
"6. c #DBDBE6",
"7. c #D8D8E9",
"8. c #DBDBE8",
"9. c #DADAEA",
"0. c #DBDBEB",
"q. c #DDDDE8",
"w. c #DEDEE8",
"e. c #DDDDEB",
"r. c #DFDFEA",
"t. c #DBE4E4",
"y. c #E0E0E9",
"u. c #E0E0EB",
"i. c #E2E2EB",
"p. c #E2E6EA",
"a. c #E1E1EC",
"s. c #E3E3EC",
"d. c #E2E2EE",
"f. c #E7E6ED",
"g. c #E4E4EF",
"h. c #E6E6EE",
"j. c #E4EEE8",
"k. c #E5E5F1",
"l. c #E7E7F1",
"z. c #E7E7F2",
"x. c #E9E9F0",
"c. c #EAEAF1",
"v. c #E9E9F2",
"b. c #EAEAF3",
"n. c #EDEDF3",
"m. c #EBEBF4",
"M. c #ECECF5",
"N. c #EDEDF5",
"B. c #EFEFF5",
"V. c #EEEEF6",
"C. c #F0F0F5",
"Z. c #F0F0F7",
"A. c #F2F2F6",
"S. c #F3F3F8",
"D. c #F4F3F8",
"F. c #F4F4F8",
"G. c #F5F5F9",
"H. c #F6F6F9",
"J. c #F7F9F8",
"K. c #F8F8FB",
"L. c #FAFAFC",
"P. c #FCFCFD",
"I. c #FDFDFD",
"U. c #FDFDFE",
"Y. c #FFFDFF",
"T. c #FEFEFE",
"R. c gray100",
"E. c None",
/* pixels */
"E.E.E.E.E.E.E.E.E.E.E.E.E.a E.E.E.E.E.E.E.E.E.E.E.E.E.E.E.E.E.E.E.E.E.E.E.E.E.E.E.E.E.E.E.E.E.E.E.E.E.E.E.E.E.E.E.E.E.E.E.E.E.E.E.a E.E.E.E.E.E.E.E.E.E.E.E.E.E.",
"E.E.E.E.E.E.E.E.E.E.E.E.= s.i.E.E.E.E.E.E.E.E.E.E.E.E.E.E.E.E.E.E.E.E.E.E.E.E.E.E.E.E.E.E.E.E.E.E.E.E.E.E.E.E.E.E.E.E.E.E.E.E.E.@.A.h E.E.E.E.E.E.E.E.E.E.E.E.E.",
"E.E.E.E.E.E.E.E.E.E.E.E., c.R.6.E.E.E.E.E.E.E.E.E.E.E.E.E.E.E.E.E.E.E.E.E.E.E.E.E.E.E.E.E.E.E.E.E.E.E.E.E.E.E.E.E.E.E.E.E.E.E.' G.R.h E.E.E.E.E.E.E.E.E.E.E.E.E.",
"E.E.E.E.E.E.E.E.E.E.E.E.E.' R.R.@.E.E.E.E.E.E.E.E.E.E.E.E.E.E.E.E.E.E.E.E.E.E.E.E.E.E.E.E.E.E.E.E.E.E.E.E.E.E.E.E.E.E.E.E.E.= n.R.n.h E.E.E.E.E.E.E.E.E.E.E.E.E.",
"E.E.E.E.E.E.E.E.E.E.E.E.E.u I.R.s.E.E.E.E.E.E.E.E.E.E.E.E.E.E.E.E.E.E.E.E.E.E.E.E.E.E.E.E.E.E.E.E.E.E.E.E.E.E.E.E.E.E.E.E.E._ T.R.h E.E.E.E.E.E.E.E.E.E.E.E.E.E.",
"E.E.E.E.E.E.E.E.E.j j E.E.E.| R.R.| E.E.E.E.E.E.E.E.E.E.E.E.E.E.E.E.E.E.E.E.E.E.E.E.E.E.E.E.E.E.E.E.E.E.E.E.E.E.E.E.E.E.E.E.f.R.G.h E.E.h j E.E.E.E.E.E.E.E.E.E.",
"E.E.E.E.E.E.E.E.= >.s.' j E.l L.R.i.= E.E.E.E.E.E.E.E.E.E.E.E.E.E.E.E.E.E.E.E.E.E.E.E.E.E.E.E.E.E.E.E.E.E.E.E.E.E.E.E.E.E.] I.R.1.h E.h q.w.h E.E.E.E.E.E.E.E.E.",
"E.E.E.E.E.E.E.E.= $.f.f.f.E 5 F L.R.y.E.E.E.E.E.E.E.E.E.E.E.E.E.E.E.E.E.E.E.E.E.E.E.E.E.E.E.E.E.E.E.E.E.E.E.E.E.E.E.E.E. .K.R.6.6 h h h x.y.h E.E.E.E.E.E.E.E.E.",
"E.E.E.E.E.E.E.E.E.= $.G.R.n.{ 9 ! I.R.q.E.E.E.E.E.E.E.E.E.E.E.E.E.E.E.E.E.E.E.E.E.E.E.E.E.E.E.E.E.E.E.E.E.E.E.E.E.E.E...G.R.w.d l 6.T.R.i.n E.E.E.E.E.E.E.E.E.E.",
"E.E.E.E.E.E.E.E.E.E.B %.K.R.R.5.v Y I.R.6.E.E.E.E.E.E.E.E.E.E.E.@ B E.E.E.E.E.E.E.E.E.E.E.B @ E.E.E.E.E.E.E.E.E.E.E._ F.R.q.f  .n.R.R.h.A E.E.E.E.E.E.E.E.E.E.E.",
"E.E.E.E.E.E.E.E.E.E.E.= F f.R.R.C.~ ,.R.R.f.$.E.E.E.E.E.E.E.E.E.@ -.B E.3 ( ( 3 ( ( 3 E.B -.@ E.E.E.E.E.E.E.E.h j 6.G.R.c.! 5.K.R.K.@.x E.E.E.E.E.E.E.E.E.E.E.E.",
"E.E.E.E.E.E.E.E.B B E.j B a Y K.R.R.h.%.f.R.T.f._ E.E.E.E.E.E.E.@ -.-.B :.R.z.:.z.R.:.B -.-.@ E.E.E.E.E.E.h h 5.A.R.K.5.,.K.R.R.5.l B = E.j @.h E.E.E.E.E.E.E.E.",
"E.E.E.E.E.E.E.& X.f.K.x.B B B d 1.R.R.n.*.>.n.R.L.c.q.j E.E.E.E.@ B B :.R.R.R.R.R.R.R.:.B B @ E.E.E.E.j ] h.F.R.T.q.%.q.I.R.F.F = B j ] G.A.6.h E.E.E.E.E.E.E.E.",
"E.E.E.E.E.E.E.E.= *.K.R.R.t._ ! l f h.T.T.I.T.R.R.R.R.n.,.E.E.E.r B ( R.R.R.R.R.R.R.R.R.( B r E.E.E.j f.L.R.R.R.R.I.T.R.L.[ q L ` B G.R.R.s.J E.E.E.E.E.E.E.E.E.",
"E.E.E.E.E.E.E.E.E.= [ f.R.R.R.K.y.X.| $.n.K.T.T.R.R.R.R.,.E.E.E.B ( R.R.R.R.R.R.R.R.R.R.R.( B E.E.E.p J.R.R.R.R.T.K.K.w.|  .1.x.R.R.R.I. .S E.E.E.E.E.E.E.E.E.E.",
"E.E.E.E.E.E.E.E.E.E.: l R n.A.R.R.R.I.A.y.i.G.L.R.R.R.R.1.E.E.E.r ( R.R.R.R.R.R.R.R.R.R.R.( r E.E.E.= H.T.R.R.R.K.x.y.h.L.R.R.R.I.F.*.D < & E.E.E.E.E.E.E.E.E.E.",
"E.E.E.E.E.E.E.E.n ~ @.F > q f | 6.C.I.R.R.R.R.R.R.R.R.R.,.E.E.E.@ :.R.z.R.R.R.R.R.R.R.k.P.:.# E.E.E.= j.L.R.R.R.R.R.R.R.R.G.f.%.L d < u  .| L E.E.E.E.E.E.E.E.E.",
"E.E.E.E.E.E.E., %.K.R.L.5.,.$.D ! [ @.h.f.T.R.R.R.R.R.G.D E.E.E.m z.m R.R.R.z.z.z.R.L.H.m 3.k E.E.E.E._ H.U.R.R.R.R.A.h.q.~ [ F [ ,.,.x.R.R.s.v E.E.E.E.E.E.E.E.",
"E.E.E.E.E.E.E.E.h 5.L.R.R.R.R.I.K.n.n.A.F.R.R.R.R.R.K.$.h E.E.E.9 7 L.R.:.:.z.z.k.2.;.$.F 7 k E.E.E.E.= p.P.Y.R.R.R.K.A.C.c.F.L.R.R.R.R.R.c.[ E.E.E.E.E.E.E.E.E.",
"E.E.E.E.E.E.E.E.E.a S 1.*.y.n.R.R.R.R.R.R.R.R.R.I.c.s.[ h E.E.E.8 P z.:.z.R.R.R.U.H.K 9 g d 1 E.E.E.E.= ,.f.D.R.R.R.R.R.R.R.R.R.I.h.1.%.@.a E.E.E.E.E.E.E.E.E.E.",
"E.E.E.E.E.E.E.E.E.E.E.d d x ,.w.c.c.R.R.R.R.R.L.x.s.%.v h E.E.E.e Q :.R.R.z.z.z.d.r.+.d z g w E.E.E.E.= R w.h.F.R.R.R.R.R.G.f.x.1.{ d d a E.E.E.E.E.E.E.E.E.E.E.",
"E.E.E.E.E.E.E.E.E.f [ q.x.C.R.R.R.R.R.R.R.T.C.s.s.h.$.z h E.E.@ 3 m R.z.:.z.z.:.g.*.l n l k 2 # E.E.E.p T y.h.i.f.L.R.R.R.R.R.R.R.L.n.w.,.l E.E.E.E.E.E.E.E.E.E.",
"E.E.E.E.E.E.E.E.< i.R.R.R.R.R.R.T.F.n.1.$. .1.q.s.h.1.F h E.E.@ m ( :.m :.z.m ( m k.^ b G W m @ E.E.E.s X.i.h.i.5.%. .,.w.A.K.R.R.R.R.R.R.F.L E.E.E.E.E.E.E.E.E.",
"E.E.E.E.E.E.E.E.$ n.R.I.K.x.*.R L F n l ~ | ,.5.h.s.h. .= E.E.@ ( m m :.( m B -.B m ( ) m m Q @ E.E.  A 8.f.f.y.1.X.{ D l F L L | w.G.L.R.R.n E.E.E.E.E.E.E.E.E.",
"E.E.E.E.E.E.E.E.E.5 z Y F n q l F X.$.1.h.c.f.x.6.q.h.1.f E.E.@ m B ( m B -.0.0.0.-.-.V B m # @ E.E.p ^ d.s.,.h.f.x.x.q.%.%.! A q l F F h h h E.E.E.E.E.E.E.E.E.",
"E.E.E.E.E.E.E.E.E.E.E.E.$ [ 5.w.s.f.x.x.f.,.%.%.1.i.h.s.L E.E.@ m B B -.0.0.0.0.0.0.0.-.-.#.B @ # E.s &.f.s.q.*.*.%.y.f.x.x.h.i.6.1.6 X E.E.E.E.E.E.E.E.E.E.E.E.",
"E.E.E.E.E.E.E.E.E.E.E., %.s.f.h.h.y.@.@.R v F *.s.h.i.i.{ a E.r B -.0.0.M.M.0.0.0.M.M.M.m.a.7.#.M 7 Z 1.s.s.f.q.[ n A  . .1.h.h.f.f.w.F h E.E.E.E.E.E.E.E.E.E.E.",
"E.E.E.E.E.E.E.E.E.E.E.h A | | { { z f d x X.i.h.h.y.>.h.1.f e =.0.<.m.M.M.M.M.M.M.M.M.M.m.1.k.l.;.i R x.1.5.i.f.h.1.Y f f f L { |  .R l E.E.E.E.E.E.E.E.E.E.E.E.",
"E.E.E.E.E.E.E.E.E.E.E.h : < & 6 d x L ,.w.f.x.q.|  .s.h.6.R 0 9.l.+.d.V.0.0.M.M.M.M.M.N.b.&.1.l.C z %.i.f.1.[ ,.h.x.h.1. .z l 0 , & < & E.E.E.E.E.E.E.E.E.E.E.E.",
"E.E.E.E.E.E.E.E.E.E.E.E.h h h ! ,.x.c.c.n.y.X.L L 6.x.5.@.| f O.u.l  .N.l.0.M.M.M.M.M.M.g.| n 2.g U X.%.i.f.| D [ 1.x.n.c.n.y. .= E.E.E.E.E.E.E.E.E.E.E.E.E.E.E.",
"E.E.E.E.E.E.E.E.E.E.E.E.E.E.h f.n.c.1.[ L L n [ h.x.5.[ @.%.| f H x L 4.w.0.M.M.M.M.M.0.#.^ g l L $.@. .X.s.x.1.D D L R @.s.c.n.| E.E.E.E.E.E.E.E.E.E.E.E.E.E.E.",
"E.E.E.E.E.E.E.E.E.E.E.E.E.E.h %. .A f 6 d ! 5.i.x.6.[  .@.@.%.{ f f L *.:.0.M.M.M.M.M.M.z./ 0 F $.$.@.@.[ $.h.h.w.X.v 5 u x Y ,.n E.E.E.E.E.E.E.E.E.E.E.E.E.E.E.",
"E.E.E.E.E.E.E.E.E.E.E.E.E.E.E.- - E.E.l 1.s.x.y. .L | $.@.@.@.@.z d Y } d.M.M.M.M.M.M.M.v.} i ~ %.@.@.@.$.L [ ,.x.s.i.[ & E.E.- % E.E.E.E.E.E.E.E.E.E.E.E.E.E.E.",
"E.E.E.E.E.E.E.E.E.E.E.E.E.E.E.E.E.E.p { q.h.w.Y d [ $. .{ @.@.$.[ Y  ./ l.M.M.M.M.M.M.M.v.>.U @.@.X. .{ $.@.n f ,.s.h.%.Z E.E.E.E.E.E.E.E.E.E.E.E.E.E.E.E.E.E.E.",
"E.E.E.E.E.E.E.E.E.E.E.E.E.E.E.E.E.h n  .%.{ l d [ %.X.~ $.{  .@.@.@.%.*.m.M.M.M.M.M.M.M.z.<.$.@.@.[ @. .[ $.X.v q Y X.$.R f E.E.E.E.E.E.E.E.E.E.E.E.E.E.E.E.E.E.",
"E.E.E.E.E.E.E.E.E.E.E.E.E.E.E.E.E.h l F z 5 d [ *.X.Y { @.[  .$.@.@.$.u.M.M.M.M.M.M.M.M.l.>.@.@.$.~  .X.R { %.@.v 6 6 Y h h E.E.E.E.E.E.E.E.E.E.E.E.E.E.E.E.E.E.",
"E.E.E.E.E.E.E.E.E.E.E.E.E.E.E.E.E.E.h h - q Y %. .! D $.{ R @. .@.X.X.B.M.M.M.M.M.M.M.M.k.X.@. .X.| Y *.[ D  .X. .x ; * h E.E.E.E.E.E.E.E.E.E.E.E.E.E.E.E.E.E.E.",
"E.E.E.E.E.E.E.E.E.E.E.E.E.E.E.E.E.E.E.E.< D [ [ x l { $.Y R %.~ $.[ [ Z.M.M.M.M.M.M.M.M.g.L $.| | $.n  .$.D f L  .L x h E.E.E.E.E.E.E.E.E.E.E.E.E.E.E.E.E.E.E.E.",
"E.E.E.E.E.E.E.E.E.E.E.E.E.E.E.E.E.E.E.E.E.v D x u D @. .A | $.[ $.! / B.M.M.M.M.M.M.M.N.i.D $.| | $.L Y *.[ l d F A f E.E.E.E.E.E.E.E.E.E.E.E.E.E.E.E.E.E.E.E.E.",
"E.E.E.E.E.E.E.E.E.E.E.E.E.E.E.E.E.E.E.E.E.& a : > ~ @.D A  .$.D | F ! V.M.M.0.M.0.M.M.N.u.g X.L [ $.! x [  .x - a a E.E.E.E.E.E.E.E.E.E.E.E.E.E.E.E.E.E.E.E.E.E.",
"E.E.E.E.E.E.E.E.E.E.E.E.E.E.E.E.E.E.E.E.E.E.E.E.* R R d d  .$.A [ n ~ m.M.M.0.0.0.M.M.N.1.d [ D ~ %.L 9 D ! l E.E.E.E.E.E.E.E.E.E.E.E.E.E.E.E.E.E.E.E.E.E.E.E.E.",
"E.E.E.E.E.E.E.E.E.E.E.E.E.E.E.E.E.E.E.E.E.E.E.E.E.& & X : ! [ d ! c R b.M.M.0.0.0.M.M.N.[ u ! l n [ z X & & & E.E.E.E.E.E.E.E.E.E.E.E.E.E.E.E.E.E.E.E.E.E.E.E.E.",
"E.E.E.E.E.E.E.E.E.E.E.E.E.E.E.E.E.E.E.E.E.E.E.E.E.E.E.+ > q 6 u F f C 9.M.0.M.M.M.M.M.b.F < D l 9 9 5 o E.E.E.E.E.E.E.E.E.E.E.E.E.E.E.E.E.E.E.E.E.E.E.E.E.E.E.E.",
"E.E.E.E.E.E.E.E.E.E.E.E.E.E.E.E.E.E.E.E.E.E.E.E.E.E.E.@ 2 7 7 ; 5 5 I b.M.M.M.M.M.M.M.b.x z < > : 4 1 @ E.E.E.E.E.E.E.E.E.E.E.E.E.E.E.E.E.E.E.E.E.E.E.E.E.E.E.E.",
"E.E.E.E.E.E.E.E.E.E.E.E.E.E.E.E.E.E.E.E.E.E.E.E.E.E.E.@ r B B y N 2.1.m.M.M.M.M.M.M.M.k.! v. . .3.B r @ E.E.E.E.E.E.E.E.E.E.E.E.E.E.E.E.E.E.E.E.E.E.E.E.E.E.E.E.",
"E.E.E.E.E.E.E.E.E.E.E.E.E.E.E.E.E.E.E.E.E.E.E.E.E.E.E.. @ r B -.0.M.8.m.M.M.M.M.M.M.M.m.z.m.M.M.M.-.B @ E.E.E.E.E.E.E.E.E.E.E.E.E.E.E.E.E.E.E.E.E.E.E.E.E.E.E.E.",
"E.E.E.E.E.E.E.E.E.E.E.E.E.E.E.E.E.E.E.E.E.E.E.E.E.E.E.. @ B -.0.M.M.r.M.M.M.M.M.M.M.M.M.M.M.M.M.M.0.B @ E.E.E.E.E.E.E.E.E.E.E.E.E.E.E.E.E.E.E.E.E.E.E.E.E.E.E.E.",
"E.E.E.E.E.E.E.E.E.E.E.E.E.E.E.E.E.E.E.E.E.E.E.E.E.E.E.. @ -.0.M.M.z.d.M.M.M.M.M.M.M.M.M.M.M.M.M.M.0.-.r E.E.E.E.E.E.E.E.E.E.E.E.E.E.E.E.E.E.E.E.E.E.E.E.E.E.E.E.",
"E.E.E.E.E.E.E.E.E.E.E.E.E.E.E.E.E.E.E.E.E.E.E.E.E.E.E.. B 0.M.M.M.k.b.M.M.M.M.M.M.M.M.M.M.M.M.M.M.0.-.r E.E.E.E.E.E.E.E.E.E.E.E.E.E.E.E.E.E.E.E.E.E.E.E.E.E.E.E.",
"E.E.E.E.E.E.E.E.E.E.E.E.E.E.E.E.E.E.E.E.E.E.E.E.E.E.E.@ -.M.M.M.M.M.M.M.M.M.M.R.M.M.M.M.M.M.M.M.M.0.-.r E.E.E.E.E.E.E.E.E.E.E.E.E.E.E.E.E.E.E.E.E.E.E.E.E.E.E.E.",
"E.E.E.E.E.E.E.E.E.E.E.E.E.E.E.E.E.E.E.E.E.E.E.E.E.E.@ r 0.M.M.M.M.M.M.M.M.M.:.R.:.M.M.M.M.M.M.M.M.-.B @ E.E.E.E.E.E.E.E.E.E.E.E.E.E.E.E.E.E.E.E.E.E.E.E.E.E.E.E.",
"E.E.E.E.E.E.E.E.E.E.E.E.E.E.E.E.E.E.E.E.E.E.E.E.E.E.@ B 0.M.M.M.M.M.M.M.M.-.:.R.:.-.0.M.M.M.M.M.M.-.B @ E.E.E.E.E.E.E.E.E.E.E.E.E.E.E.E.E.E.E.E.E.E.E.E.E.E.E.E.",
"E.E.E.E.E.E.E.E.E.E.E.E.E.E.E.E.E.E.E.E.E.E.E.E.E.E.@ B 0.M.M.M.M.M.M.M.M.B R.R.R.B -.0.M.M.M.M.0.B r @ E.E.E.E.E.E.E.E.E.E.E.E.E.E.E.E.E.E.E.E.E.E.E.E.E.E.E.E.",
"E.E.E.E.E.E.E.E.E.E.E.E.E.E.E.E.E.E.E.E.E.E.E.E.E.E.@ B -.0.M.M.M.M.M.M.0.B R.R.R.B B -.0.0.0.0.-.B r @ E.E.E.E.E.E.E.E.E.E.E.E.E.E.E.E.E.E.E.E.E.E.E.E.E.E.E.E.",
"E.E.E.E.E.E.E.E.E.E.E.E.E.E.E.E.E.E.E.E.E.E.E.E.E.E.@ B -.0.M.M.M.M.M.0.-.( R.R.R.:.r B -.-.-.-.B r r @ E.E.E.E.E.E.E.E.E.E.E.E.E.E.E.E.E.E.E.E.E.E.E.E.E.E.E.E.",
"E.E.E.E.E.E.E.E.E.E.E.E.E.E.E.E.E.E.E.E.E.E.E.E.E.E.@ B -.-.0.M.M.M.0.-.B :.R.R.R.:.r r r B B B B r r @ E.E.E.E.E.E.E.E.E.E.E.E.E.E.E.E.E.E.E.E.E.E.E.E.E.E.E.E.",
"E.E.E.E.E.E.E.E.E.E.E.E.E.E.E.E.E.E.E.E.E.E.E.E.E.E.@ r B -.-.0.M.M.-.-.( R.R.R.R.:.@ r r r B B r r r @ E.E.E.E.E.E.E.E.E.E.E.E.E.E.E.E.E.E.E.E.E.E.E.E.E.E.E.E.",
"E.E.E.E.E.E.E.E.E.E.E.E.E.E.E.E.E.E.E.E.E.E.E.E.E.E.@ @ B -.-.-.0.0.-.B ( R.R.R.R.:.@ r r r r r r r @ @ E.E.E.E.E.E.E.E.E.E.E.E.E.E.E.E.E.E.E.E.E.E.E.E.E.E.E.E.",
"E.E.E.E.E.E.E.E.E.E.E.E.E.E.E.E.E.E.E.E.E.E.E.E.E.E.E.@ B -.-.-.-.-.-.B 3 R.R.z.R.R.. @ r r r r r r @ E.E.E.E.E.E.E.E.E.E.E.E.E.E.E.E.E.E.E.E.E.E.E.E.E.E.E.E.E.",
"E.E.E.E.E.E.E.E.E.E.E.E.E.E.E.E.E.E.E.E.E.E.E.E.E.E.E.. r -.-.-.-.-.-.B 3 :.R.:.e.S.;.# O t t r r B @ E.E.E.E.E.E.E.E.E.E.E.E.E.E.E.E.E.E.E.E.E.E.E.E.E.E.E.E.E.",
"E.E.E.E.E.E.E.E.E.E.E.E.E.E.E.E.E.E.E.E.E.E.E.E.E.E.E.. r B -.-.-.-.-.B r 3 :.R.;.o.<.{ @ 2 B r r B @ E.E.E.E.E.E.E.E.E.E.E.E.E.E.E.E.E.E.E.E.E.E.E.E.E.E.E.E.E.",
"E.E.E.E.E.E.E.E.E.E.E.E.E.E.E.E.E.E.E.E.E.E.E.E.E.E.E.E.@ B -.-.-.-.-.B r @ 3 :.R.L.:.k.:.r B r B r . E.E.E.E.E.E.E.E.E.E.E.E.E.E.E.E.E.E.E.E.E.E.E.E.E.E.E.E.E.",
"E.E.E.E.E.E.E.E.E.E.E.E.E.E.E.E.E.E.E.E.E.E.E.E.E.E.E.E.@ r B B -.-.B B r @ E.3 3 :.R.R.z.:.B B B @ . E.E.E.E.E.E.E.E.E.E.E.E.E.E.E.E.E.E.E.E.E.E.E.E.E.E.E.E.E.",
"E.E.E.E.E.E.E.E.E.E.E.E.E.E.E.E.E.E.E.E.E.E.E.E.E.E.E.E.E.@ r B -.-.B B r @ E.E.E.3 :.:.R.z.B B B @ E.E.E.E.E.E.E.E.E.E.E.E.E.E.E.E.E.E.E.E.E.E.E.E.E.E.E.E.E.E.",
"E.E.E.E.E.E.E.E.E.E.E.E.E.E.E.E.E.E.E.E.E.E.E.E.E.E.E.E.E.. r B -.-.B r r @ E.E.E.E.E.3 :.R.B B B @ E.E.E.E.E.E.E.E.E.E.E.E.E.E.E.E.E.E.E.E.E.E.E.E.E.E.E.E.E.E.",
"E.E.E.E.E.E.E.E.E.E.E.E.E.E.E.E.E.E.E.E.E.E.E.E.E.E.E.E.E.. @ B -.-.B r @ E.E.E.E.E.E.E.3 :.B B B @ E.E.E.E.E.E.E.E.E.E.E.E.E.E.E.E.E.E.E.E.E.E.E.E.E.E.E.E.E.E.",
"E.E.E.E.E.E.E.E.E.E.E.E.E.E.E.E.E.E.E.E.E.E.E.E.E.E.E.E.E.E.@ B -.-.-.r @ E.E.E.E.E.E.E.@ 3 r B B @ E.E.E.E.E.E.E.E.E.E.E.E.E.E.E.E.E.E.E.E.E.E.E.E.E.E.E.E.E.E.",
"E.E.E.E.E.E.E.E.E.E.E.E.E.E.E.E.E.E.E.E.E.E.E.E.E.E.E.E.E.E.@ B 0.-.-.r @ E.E.E.E.E.E.E.@ @ r r r r @ E.E.E.E.E.E.E.E.E.E.E.E.E.E.E.E.E.E.E.E.E.E.E.E.E.E.E.E.E.",
"E.E.E.E.E.E.E.E.E.E.E.E.E.E.E.E.E.E.E.E.E.E.E.E.E.E.E.E.E.E.r -.0.0.-.r @ E.E.E.E.E.E.E.E.@ r r r r @ E.E.E.E.E.E.E.E.E.E.E.E.E.E.E.E.E.E.E.E.E.E.E.E.E.E.E.E.E.",
"E.E.E.E.E.E.E.E.E.E.E.E.E.E.E.E.E.E.E.E.E.E.E.E.E.E.E.E.E.E.r -.0.0.0.B @ E.E.E.E.E.E.E.E.@ r r r @ @ E.E.E.E.E.E.E.E.E.E.E.E.E.E.E.E.E.E.E.E.E.E.E.E.E.E.E.E.E.",
"E.E.E.E.E.E.E.E.E.E.E.E.E.E.E.E.E.E.E.E.E.E.E.E.E.E.E.E.E.E.B -.0.0.0.B @ E.E.E.E.E.E.E.E.E.@ @ @ E.E.E.E.E.E.E.E.E.E.E.E.E.E.E.E.E.E.E.E.E.E.E.E.E.E.E.E.E.E.E.",
"E.E.E.E.E.E.E.E.E.E.E.E.E.E.E.E.E.E.E.E.E.E.E.E.E.E.E.E.E.E.B -.0.R.R.-.B @ E.E.E.E.E.E.E.E.E.E.E.E.E.E.E.E.E.E.E.E.E.E.E.E.E.E.E.E.E.E.E.E.E.E.E.E.E.E.E.E.E.E.",
"E.E.E.E.E.E.E.E.E.E.E.E.E.E.E.E.E.E.E.E.E.E.E.E.E.E.E.E.E.E.B -.0.R.R.0.-.@ E.E.E.E.E.E.E.E.E.E.E.E.E.E.E.E.E.E.E.E.E.E.E.E.E.E.E.E.E.E.E.E.E.E.E.E.E.E.E.E.E.E.",
"E.E.E.E.E.E.E.E.E.E.E.E.E.E.E.E.E.E.E.E.E.E.E.E.E.E.E.E.E.E.r -.R.r r R.-.@ E.E.E.E.E.E.E.E.E.E.E.E.E.E.E.E.E.E.E.E.E.E.E.E.E.E.E.E.E.E.E.E.E.E.E.E.E.E.E.E.E.E.",
"E.E.E.E.E.E.E.E.E.E.E.E.E.E.E.E.E.E.E.E.E.E.E.E.E.E.E.E.E.E.r -.r @ @ r B @ E.E.E.E.E.E.E.E.E.E.E.E.E.E.E.E.E.E.E.E.E.E.E.E.E.E.E.E.E.E.E.E.E.E.E.E.E.E.E.E.E.E.",
"E.E.E.E.E.E.E.E.E.E.E.E.E.E.E.E.E.E.E.E.E.E.E.E.E.E.E.E.E.E.@ B @ @ @ @ r @ E.E.E.E.E.E.E.E.E.E.E.E.E.E.E.E.E.E.E.E.E.E.E.E.E.E.E.E.E.E.E.E.E.E.E.E.E.E.E.E.E.E.",
"E.E.E.E.E.E.E.E.E.E.E.E.E.E.E.E.E.E.E.E.E.E.E.E.E.E.E.E.E.E.. r @ @ @ @ . E.E.E.E.E.E.E.E.E.E.E.E.E.E.E.E.E.E.E.E.E.E.E.E.E.E.E.E.E.E.E.E.E.E.E.E.E.E.E.E.E.E.E.",
"E.E.E.E.E.E.E.E.E.E.E.E.E.E.E.E.E.E.E.E.E.E.E.E.E.E.E.E.E.E.. @ @ @ @ @ . E.E.E.E.E.E.E.E.E.E.E.E.E.E.E.E.E.E.E.E.E.E.E.E.E.E.E.E.E.E.E.E.E.E.E.E.E.E.E.E.E.E.E.",
"E.E.E.E.E.E.E.E.E.E.E.E.E.E.E.E.E.E.E.E.E.E.E.E.E.E.E.E.E.E.E.. . . . @ E.E.E.E.E.E.E.E.E.E.E.E.E.E.E.E.E.E.E.E.E.E.E.E.E.E.E.E.E.E.E.E.E.E.E.E.E.E.E.E.E.E.E.E.",
"E.E.E.E.E.E.E.E.E.E.E.E.E.E.E.E.E.E.E.E.E.E.E.E.E.E.E.E.E.E.E.E.E.E.E.E.E.E.E.E.E.E.E.E.E.E.E.E.E.E.E.E.E.E.E.E.E.E.E.E.E.E.E.E.E.E.E.E.E.E.E.E.E.E.E.E.E.E.E.E."
};
