/* XPM */
static char *licdos2[] = {
/* columns rows colors chars-per-pixel */
"80 80 207 2 ",
"   c #6FCA7E",
".  c #55558E",
"X  c #75759A",
"o  c #7575A8",
"O  c #7B7BAE",
"+  c #7C7CAE",
"@  c #7F7FB0",
"#  c #7B809A",
"$  c #7B9597",
"%  c #73AC89",
"&  c #86B89A",
"*  c #8383A3",
"=  c #8989A7",
"-  c #8E8EAD",
";  c #9293AE",
":  c #8787B0",
">  c #8787B5",
",  c #8B8BB3",
"<  c #8D8DB7",
"1  c #8A8AB8",
"2  c #8C8CB8",
"3  c #8F8FB9",
"4  c #8E8EBB",
"5  c #9090B2",
"6  c #9595B1",
"7  c #9797B3",
"8  c #9595B6",
"9  c #9898B4",
"0  c #9999B5",
"q  c #9A9AB6",
"w  c #9D9DB7",
"e  c #9292B9",
"r  c #9191BD",
"t  c #9292BD",
"y  c #9292BE",
"u  c #9393BE",
"i  c #9595BE",
"p  c #9494BF",
"a  c #9999BB",
"s  c #9E9EB8",
"d  c #9F9FBA",
"f  c #94AEAB",
"g  c #98A3B5",
"h  c #A0A1BA",
"j  c #A3A3BD",
"k  c #A5A5BE",
"l  c #A4ABBC",
"z  c #A3BAB6",
"x  c #9BCCAA",
"c  c #9999C2",
"v  c #9E9EC1",
"b  c #A3A3C7",
"n  c #A8A8C0",
"m  c #A9ABC1",
"M  c #A8A8C3",
"N  c #AAAAC2",
"B  c #ABABC3",
"V  c #A9A9C7",
"C  c #ACACC4",
"Z  c #AEAEC4",
"A  c #AFAFC6",
"S  c #A3A3C9",
"D  c #A6A6C9",
"F  c #A9A9CB",
"G  c #A9A9CD",
"H  c #AAAACC",
"J  c #ADADCE",
"K  c #AEAECE",
"L  c #ACB3C1",
"P  c #AFB2C3",
"I  c #B0B0C6",
"U  c #B0BCC3",
"Y  c #B1B1C8",
"T  c #B3B3C9",
"R  c #B3B3CB",
"E  c #B4B4C9",
"W  c #B5B5CA",
"Q  c #B6B6CB",
"!  c #B3B3CE",
"~  c #B6B6CE",
"^  c #B6BBC9",
"/  c #B8B8CC",
"(  c #B9B9CD",
")  c #B9BBCC",
"_  c #BABACD",
"`  c #BABACE",
"'  c #BDBFCF",
"]  c #B3B3D2",
"[  c #B5B5D3",
"{  c #B7B7D5",
"}  c #B9B9D1",
"|  c #BCBCD0",
" . c #BEBED1",
".. c #BFBFD1",
"X. c #BDBDD2",
"o. c #BEBED2",
"O. c #BABAD5",
"+. c #B9B9D7",
"@. c #BABAD6",
"#. c #BBBBD8",
"$. c #BCBCD8",
"%. c #BEBED9",
"&. c #C1C1D3",
"*. c #C2C4D3",
"=. c #C3C3D5",
"-. c #C4C4D5",
";. c #C5C6D5",
":. c #C5C5D6",
">. c #C7C7D7",
",. c #C0C8D0",
"<. c #C5C5DB",
"1. c #C6C6DF",
"2. c #C9C9D9",
"3. c #C8C8DB",
"4. c #C9C9DB",
"5. c #CCCCDB",
"6. c #CDCDDB",
"7. c #CDCDDC",
"8. c #CECEDC",
"9. c #CFCFDD",
"0. c #CDCDDE",
"q. c #CFCFDE",
"w. c #C6D6D0",
"e. c #D0D0DE",
"r. c #D1D1DE",
"t. c #CACAE1",
"y. c #CBCBE2",
"u. c #CDCDE0",
"i. c #CDCDE1",
"p. c #CECEE1",
"a. c #CFCFE4",
"s. c #D3D3E0",
"d. c #D2D2E1",
"f. c #D2D2E3",
"g. c #D4D4E1",
"h. c #D4D4E3",
"j. c #D7D7E3",
"k. c #D2D2E4",
"l. c #D5D5E7",
"z. c #D8D8E4",
"x. c #D9D9E4",
"c. c #D9D9E5",
"v. c #DADAE5",
"b. c #D9D9E6",
"n. c #DBDBE6",
"m. c #DBDBE7",
"M. c #D7D7E8",
"N. c #D9D9E9",
"B. c #DBDBE8",
"V. c #DADAEA",
"C. c #DBDBEB",
"Z. c #DDDDE8",
"A. c #DEDEE8",
"S. c #DCDCEB",
"D. c #DEDEEA",
"F. c #DFDFEA",
"G. c #DBE6E1",
"H. c #E0E0E9",
"J. c #E0E0EB",
"K. c #E2E2EB",
"L. c #E1E1EC",
"P. c #E1E1ED",
"I. c #E3E3EC",
"U. c #E1E1EE",
"Y. c #E2E2EE",
"T. c #E4E4ED",
"R. c #E7E6ED",
"E. c #E4E4EF",
"W. c #E6E6EE",
"Q. c #E7EDED",
"!. c #E8E8EF",
"~. c #E9E9EF",
"^. c #EAEBEF",
"/. c #E4E4F0",
"(. c #E5E5F1",
"). c #E6E6F1",
"_. c #E7E7F1",
"`. c #E7E7F2",
"'. c #E9E9F0",
"]. c #EAEAF1",
"[. c #EBEBF1",
"{. c #E9E9F2",
"}. c #EAEAF3",
"|. c #EDEDF3",
" X c #EEEEF3",
".X c #EAEAF4",
"XX c #EBEBF4",
"oX c #ECECF4",
"OX c #ECECF5",
"+X c #EFEFF5",
"@X c #EEEEF6",
"#X c #F0F0F5",
"$X c #F0F0F7",
"%X c #F2F2F6",
"&X c #F3F3F8",
"*X c #F4F4F8",
"=X c #F5F5F8",
"-X c #F5F5F9",
";X c #F6F6F9",
":X c #F7F7FA",
">X c #F8F8FB",
",X c #FAFAFC",
"<X c #FCFCFD",
"1X c #FDFDFD",
"2X c #FEFEFE",
"3X c gray100",
"4X c None",
/* pixels */
"4X4X4X4X4X4X4X4X4X4X4X4X4X4X4X4X4X4X4X4X4X4X4X4X4X4X4X4X4X4X4X4X4X4X4X4X4X4X4X4X4X4X4X4X4X4X4X4X4X4X4X4X4X4X4X4X4X4X4X4X4X4X4X4X4X4X4X4X4X4X4X4X4X4X4X4X4X4X4X4X",
"4X4X4X4X4X4X4X4X4X4X4X4X4X4X4X4X4X4X4X4X4X4X4X4X4X4X4X4X4X4X4X4X4X4X4X4X4X4X4X4X4X4X4X4X4X4X4X4X4X4X4X4X4X4X4X4X4X4X4X4X4X4X4X4X4X4X4X4X4X4X4X4X4X4X4X4X4X4X4X4X",
"4X4X4X4X4X4X4X4X4X4X4X4X4X4X4X4X4X4X4X4X4X4X4X4X4X4X4X4X4X4X4X4X4X4X4X4X4X4X4X4X4X4X4X4X4X4X4X4X4X4X4X4X4X4X4X4X4X4X4X4X4X4X4X4X4X4X4X4X4X4X4X4X4X4X4X4X4X4X4X4X",
"4X4X4X4X4X4X4X4X4X4X4X4X4X4X4X4X4X4X4X4X4X4X4X4X4X4X4X4X4X4X4X4X4X4X4X4X4X4X4X4X4X4X4X4X4X4X4X4X4X4X4X4X4X4X4X4X4X4X4X4X4X4X4X4X4X4X4X4X4X4X4X4X4X4X4X4X4X4X4X4X",
"4X4X4X4X4X4X4X4X4X4X4X4X4X4X4X4X4X4X4X4X4X4X4X4X4X4X4X4X4X4X4X4X4X4X4X4X4X4X4X4X4X4X4X4X4X4X4X4X4X4X4X4X4X4X4X4X4X4X4X4X4X4X4X4X4X4X4X4X4X4X4X4X4X4X4X4X4X4X4X4X",
"4X4X4X4X4X4X4X4X4X4X4X4X4X4X4X4X4X4X4X4X4X4X4X4X4X4X4X4X4X4X4X4X4X4X4X4X4X4X4X4X4X4X4X4X4X4X4X4X4X4X4X4X4X4X4X4X4X4X4X4X4X4X4X4X4X4X4X4X4X4X4X4X4X4X4X4X4X4X4X4X",
"4X4X4X4X4X4X4X4X4X4X4X4X4X4X4X4X4X4X4X4X4X4X4X4X4X4X4X4X4X4X4X4X4X4X4X4X4X4X4X4X4X4X4X4X4X4X4X4X4X4X4X4X4X4X4X4X4X4X4X4X4X4X4X4X4X4X4X4X4X4X4X4X4X4X4X4X4X4X4X4X",
"4X4X4X4X4X4X4X4X4X4X4X4X4X4X4X4X4X4X4X4X4X4X4X4X4X4X4X4X4X4X4X4X4X4X4X4X4X4X4X4X4X4X4X4X4X4X4X4X4X4X4X4X4X4X4X4X4X4X4X4X4X4X4X4X4X4X4X4X4X4X4X4X4X4X4X4X4X4X4X4X",
"4X4X4X4X4X4X4X4X4X4X4X4X4X4X4X4X4X4X4X4X4X4X4X4X4X4X4X4X4X4X4X4X4X4X4X4X4X4X4X4X4X4X4X4X4X4X4X4X4X4X4X4X4X4X4X4X4X4X4X4X4X4X4X4X4X4X4X4X4X4X4X4X4X4X4X4X4X4X4X4X",
"4X4X4X4X4X4X4X4X4X4X4X4X4X4X4X4X4X4X4X4X4X4X4X4X4X4X4X4X4X4X4X4X4X4X4X4X4X4X4X4X4X4X4X4X4X4X4X4X4X4X4X4X4X4X4X4X4X4X4X4X4X4X4X4X4X4X4X4X4X4X4X4X4X4X4X4X4X4X4X4X",
"4X4X4X4X4X4X4X4X4X4X4X4X4X4X4X4X4X4X4X4X4X4X4X4X4X4X4X4X4X4X4X4X4XO G 4X4X4X4X4X4X4X4X4X4X4XG O 4X4X4X4X4X4X4X4X4X4X4X4X4X4X4X4X4X4X4X4X4X4X4X4X4X4X4X4X4X4X4X4X",
"4X4X4X4X4X4X4X4X4X4X4X4X4X4X4X4X4X4X4X4X4X4X4X4X4X4X4X4X4X4X4X4X4XO y.G 4X4 +.#.4 +.+.4 4XG y.O 4X4X4X4X4X4X4X4X4X4X4X4X4X4X4X4X4X4X4X4X4X4X4X4X4X4X4X4X4X4X4X4X",
"4X4X4X4X4X4X4X4X4X4X4X4X4X4X4X4X4X4X4X4X4X4X4X4X4X4X4X4X4X4X4X4X4XO y.y.G a.2X{.a.`.2Xk.G y.y.O 4X4X4X4X4X4X4X4X4X4X4X4X4X4X4X4X4X4X4X4X4X4X4X4X4X4X4X4X4X4X4X4X",
"4X4X4X4X4X4X4X4X4X4X4X4X4X4X4X4X4X4X4X4X4X4X4X4X4X4X4X4X4X4X4X4X4XO G G a.2X2X2X2X2X2X2Xa.G G O 4X4X4X4X4X4X4X4X4X4X4X4X4X4X4X4X4X4X4X4X4X4X4X4X4X4X4X4X4X4X4X4X",
"4X4X4X4X4X4X4X4X4X4X4X4X4X4X4X4X4X4X4X4X4X4X4X4X4X4X4X4X4X4X4X4X4Xr G #.2X2X2X2X2X2X2X2X2X#.G r 4X4X4X4X4X4X4X4X4X4X4X4X4X4X4X4X4X4X4X4X4X4X4X4X4X4X4X4X4X4X4X4X",
"4X4X4X4X4X4X4X4X4X4X4X4X4X4X4X4X4X4X4X4X4X4X4X4X4X4X4X4X4X4X4X4X4XG +.2X2X2X2X2X2X2X2X2X2X2X+.G 4X4X4X4X4X4X4X4X4X4X4X4X4X4X4X4X4X4X4X4X4X4X4X4X4X4X4X4X4X4X4X4X",
"4X4X4X4X4X4X4X4X4X4X4X4X4X4X4X4X4X4X4X4X4X4X4X4X4X4X4X4X4X4X4X4X4Xr #.2X2X2X2X2X2X2X2X2X2X2X+.r 4X4X4X4X4X4X4X4X4X4X4X4X4X4X4X4X4X4X4X4X4X4X4X4X4X4X4X4X4X4X4X4X",
"4X4X4X4X4X4X4X4X4X4X4X4X4X4X4X4X4X4X4X4X4X4X4X4X4X4X4X4X4X4X4X4X4XO a.2X{.2X2X2X2X2X2X2X{.2Xa.O 4X4X4X4X4X4X4X4X4X4X4X4X4X4X4X4X4X4X4X4X4X4X4X4X4X4X4X4X4X4X4X4X",
"4X4X4X4X4X4X4X4X4X4X4X4X4X4X4X4X4X4X4X4X4X4X4X4X4X4X4X4X4X4X4X4X4XS `.S 2X2X2X{.{.`.2X2X2XS `.S 4X4X4X4X4X4X4X4X4X4X4X4X4X4X4X4X4X4X4X4X4X4X4X4X4X4X4X4X4X4X4X4X",
"4X4X4X4X4X4X4X4X4X4X4X4X4X4X4X4X4X4X4X4X4X4X4X4X4X4X4X4X4X4X4X4X4XS 4 2X2Xk.a.`.`.`.a.k.2X2X4 S 4X4X4X4X4X4X4X4X4X4X4X4X4X4X4X4X4X4X4X4X4X4X4X4X4X4X4X4X4X4X4X4X",
"4X4X4X4X4X4X4X4X4X4X4X4X4X4X4X4X4X4X4X4X4X4X4X4X4X4X4X4X4X4X4X4X4XO +.`.a.`.2X2X2X2X2X{.a.`.#.O 4X4X4X4X4X4X4X4X4X4X4X4X4X4X4X4X4X4X4X4X4X4X4X4X4X4X4X4X4X4X4X4X",
"4X4X4X4X4X4X4X4X4X4X4X4X4X4X4X4X4X4X4X4X4X4X4X4X4X4X4X4X4X4X4X4X4Xr +.a.2X2X{.`.`.`.`.2X2Xa.+.r 4X4X4X4X4X4X4X4X4X4X4X4X4X4X4X4X4X4X4X4X4X4X4X4X4X4X4X4X4X4X4X4X",
"4X4X4X4X4X4X4X4X4X4X4X4X4X4X4X4X4X4X4X4X4X4X4X4X4X4X4X4X4X4X4X4XO 4 S 2X`.a.`.`.a.`.`.a.`.2XS 4 O 4X4X4X4X4X4X4X4X4X4X4X4X4X4X4X4X4X4X4X4X4X4X4X4X4X4X4X4X4X4X4X",
"4X4X4X4X4X4X4X4X4X4X4X4X4X4X4X4X4X4X4X4X4X4X4X4X4X4X4X4X4X4X4X4XO S #.k.S a.`.S #.S `.a.S a.+.S O 4X4X4X4X4X4X4X4X4X4X4X4X4X4X4X4X4X4X4X4X4X4X4X4X4X4X4X4X4X4X4X",
"4X4X4X4X4X4X4X4X4X4X4X4X4X4X4X4X4X4X4X4X4X4X4X4X4X4X4X4X4X4X4X4XO +.S S a.+.S G y.G J #.a.S S { O 4X4X4X4X4X4X4X4X4X4X4X4X4X4X4X4X4X4X4X4X4X4X4X4X4X4X4X4X4X4X4X",
"4X4X4X4X4X4X4X4X4X4X4X4X4X4X4X4X4X4X4X4X4X4X4X4X4X4X4X4X4X4X4X4Xe @ S G G y.y.s.h.V.J.h.D 3.<.W , 4X4X4X4X4X4X4X4X4X4X4X4X4X4X4X4X4X4X4X4X4X4X4X4X4X4X4X4X4X4X4X",
"4X4X4X4X4X4X4X4X4X4X4X4X4X4X4X4X4X4X4X4X4X4X4X4X4X4X4X4X4X4X4Xd <.<.i.y.T <.M.2X,Xh. X{.s.OX^.r.d & 4X4X4X4X4X4X4X4X4X4X4X4X4X4X4X4X4X4X4X4X4X4X4X4X4X4X4X4X4X4X",
"4X4X4X4X4X4X4X4X4X4X4X4X4X4X4X4X4X4X4X4X4X4X4X4X4X4X4X4X4X4X< | F.I.OX{.n m g.R.q.m 2.g.T.{.T.J.Q m 4X4X4X4X4X4X4X4X4X4X4X4X4X4X4X4X4X4X4X4X4X4X4X4X4X4X4X4X4X4X",
"4X4X4X4X4X4X4X4X4X4X4X4X4X4X4X4X4X4X4X4X4X4X4X4X4X4X4X4X4XO V s.R.Z.J.XXq k Q Y 2. X2X2X2Xg.Z.R.5.w 4X4X4X4X4X4X4X4X4X4X4X4X4X4X4X4X4X4X4X4X4X4X4X4X4X4X4X4X4X4X",
"4X4X4X4X4X4X4X4X4X4X4X4X4X4X4X4X4X4X4X4X4X4X4X4X4X4X4X4X4X< | I.R.Z.v.&XV h Z #X2X2X2X2X2Xg.Z.R.H.` a 4X4X4X4X4X4X4X4X4X4X4X4X4X4X4X4X4X4X4X4X4X4X4X4X4X4X4X4X4X",
"4X4X4X4X4X4X4X4X4X4X4X4X4X4X4X4X4X4X4X4X4X4X4X4X4X4X4X4X, ` Z.2X{.Z.k.=X=XOXOXOXOXOX{.2X=Xe.H. X2Xv.Q : 4X4X4X4X4X4X4X4X4X4X4X4X4X4X4X4X4X4X4X4X4X4X4X4X4X4X4X4X",
"4X4X4X4X4X4X4X4X4X4X4X4X4X4X4X4X4X4X4X4X4X4X4X4X4X4X4X4XQ Z.2X2XR.J.=.v.>XOX=X#X&X>X#X2Xg.=.H.{.2X,Xv.T 4X4X4X4X4X4X4X4X4X4X4X4X4X4X4X4X4X4X4X4X4X4X4X4X4X4X4X4X",
"4X4X4X4X4X4X4X4X4X4X4X4X4X4X4X4X4X4X4X4X4X4X4X4X4X4Xz -.H.2X2X#XR.s.Q e.>XI.#X:X>XOX!.>X-.` j.R.=X2X,XZ.=.& 4X4X4X4X4X4X4X4X4X4X4X4X4X4X4X4X4X4X4X4X4X4X4X4X4X4X",
"4X4X4X4X4X4X4X4X4X4X4X4X4X4X4X4X4X4X4X4X4X4X4X4X& -.v.,X2X2X>XR.g.| h /  X`. XOXOXR.!. XT m =.g. X=X2X2X=Xv.-.& 4X4X4X4X4X4X4X4X4X4X4X4X4X4X4X4X4X4X4X4X4X4X4X4X",
"4X4X4X4X4X4X4X4X4X4X4X4X4X4X4X4X4X4X4X4X4X& & -.v.#X2X2X2X=X[.I.Z.-.d Q R.XX{.XXOX{.OXI.V h >.n.E.OX=X2X2X2X{.v.=.& & 4X4X4X4X4X4X4X4X4X4X4X4X4X4X4X4X4X4X4X4X4X",
"4X4X4X4X4X4X4X4X4X4X4X4X4X4X4X4X4X4X4Xf U v.=X2X2X2X2X,X&X=XA.n.R.n.; Y `.OXOXOXOXOXOXV.w q n.^.g.R.=X#X>X2X2X2X2X#Xg.U & 4X4X4X4X4X4X4X4X4X4X4X4X4X4X4X4X4X4X4X",
"4X4X4X4X4X4X4X4X4X4X4X4X4X4X4X4X4X4Xf v.2X2X2X2X2X2XOX=XR.:XZ.>.R.R.C =.`.OXOXOXOXOXOXI.j ` R.I.-.I.=XR.#X#X2X2X2X2X2X2Xg.& 4X4X4X4X4X4X4X4X4X4X4X4X4X4X4X4X4X4X",
"4X4X4X4X4X4X4X4X4X4X4X4X4X4X4X4X4X& Z.2X2X2X2X2X2X,X X#XH.:XI.3.g.H.` h.{.OXOXOXOXOXOX`./ | H.s.2.^.=XH.=X X,X2X2X2X2X2X2Xv.4X4X4X4X4X4X4X4X4X4X4X4X4X4X4X4X4X4X",
"4X4X4X4X4X4X4X4X4X4X4X4X4X4X4X4X& Z.2X2X2X2X=X2X2X=X{.#Xe.=X+Xr.C j d g.OXOXOXOXOXOXOX`.` 6 j C j.#X#Xe.=XR.>X2X2X,X2X2X2X2Xv.4X4X4X4X4X4X4X4X4X4X4X4X4X4X4X4X4X",
"4X4X4X4X4X4X4X4X4X4X4X4X4X4X4X4X0.2X2X=X2X2X,X:X,X^.I.=X>.n.[.r.C ` Z.H.OXOXOXOXOXOXOX!.V.s.T Y j.{.j.2.>XH. X,X=X>X2X2X=X2X2X-.4X4X4X4X4X4X4X4X4X4X4X4X4X4X4X4X",
"4X4X4X4X4X4X4X4X4X4X4X4X4X4X4X&  X2X2X=X2X2X{.#X&Xn.H.&X..h.^.h.Q OXZ.V.OXOXOXC.OXC.OXOX0.R.OXT j.R.0.=.>Xv.I.#XOX X2X2X=X2X2XR.& 4X4X4X4X4X4X4X4X4X4X4X4X4X4X4X",
"4X4X4X4X4X4X4X4X4X4X4X4X4X4X& R.2X2X=X#X,X Xs. X=Xn.H.:Xh...[.j.6 E.g.{.OXOXOXC.C.C.OXOX`.` I.- Z.{.` v.=Xv.T.=X{.g.#X>X#X,X2X2XH.& 4X4X4X4X4X4X4X4X4X4X4X4X4X4X",
"4X4X4X4X4X4X4X4X4X4X4X4X4X& R.2X2X2X{.#X&X X0. X=Xn.J.:XA.k Z B j s.XXOXOXOXOXC.C.C.OXOXOXF.<.h C m m I.>Xv.H.=XR.e. X=X X X2X2X2XZ.4X4X4X4X4X4X4X4X4X4X4X4X4X4X",
"4X4X4X4X4X4X4X4X4X4X4X4X4XH.2X2X2X2X{. X#X Xs.H.[.>.r.=XA.9 X 6 } y.C.C.OXOXOXOXOXOXV.OXV.V.!.0.h # j R.=X>.5.^.n.g. X#X X{.2X2X2X2Xn.4X4X4X4X4X4X4X4X4X4X4X4X4X",
"4X4X4X4X4X4X4X4X4X4X4X4XH.2X2X2X=X=XZ.I.I.H.2.v.T.-.5.`.g.q - | k.C.OXOXOXOXOXOXOXOXOXOXOXC.y.y.y.v k v.{.-.5.I.j.>.H.E.H.n.>X=X2X2X2Xg.4X4X4X4X4X4X4X4X4X4X4X4X",
"4X4X4X4X4X4X4X4X4X4X4X0.2X2X2X&X$XF.5.H.R.g.C e.j.| >.Z.2.d } C.OXOXOXOXOXOXOXOXOXOXOXOXOXOXC.y.G G D >.n.=.-.j.2.Y Z.R.Z.0.R.#X=X2X2X2X-.4X4X4X4X4X4X4X4X4X4X4X",
"4X4X4X4X4X4X4X4X4X4X-.I.{.2X1Xz.E.g.e.R.R.n.T e.v.-.C Q m ! a.OXOXOXOXOXOXOXOXOXOXOXOXOXOXOXOXC.y.G u a Q Z 2.n.5.Q H.R.H.0.g.!.g.2X2XR.H.=.4X4X4X4X4X4X4X4X4X4X",
"4X4X4X4X4X4X4X4X4X=.I.R.s.R.G.5.j.j.` z.Z.>.C g.j.=.m d M ] C.OXOXOXOXOXOXOXOXOXOXOXOXOXOXOXOXOXC.y.G < 9 m -.g.0.m 2.n.g.| v.h.5.R.H.j.R.J...4X4X4X4X4X4X4X4X4X",
"4X4X4X4X4X4X4X4X=.n.R.v.q.j.e.5.v.0.Y g.v.=.* -.e.| B f D i.V.OXOXOXOXOXOXOXOXOXOXOXOXOXOXOXOXOXXXC.y., 5 m -.e.` = >.n.9.Y r.j.0.r.j.9.n.^.n.) 4X4X4X4X4X4X4X4X",
"4X4X4X4X4X4XL =.I.R.j.e.j.j.Q j.v.` m j.j.=.$ h / W w 4Xr y.C.OXOXOXOXOXOXOXOXOXOXOXOXOXOXOXOXOXOXOXC.G 8 s W Q q $ 2.n.r.B =.n.g.T m.j.e.g.{.Z...L 4X4X4X4X4X4X",
"4X4X4X4Xz ..n.[.H.e.| n.j.5./ g.g.Q Z v.n.-.4X4X4X% & 4Xr y.C.OXOXOXOXOXOXOXOXOX2XOXOXOXOXOXOXOXOXOXOXy.a l % 4X4X4X2.j.r.B / j.j./ e.j.j.` g.R.{.j.) & 4X4X4X4X",
"4X4X4Xx j.{.R.e.| | j.j.j.Y e.j.2.  z g.g.m 4X4X4X4X4X4XO G y.OXOXOXOXOXOXOXOXa.2Xa.OXOXOXOXOXOXOXOXXXC.u m 4X4X4X4XT h.e.f & 5.g.2.T v.j.j.` ' j.^.{.g.& 4X4X4X",
"4X4X4Xv.OXj.' W | j.j.j.-.` j.j.| 4X% =.2.; 4X4X4X4X4X4XO G y.OXOXOXOXOXOXC.y.a.2Xk.y.OXOXOXOXOXOXOXOXC.H 7 4X4X4X4Xw 5.` % 4X=.j.g.` >.j.j.r.` W =.v.#X5.4X4X4X",
"4X4X4Xx =./ | e.n.j.j.>.m 5.v.q.4X4X4X= - 4X4X4X4X4X4X4XO r G C.OXOXOXOXC.y.G 2X2X2XG OXOXOXOXOXOXOXOXC.G 5 4X4X4X4X4X- * 4X4X& r.v.-.m 5.j.j.m.5.' Q =.4X4X4X4X",
"4X4X4X4X4X4Xg.v.j.5./ B ' j.j.-.4X4X4X4X4X4X4X4X4X4X4X4XO r G y.C.C.C.C.y.G G 2X2X2XG C.OXOXOXOXOXOXC.y.G O 4X4X4X4X4X4X4X4X4X4X>.m.g.Q Z Q e.j.z.q.4X4X4X4X4X4X",
"4X4X4X4X4X4XU 0.U z 4X4X..r.0.4X4X4X4X4X4X4X4X4X4X4X+.>XO r r G y.y.y.y.G r k.2X2X2X#.y.C.OXOXOXOXOXC.y.G O 4X4X4X4X4X4X4X4X4X4X& r.g.^ 4X& z / 5.L 4X4X4X4X4X4X",
"4X4X4X4X4X4X4X& 4X4X4X4X4X& 4X4X4X4X4X4X4X4X4X4X4X4Xi.&XO r r G G G G r r r a.2X2X2Xk.G y.V.OXOXOXC.y.y.G O 4X4X4X4X4X4X4X4X4X4X4X& & 4X4X4X4X4X& 4X4X4X4X4X4X4X",
"4X4X4X4X4X4X4X4X4X4X4X4X4X4X4X4X4X4X4X4X4X4X4X4X4X4X%.I.O r r r G G r r r O k.2X2X2X2X#.y.y.OXOXC.y.y.G r O 4X4X4X4X4X4X4X4X4X4X4X4X4X4X4X4X4X4X4X4X4X4X4X4X4X4X",
"4X4X4X4X4X4X4X4X4X4X4X4X4X4X4X4X4X4X4X4X4X4X4X4X4X4X+.0.O O r r r r r r r + a.2X2X2X2X#.G y.C.C.y.y.y.G O O 4X4X4X4X4X4X4X4X4X4X4X4X4X4X4X4X4X4X4X4X4X4X4X4X4X4X",
"4X4X4X4X4X4X4X4X4X4X4X4X4X4X4X4X4X4X4X4X4X4X4X4X4Xs.v.v.=XO r r r r r r O . 2X2X{.2X2X4 G y.y.y.y.y.y.G O 4X4X4X4X4X4X4X4X4X4X4X4X4X4X4X4X4X4X4X4X4X4X4X4X4X4X4X",
"4X4X4X4X4X4X4X4X4X4X4X4X4X4X4X4X4X4X4X4X4X4X4Xw.{. X-. Xv.O G 4 r r r O O a.2X`.k.2Xi.4 G y.y.y.y.y.y.r . 4X4X4X4X4X4X4X4X4X4X4X4X4X4X4X4X4X4X4X4X4X4X4X4X4X4X4X",
"4X4X4X4X4X4X4X4X4X4X4X4X4X4X4X4X4X4X4X4X4X4XQ.2X{.j.0.OXZ.O G r r G r O a.v.a.a.2Xa.e r G y.y.y.y.y.G r . 4X4X4X4X4X4X4X4X4X4X4X4X4X4X4X4X4X4X4X4X4X4X4X4X4X4X4X",
"4X4X4X4X4X4X4X4X4X4X4X4X4X4X4X4X4X4X4X4X4XG.=X^.Z.T I.`.`.. r G r G r a.`.a.2X2Xa.4 O r G y.y.y.y.y.G O 4X4X4X4X4X4X4X4X4X4X4X4X4X4X4X4X4X4X4X4X4X4X4X4X4X4X4X4X",
"4X4X4X4X4X4X4X4X4X4X4X4X4X4X4X4X4X4X4X4Xv. Xm.e.| 2.{.OXOX. O G G G a.`.2X2Xk.4 4 4XO r G G y.y.G G r O 4X4X4X4X4X4X4X4X4X4X4X4X4X4X4X4X4X4X4X4X4X4X4X4X4X4X4X4X",
"4X4X4X4X4X4X4X4X4X4X4X4X4X4X4X4X4X4X4Xe.g.5.,.P g Z.OXOXOXOXO G G G `.2Xa.a.4 4X4X4XO r G G y.y.G r O 4X4X4X4X4X4X4X4X4X4X4X4X4X4X4X4X4X4X4X4X4X4X4X4X4X4X4X4X4X",
"4X4X4X4X4X4X4X4X4X4X4X4X4X4X4X4X4X4X4X-.*.0.4X4X4X%.C.N.V.OXO G G G 2Xk.4 4X4X4X4X4XO r r G y.y.G r . 4X4X4X4X4X4X4X4X4X4X4X4X4X4X4X4X4X4X4X4X4X4X4X4X4X4X4X4X4X",
"4X4X4X4X4X4X4X4X4X4X4X4X4X4X4X4X4X4X4X4X4X4X4X4X4Xr u s.l.N.O G G G a.4 4X4X4X4X4X4X4XO r G y.y.G O . 4X4X4X4X4X4X4X4X4X4X4X4X4X4X4X4X4X4X4X4X4X4X4X4X4X4X4X4X4X",
"4X4X4X4X4X4X4X4X4X4X4X4X4X4X4X4X4X4X4X4X4X4X4X4X4X4 J V.S <.O G G r 4 O 4X4X4X4X4X4X4XO r y.y.y.G O 4X4X4X4X4X4X4X4X4X4X4X4X4X4X4X4X4X4X4X4X4X4X4X4X4X4X4X4X4X4X",
"4X4X4X4X4X4X4X4X4X4X4X4X4X4X4X4X4X4X4X4X4X4X4X4X4Xc +.4X1 O r r r r O O 4X4X4X4X4X4X4XO r y.y.C.G O 4X4X4X4X4X4X4X4X4X4X4X4X4X4X4X4X4X4X4X4X4X4X4X4X4X4X4X4X4X4X",
"4X4X4X4X4X4X4X4X4X4X4X4X4X4X4X4X4X4X4X4X4X4X4X4X4X> 4X4X4XO r r r r O 4X4X4X4X4X4X4X4XO r y.C.C.y.r 4X4X4X4X4X4X4X4X4X4X4X4X4X4X4X4X4X4X4X4X4X4X4X4X4X4X4X4X4X4X",
"4X4X4X4X4X4X4X4X4X4X4X4X4X4X4X4X4X4X4X4X4X4X4X4X4X4X4X4XG O O r r r O 4X4X4X4X4X4X4X4XO G C.C.C.y.r 4X4X4X4X4X4X4X4X4X4X4X4X4X4X4X4X4X4X4X4X4X4X4X4X4X4X4X4X4X4X",
"4X4X4X4X4X4X4X4X4X4X4X4X4X4X4X4X4X4X4X4X4X4X4X4X4X4X4X4X4Xo 4XO O O 4X4X4X4X4X4X4X4X4XO G C.C.C.y.G 4X4X4X4X4X4X4X4X4X4X4X4X4X4X4X4X4X4X4X4X4X4X4X4X4X4X4X4X4X4X",
"4X4X4X4X4X4X4X4X4X4X4X4X4X4X4X4X4X4X4X4X4X4X4X4X4X4X4X4X4X4X4X4X4X4X4X4X4X4X4X4X4X4XO G i.2X2XC.y.G 4X4X4X4X4X4X4X4X4X4X4X4X4X4X4X4X4X4X4X4X4X4X4X4X4X4X4X4X4X4X",
"4X4X4X4X4X4X4X4X4X4X4X4X4X4X4X4X4X4X4X4X4X4X4X4X4X4X4X4X4X4X4X4X4X4X4X4X4X4X4X4X4X4XO y.C.2X2XF.y.G 4X4X4X4X4X4X4X4X4X4X4X4X4X4X4X4X4X4X4X4X4X4X4X4X4X4X4X4X4X4X",
"4X4X4X4X4X4X4X4X4X4X4X4X4X4X4X4X4X4X4X4X4X4X4X4X4X4X4X4X4X4X4X4X4X4X4X4X4X4X4X4X4X4XO y.2Xr r 2Xy.r 4X4X4X4X4X4X4X4X4X4X4X4X4X4X4X4X4X4X4X4X4X4X4X4X4X4X4X4X4X4X",
"4X4X4X4X4X4X4X4X4X4X4X4X4X4X4X4X4X4X4X4X4X4X4X4X4X4X4X4X4X4X4X4X4X4X4X4X4X4X4X4X4X4XO G r O O r y.r 4X4X4X4X4X4X4X4X4X4X4X4X4X4X4X4X4X4X4X4X4X4X4X4X4X4X4X4X4X4X",
"4X4X4X4X4X4X4X4X4X4X4X4X4X4X4X4X4X4X4X4X4X4X4X4X4X4X4X4X4X4X4X4X4X4X4X4X4X4X4X4X4X4XO r O O O O G O 4X4X4X4X4X4X4X4X4X4X4X4X4X4X4X4X4X4X4X4X4X4X4X4X4X4X4X4X4X4X",
"4X4X4X4X4X4X4X4X4X4X4X4X4X4X4X4X4X4X4X4X4X4X4X4X4X4X4X4X4X4X4X4X4X4X4X4X4X4X4X4X4X4X4X. O O O O r . 4X4X4X4X4X4X4X4X4X4X4X4X4X4X4X4X4X4X4X4X4X4X4X4X4X4X4X4X4X4X",
"4X4X4X4X4X4X4X4X4X4X4X4X4X4X4X4X4X4X4X4X4X4X4X4X4X4X4X4X4X4X4X4X4X4X4X4X4X4X4X4X4X4X4X. O O O O O . 4X4X4X4X4X4X4X4X4X4X4X4X4X4X4X4X4X4X4X4X4X4X4X4X4X4X4X4X4X4X",
"4X4X4X4X4X4X4X4X4X4X4X4X4X4X4X4X4X4X4X4X4X4X4X4X4X4X4X4X4X4X4X4X4X4X4X4X4X4X4X4X4X4X4X4XO . . . . 4X4X4X4X4X4X4X4X4X4X4X4X4X4X4X4X4X4X4X4X4X4X4X4X4X4X4X4X4X4X4X"
};
