/* XPM */
static char *licdos[] = {
/* columns rows colors chars-per-pixel */
"80 80 156 2 ",
"   c #59C768",
".  c #54548D",
"X  c #55558E",
"o  c #696998",
"O  c #7B7BA5",
"+  c #7979AC",
"@  c #7B7BAD",
"#  c #7B7BAE",
"$  c #7C7CAE",
"%  c #7F7FB0",
"&  c #7B809A",
"*  c #73AC89",
"=  c #86B89A",
"-  c #8383A3",
";  c #8989A7",
":  c #8383AC",
">  c #8E8EAD",
",  c #8B9CA5",
"<  c #9293AE",
"1  c #8080B1",
"2  c #8787B0",
"3  c #8B8BB3",
"4  c #8F8FB9",
"5  c #8E8EBB",
"6  c #9595B1",
"7  c #9797B3",
"8  c #9595B6",
"9  c #9999B5",
"0  c #9A9AB6",
"q  c #9D9DB7",
"w  c #9595B9",
"e  c #9090BC",
"r  c #9191BD",
"t  c #9292BD",
"y  c #9E9EB8",
"u  c #94AEAB",
"i  c #97A2B0",
"p  c #9EABB6",
"a  c #A0A1BA",
"s  c #A3A3BD",
"d  c #A5A5BE",
"f  c #A4ABBC",
"g  c #A7ADBE",
"h  c #9BCCAA",
"j  c #9E9EC1",
"k  c #A3A3C3",
"l  c #A8A8C0",
"z  c #A8A8C3",
"x  c #AAAAC2",
"c  c #ABABC3",
"v  c #A9A9C7",
"b  c #ACACC4",
"n  c #AEAEC4",
"m  c #ACACC7",
"M  c #AFAFC6",
"N  c #A3A3C9",
"B  c #A6A6C9",
"V  c #A9A9CB",
"C  c #A8A8CC",
"Z  c #A9A9CD",
"A  c #ABABCD",
"S  c #ABABCE",
"D  c #ADADCE",
"F  c #ACB3C1",
"G  c #B0B0C6",
"H  c #B0BCC3",
"J  c #B1B1C8",
"K  c #B3B3C9",
"L  c #B6B6CB",
"P  c #B8B8CC",
"I  c #B9B9CD",
"U  c #BABACE",
"Y  c #B3B3D2",
"T  c #B7B7D5",
"R  c #BCBCD0",
"E  c #BEBED1",
"W  c #BBBBD4",
"Q  c #B9B9D7",
"!  c #BFBFD7",
"~  c #BCBCD8",
"^  c #B3CCC2",
"/  c #B7C0C9",
"(  c #BFC8D0",
")  c #C1C1D3",
"_  c #C2C2D4",
"`  c #C3C3D5",
"'  c #C4C4D5",
"]  c #C5C5D6",
"[  c #C7C7D7",
"{  c #C5C5DB",
"}  c #C9C9D9",
"|  c #C8C8DB",
" . c #CACADA",
".. c #CBCBDB",
"X. c #CCCCDB",
"o. c #C8C8DE",
"O. c #C8C8DF",
"+. c #CDCDDC",
"@. c #CFCFDD",
"#. c #CDCDDE",
"$. c #CFCFDF",
"%. c #D0D0DE",
"&. c #CACAE1",
"*. c #CBCBE2",
"=. c #CECEE1",
"-. c #CFCFE4",
";. c #D3D3E0",
":. c #D4D4E1",
">. c #D4D7E0",
",. c #D4D4E3",
"<. c #D7D7E3",
"1. c #D2D2E4",
"2. c #D8D8E5",
"3. c #DADAE5",
"4. c #DBDBE6",
"5. c #D7D7E8",
"6. c #D8D8E9",
"7. c #DBDBE8",
"8. c #DADAEA",
"9. c #DBDBEB",
"0. c #DCDCE8",
"q. c #DDDDE8",
"w. c #DEDEE8",
"e. c #DDDDEB",
"r. c #DFDFEA",
"t. c #E0E0E9",
"y. c #E0E0EB",
"u. c #E2E2EB",
"i. c #E1E1EC",
"p. c #E3E3EC",
"a. c #E2E2EE",
"s. c #E7E6ED",
"d. c #E4E4EF",
"f. c #E6E6EE",
"g. c #E5E5F1",
"h. c #E7E7F2",
"j. c #E9E9F0",
"k. c #EAEAF1",
"l. c #EAEAF3",
"z. c #EDEDF3",
"x. c #EBEBF4",
"c. c #ECECF5",
"v. c #EDEDF5",
"b. c #EFEFF5",
"n. c #F0F0F5",
"m. c #F0F0F7",
"M. c #F2F2F6",
"N. c #F4F4F8",
"B. c #F5F5F9",
"V. c #F6F6F9",
"C. c #F8F8FB",
"Z. c #FAFAFC",
"A. c #FDFDFD",
"S. c #FEFEFE",
"D. c gray100",
"F. c None",
/* pixels */
"F.F.F.F.F.F.F.F.F.F.F.F.F.F.F.F.F.F.F.F.F.F.F.F.F.F.F.F.F.F.F.F.F.F.F.F.F.F.F.F.F.F.F.F.F.F.F.F.F.F.F.F.F.F.F.F.F.F.F.F.F.F.F.F.F.F.F.F.F.F.F.F.F.F.F.F.F.F.F.F.",
"F.F.F.F.F.F.F.F.F.F.F.F.F.F.F.F.F.F.F.F.F.F.F.F.F.F.F.F.F.F.F.F.F.F.F.F.F.F.F.F.F.F.F.F.F.F.F.F.F.F.F.F.F.F.F.F.F.F.F.F.F.F.F.F.F.F.F.F.F.F.F.F.F.F.F.F.F.F.F.F.",
"F.F.F.F.F.F.F.F.F.F.F.F.F.F.F.F.F.F.F.F.F.F.F.F.F.F.F.F.F.F.F.F.F.F.F.F.F.F.F.F.F.F.F.F.F.F.F.F.F.F.F.F.F.F.F.F.F.F.F.F.F.F.F.F.F.F.F.F.F.F.F.F.F.F.F.F.F.F.F.F.",
"F.F.F.F.F.F.F.F.F.F.F.F.F.F.F.F.F.F.F.F.F.F.F.F.F.F.F.F.F.F.F.F.F.F.F.F.F.F.F.F.F.F.F.F.F.F.F.F.F.F.F.F.F.F.F.F.F.F.F.F.F.F.F.F.F.F.F.F.F.F.F.F.F.F.F.F.F.F.F.F.",
"F.F.F.F.F.F.F.F.F.F.F.F.F.F.F.F.F.F.F.F.F.F.F.F.F.F.F.F.F.F.F.F.F.F.F.F.F.F.F.F.F.F.F.F.F.F.F.F.F.F.F.F.F.F.F.F.F.F.F.F.F.F.F.F.F.F.F.F.F.F.F.F.F.F.F.F.F.F.F.F.",
"F.F.F.F.F.F.F.F.F.F.F.F.F.F.F.F.F.F.F.F.F.F.F.F.F.F.F.F.F.F.F.F.F.F.F.F.F.F.F.F.F.F.F.F.F.F.F.F.F.F.F.F.F.F.F.F.F.F.F.F.F.F.F.F.F.F.F.F.F.F.F.F.F.F.F.F.F.F.F.F.",
"F.F.F.F.F.F.F.F.F.F.F.F.F.F.F.F.F.F.F.F.F.F.F.F.F.F.F.F.F.F.F.F.F.# Z F.F.F.F.F.F.F.F.F.F.F.Z # F.F.F.F.F.F.F.F.F.F.F.F.F.F.F.F.F.F.F.F.F.F.F.F.F.F.F.F.F.F.F.F.",
"F.F.F.F.F.F.F.F.F.F.F.F.F.F.F.F.F.F.F.F.F.F.F.F.F.F.F.F.F.F.F.F.F.# *.Z F.5 Q Q 5 Q Q 5 F.Z *.# F.F.F.F.F.F.F.F.F.F.F.F.F.F.F.F.F.F.F.F.F.F.F.F.F.F.F.F.F.F.F.F.",
"F.F.F.F.F.F.F.F.F.F.F.F.F.F.F.F.F.F.F.F.F.F.F.F.F.F.F.F.F.F.F.F.F.# *.*.Z -.D.h.-.h.D.-.Z *.*.# F.F.F.F.F.F.F.F.F.F.F.F.F.F.F.F.F.F.F.F.F.F.F.F.F.F.F.F.F.F.F.F.",
"F.F.F.F.F.F.F.F.F.F.F.F.F.F.F.F.F.F.F.F.F.F.F.F.F.F.F.F.F.F.F.F.F.# Z Z -.D.D.D.D.D.D.D.-.Z Z # F.F.F.F.F.F.F.F.F.F.F.F.F.F.F.F.F.F.F.F.F.F.F.F.F.F.F.F.F.F.F.F.",
"F.F.F.F.F.F.F.F.F.F.F.F.F.F.F.F.F.F.F.F.F.F.F.F.F.F.F.F.F.F.F.F.F.r Z Q D.D.D.D.D.D.D.D.D.Q Z r F.F.F.F.F.F.F.F.F.F.F.F.F.F.F.F.F.F.F.F.F.F.F.F.F.F.F.F.F.F.F.F.",
"F.F.F.F.F.F.F.F.F.F.F.F.F.F.F.F.F.F.F.F.F.F.F.F.F.F.F.F.F.F.F.F.F.Z Z -.D.D.D.D.D.D.D.D.D.1.Z Z F.F.F.F.F.F.F.F.F.F.F.F.F.F.F.F.F.F.F.F.F.F.F.F.F.F.F.F.F.F.F.F.",
"F.F.F.F.F.F.F.F.h h h ^ ^ ^ ^ ^ ^ h h h F.F.F.F.F.F.F.F.F.F.F.F.F.r N h.D.D.D.D.D.D.D.D.D.h.N r F.F.F.F.F.F.F.F.F.F.F.F.h h h ^ ^ ^ ^ ^ ^ h h h F.F.F.F.F.F.F.F.",
"F.F.F.F./ / / >.p.j.D.D.D.D.D.D.D.D.D.n.%./ F.F.F.F.F.F.F.F.F.F.F.r Q D.h.D.D.D.D.D.D.D.h.D.Q r F.F.F.F.F.F.F.F.F.F./ +.n.D.D.D.D.D.D.D.D.D.j.p.>.' / / F.F.F.F.",
"F.F.[ ..w.z.C.D.D.D.C.n.n.n.N.N.C.D.D.D.M.<.U F.F.F.F.F.F.F.F.F.F.$ -.h.-.D.D.D.D.D.D.D.-.h.-.$ F.F.F.F.F.F.F.F.F.P <.n.D.D.D.C.N.N.n.n.z.V.D.D.D.V.z.t.O.[ F.F.",
"F.F.<.z.C.D.N.t.[ P G E +.3.p.p.z.D.D.D.D.j.l F.F.F.F.F.F.F.F.F.F.% h.N D.D.h.D.D.D.h.D.D.N h.3 F.F.F.F.F.F.F.F.F.d p.D.D.D.D.n.s.t.q.+.` G P [ w.V.C.D.b.w.F.F.",
"F.F.J ) E J s a l P [ p.N.D.D.D.D.D.D.D.D.+.F.F.F.F.F.F.F.F.F.F.F.1 5 -.D.h.D.D.h.D.D.h.D.-.5 3 F.F.F.F.F.F.F.F.F.F...Z.D.D.D.D.D.D.D.N.p...L l a s M E ` L F.F.",
"F.F.F.F.> l [ +.w.n.D.N.z.3.q.p.z.D.D.D.D.J F.F.F.F.F.F.F.F.F.F.F.# -.h.N D.D.-.h.-.D.D.N h.=.1 F.F.F.F.F.F.F.F.F.F.n C.D.D.D.n.p.4.w.j.C.A.N.t.@.[ l < * F.F.F.",
"F.F.F.u +.t.j.j.p.s.:.[ [ +.n.N.C.D.D.D.C.[ F.F.F.F.F.F.F.F.F.F.F.r 5 N D.D.-.h.D.h.-.D.D.N 4 r F.F.F.F.F.F.F.F.F.F.[ N.D.D.D.D.C.n.<.) [ %.p.s.j.j.t.@.u F.F.F.",
"F.F.f 3.j.p.3.[ n s ) +.b.D.D.D.D.D.N.N.n.w.p F.F.F.F.F.F.F.F.F.# 5 N Q h.-.h.h.-.h.h.-.h.Q N 5 $ F.F.F.F.F.F.F.F.p 3.b.n.N.D.D.D.D.D.n.@.) d l [ q.p.j.w.f F.F.",
"F.F.u +.3.L a a E 3.n.b.N.N.s.4.<.t.n.n.N.n.<.f F.F.F.F.F.F.F.F.# N Q -.N -.h.N Q N h.-.N *.T N $ F.F.F.F.F.F.F.i <.z.N.n.n.p.q.q.p.C.n.n.n.3.) a a J <.%.p F.F.",
"F.F.F.* 0 n +.p.j.p.3...[ E ` <.z.C.N.N.N.N.z.<.n = F.F.F.F.F.F.# 5 N N -.T N Z *.Z N Q -.v j 5 # F.F.F.F.F.* l %.z.N.n.N.n.C.n.3.[ E [ ..3.s.j.p.+.n y , F.F.F.",
"F.F.F.F...j.j.p.4.P s l [ 3.b.C.N.t.z.N.n.N.n.z.z.%.G F.F.F.F.F.o l Y Q N *.*.9.9.9.*.*.~ +.c k X F.F.F.F.G +.b.n.N.n.N.N.z.t.n.C.z.<...l d L 4.p.j.j.+.* F.F.F.",
"F.F.F.L t.j.t.` a s K 2.t.b.n.4.+.q.n.N.N.n.N.z.z.j.p...L f F.O l %...-.*.9.9.9.9.9.9.9.3.%.4.c 3 O p J ..p.j.j.z.n.N.n.N.n.w.+.3.n.n.t.3.L s a E w.j.t.E F.F.F.",
"F.F.F.G [ J l s K <.u.k.t.+.M E q.M.z.q.j.N.z.q.%.q.p.z.s.%.U J ;.;.s =.7.7.p.e.e.1.%.:.@.s %.3.K P :.p.k.s.t.%.4.j.N.z.q.z.N.t.` G +.q.j.t.<.P s l G [ J F.F.F.",
"F.F.F.F.a F.y %.p.j.u.+.J 0 E t.n.s.%.j.n.z.3.+...+.%.<.s.p.p.<.R s y  .E X.4.4.7.<.#.L +.a q P <.p.s.p.<.<.@.} +.q.z.n.j.%.p.n.p.E q n +.p.s.p.2.a F.a F.F.F.F.",
"F.F.F.F.F., [ j.t.X.P 0 n +.p.s.3.) s.N.p.` E +.[ +.+.+.+.<.<.<.( l s ) U t.k.#.+.p.p.P ) l d ) <.<.<.@.X.X.X.} +.) E t.n.j.' <.p.h.+.n 0 L ..q.j...u F.F.F.F.F.",
"F.F.F.F.F.* P [ u , s [ q.k.t.[ U <.j.u.P G [ X.) %.%...[ +.+.+.#.z s P ) n.D.q.3.D.N.[ L d l +.X.X.X.} ..@.:.` X.[ L L w.j.<.E [ w.j.w...s , = ..P = F.F.F.F.F.",
"F.F.F.F.F.F.F.F.F.= ..j.p.:.G l <.j.p.P s +.+...) %.+.E +.@.+.+.[ c n [ <.D.D.D.D.D.D.w.[ M c [ X.X.@.#.E @.<.E [ X.@.s P t.j.3.l n ;.p.j.+.u F.F.F.F.F.F.F.F.F.",
"F.F.F.F.F.F.F.F.F.` w.p.[   , %.j.s.U 7 E >.,.P [ q.[ I <.%.[ +.) c K <.N.D.D.D.D.D.D.N.<.P c E X.[ @.<.P E 4.[ L :.2.E 7 I s.j.<.,   ` t.q.[ * F.F.F.F.F.F.F.F.",
"F.F.F.F.F.F.F.F.F.E [ n F.F.H p.s.) 7 s ;.<.` n %.q.I P <.%.' +.` M P w.D.D.D.D.D.D.D.D.u.U M ) +.` +.<.E P <.:.M E <.:.f 7 P s.p./ F.F.n [ ` * F.F.F.F.F.F.F.F.",
"F.F.F.F.F.F.F.F.F.u i F.F.p 3.w.' F.* ..3...y J <.%.G [ <.[ P %.L s ) q.D.C.D.Z.Z.D.C.D.t.` s J @.P ` <.X.M @.4.P y [ 4.#.* F.E w.3.F F.F.u i F.F.F.F.F.F.F.F.F.",
"F.F.F.F.F.F.F.F.F.F.F.F.F.J +.` F.F.F <.<.F < P 3.[ G +.<.L P ;.l & l w.D.N.D.C.C.D.M.D.p.n & a %.P L <.;.J ` 3.E 7 F <.3.H F.F.E +.L F.F.F.F.F.F.F.F.F.F.F.F.F.",
"F.F.F.F.F.F.F.F.F.F.F.F.F.F., * F.F.L <.[ F.F.[ <.L J <.<.m R [ a ; q <.C.k.M.N.B.B.p.D.<.a ; y [ ` l ;.3.J J <...F.F.) 3.P F.F.F., F.F.F.F.F.F.F.F.F.F.F.F.F.F.",
"F.F.F.F.F.F.F.F.F.F.F.F.F.F.F.F.F.F.s E s F.F.E ..i u ....7 R E 7 3.- [ m.x.b.b.b.x.p.n.[ - <.7 P ) < [ +.p , [ E * F.a E l F.F.F.F.F.F.F.F.F.F.F.F.F.F.F.F.F.F.",
"F.F.F.F.F.F.F.F.F.F.F.F.F.F.F.F.F.F.F.F.F.F.F.0 < F.F.< < 2 z 0 0 t.d -.x.x.x.x.x.b.c.x.P 0 w.d 7 m 7 < 7 F.F.> 0 F.F.F.F.F.F.F.F.F.F.F.F.F.F.F.F.F.F.F.F.F.F.F.",
"F.F.F.F.F.F.F.F.F.F.F.F.F.F.F.F.F.F.F.F.F.F.F.F.F.F.F.F.# 5 N s 9.x.9.e.b.c.c.c.c.c.c.p.n O.x.x.m ! Z : 3 F.F.F.F.F.F.F.F.F.F.F.F.F.F.F.F.F.F.F.F.F.F.F.F.F.F.F.",
"F.F.F.F.F.F.F.F.F.F.F.F.F.F.F.F.F.F.F.F.F.F.F.F.F.F.F.F.j Z *.*.9.x.w.x.x.c.c.c.c.c.c.d.a ` c.b.9.*.*.Z r F.F.F.F.F.F.F.F.F.F.F.F.F.F.F.F.F.F.F.F.F.F.F.F.F.F.F.",
"F.F.F.F.F.F.F.F.F.F.F.F.F.F.F.F.F.F.F.F.F.F.F.F.F.F.F.F.# Z *.*.9.x.d.x.c.c.c.9.x.9.x.h.0 [ x.x.9.*.*.C # F.F.F.F.F.F.F.F.F.F.F.F.F.F.F.F.F.F.F.F.F.F.F.F.F.F.F.",
"F.F.F.F.F.F.F.F.F.F.F.F.F.F.F.F.F.F.F.F.F.F.F.F.F.F.F.F.# Z *.*.*.x.d.c.c.c.c.9.9.9.x.d.< [ x.b.*.*.*.C # F.F.F.F.F.F.F.F.F.F.F.F.F.F.F.F.F.F.F.F.F.F.F.F.F.F.F.",
"F.F.F.F.F.F.F.F.F.F.F.F.F.F.F.F.F.F.F.F.F.F.F.F.F.F.F.F.# Z Z *.O.+.p.x.c.c.c.9.9.9.c.d.` m 1.1.*.*.Z Z # F.F.F.F.F.F.F.F.F.F.F.F.F.F.F.F.F.F.F.F.F.F.F.F.F.F.F.",
"F.F.F.F.F.F.F.F.F.F.F.F.F.F.F.F.F.F.F.F.F.F.F.F.F.F.F.F.+ j Z Z Q ! *.9.9.c.9.9.9.9.9.x.9.9.O.! [ Z Z r # F.F.F.F.F.F.F.F.F.F.F.F.F.F.F.F.F.F.F.F.F.F.F.F.F.F.F.",
"F.F.F.F.F.F.F.F.F.F.F.F.F.F.F.F.F.F.F.F.F.F.F.F.F.F.F.F.+ 5 Z Z Z *.9.9.c.c.c.c.c.c.x.c.c.9.9.*.Z Z D r # F.F.F.F.F.F.F.F.F.F.F.F.F.F.F.F.F.F.F.F.F.F.F.F.F.F.F.",
"F.F.F.F.F.F.F.F.F.F.F.F.F.F.F.F.F.F.F.F.F.F.F.F.F.F.F.F.. + Z Z *.9.b.x.c.c.c.c.c.c.c.c.c.c.c.9.-.Z Z $ X F.F.F.F.F.F.F.F.F.F.F.F.F.F.F.F.F.F.F.F.F.F.F.F.F.F.F.",
"F.F.F.F.F.F.F.F.F.F.F.F.F.F.F.F.F.F.F.F.F.F.F.F.F.F.F.F.X # Z *.9.x.c.c.c.c.c.c.c.c.c.c.c.c.c.c.9.*.Z # X F.F.F.F.F.F.F.F.F.F.F.F.F.F.F.F.F.F.F.F.F.F.F.F.F.F.F.",
"F.F.F.F.F.F.F.F.F.F.F.F.F.F.F.F.F.F.F.F.F.F.F.F.F.F.F.F.X Z *.9.x.m.c.c.c.c.c.c.c.c.c.c.c.c.c.c.x.9.*.Z X F.F.F.F.F.F.F.F.F.F.F.F.F.F.F.F.F.F.F.F.F.F.F.F.F.F.F.",
"F.F.F.F.F.F.F.F.F.F.F.F.F.F.F.F.F.F.F.F.F.F.F.F.F.F.F.F.X Z 9.c.x.c.c.c.c.c.c.c.c.c.c.c.c.c.c.c.m.x.9.Z X F.F.F.F.F.F.F.F.F.F.F.F.F.F.F.F.F.F.F.F.F.F.F.F.F.F.F.",
"F.F.F.F.F.F.F.F.F.F.F.F.F.F.F.F.F.F.F.F.F.F.F.F.F.F.F.F.# Z 9.9.c.c.c.c.c.c.c.c.c.c.c.c.c.c.c.c.x.9.9.Z # F.F.F.F.F.F.F.F.F.F.F.F.F.F.F.F.F.F.F.F.F.F.F.F.F.F.F.",
"F.F.F.F.F.F.F.F.F.F.F.F.F.F.F.F.F.F.F.F.F.F.F.F.F.F.F.F.# *.9.x.c.c.c.c.x.b.x.b.D.c.c.c.c.c.c.c.x.c.9.*.# F.F.F.F.F.F.F.F.F.F.F.F.F.F.F.F.F.F.F.F.F.F.F.F.F.F.F.",
"F.F.F.F.F.F.F.F.F.F.F.F.F.F.F.F.F.F.F.F.F.F.F.F.F.F.F.# Z 9.*.9.c.c.c.c.x.x.x.-.D.-.c.c.c.c.c.c.c.9.*.9.Z # F.F.F.F.F.F.F.F.F.F.F.F.F.F.F.F.F.F.F.F.F.F.F.F.F.F.",
"F.F.F.F.F.F.F.F.F.F.F.F.F.F.F.F.F.F.F.F.F.F.F.F.F.F.F.# Z *.9.b.9.c.c.c.c.c.*.-.D.-.*.c.c.c.c.c.9.c.9.*.Z # F.F.F.F.F.F.F.F.F.F.F.F.F.F.F.F.F.F.F.F.F.F.F.F.F.F.",
"F.F.F.F.F.F.F.F.F.F.F.F.F.F.F.F.F.F.F.F.F.F.F.F.F.F.F.# Z 9.*.9.c.c.c.c.c.c.Z D.D.D.Z c.c.c.c.c.c.9.*.9.Z # F.F.F.F.F.F.F.F.F.F.F.F.F.F.F.F.F.F.F.F.F.F.F.F.F.F.",
"F.F.F.F.F.F.F.F.F.F.F.F.F.F.F.F.F.F.F.F.F.F.F.F.F.F.F.X r *.9.9.9.c.c.c.x.9.Z D.D.D.Z 9.x.b.x.c.9.9.9.*.j . F.F.F.F.F.F.F.F.F.F.F.F.F.F.F.F.F.F.F.F.F.F.F.F.F.F.",
"F.F.F.F.F.F.F.F.F.F.F.F.F.F.F.F.F.F.F.F.F.F.F.F.F.F.F.X r 9.*.9.c.9.c.c.9.*.-.D.D.D.-.*.9.x.x.9.c.9.*.9.5 . F.F.F.F.F.F.F.F.F.F.F.F.F.F.F.F.F.F.F.F.F.F.F.F.F.F.",
"F.F.F.F.F.F.F.F.F.F.F.F.F.F.F.F.F.F.F.F.F.F.F.F.F.F.F.X r *.9.*.9.c.c.9.*.Z -.D.D.D.-.Z *.9.x.b.9.*.9.*.5 X F.F.F.F.F.F.F.F.F.F.F.F.F.F.F.F.F.F.F.F.F.F.F.F.F.F.",
"F.F.F.F.F.F.F.F.F.F.F.F.F.F.F.F.F.F.F.F.F.F.F.F.F.F.F.F.# Z *.9.*.9.9.*.*.Z h.D.D.D.h.Z *.*.9.9.*.9.*.Z + F.F.F.F.F.F.F.F.F.F.F.F.F.F.F.F.F.F.F.F.F.F.F.F.F.F.F.",
"F.F.F.F.F.F.F.F.F.F.F.F.F.F.F.F.F.F.F.F.F.F.F.F.F.F.F.F.# Z 9.*.*.*.*.*.Z 5 a.D.D.D.h.r Z *.*.*.*.*.5.N # F.F.F.F.F.F.F.F.F.F.F.F.F.F.F.F.F.F.F.F.F.F.F.F.F.F.F.",
"F.F.F.F.F.F.F.F.F.F.F.F.F.F.F.F.F.F.F.F.F.F.F.F.F.F.F.F.X r *.9.*.*.*.*.Z j h.D.h.D.h.r Z *.*.*.*.-.Q 5 X F.F.F.F.F.F.F.F.F.F.F.F.F.F.F.F.F.F.F.F.F.F.F.F.F.F.F.",
"F.F.F.F.F.F.F.F.F.F.F.F.F.F.F.F.F.F.F.F.F.F.F.F.F.F.F.F.X r Z *.*.*.*.Z r 5 -.D.h.D.-.r r Z *.*.*.v w j X F.F.F.F.F.F.F.F.F.F.F.F.F.F.F.F.F.F.F.F.F.F.F.F.F.F.F.",
"F.F.F.F.F.F.F.F.F.F.F.F.F.F.F.F.F.F.F.F.F.F.F.F.F.F.F.F.F.# Z *.*.*.*.Z r # T h.D.h.Q # r Z *.*.*.*.Z # F.F.F.F.F.F.F.F.F.F.F.F.F.F.F.F.F.F.F.F.F.F.F.F.F.F.F.F.",
"F.F.F.F.F.F.F.F.F.F.F.F.F.F.F.F.F.F.F.F.F.F.F.F.F.F.F.F.F.# r Z *.*.Z r r # Q h.D.h.Q # r r Z *.*.Z r # F.F.F.F.F.F.F.F.F.F.F.F.F.F.F.F.F.F.F.F.F.F.F.F.F.F.F.F.",
"F.F.F.F.F.F.F.F.F.F.F.F.F.F.F.F.F.F.F.F.F.F.F.F.F.F.F.F.F.# r Z Z Z Z r # X Q h.D.h.Q X # r Z Z Z Z r # F.F.F.F.F.F.F.F.F.F.F.F.F.F.F.F.F.F.F.F.F.F.F.F.F.F.F.F.",
"F.F.F.F.F.F.F.F.F.F.F.F.F.F.F.F.F.F.F.F.F.F.F.F.F.F.F.F.F.X r Z Z Z r r # F.5 h.D.h.5 F.# r r Z Z Z r X F.F.F.F.F.F.F.F.F.F.F.F.F.F.F.F.F.F.F.F.F.F.F.F.F.F.F.F.",
"F.F.F.F.F.F.F.F.F.F.F.F.F.F.F.F.F.F.F.F.F.F.F.F.F.F.F.F.F.X # Z Z Z r r # F.5 -.D.-.5 F.# r r Z Z Z # X F.F.F.F.F.F.F.F.F.F.F.F.F.F.F.F.F.F.F.F.F.F.F.F.F.F.F.F.",
"F.F.F.F.F.F.F.F.F.F.F.F.F.F.F.F.F.F.F.F.F.F.F.F.F.F.F.F.F.F.# Z Z Z r r X F.+ =.D.-.# F.X r r Z Z Z # F.F.F.F.F.F.F.F.F.F.F.F.F.F.F.F.F.F.F.F.F.F.F.F.F.F.F.F.F.",
"F.F.F.F.F.F.F.F.F.F.F.F.F.F.F.F.F.F.F.F.F.F.F.F.F.F.F.F.F.F.# Z *.*.Z r X F.+ Q D.Q # F.X r Z *.*.Z # F.F.F.F.F.F.F.F.F.F.F.F.F.F.F.F.F.F.F.F.F.F.F.F.F.F.F.F.F.",
"F.F.F.F.F.F.F.F.F.F.F.F.F.F.F.F.F.F.F.F.F.F.F.F.F.F.F.F.F.F.# *.9.*.*.Z X F.# N D.N + F.X Z *.*.9.*.# F.F.F.F.F.F.F.F.F.F.F.F.F.F.F.F.F.F.F.F.F.F.F.F.F.F.F.F.F.",
"F.F.F.F.F.F.F.F.F.F.F.F.F.F.F.F.F.F.F.F.F.F.F.F.F.F.F.F.F.F.# *.9.*.*.# F.F.+ N =.N # F.F.# *.*.9.*.# F.F.F.F.F.F.F.F.F.F.F.F.F.F.F.F.F.F.F.F.F.F.F.F.F.F.F.F.F.",
"F.F.F.F.F.F.F.F.F.F.F.F.F.F.F.F.F.F.F.F.F.F.F.F.F.F.F.F.F.F.# *.D.9.*.# F.F.+ 5 -.5 # F.F.# *.9.D.*.# F.F.F.F.F.F.F.F.F.F.F.F.F.F.F.F.F.F.F.F.F.F.F.F.F.F.F.F.F.",
"F.F.F.F.F.F.F.F.F.F.F.F.F.F.F.F.F.F.F.F.F.F.F.F.F.F.F.F.F.F.r *.D.D.*.r F.F.F.+ N # F.F.F.r *.D.D.*.r F.F.F.F.F.F.F.F.F.F.F.F.F.F.F.F.F.F.F.F.F.F.F.F.F.F.F.F.F.",
"F.F.F.F.F.F.F.F.F.F.F.F.F.F.F.F.F.F.F.F.F.F.F.F.F.F.F.F.F.F.Z *.D.9.9.Z # F.F.# N # F.F.# Z 9.9.D.*.Z F.F.F.F.F.F.F.F.F.F.F.F.F.F.F.F.F.F.F.F.F.F.F.F.F.F.F.F.F.",
"F.F.F.F.F.F.F.F.F.F.F.F.F.F.F.F.F.F.F.F.F.F.F.F.F.F.F.F.F.# *.D.D.D.9.*.# F.F.F.5 F.F.F.# *.9.D.D.D.*.# F.F.F.F.F.F.F.F.F.F.F.F.F.F.F.F.F.F.F.F.F.F.F.F.F.F.F.F.",
"F.F.F.F.F.F.F.F.F.F.F.F.F.F.F.F.F.F.F.F.F.F.F.F.F.F.F.F.F.# *.D.D.D.9.*.# F.F.F.F.F.F.F.# *.9.D.D.D.*.# F.F.F.F.F.F.F.F.F.F.F.F.F.F.F.F.F.F.F.F.F.F.F.F.F.F.F.F.",
"F.F.F.F.F.F.F.F.F.F.F.F.F.F.F.F.F.F.F.F.F.F.F.F.F.F.F.F.F.# Z *.*.*.*.Z # F.F.F.F.F.F.F.# Z *.-.*.*.Z # F.F.F.F.F.F.F.F.F.F.F.F.F.F.F.F.F.F.F.F.F.F.F.F.F.F.F.F.",
"F.F.F.F.F.F.F.F.F.F.F.F.F.F.F.F.F.F.F.F.F.F.F.F.F.F.F.F.F.X # v r 5 r r F.F.F.F.F.F.F.F.F.5 r 5 5 Z # X F.F.F.F.F.F.F.F.F.F.F.F.F.F.F.F.F.F.F.F.F.F.F.F.F.F.F.F.",
"F.F.F.F.F.F.F.F.F.F.F.F.F.F.F.F.F.F.F.F.F.F.F.F.F.F.F.F.F.F.F.F.F.F.F.F.F.F.F.F.F.F.F.F.F.F.F.F.F.F.F.F.F.F.F.F.F.F.F.F.F.F.F.F.F.F.F.F.F.F.F.F.F.F.F.F.F.F.F.F.",
"F.F.F.F.F.F.F.F.F.F.F.F.F.F.F.F.F.F.F.F.F.F.F.F.F.F.F.F.F.F.F.F.F.F.F.F.F.F.F.F.F.F.F.F.F.F.F.F.F.F.F.F.F.F.F.F.F.F.F.F.F.F.F.F.F.F.F.F.F.F.F.F.F.F.F.F.F.F.F.F.",
"F.F.F.F.F.F.F.F.F.F.F.F.F.F.F.F.F.F.F.F.F.F.F.F.F.F.F.F.F.F.F.F.F.F.F.F.F.F.F.F.F.F.F.F.F.F.F.F.F.F.F.F.F.F.F.F.F.F.F.F.F.F.F.F.F.F.F.F.F.F.F.F.F.F.F.F.F.F.F.F.",
"F.F.F.F.F.F.F.F.F.F.F.F.F.F.F.F.F.F.F.F.F.F.F.F.F.F.F.F.F.F.F.F.F.F.F.F.F.F.F.F.F.F.F.F.F.F.F.F.F.F.F.F.F.F.F.F.F.F.F.F.F.F.F.F.F.F.F.F.F.F.F.F.F.F.F.F.F.F.F.F.",
"F.F.F.F.F.F.F.F.F.F.F.F.F.F.F.F.F.F.F.F.F.F.F.F.F.F.F.F.F.F.F.F.F.F.F.F.F.F.F.F.F.F.F.F.F.F.F.F.F.F.F.F.F.F.F.F.F.F.F.F.F.F.F.F.F.F.F.F.F.F.F.F.F.F.F.F.F.F.F.F."
};
