/* XPM */
static char *pegdos3[] = {
/* columns rows colors chars-per-pixel */
"80 80 148 2 ",
"   c #55558E",
".  c #75759A",
"X  c #7979AC",
"o  c #7B7BAE",
"O  c #7C7CAE",
"+  c #7F7FB0",
"@  c #7B809A",
"#  c #7B9597",
"$  c #73AC89",
"%  c #86B89A",
"&  c #8383A3",
"*  c #8989A7",
"=  c #8E8EAD",
"-  c #8B9CA5",
";  c #9293AE",
":  c #8080B1",
">  c #8282B1",
",  c #8787B0",
"<  c #8B8BB3",
"1  c #8D8DB7",
"2  c #8F8FB9",
"3  c #8E8EBB",
"4  c #9595B1",
"5  c #9797B3",
"6  c #9595B6",
"7  c #9999B5",
"8  c #9A9AB6",
"9  c #9D9DB7",
"0  c #9292B9",
"q  c #9595B9",
"w  c #9191BD",
"e  c #9393BE",
"r  c #9999BB",
"t  c #9E9EB8",
"y  c #9F9FBA",
"u  c #94AEAB",
"i  c #97A2B0",
"p  c #9EABB6",
"a  c #A0A1BA",
"s  c #A3A3BD",
"d  c #A5A5BE",
"f  c #A4ABBC",
"g  c #A7ADBE",
"h  c #A3BAB6",
"j  c #9BCCAA",
"k  c #9E9EC1",
"l  c #A3A3C3",
"z  c #A8A8C0",
"x  c #A8A8C3",
"c  c #AAAAC2",
"v  c #ABABC3",
"b  c #ADAEC3",
"n  c #ACACC4",
"m  c #AEAEC4",
"M  c #ACACC7",
"N  c #AFAFC6",
"B  c #A3A3C9",
"V  c #A6A6C9",
"C  c #A9A9CD",
"Z  c #ABABCD",
"A  c #ADADCE",
"S  c #ACB3C1",
"D  c #B0B0C6",
"F  c #B1B1C8",
"G  c #B3B3C9",
"H  c #B3B3CB",
"J  c #B4B7C9",
"K  c #B6B6CB",
"L  c #B9B9CD",
"P  c #B9BBCC",
"I  c #BABACE",
"U  c #B9B9D1",
"Y  c #BCBCD0",
"T  c #BEBED1",
"R  c #BDBDD2",
"E  c #BBBBD4",
"W  c #B9B9D7",
"Q  c #B3CCC2",
"!  c #B7C0C9",
"~  c #C1C1D3",
"^  c #C3C3D5",
"/  c #C5C5D6",
"(  c #C7C7D7",
")  c #C5C5DB",
"_  c #C9C9D9",
"`  c #C8C8DB",
"'  c #CACADA",
"]  c #CCCCDB",
"[  c #C8C8DE",
"{  c #CDCDDC",
"}  c #CFCFDD",
"|  c #D0D0DE",
" . c #CACAE1",
".. c #CBCBE2",
"X. c #CFCFE4",
"o. c #D3D3E0",
"O. c #D4D4E1",
"+. c #D7D7E3",
"@. c #D2D2E4",
"#. c #D8D8E5",
"$. c #DADAE5",
"%. c #DBDBE6",
"&. c #D8D8E9",
"*. c #DBDBE8",
"=. c #DADAEA",
"-. c #DBDBEB",
";. c #DDDDE8",
":. c #DEDEE8",
">. c #DDDDEB",
",. c #DFDFEA",
"<. c #DFDFED",
"1. c #E0E0E9",
"2. c #E0E0EB",
"3. c #E2E2EB",
"4. c #E3E3EC",
"5. c #E2E2EE",
"6. c #E7E6ED",
"7. c #E4E4EF",
"8. c #E6E6EE",
"9. c #E8E8EF",
"0. c #E5E5F1",
"q. c #E7E7F1",
"w. c #E7E7F2",
"e. c #E9E9F0",
"r. c #EAEAF1",
"t. c #E9E9F2",
"y. c #EAEAF3",
"u. c #EDEDF3",
"i. c #EBEBF4",
"p. c #ECECF5",
"a. c #EDEDF5",
"s. c #EFEFF5",
"d. c #EEEEF6",
"f. c #F0F0F5",
"g. c #F2F2F6",
"h. c #F3F3F8",
"j. c #F4F4F8",
"k. c #F5F5F9",
"l. c #F6F6F9",
"z. c #F7F7FB",
"x. c #F8F8FB",
"c. c #FAFAFC",
"v. c #FCFCFD",
"b. c #FDFDFD",
"n. c #FDFDFE",
"m. c #FEFEFE",
"M. c gray100",
"N. c None",
/* pixels */
"N.N.N.N.N.N.N.N.N.N.N.N.N.N.N.N.N.N.N.N.N.N.N.N.N.N.N.N.N.N.N.N.N.N.N.N.N.N.N.N.N.N.N.N.N.N.N.N.N.N.N.N.N.N.N.N.N.N.N.N.N.N.N.N.N.N.N.N.N.N.N.N.N.N.N.N.N.N.N.N.",
"N.N.N.N.N.N.N.N.N.N.N.N.N.N.N.N.N.N.N.N.N.N.N.N.N.N.N.N.N.N.N.N.N.N.N.N.N.N.N.N.N.N.N.N.N.N.N.N.N.N.N.N.N.N.N.N.N.N.N.N.N.N.N.N.N.N.N.N.N.N.N.N.N.N.N.N.N.N.N.N.",
"N.N.N.N.N.N.N.N.N.N.N.N.N.N.N.N.N.N.N.N.N.N.N.N.N.N.N.N.N.N.N.N.N.N.N.N.N.N.N.N.N.N.N.N.N.N.N.N.N.N.N.N.N.N.N.N.N.N.N.N.N.N.N.N.N.N.N.N.N.N.N.N.N.N.N.N.N.N.N.N.",
"N.N.N.N.N.N.N.N.N.N.N.N.N.N.N.N.N.N.N.N.N.N.N.N.N.N.N.N.N.N.N.N.N.N.N.N.N.N.N.N.N.N.N.N.N.N.N.N.N.N.N.N.N.N.N.N.N.N.N.N.N.N.N.N.N.N.N.N.N.N.N.N.N.N.N.N.N.N.N.N.",
"N.N.N.N.N.N.N.N.N.N.N.N.N.N.N.N.N.N.N.N.N.N.N.N.N.N.N.N.N.N.N.N.N.N.o C N.N.N.N.N.N.N.N.N.N.N.C o N.N.N.N.N.N.N.N.N.N.N.N.N.N.N.N.N.N.N.N.N.N.N.N.N.N.N.N.N.N.N.",
"N.N.N.N.N.N.N.N.N.N.N.N.N.N.N.N.N.N.N.N.N.N.N.N.N.N.N.N.N.N.N.N.N.N.o ..C N.3 W W 3 W W 3 N.C ..o N.N.N.N.N.N.N.N.N.N.N.N.N.N.N.N.N.N.N.N.N.N.N.N.N.N.N.N.N.N.N.",
"N.N.N.N.N.N.N.N.N.N.N.N.N.N.N.N.N.N.N.N.N.N.N.N.N.N.N.N.N.N.N.N.N.N.o ....C X.M.0.@.0.M.X.C ....o N.N.N.N.N.N.N.N.N.N.N.N.N.N.N.N.N.N.N.N.N.N.N.N.N.N.N.N.N.N.N.",
"N.N.N.N.N.N.N.N.N.N.N.N.N.N.N.N.N.N.N.N.N.N.N.N.N.N.N.N.N.N.N.N.N.N.o C C X.M.M.M.M.M.M.M.X.C C o N.N.N.N.N.N.N.N.N.N.N.N.N.N.N.N.N.N.N.N.N.N.N.N.N.N.N.N.N.N.N.",
"N.N.N.N.N.N.N.N.N.N.N.N.N.N.N.N.N.N.N.N.N.N.N.N.N.N.N.N.N.N.N.N.N.N.w C W M.M.M.M.M.M.M.M.M.W C w N.N.N.N.N.N.N.N.N.N.N.N.N.N.N.N.N.N.N.N.N.N.N.N.N.N.N.N.N.N.N.",
"N.N.N.N.N.N.N.N.N.N.N.N.N.N.N.N.N.N.N.N.N.N.N.N.N.N.N.N.N.N.N.N.N.N.C C X.M.M.M.M.M.M.M.M.M.X.C C N.N.N.N.N.N.N.N.N.N.N.N.N.N.N.N.N.N.N.N.N.N.N.N.N.N.N.N.N.N.N.",
"N.N.N.N.N.N.N.N.N.j ^ ( { o.$.$.$.$.o.{ { ( N.N.N.N.N.N.N.N.N.N.N.N.w B r.M.M.M.M.M.M.M.M.M.w.B w N.N.N.N.N.N.N.N.N.N.N.N.Q _ { { O.$.$.$.$.{ { ( ~ N.N.N.N.N.N.",
"N.N.N.N.N.Q ^ ( | 8.g.x.M.M.M.M.M.M.M.M.M.k.| ~ N.N.N.N.N.N.N.N.N.N.w W M.0.M.M.M.M.M.M.M.0.M.W w N.N.N.N.N.N.N.N.N.N.% ~ ;.M.M.M.M.M.M.M.M.M.M.j.u.1.] ( ~ N.N.",
"N.N.N.N.{ +.g.x.M.M.M.k.8.%.1.1.8.9.k.M.M.M.k.o.D N.N.N.N.N.N.N.N.N.o X.0.X.M.M.M.M.M.M.M.X.t.X.o N.N.N.N.N.N.N.N.N.N.I 1.x.M.M.M.g.8.8.4.:.:.r.k.M.M.M.x.8.| ( ",
"N.N.N.c 1.u.k.r.1.~ m s c ( :.r.u.g.x.M.M.M.M.:.t N.N.N.N.N.N.N.N.N.+ t.B M.M.0.M.M.M.0.M.M.B 0.o N.N.N.N.N.N.N.N.N.N.D g.M.M.M.M.j.u.u.8.$.Y s d D { 1.g.k.u.| ",
"N.N.N.N.c c d s t d I { 1.f.k.M.M.M.M.M.M.M.k.G N.N.N.N.N.N.N.N.N.N., w ..M.0.M.M.0.M.M.0.M.X.3 > N.N.N.N.N.N.N.N.N.N.N.] M.M.M.M.M.M.M.M.g.u.$._ G a a s s n s ",
"N.N.N.N.N.$ t ( :.1.8.k.j.g.$.| O.1.f.M.M.M.g.c N.N.N.N.N.N.N.N.N.N.+ G _ k c.M.X.0.X.M.M.B 1.^ < N.N.N.N.N.N.N.N.N.N.N.~ M.M.M.M.r.:.O.{ 8.g.k.u.4.:.$.G 8 N.N.",
"N.N.N.N.N.P 1.6.r.1.O.{ ^ ^ ( 8.M.M.M.M.M.M.g.( N.N.N.N.N.N.N.N.N.N.w 8 a Y k.@.0.M.w.X.M.c.l s 6 N.N.N.N.N.N.N.N.N.N.N.o.M.M.M.M.M.M.M.O.^ ~ ( O.;.4.9.6.$.S N.",
"N.N.N.N.G r.u.$.( D s N { :.M.M.M.x.j.x.g.g.u.+.c N.N.N.N.N.N.N.N.o 3 k 4 $.c.g.t.@.w.w.<.x.T ; 3 o N.N.N.N.N.N.N.N.N.I 8.g.g.g.c.g.M.M.M.x.$.( s d K ] 1.u.:.f ",
"N.N.N.N.u ^ ^ a s N O.8.c.u.r.8.O.O.;.8.g.g.k.u.$.f N.N.N.N.N.N.N.o B Z n g.M.u.r.w.*.u.f.M.1.8 B o N.N.N.N.N.N.N.N.I 8.k.g.k.u.1.#.O.$.r.8.g.g.4.( N a N ( I f ",
"N.N.N.N.N.# s ( :.r.r.:.( I I Y | 8.j.x.g.g.g.g.g.%.Y % N.N.N.N.N.o 3 t ~ c.M.$.k.M.M.9.;.M.u.D 0 o N.N.N.N.N.N.m ( 1.g.h.g.g.h.x.g.:.( I ~ I } 1.u.6.+.I 8 f N.",
"N.N.N.N.N.h :.r.r.$._ s a I O.6.j.x.8.$.g.g.g.g.k.j.f.+.^ $ $ N.N.  t ^ $.k.u.Y $.M.c.( ( M.4.$.D . N.N.N.$ u ( :.j.g.j.g.g.j.9.$.f.x.g.1.] N t D | 1.r.r.| f N.",
"N.N.N.N.f ^ :.:.{ c t K ] 1.8.9.1._ ] r.g.g.g.g.g.6.8.8.8.O.( g = 6 Y :.^ :.o.N ( M.u.I K 1.} ] $.N = % K _ :.r.6.8.9.j.g.g.g.g.1.( } 8.r.4.1.^ m t I +.4.;.f N.",
"N.N.N.N.N.G I - 8 G _ 8.8.8.] K c } u.h.:.:.u.k.8.o.{ :.1.8.6.%._ ~ :.I t O.~ Y I r.o.~ I } ( t { { ^ { 1.8.8.4.+.] %.u.k.6.%.8.j.6.~ s T %.6.6.;.( d 8 u f f N.",
"N.N.N.N.N.N.$ N.K 1.r.8.+.K s s | u.9.$.$.h.g.:.o.{ { { { $.1.1.4.o.N 8 c _ G $.| $._ :.~ I ( t t I ;.1.4.:.o.{ ] ] { O.9.g.u.O.;.u.6.( t v ~ ;.8.9.$.u N.f N.N.",
"N.N.N.N.N.N.N.a O.8.{ I c t ~ ;.r.1.( ( u.u.O.G ( _ ( } ] ] ] o.o.o.~ s c I ~ u.8.] { k.:.I I a N _ o.o.O.] ] { ] ( | I I :.g.4.~ } 6.6.+.G t N Y O.8.( f N.N.N.",
"N.N.N.N.N.N.N.f f K N.; G $.8.u.{ D ^ 4.6.| v Y { ( ~ O.| _ _ _ _ _ _ a N I | M.M.:.f.M.k.T T a D } _ _ _ _ ( O.{ T { _ K D ;.9.;.I K %.u.1.o.s $ $ K c N.N.N.N.",
"N.N.N.N.N.N.N.N.N.N.N.S $.u.;.I a I 4.9.o.s D o.{ ~ ^ +.( Y O.| { ] ~ c I _ r.M.M.M.M.M.M.O._ N N ( { ] o.{ I | O.T ( | ] a N 1.w.%.n f ^ 6.r.] % N.N.N.N.N.N.N.",
"N.N.N.N.N.N.N.N.N.N.f { ;.O.m C t 1.r.+.s t _ $.{ G } %.K Y $.{ ( { Y c I 1.M.M.M.M.M.M.M.x.+.D N ^ ] ( +.o.K ( %.( K O.+.T 5 G 4.r.} $ f Y $.$.I N.N.N.N.N.N.N.",
"N.N.N.N.N.N.N.N.N.N.f f K i N.C | 6.$.p 4 K $.| G G $.O.G ( O._ ( { ! D ( 9.M.M.M.M.M.M.M.M.$.I N ^ ] ~ | +.I Y +.| c Y +.O.d 4 K 1.4.! N.N.i ^ G N.N.N.N.N.N.N.",
"N.N.N.N.N.N.N.N.N.N.N.f f N.$ I ;.O.p N.u +.%.I 8 ~ $._ N o.$.I Y | c s ^ 9.M.k.z.h.h.x.g.M.$.I 8 K } G ( %.( D o.+.N 8 ] %.] N.N.Y %.+.N N.N.- N.N.N.N.N.N.N.N.",
"N.N.N.N.N.N.N.N.N.N.N.N.N.N.f K ~ S N.$ ~ %.| % i ( $.Y K O.| D Y { 4 . K 0.k.u.d.p.p.u.u.z.$.a @ c o.G I O.] N _ +.K # h O.+.D N.N.Y ~ p N.N.N.N.N.N.N.N.N.N.N.",
"N.N.N.N.N.N.N.N.N.N.N.N.N.N.N.f f N.N.- I $.N N.% ] { c I $.{ s ^ T t t N 7.u.u.p.p.p.p.p.d.o.4 8 s ( K m ;.| N K +.~ N.N.( +.N N.N.f f N.N.N.N.N.N.N.N.N.N.N.N.",
"N.N.N.N.N.N.N.N.N.N.N.N.N.N.N.N.N.N.N.N.f f f N.u Y f f f ( D ; Y G 4 #.K t.p.p.p.p.p.p.p.p.=.& :.4 Y K = ( U N.- ~ G N.N.a N % N.N.N.N.N.N.N.N.N.N.N.N.N.N.N.N.",
"N.N.N.N.N.N.N.N.N.N.N.N.N.N.N.N.N.N.N.N.N.N.N.N.N.f f N.N.* & l s * _ 0.$.p.p.p.p.p.p.p.p.p.0.( 0.x * x < & $ N.N.& # N.N.N.N.N.N.N.N.N.N.N.N.N.N.N.N.N.N.N.N.N.",
"N.N.N.N.N.N.N.N.N.N.N.N.N.N.N.N.N.N.N.N.N.N.N.N.N.N.N.N.N.1 3 C ` ` u.p.0.p.p.p.p.p.p.p.p.p.t.7.u.=.W C 3 3 N.N.N.N.N.N.N.N.N.N.N.N.N.N.N.N.N.N.N.N.N.N.N.N.N.N.",
"N.N.N.N.N.N.N.N.N.N.N.N.N.N.N.N.N.N.N.N.N.N.N.N.N.N.N.N.N.w C ....-.p.p.7.p.p.p.p.p.p.p.p.p.t.:.u.*.....B k N.N.N.N.N.N.N.N.N.N.N.N.N.N.N.N.N.N.N.N.N.N.N.N.N.N.",
"N.N.N.N.N.N.N.N.N.N.N.N.N.N.N.N.N.N.N.N.N.N.N.N.N.N.N.N.N.o C ....-.p.p.0.p.p.p.-.p.-.p.p.p.0.4.p.-.....C o N.N.N.N.N.N.N.N.N.N.N.N.N.N.N.N.N.N.N.N.N.N.N.N.N.N.",
"N.N.N.N.N.N.N.N.N.N.N.N.N.N.N.N.N.N.N.N.N.N.N.N.N.N.N.N.N.o C ......p.p.u.p.p.p.-.-.-.p.p.p.0.4.p.......C o N.N.N.N.N.N.N.N.N.N.N.N.N.N.N.N.N.N.N.N.N.N.N.N.N.N.",
"N.N.N.N.N.N.N.N.N.N.N.N.N.N.N.N.N.N.N.N.N.N.N.N.N.N.N.N.N.o C C ....-.p.p.p.p.p.-.-.-.p.p.p.p.t.-.....C C X N.N.N.N.N.N.N.N.N.N.N.N.N.N.N.N.N.N.N.N.N.N.N.N.N.N.",
"N.N.N.N.N.N.N.N.N.N.N.N.N.N.N.N.N.N.N.N.N.N.N.N.N.N.N.N.N.o w C C ......-.-.p.-.-.-.-.-.p.-.-.......C C k X N.N.N.N.N.N.N.N.N.N.N.N.N.N.N.N.N.N.N.N.N.N.N.N.N.N.",
"N.N.N.N.N.N.N.N.N.N.N.N.N.N.N.N.N.N.N.N.N.N.N.N.N.N.N.N.N.o w C C C ..-.-.p.p.p.p.p.p.p.p.p.-.-...C C C w o N.N.N.N.N.N.N.N.N.N.N.N.N.N.N.N.N.N.N.N.N.N.N.N.N.N.",
"N.N.N.N.N.N.N.N.N.N.N.N.N.N.N.N.N.N.N.N.N.N.N.N.N.N.N.N.N.  o C C ..-.p.p.p.p.p.p.p.p.p.p.p.p.p.-...C C o   N.N.N.N.N.N.N.N.N.N.N.N.N.N.N.N.N.N.N.N.N.N.N.N.N.N.",
"N.N.N.N.N.N.N.N.N.N.N.N.N.N.N.N.N.N.N.N.N.N.N.N.N.N.N.N.N.  o C ..-.p.p.p.p.p.p.p.p.p.p.p.p.p.p.u.-...C o   N.N.N.N.N.N.N.N.N.N.N.N.N.N.N.N.N.N.N.N.N.N.N.N.N.N.",
"N.N.N.N.N.N.N.N.N.N.N.N.N.N.N.N.N.N.N.N.N.N.N.N.N.N.N.N.N.  C ..-.p.p.p.p.p.p.p.p.p.p.p.p.p.p.p.d.t.-...C   N.N.N.N.N.N.N.N.N.N.N.N.N.N.N.N.N.N.N.N.N.N.N.N.N.N.",
"N.N.N.N.N.N.N.N.N.N.N.N.N.N.N.N.N.N.N.N.N.N.N.N.N.N.N.N.N.  C -.p.p.p.p.p.p.p.p.p.p.p.p.p.p.p.p.d.p.p.-.C   N.N.N.N.N.N.N.N.N.N.N.N.N.N.N.N.N.N.N.N.N.N.N.N.N.N.",
"N.N.N.N.N.N.N.N.N.N.N.N.N.N.N.N.N.N.N.N.N.N.N.N.N.N.N.N.N.o C -.-.p.p.p.p.p.p.p.p.p.p.p.p.p.p.p.t.d.-.-.C o N.N.N.N.N.N.N.N.N.N.N.N.N.N.N.N.N.N.N.N.N.N.N.N.N.N.",
"N.N.N.N.N.N.N.N.N.N.N.N.N.N.N.N.N.N.N.N.N.N.N.N.N.N.N.N.N.o ..-.p.p.p.p.p.p.p.p.p.p.p.p.p.p.p.p.p.p.p.-...O N.N.N.N.N.N.N.N.N.N.N.N.N.N.N.N.N.N.N.N.N.N.N.N.N.N.",
"N.N.N.N.N.N.N.N.N.N.N.N.N.N.N.N.N.N.N.N.N.N.N.N.N.N.N.N.o C -...-.p.p.p.p.p.p.p.p.M.p.p.p.p.p.p.p.p.-...=.C o N.N.N.N.N.N.N.N.N.N.N.N.N.N.N.N.N.N.N.N.N.N.N.N.N.",
"N.N.N.N.N.N.N.N.N.N.N.N.N.N.N.N.N.N.N.N.N.N.N.N.N.N.N.N.o C ..-.p.-.p.p.p.p.u...X.M.X...p.p.p.p.p.-.p.-...C o N.N.N.N.N.N.N.N.N.N.N.N.N.N.N.N.N.N.N.N.N.N.N.N.N.",
"N.N.N.N.N.N.N.N.N.N.N.N.N.N.N.N.N.N.N.N.N.N.N.N.N.N.N.N.o C -...-.p.p.p.p.p.p.C M.M.M.C p.p.p.p.p.p.-...-.C o N.N.N.N.N.N.N.N.N.N.N.N.N.N.N.N.N.N.N.N.N.N.N.N.N.",
"N.N.N.N.N.N.N.N.N.N.N.N.N.N.N.N.N.N.N.N.N.N.N.N.N.N.N.N.  w ..>.-.-.p.p.p.p.-.C M.M.M.C -.p.d.d.p.-.-.-...w   N.N.N.N.N.N.N.N.N.N.N.N.N.N.N.N.N.N.N.N.N.N.N.N.N.",
"N.N.N.N.N.N.N.N.N.N.N.N.N.N.N.N.N.N.N.N.N.N.N.N.N.N.N.N.  w -...-.p.-.p.p.-...X.M.M.M.X...-.t.d.-.p.-...-.w   N.N.N.N.N.N.N.N.N.N.N.N.N.N.N.N.N.N.N.N.N.N.N.N.N.",
"N.N.N.N.N.N.N.N.N.N.N.N.N.N.N.N.N.N.N.N.N.N.N.N.N.N.N.N.  w ..=...-.p.p.>...C @.M.M.M.X.C ..=.t.p.-...-...w   N.N.N.N.N.N.N.N.N.N.N.N.N.N.N.N.N.N.N.N.N.N.N.N.N.",
"N.N.N.N.N.N.N.N.N.N.N.N.N.N.N.N.N.N.N.N.N.N.N.N.N.N.N.N.N.o C ..-...-.-.....C 0.M.M.M.0.C ....:.-...-...C o N.N.N.N.N.N.N.N.N.N.N.N.N.N.N.N.N.N.N.N.N.N.N.N.N.N.",
"N.N.N.N.N.N.N.N.N.N.N.N.N.N.N.N.N.N.N.N.N.N.N.N.N.N.N.N.N.o C =...........C w r.M.M.M.0.w C ) ......[ E B o N.N.N.N.N.N.N.N.N.N.N.N.N.N.N.N.N.N.N.N.N.N.N.N.N.N.",
"N.N.N.N.N.N.N.N.N.N.N.N.N.N.N.N.N.N.N.N.N.N.N.N.N.N.N.N.N.  w ..&.........B r 0.M.0.M.W k N W ......-.= 0   N.N.N.N.N.N.N.N.N.N.N.N.N.N.N.N.N.N.N.N.N.N.N.N.N.N.",
"N.N.N.N.N.N.N.N.N.N.N.N.N.N.N.N.N.N.N.N.N.N.N.N.N.N.N.N.N.  w k W ......C q n 0.M.0.r.W k x B ........= 3   N.N.N.N.N.N.N.N.N.N.N.N.N.N.N.N.N.N.N.N.N.N.N.N.N.N.",
"N.N.N.N.N.N.N.N.N.N.N.N.N.N.N.N.N.N.N.N.N.N.N.N.N.N.N.N.N.N.o C ........C w 6 0.M.r.W W , q C ........C O N.N.N.N.N.N.N.N.N.N.N.N.N.N.N.N.N.N.N.N.N.N.N.N.N.N.N.",
"N.N.N.N.N.N.N.N.N.N.N.N.N.N.N.N.N.N.N.N.N.N.N.N.N.N.N.N.N.N.o w C ....C w w N M.M.0.W N.+ q w C ....C w o N.N.N.N.N.N.N.N.N.N.N.N.N.N.N.N.N.N.N.N.N.N.N.N.N.N.N.",
"N.N.N.N.N.N.N.N.N.N.N.N.N.N.N.N.N.N.N.N.N.N.N.N.N.N.N.N.N.N.o w C C C C w o W M.M.W 3 N.  o w C C C C w o N.N.N.N.N.N.N.N.N.N.N.N.N.N.N.N.N.N.N.N.N.N.N.N.N.N.N.",
"N.N.N.N.N.N.N.N.N.N.N.N.N.N.N.N.N.N.N.N.N.N.N.N.N.N.N.N.N.N.  w C C C w w o W M.M.W 3 N.N.o w w C C C w   N.N.N.N.N.N.N.N.N.N.N.N.N.N.N.N.N.N.N.N.N.N.N.N.N.N.N.",
"N.N.N.N.N.N.N.N.N.N.N.N.N.N.N.N.N.N.N.N.N.N.N.N.N.N.N.N.N.N.  o C C C w w o W M.M.3 N.N.N.o w w C C C o   N.N.N.N.N.N.N.N.N.N.N.N.N.N.N.N.N.N.N.N.N.N.N.N.N.N.N.",
"N.N.N.N.N.N.N.N.N.N.N.N.N.N.N.N.N.N.N.N.N.N.N.N.N.N.N.N.N.N.N.o C C C w 3   W M.M.3 N.N.N.  w w C C C o N.N.N.N.N.N.N.N.N.N.N.N.N.N.N.N.N.N.N.N.N.N.N.N.N.N.N.N.",
"N.N.N.N.N.N.N.N.N.N.N.N.N.N.N.N.N.N.N.N.N.N.N.N.N.N.N.N.N.N.N.o C ....C w o 3 W M.W N.N.N.  w C ....C o N.N.N.N.N.N.N.N.N.N.N.N.N.N.N.N.N.N.N.N.N.N.N.N.N.N.N.N.",
"N.N.N.N.N.N.N.N.N.N.N.N.N.N.N.N.N.N.N.N.N.N.N.N.N.N.N.N.N.N.N.O ..-.....C o 3 3 W W W N.N.  C ....-...o N.N.N.N.N.N.N.N.N.N.N.N.N.N.N.N.N.N.N.N.N.N.N.N.N.N.N.N.",
"N.N.N.N.N.N.N.N.N.N.N.N.N.N.N.N.N.N.N.N.N.N.N.N.N.N.N.N.N.N.N.O ..=.....o o N.N.3 3 3 N.N.N.o ....-...o N.N.N.N.N.N.N.N.N.N.N.N.N.N.N.N.N.N.N.N.N.N.N.N.N.N.N.N.",
"N.N.N.N.N.N.N.N.N.N.N.N.N.N.N.N.N.N.N.N.N.N.N.N.N.N.N.N.N.N.N.o ..M.-...o N.N.N.N.N.N.N.N.N.o ..-.M...o N.N.N.N.N.N.N.N.N.N.N.N.N.N.N.N.N.N.N.N.N.N.N.N.N.N.N.N.",
"N.N.N.N.N.N.N.N.N.N.N.N.N.N.N.N.N.N.N.N.N.N.N.N.N.N.N.N.N.N.N.w ..M.M...3 N.N.N.N.N.N.N.N.N.w ..M.M...w N.N.N.N.N.N.N.N.N.N.N.N.N.N.N.N.N.N.N.N.N.N.N.N.N.N.N.N.",
"N.N.N.N.N.N.N.N.N.N.N.N.N.N.N.N.N.N.N.N.N.N.N.N.N.N.N.N.N.N.N.C ..M.=.>.C o N.N.N.N.N.N.N.o C -.=.M...C N.N.N.N.N.N.N.N.N.N.N.N.N.N.N.N.N.N.N.N.N.N.N.N.N.N.N.N.",
"N.N.N.N.N.N.N.N.N.N.N.N.N.N.N.N.N.N.N.N.N.N.N.N.N.N.N.N.N.N.o ..M.M.M.=...o N.N.N.N.N.N.N.o ..>.M.M.M...o N.N.N.N.N.N.N.N.N.N.N.N.N.N.N.N.N.N.N.N.N.N.N.N.N.N.N.",
"N.N.N.N.N.N.N.N.N.N.N.N.N.N.N.N.N.N.N.N.N.N.N.N.N.N.N.N.N.N.o ..M.M.M.-...o N.N.N.N.N.N.N.o ..=.M.M.M...o N.N.N.N.N.N.N.N.N.N.N.N.N.N.N.N.N.N.N.N.N.N.N.N.N.N.N.",
"N.N.N.N.N.N.N.N.N.N.N.N.N.N.N.N.N.N.N.N.N.N.N.N.N.N.N.N.N.N.o C ........C o N.N.N.N.N.N.N.o C ........C o N.N.N.N.N.N.N.N.N.N.N.N.N.N.N.N.N.N.N.N.N.N.N.N.N.N.N.",
"N.N.N.N.N.N.N.N.N.N.N.N.N.N.N.N.N.N.N.N.N.N.N.N.N.N.N.N.N.N.  o C w w w w N.N.N.N.N.N.N.N.N.w w w w C o   N.N.N.N.N.N.N.N.N.N.N.N.N.N.N.N.N.N.N.N.N.N.N.N.N.N.N.",
"N.N.N.N.N.N.N.N.N.N.N.N.N.N.N.N.N.N.N.N.N.N.N.N.N.N.N.N.N.N.  C w o o w   N.N.N.N.N.N.N.N.N.  w o o w C   N.N.N.N.N.N.N.N.N.N.N.N.N.N.N.N.N.N.N.N.N.N.N.N.N.N.N.",
"N.N.N.N.N.N.N.N.N.N.N.N.N.N.N.N.N.N.N.N.N.N.N.N.N.N.N.N.N.N.N.o o o o o   N.N.N.N.N.N.N.N.N.  o o o o o N.N.N.N.N.N.N.N.N.N.N.N.N.N.N.N.N.N.N.N.N.N.N.N.N.N.N.N.",
"N.N.N.N.N.N.N.N.N.N.N.N.N.N.N.N.N.N.N.N.N.N.N.N.N.N.N.N.N.N.N.N.N.N.N.N.N.N.N.N.N.N.N.N.N.N.N.N.N.N.N.N.N.N.N.N.N.N.N.N.N.N.N.N.N.N.N.N.N.N.N.N.N.N.N.N.N.N.N.N.",
"N.N.N.N.N.N.N.N.N.N.N.N.N.N.N.N.N.N.N.N.N.N.N.N.N.N.N.N.N.N.N.N.N.N.N.N.N.N.N.N.N.N.N.N.N.N.N.N.N.N.N.N.N.N.N.N.N.N.N.N.N.N.N.N.N.N.N.N.N.N.N.N.N.N.N.N.N.N.N.N.",
"N.N.N.N.N.N.N.N.N.N.N.N.N.N.N.N.N.N.N.N.N.N.N.N.N.N.N.N.N.N.N.N.N.N.N.N.N.N.N.N.N.N.N.N.N.N.N.N.N.N.N.N.N.N.N.N.N.N.N.N.N.N.N.N.N.N.N.N.N.N.N.N.N.N.N.N.N.N.N.N.",
"N.N.N.N.N.N.N.N.N.N.N.N.N.N.N.N.N.N.N.N.N.N.N.N.N.N.N.N.N.N.N.N.N.N.N.N.N.N.N.N.N.N.N.N.N.N.N.N.N.N.N.N.N.N.N.N.N.N.N.N.N.N.N.N.N.N.N.N.N.N.N.N.N.N.N.N.N.N.N.N.",
"N.N.N.N.N.N.N.N.N.N.N.N.N.N.N.N.N.N.N.N.N.N.N.N.N.N.N.N.N.N.N.N.N.N.N.N.N.N.N.N.N.N.N.N.N.N.N.N.N.N.N.N.N.N.N.N.N.N.N.N.N.N.N.N.N.N.N.N.N.N.N.N.N.N.N.N.N.N.N.N."
};
