/* XPM */
static char *Free_Converter_com_pegface3_78013855[] = {
/* columns rows colors chars-per-pixel */
"80 80 138 2 ",
"   c #5B5B94",
".  c #66669D",
"X  c #75759A",
"o  c #7B7BA5",
"O  c #7979AC",
"+  c #7B7BAD",
"@  c #7B7BAE",
"#  c #7C7CAE",
"$  c #7F7FB0",
"%  c #7B809A",
"&  c #7B9597",
"*  c #73AC89",
"=  c #828D9F",
"-  c #86B89A",
";  c #8383A3",
":  c #8989A7",
">  c #8C8CAA",
",  c #8E8EAD",
"<  c #9293AE",
"1  c #8181B2",
"2  c #8787B0",
"3  c #8E8EBB",
"4  c #9090B2",
"5  c #9595B1",
"6  c #9797B3",
"7  c #9292B5",
"8  c #9999B5",
"9  c #9A9AB6",
"0  c #9D9DB7",
"q  c #9191BD",
"w  c #9393BE",
"e  c #9E9EB8",
"r  c #9F9FBA",
"t  c #94AEAB",
"y  c #9EABB6",
"u  c #A0A1BA",
"i  c #A3A3BD",
"p  c #A5A5BE",
"a  c #A4ABBC",
"s  c #A7ADBE",
"d  c #9E9EC1",
"f  c #A8A8C0",
"g  c #A8A8C3",
"h  c #AAAAC2",
"j  c #ABABC3",
"k  c #ACACC4",
"l  c #AEAEC4",
"z  c #AFAFC6",
"x  c #A3A3C9",
"c  c #A6A6C9",
"v  c #A9A9CD",
"b  c #ABABCE",
"n  c #B0AFC7",
"m  c #B0B0C6",
"M  c #B1B1C8",
"N  c #B3B3C9",
"B  c #B4B4C9",
"V  c #B6B6CB",
"C  c #B6B6CE",
"Z  c #B9B9CD",
"A  c #BABACE",
"S  c #B0B0D0",
"D  c #B9B9D1",
"F  c #BCBCD0",
"G  c #BEBED1",
"H  c #BDBDD2",
"J  c #BEBED2",
"K  c #BBBBD4",
"L  c #B9B9D7",
"P  c #BFBFD7",
"I  c #B7C0C9",
"U  c #C1C1D3",
"Y  c #C3C3D5",
"T  c #C5C5D6",
"R  c #C7C7D7",
"E  c #C5C5DB",
"W  c #C9C9D9",
"Q  c #CBCBDB",
"!  c #CCCCDB",
"~  c #C8C8DE",
"^  c #C8C8DF",
"/  c #CDCDDC",
"(  c #CFCFDD",
")  c #CFCFDF",
"_  c #D0D0DE",
"`  c #CACAE1",
"'  c #CBCBE2",
"]  c #CECEE1",
"[  c #CFCFE4",
"{  c #D3D3E0",
"}  c #D4D4E1",
"|  c #D4D4E3",
" . c #D7D7E3",
".. c #D6D6E6",
"X. c #DADAE5",
"o. c #DBDBE6",
"O. c #D8D8E9",
"+. c #DADAEA",
"@. c #DBDBEB",
"#. c #DCDCE8",
"$. c #DDDDE8",
"%. c #DEDEE8",
"&. c #DFDFEA",
"*. c #DFDFED",
"=. c #E0E0E9",
"-. c #E0E0EB",
";. c #E2E2EB",
":. c #E3E3EC",
">. c #E2E2EE",
",. c #E7E6ED",
"<. c #E4E4EF",
"1. c #E6E6EE",
"2. c #E5E5F1",
"3. c #E7E7F1",
"4. c #E7E7F2",
"5. c #E9E9F0",
"6. c #EAEAF1",
"7. c #E9E9F2",
"8. c #EAEAF3",
"9. c #EDEDF3",
"0. c #ECECF5",
"q. c #EDEDF5",
"w. c #EFEFF5",
"e. c #F0F0F5",
"r. c #F0F0F7",
"t. c #F2F2F6",
"y. c #F3F3F8",
"u. c #F4F4F8",
"i. c #F5F5F9",
"p. c #F6F6F9",
"a. c #F7F7FB",
"s. c #F8F8FB",
"d. c #FCFCFD",
"f. c #FDFDFD",
"g. c #FDFDFE",
"h. c #FEFEFE",
"j. c gray100",
"k. c None",
/* pixels */
"k.k.k.k.k.k.k.k.k.k.k.k.k.k.k.k.k.k.k.k.k.k.k.k.k.k.k.k.k.k.k.k.k.k.k.k.k.k.k.k.k.k.k.k.k.k.k.k.k.k.k.k.k.k.k.k.k.k.k.k.k.k.k.k.k.k.k.k.k.k.k.k.k.k.k.k.k.k.k.k.",
"k.k.k.k.k.k.k.k.k.k.k.k.k.k.k.k.k.k.k.k.k.k.k.k.k.k.k.k.k.k.k.k.k.k.k.k.k.k.k.k.k.k.k.k.k.k.k.k.k.k.k.k.k.k.k.k.k.k.k.k.k.k.k.k.k.k.k.k.k.k.k.k.k.k.k.k.k.k.k.k.",
"k.k.k.k.k.k.k.k.k.k.k.k.k.k.k.k.k.k.k.k.k.k.k.k.k.k.k.k.k.k.k.k.k.k.k.k.k.k.k.k.k.k.k.k.k.k.k.k.k.k.k.k.k.k.k.k.k.k.k.k.k.k.k.k.k.k.k.k.k.k.k.k.k.k.k.k.k.k.k.k.",
"k.k.k.k.k.k.k.k.k.k.k.k.k.k.k.k.k.k.k.k.k.k.k.k.k.k.k.k.k.k.k.k.k.k.k.k.k.k.k.k.k.k.k.k.k.k.k.k.k.k.k.k.k.k.k.k.k.k.k.k.k.k.k.k.k.k.k.k.k.k.k.k.k.k.k.k.k.k.k.k.",
"k.k.k.k.k.k.k.k.k.k.k.k.k.k.k.k.k.k.k.k.k.k.k.k.k.k.k.k.k.k.k.k.k.k.k.k.k.k.k.k.k.k.k.k.k.k.k.k.k.k.k.k.k.k.k.k.k.k.k.k.k.k.k.k.k.k.k.k.k.k.k.k.k.k.k.k.k.k.k.k.",
"k.k.k.k.k.k.k.k.k.k.k.k.k.k.k.k.k.k.k.k.k.k.k.k.k.k.k.k.k.k.k.k.k.k.k.k.k.k.k.k.k.k.k.k.k.k.k.k.k.k.k.k.k.k.k.k.k.k.k.k.k.k.k.k.k.k.k.k.k.k.k.k.k.k.k.k.k.k.k.k.",
"k.k.k.k.k.k.k.k.k.k.k.k.k.k.k.k.k.k.k.k.k.k.k.k.k.k.k.k.k.k.k.k.k.k.k.k.k.k.k.k.k.k.k.k.k.k.k.k.k.k.k.k.k.k.k.k.k.k.k.k.k.k.k.k.k.k.k.k.k.k.k.k.k.k.k.k.k.k.k.k.",
"k.k.k.k.k.k.k.k.k.k.k.k.k.k.k.k.k.k.k.k.k.k.k.k.k.k.k.k.k.k.k.k.k.k.k.k.k.k.k.k.k.k.k.k.k.k.k.k.k.k.k.k.k.k.k.k.k.k.k.k.k.k.k.k.k.k.k.k.k.k.k.k.k.k.k.k.k.k.k.k.",
"k.k.k.k.k.k.k.k.k.k.k.k.k.k.k.k.k.k.k.k.k.k.k.k.k.k.k.k.k.k.k.k.k.k.k.k.k.k.k.k.k.k.k.k.k.k.k.k.k.k.k.k.k.k.k.k.k.k.k.k.k.k.k.k.k.k.k.k.k.k.k.k.k.k.k.k.k.k.k.k.",
"k.k.k.k.k.k.k.k.k.k.k.k.k.k.k.k.k.k.k.k.k.k.k.k.k.k.k.k.k.k.k.k.k.k.k.k.k.k.k.k.k.k.k.k.k.k.k.k.k.k.k.k.k.k.k.k.k.k.k.k.k.k.k.k.k.k.k.k.k.k.k.k.k.k.k.k.k.k.k.k.",
"k.k.k.k.k.k.k.k.k.k.k.k.k.k.k.k.k.k.k.k.k.k.k.k.k.k.k.k.k.k.k.k.k.k.k.k.k.k.v v v v v k.k.k.k.k.k.k.k.k.k.k.k.k.k.k.k.k.k.k.k.k.k.k.k.k.k.k.k.k.k.k.k.k.k.k.k.k.",
"k.k.k.k.k.k.k.k.k.k.k.k.k.k.k.k.k.k.k.k.k.k.k.k.k.k.k.k.k.k.k.k.k.k.k.q v v ' ' ' ' ' v v q k.k.k.k.k.k.k.k.k.k.k.k.k.k.k.k.k.k.k.k.k.k.k.k.k.k.k.k.k.k.k.k.k.k.",
"k.k.k.k.k.k.k.k.k.k.k.k.k.k.k.k.k.k.k.k.k.k.k.k.k.k.k.k.k.k.k.k.k.q v ' @.@.0.0.0.0.0.@.@.' v q k.k.k.k.k.k.k.k.k.k.k.k.k.k.k.k.k.k.k.k.k.k.k.k.k.k.k.k.k.k.k.k.",
"k.k.k.k.k.k.k.k.k.k.k.k.k.k.k.k.k.k.k.k.k.k.k.k.k.k.k.k.k.k.k.k.q v @.0.0.0.0.0.0.0.0.0.0.0.@.v q k.k.k.k.k.k.k.k.k.k.k.k.k.k.k.k.k.k.k.k.k.k.k.k.k.k.k.k.k.k.k.",
"k.k.k.k.k.k.k.k.k.k.k.k.k.k.k.k.k.k.k.k.k.k.k.k.k.k.k.k.k.k.k.q v @.0.0.0.0.0.0.0.0.0.0.0.0.0.@.v q k.k.k.k.k.k.k.k.k.k.k.k.k.k.k.k.k.k.k.k.k.k.k.k.k.k.k.k.k.k.",
"k.k.k.k.k.k.k.k.k.k.k.k.k.k.k.k.k.k.k.k.k.k.k.k.k.k.k.k.k.k.@ v ' 0.0.0.0.0.0.0.0.0.0.0.0.0.0.0.' v @ k.k.k.k.k.k.k.k.k.k.k.k.k.k.k.k.k.k.k.k.k.k.k.k.k.k.k.k.k.",
"k.k.k.k.k.k.k.k.k.k.k.k.k.k.k.k.k.k.k.k.k.k.k.k.k.k.k.k.k.k.q v ' 0.0.0.0.0.0.0.0.0.0.0.0.0.0.0.' v q k.k.k.k.k.k.k.k.k.k.k.k.k.k.k.k.k.k.k.k.k.k.k.k.k.k.k.k.k.",
"k.k.k.k.k.k.k.k.k.k.k.k.k.k.k.k.k.k.k.k.k.k.k.k.k.k.k.k.k.@ v ' ' @.@.0.0.0.0.0.0.0.0.0.0.0.@.@.' ' v @ k.k.k.k.k.k.k.k.k.k.k.k.k.k.k.k.k.k.k.k.k.k.k.k.k.k.k.k.",
"k.k.k.k.k.k.k.k.k.k.k.k.k.k.k.k.k.k.k.k.k.k.k.k.k.k.k.k.k.q v ' ' ' @.@.' @.@.0.0.0.@.@.@.@.@.' ' ' v q k.k.k.k.k.k.k.k.k.k.k.k.k.k.k.k.k.k.k.k.k.k.k.k.k.k.k.k.",
"k.k.k.k.k.k.k.k.k.k.k.k.k.k.k.k.k.k.k.k.V U U V u k.k.k.2 q v ' ' ' ' E ( @.%.0.0.0.@.@.@.' ' ' ' ' v q # k.k.k.k.f A U U s k.k.k.k.k.k.k.k.k.k.k.k.k.k.k.k.k.k.",
"k.k.k.k.k.k.k.k.k.k.k.k.k.k.k.k.k.k.a _ i.h.h.t.;.T A M k d d k P ' D l [ 0.0.0.0.0.0.0.0...D K ~ G e d 7 m V G _ ,.s.h.h.0.T - k.k.k.k.k.k.k.k.k.k.k.k.k.k.k.k.",
"k.k.k.k.k.k.k.k.k.k.k.k.k.k.k.k.k.y ( :.( { { } } %.i.! U i j N G i.h.M %.0.0.0.0.0.0.0.0.4.T h.:.M M f f T %.t. . .} _ _ } ;.U a k.k.k.k.k.k.k.k.k.k.k.k.k.k.k.",
"k.k.k.k.k.k.k.k.k.k.k.k.k.k.k.k.t ! o.G 0 u u u T i.h.h.t.;.R A k p %.9.{ 0.0.0.0.0.0.0.0.:.u.Q i f U Q 6.s.h.h.:.V 0 u 0 u Q o.U a k.k.k.k.k.k.k.k.k.k.k.k.k.k.",
"k.k.k.k.k.k.k.k.k.k.k.k.k.k.k.a } o.U 0 8 8 8 8 e i e  .h.h.h.h.} < A h.a.6.0.0.0.0.0.0.0.0.h.8 i 6.h.h.h.h.A e u 0 8 8 8 8 i ! o.a a k.k.k.k.k.k.k.k.k.k.k.k.k.",
"k.k.k.k.k.k.k.k.k.k.k.k.k.a U }  .T e 8 8 8 0 0 8 8 8 8 9 U t.h.h.h.%.6 0.0.0.0.0.0.0.0.0.4.i s.h.h.h.=.N 6 8 8 8 8 0 8 8 0 6 f _  . .V k.k.k.k.k.k.k.k.k.k.k.k.",
"k.k.k.k.k.k.k.k.k.k.k.a a o.} Q m i 8 8 8 8 8 8 0 8 8 8 9 6 < 9 h.h.h._ ;.0.0.0.0.0.0.0.0.4.s.h.h.} , < 8 9 9 8 8 0 8 8 0 8 8 6 f V _  ._ M k.k.k.k.k.k.k.k.k.k.",
"k.k.k.k.k.k.k.k.k.k.A } } ( n f 6 6 8 8 6 0 0 6 0 6 4 0 9 9 6 6 u %.h.h.( 0.0.0.0.0.0.0.0.0.s.h.T 6 6 6 9 9 0 , 8 8 6 0 0 6 e 6 < 8 i A _ o.Q a k.k.k.k.k.k.k.k.",
"k.k.k.k.k.k.k.k.I ! o.( V i 8 6 , , 8 8 6 0 < 6 0 , , 0 9 6 6 < 6 X A h.0.6.0.0.0.0.0.0.0.0.h., ; < 6 6 9 9 0 : 6 8 < 6 0 6 6 8 > < 8 0 i T ! o.a a a k.k.k.k.k.",
"k.k.k.k.k.k.a ( o.Q U 8 6 6 8 < > 8 0 > 0 8 : 6 6 > 8 6 8 6 5 > : ; e h.s.0.0.0.0.0.0.0.0.r.s.; : : 6 , 9 6 6 6 > e , > 6 6 , 0 6 : 6 8 8 < i E } o.U a k.k.k.k.",
"k.k.k.k.k.a { o.Q u > > 8 0 < > 8 0 > 6 0 < < 0 , , u > 6 6 > < ; ; < h.a.0.0.0.0.0.0.0.0.r.=.; : ; 6 > e < < e : 6 e > 6 0 < 4 0 8 : 6 0 8 : , l } %.T a k.k.k.",
"k.k.k.k.a _ o.! u % > 8 0 8 % < e 6 : 8 8 : 6 e : 6 0 > 6 6 ; : ; ; > h.r.0.[ 4.[ 6.[ 0.0.r.} : : ; : : e > , e > > u , , e 6 : 8 8 > ; 0 0 0 ; ; N { %.U k.k.k.",
"k.k.k.k.( o.( i * % 8 e 8 * = 0 e ; > 8 : ; 8 < % 8 < % , : X > % % i 4.c [ 4.h.h.h.4.[ x @.:.< % % > % < ; ; 9 < % 9 8 X < 8 ; , e 8 & & 0 e a a a V { %.G k.k.",
"k.k.k.U ;.( f & k.& < 4 * k.& 6 , k.= ; k.; : k.k., * k.; % % ; % i ..1 @ [ h.h.h.h.h.[ @ d i...< X : % ; & k.; = k.k.= % k.: k.% 6 < k.k.> < a k.k.> V o.:.a k.",
"k.k.k.- V f % k.k.k.k.k.k.k.k.% & k.k.k.k.k.& k.k.k.k.k.o g M l i ( @.0.v @ h.h.h.h.h.# v 0.@.6.V l m f o k.k.k.k.k.k.k.k.k.k.k.k.% % k.k.k.k.k.k.k.k.> l V a k.",
"k.k.k.k.k.k.k.k.k.k.k.k.k.k.k.k.k.k.k.k.k.k.k.k.k.k.k.k.@ v ' ' ' G S ' ' v h.h.h.h.h.v ' ' v q E ' ' v @ k.k.k.k.k.k.k.k.k.k.k.k.k.k.k.k.k.k.k.k.k.k.k.k.k.k.k.",
"k.k.k.k.k.k.k.k.k.k.k.k.k.k.k.k.k.k.k.k.k.k.k.k.k.k.k.k.@ v ' v ' P $ @ q v [ h.h.h.[ v q # $ v ' v ' v @ k.k.k.k.k.k.k.k.k.k.k.k.k.k.k.k.k.k.k.k.k.k.k.k.k.k.k.",
"k.k.k.k.k.k.k.k.k.k.k.k.k.k.k.k.k.k.k.k.k.k.k.k.k.k.k.k.# q v v ' v x @ v v c h.[ h.x v v @ x v ' v v q @ k.k.k.k.k.k.k.k.k.k.k.k.k.k.k.k.k.k.k.k.k.k.k.k.k.k.k.",
"k.k.k.k.k.k.k.k.k.k.k.k.k.k.k.k.k.k.k.k.k.k.k.k.k.k.k.k.# q v ' @.[ q v v ' ' h.x h.' ' v v q [ @.' v q @ k.k.k.k.k.k.k.k.k.k.k.k.k.k.k.k.k.k.k.k.k.k.k.k.k.k.k.",
"k.k.k.k.k.k.k.k.k.k.k.k.k.k.k.k.k.k.k.k.k.k.k.k.k.k.k.k.# q ' @.0.' q v @.0.@.[ ' [ @.0.@.v q [ 0.@.' w # k.k.k.k.k.k.k.k.k.k.k.k.k.k.k.k.k.k.k.k.k.k.k.k.k.k.k.",
"k.k.k.k.k.k.k.k.k.k.k.k.k.k.k.k.k.k.k.k.k.k.k.k.k.k.k.k.@ v ' 0.h.x q ' 0.0.0.x ' x 0.0.0.' q x h.0.' v @ k.k.k.k.k.k.k.k.k.k.k.k.k.k.k.k.k.k.k.k.k.k.k.k.k.k.k.",
"k.k.k.k.k.k.k.k.k.k.k.k.k.k.k.k.k.k.k.k.k.k.k.k.k.k.k.k.@ v @.' [ c q v @.0.0.0.0.0.0.0.@.v q x [ ' @.v @ k.k.k.k.k.k.k.k.k.k.k.k.k.k.k.k.k.k.k.k.k.k.k.k.k.k.k.",
"k.k.k.k.k.k.k.k.k.k.k.k.k.k.k.k.k.k.k.k.k.k.k.k.k.k.k.k.q ' 0.' [ v @ v v @.0.@.@.@.0.@.v v @ v [ ' 0.' q k.k.k.k.k.k.k.k.k.k.k.k.k.k.k.k.k.k.k.k.k.k.k.k.k.k.k.",
"k.k.k.k.k.k.k.k.k.k.k.k.k.k.k.k.k.k.k.k.k.k.k.k.k.k.k.k.q @.0.' v @.@ '   v @.@.' @.@.v   ' @ @.v ' 0.@.q k.k.k.k.k.k.k.k.k.k.k.k.k.k.k.k.k.k.k.k.k.k.k.k.k.k.k.",
"k.k.k.k.k.k.k.k.k.k.k.k.k.k.k.k.k.k.k.k.k.k.k.k.k.k.k.k.v 0.0.' ' @.@ v   q ' ' v ' ' q   v @ @.' ' 0.0.v k.k.k.k.k.k.k.k.k.k.k.k.k.k.k.k.k.k.k.k.k.k.k.k.k.k.k.",
"k.k.k.k.k.k.k.k.k.k.k.k.k.k.k.k.k.k.k.k.k.k.k.k.k.k.k.q v 0.0.' @.0.q @ v q ' ' v ' ' q v @ q 0.@.' 0.0.v q k.k.k.k.k.k.k.k.k.k.k.k.k.k.k.k.k.k.k.k.k.k.k.k.k.k.",
"k.k.k.k.k.k.k.k.k.k.k.k.k.k.k.k.k.k.k.k.k.k.k.k.k.k.k.q ' 0.0.' @.0.q   v v ' @.' @.' v v   q 0.@.' 0.0.' q k.k.k.k.k.k.k.k.k.k.k.k.k.k.k.k.k.k.k.k.k.k.k.k.k.k.",
"k.k.k.k.k.k.k.k.k.k.k.k.k.k.k.k.k.k.k.k.k.k.k.k.k.k.k.@ ' 0.0.' ' @.v   q v ' @.@.@.' v q   v @.' ' 0.0.' @ k.k.k.k.k.k.k.k.k.k.k.k.k.k.k.k.k.k.k.k.k.k.k.k.k.k.",
"k.k.k.k.k.k.k.k.k.k.k.k.k.k.k.k.k.k.k.k.k.k.k.k.k.k.k.. @.0.0.@.' ' v q @ v ' 0.@.0.' v @ q v ' ' @.0.0.@.. k.k.k.k.k.k.k.k.k.k.k.k.k.k.k.k.k.k.k.k.k.k.k.k.k.k.",
"k.k.k.k.k.k.k.k.k.k.k.k.k.k.k.k.k.k.k.k.k.k.k.k.k.k.k.. @.0.0.@.c ~ ' q   v ' 0.@.0.' v   q ' ' v @.0.0.@.. k.k.k.k.k.k.k.k.k.k.k.k.k.k.k.k.k.k.k.k.k.k.k.k.k.k.",
"k.k.k.k.k.k.k.k.k.k.k.k.k.k.k.k.k.k.k.k.k.k.k.k.k.k.k.. ' @.D N 4 ' v v   ' 0.0.0.0.0.'   v v ' v @.@.@.' . k.k.k.k.k.k.k.k.k.k.k.k.k.k.k.k.k.k.k.k.k.k.k.k.k.k.",
"k.k.k.k.k.k.k.k.k.k.k.k.k.k.k.k.k.k.k.k.k.k.k.k.k.k.k.. v @.@.e V v v v   @.0.0.0.0.0.@.  v v v ' ' @.@.v . k.k.k.k.k.k.k.k.k.k.k.k.k.k.k.k.k.k.k.k.k.k.k.k.k.k.",
"k.k.k.k.k.k.k.k.k.k.k.k.k.k.k.k.k.k.k.k.k.k.k.k.k.k.k.k.v @.@.f K v q v @ @.v @.@.@.v @.@ v q v ' ' @.@.v k.k.k.k.k.k.k.k.k.k.k.k.k.k.k.k.k.k.k.k.k.k.k.k.k.k.k.",
"k.k.k.k.k.k.k.k.k.k.k.k.k.k.k.k.k.k.k.k.k.k.k.k.k.k.k.k.q @.' ' ' ' v q q   ' v @.v '   q q v ' ' ' ' @.q k.k.k.k.k.k.k.k.k.k.k.k.k.k.k.k.k.k.k.k.k.k.k.k.k.k.k.",
"k.k.k.k.k.k.k.k.k.k.k.k.k.k.k.k.k.k.k.k.k.k.k.k.k.k.k.k.q ' @.' ' ' ' v q q   @ @ @   q q v ' ' ' ' @.' q k.k.k.k.k.k.k.k.k.k.k.k.k.k.k.k.k.k.k.k.k.k.k.k.k.k.k.",
"k.k.k.k.k.k.k.k.k.k.k.k.k.k.k.k.k.k.k.k.k.k.k.k.k.k.k.k.. ' 0.v ' ' ' ' ' v q @ @ @ q v ' ' ' ' ' v 0.' . k.k.k.k.k.k.k.k.k.k.k.k.k.k.k.k.k.k.k.k.k.k.k.k.k.k.k.",
"k.k.k.k.k.k.k.k.k.k.k.k.k.k.k.k.k.k.k.k.k.k.k.k.k.k.k.k.. v 0.' v v ' ' ' ' v v v v v ' ' ' ' v v ' 0.v . k.k.k.k.k.k.k.k.k.k.k.k.k.k.k.k.k.k.k.k.k.k.k.k.k.k.k.",
"k.k.k.k.k.k.k.k.k.k.k.k.k.k.k.k.k.k.k.k.k.k.k.k.k.k.k.k.k.v 0.' v q q q v v v v v v v v v q q q v ' 0.v k.k.k.k.k.k.k.k.k.k.k.k.k.k.k.k.k.k.k.k.k.k.k.k.k.k.k.k.",
"k.k.k.k.k.k.k.k.k.k.k.k.k.k.k.k.k.k.k.k.k.k.k.k.k.k.k.k.k.v 0.@.' v q @ q q q v v v q q q @ q v ' @.0.v k.k.k.k.k.k.k.k.k.k.k.k.k.k.k.k.k.k.k.k.k.k.k.k.k.k.k.k.",
"k.k.k.k.k.k.k.k.k.k.k.k.k.k.k.k.k.k.k.k.k.k.k.k.k.k.k.k.k.@ 0.0.' v q @ @               @ @ q v ' 0.0.@ k.k.k.k.k.k.k.k.k.k.k.k.k.k.k.k.k.k.k.k.k.k.k.k.k.k.k.k.",
"k.k.k.k.k.k.k.k.k.k.k.k.k.k.k.k.k.k.k.k.k.k.k.k.k.k.k.k.k.. @.0.@.v v q   k.k.k.k.k.k.k.  q v v @.0.@.. k.k.k.k.k.k.k.k.k.k.k.k.k.k.k.k.k.k.k.k.k.k.k.k.k.k.k.k.",
"k.k.k.k.k.k.k.k.k.k.k.k.k.k.k.k.k.k.k.k.k.k.k.k.k.k.k.k.k.. ' 0.0.' v q   k.k.k.k.k.k.k.  q v ' 0.0.' . k.k.k.k.k.k.k.k.k.k.k.k.k.k.k.k.k.k.k.k.k.k.k.k.k.k.k.k.",
"k.k.k.k.k.k.k.k.k.k.k.k.k.k.k.k.k.k.k.k.k.k.k.k.k.k.k.k.k.. v 0.0.' v q   k.k.k.k.k.k.k.  q v ' 0.0.v . k.k.k.k.k.k.k.k.k.k.k.k.k.k.k.k.k.k.k.k.k.k.k.k.k.k.k.k.",
"k.k.k.k.k.k.k.k.k.k.k.k.k.k.k.k.k.k.k.k.k.k.k.k.k.k.k.k.k.k.v @.0.@.v @   k.k.k.k.k.k.k.  @ v @.0.@.v k.k.k.k.k.k.k.k.k.k.k.k.k.k.k.k.k.k.k.k.k.k.k.k.k.k.k.k.k.",
"k.k.k.k.k.k.k.k.k.k.k.k.k.k.k.k.k.k.k.k.k.k.k.k.k.k.k.k.k.k.q ' @.@.v @ k.k.k.k.k.k.k.k.k.@ v @.@.' q k.k.k.k.k.k.k.k.k.k.k.k.k.k.k.k.k.k.k.k.k.k.k.k.k.k.k.k.k.",
"k.k.k.k.k.k.k.k.k.k.k.k.k.k.k.k.k.k.k.k.k.k.k.k.k.k.k.k.k.k.. v ' @.v @ k.k.k.k.k.k.k.k.k.@ v @.' v . k.k.k.k.k.k.k.k.k.k.k.k.k.k.k.k.k.k.k.k.k.k.k.k.k.k.k.k.k.",
"k.k.k.k.k.k.k.k.k.k.k.k.k.k.k.k.k.k.k.k.k.k.k.k.k.k.k.k.k.k.. v @.@.@.  k.k.k.k.k.k.k.k.k.  @.@.@.v . k.k.k.k.k.k.k.k.k.k.k.k.k.k.k.k.k.k.k.k.k.k.k.k.k.k.k.k.k.",
"k.k.k.k.k.k.k.k.k.k.k.k.k.k.k.k.k.k.k.k.k.k.k.k.k.k.k.k.k.k.. q ' @.'   k.k.k.k.k.k.k.k.k.  ' @.' q . k.k.k.k.k.k.k.k.k.k.k.k.k.k.k.k.k.k.k.k.k.k.k.k.k.k.k.k.k.",
"k.k.k.k.k.k.k.k.k.k.k.k.k.k.k.k.k.k.k.k.k.k.k.k.k.k.k.k.k.k.. q v v v   k.k.k.k.k.k.k.k.k.  v v v q . k.k.k.k.k.k.k.k.k.k.k.k.k.k.k.k.k.k.k.k.k.k.k.k.k.k.k.k.k.",
"k.k.k.k.k.k.k.k.k.k.k.k.k.k.k.k.k.k.k.k.k.k.k.k.k.k.k.k.k.k.. q v v q   k.k.k.k.k.k.k.k.k.  q v v q . k.k.k.k.k.k.k.k.k.k.k.k.k.k.k.k.k.k.k.k.k.k.k.k.k.k.k.k.k.",
"k.k.k.k.k.k.k.k.k.k.k.k.k.k.k.k.k.k.k.k.k.k.k.k.k.k.k.k.k.k.q v ' v q   k.k.k.k.k.k.k.k.k.  q v ' v q k.k.k.k.k.k.k.k.k.k.k.k.k.k.k.k.k.k.k.k.k.k.k.k.k.k.k.k.k.",
"k.k.k.k.k.k.k.k.k.k.k.k.k.k.k.k.k.k.k.k.k.k.k.k.k.k.k.k.k.# v ' ' v q   k.k.k.k.k.k.k.k.k.  q v ' ' v @ k.k.k.k.k.k.k.k.k.k.k.k.k.k.k.k.k.k.k.k.k.k.k.k.k.k.k.k.",
"k.k.k.k.k.k.k.k.k.k.k.k.k.k.k.k.k.k.k.k.k.k.k.k.k.k.k.k.k.# @.' ' ' v # k.k.k.k.k.k.k.k.k.@ v ' ' ' @.@ k.k.k.k.k.k.k.k.k.k.k.k.k.k.k.k.k.k.k.k.k.k.k.k.k.k.k.k.",
"k.k.k.k.k.k.k.k.k.k.k.k.k.k.k.k.k.k.k.k.k.k.k.k.k.k.k.k.k.v q @.@.@.v   k.k.k.k.k.k.k.k.k.  v @.@.@.q v k.k.k.k.k.k.k.k.k.k.k.k.k.k.k.k.k.k.k.k.k.k.k.k.k.k.k.k.",
"k.k.k.k.k.k.k.k.k.k.k.k.k.k.k.k.k.k.k.k.k.k.k.k.k.k.k.k.k.@ L q q v q 3 k.k.k.k.k.k.k.k.k.3 q v q q L @ k.k.k.k.k.k.k.k.k.k.k.k.k.k.k.k.k.k.k.k.k.k.k.k.k.k.k.k.",
"k.k.k.k.k.k.k.k.k.k.k.k.k.k.k.k.k.k.k.k.k.k.k.k.k.k.k.k.k.@ L h.h.h.L   k.k.k.k.k.k.k.k.k.  L h.h.h.L @ k.k.k.k.k.k.k.k.k.k.k.k.k.k.k.k.k.k.k.k.k.k.k.k.k.k.k.k.",
"k.k.k.k.k.k.k.k.k.k.k.k.k.k.k.k.k.k.k.k.k.k.k.k.k.k.k.k.k.k.@ h.h.L   k.k.k.k.k.k.k.k.k.k.k.  L h.h.O k.k.k.k.k.k.k.k.k.k.k.k.k.k.k.k.k.k.k.k.k.k.k.k.k.k.k.k.k.",
"k.k.k.k.k.k.k.k.k.k.k.k.k.k.k.k.k.k.k.k.k.k.k.k.k.k.k.k.k.k.k.3 3   k.k.k.k.k.k.k.k.k.k.k.k.k.  3 3 k.k.k.k.k.k.k.k.k.k.k.k.k.k.k.k.k.k.k.k.k.k.k.k.k.k.k.k.k.k.",
"k.k.k.k.k.k.k.k.k.k.k.k.k.k.k.k.k.k.k.k.k.k.k.k.k.k.k.k.k.k.k.k.k.k.k.k.k.k.k.k.k.k.k.k.k.k.k.k.k.k.k.k.k.k.k.k.k.k.k.k.k.k.k.k.k.k.k.k.k.k.k.k.k.k.k.k.k.k.k.k.",
"k.k.k.k.k.k.k.k.k.k.k.k.k.k.k.k.k.k.k.k.k.k.k.k.k.k.k.k.k.k.k.k.k.k.k.k.k.k.k.k.k.k.k.k.k.k.k.k.k.k.k.k.k.k.k.k.k.k.k.k.k.k.k.k.k.k.k.k.k.k.k.k.k.k.k.k.k.k.k.k.",
"k.k.k.k.k.k.k.k.k.k.k.k.k.k.k.k.k.k.k.k.k.k.k.k.k.k.k.k.k.k.k.k.k.k.k.k.k.k.k.k.k.k.k.k.k.k.k.k.k.k.k.k.k.k.k.k.k.k.k.k.k.k.k.k.k.k.k.k.k.k.k.k.k.k.k.k.k.k.k.k."
};
