/* XPM */
static char *Free_Converter_com_pegface2_17453855[] = {
/* columns rows colors chars-per-pixel */
"80 80 143 2 ",
"   c #5B5B94",
".  c #66669D",
"X  c #7979AC",
"o  c #7B7BAE",
"O  c #7C7CAE",
"+  c #7B809A",
"@  c #73AC89",
"#  c #828D9F",
"$  c #8383A3",
"%  c #8989A7",
"&  c #8C8CAA",
"*  c #8E8EAD",
"=  c #8B9CA5",
"-  c #9293AE",
";  c #8787B0",
":  c #8B8BB3",
">  c #8E8EBB",
",  c #9595B1",
"<  c #9797B3",
"1  c #9999B5",
"2  c #9A9AB6",
"3  c #9D9DB7",
"4  c #9191BD",
"5  c #9E9EB8",
"6  c #94AEAB",
"7  c #A0A1BA",
"8  c #A3A3BD",
"9  c #A5A5BE",
"0  c #A4ABBC",
"q  c #A7ADBE",
"w  c #9BCCAA",
"e  c #9E9EC1",
"r  c #A8A8C0",
"t  c #A8A8C3",
"y  c #AAAAC2",
"u  c #ABABC3",
"i  c #ADAEC3",
"p  c #AEAEC4",
"a  c #AFAFC6",
"s  c #A3A3C9",
"d  c #A9A9CB",
"f  c #A9A9CD",
"g  c #ABABCD",
"h  c #B0B0C6",
"j  c #B1B1C8",
"k  c #B3B3C9",
"l  c #B6B6CB",
"z  c #B6B6CE",
"x  c #B9B9CD",
"c  c #B9B9CF",
"v  c #BABACE",
"b  c #BDBFCF",
"n  c #B0B0D0",
"m  c #B9B9D1",
"M  c #BCBCD0",
"N  c #BEBED1",
"B  c #BDBDD2",
"V  c #BEBED2",
"C  c #BBBBD4",
"Z  c #B9B9D7",
"A  c #BFBFD7",
"S  c #B3CCC2",
"D  c #C1C1D3",
"F  c #C2C2D4",
"G  c #C3C3D5",
"H  c #C4C4D5",
"J  c #C5C5D6",
"K  c #C7C7D7",
"L  c #C2C9D2",
"P  c #C7CED6",
"I  c #C9C9D9",
"U  c #CACADA",
"Y  c #CBCBDB",
"T  c #CCCCDB",
"R  c #C8C8DE",
"E  c #C8C8DF",
"W  c #CDCDDC",
"Q  c #CFCFDD",
"!  c #CDCDDE",
"~  c #CFCFDF",
"^  c #D0D0DE",
"/  c #CACAE1",
"(  c #CBCBE2",
")  c #CECEE1",
"_  c #CFCFE4",
"`  c #D3D3E0",
"'  c #D4D4E1",
"]  c #D4D4E3",
"[  c #D7D7E3",
"{  c #D2D2E4",
"}  c #D6D6E6",
"|  c #D9D9E3",
" . c #DADAE5",
".. c #D9D9E6",
"X. c #DBDBE6",
"o. c #DCDCE7",
"O. c #D7D7E8",
"+. c #D8D8E9",
"@. c #DADAEA",
"#. c #DBDBEB",
"$. c #DDDDE8",
"%. c #DEDEE8",
"&. c #DDDDEB",
"*. c #DFDFEA",
"=. c #DFDFED",
"-. c #E0E0E9",
";. c #E0E0EB",
":. c #E2E2EB",
">. c #E1E1EC",
",. c #E3E3EC",
"<. c #E2E2EE",
"1. c #E7E6ED",
"2. c #E4E4EF",
"3. c #E6E6EE",
"4. c #E8E8EF",
"5. c #E5E5F1",
"6. c #E7E7F2",
"7. c #E9E9F0",
"8. c #EAEAF1",
"9. c #E9E9F2",
"0. c #EAEAF3",
"q. c #EDEDF3",
"w. c #EBEBF4",
"e. c #ECECF5",
"r. c #EDEDF5",
"t. c #EFEFF5",
"y. c #EEEEF6",
"u. c #F0F0F5",
"i. c #F0F0F7",
"p. c #F2F2F6",
"a. c #F3F3F8",
"s. c #F4F4F8",
"d. c #F5F5F9",
"f. c #F6F6F9",
"g. c #F7F7FB",
"h. c #F8F8FB",
"j. c #FAFAFC",
"k. c #FCFCFD",
"l. c #FDFDFD",
"z. c #FDFDFE",
"x. c #FEFEFE",
"c. c gray100",
"v. c None",
/* pixels */
"v.v.v.v.v.v.v.v.v.v.v.v.v.v.v.v.v.v.v.v.v.v.v.v.v.v.v.v.v.v.v.v.v.v.v.v.v.v.v.v.v.v.v.v.v.v.v.v.v.v.v.v.v.v.v.v.v.v.v.v.v.v.v.v.v.v.v.v.v.v.v.v.v.v.v.v.v.v.v.v.",
"v.v.v.v.v.v.v.v.v.v.v.v.v.v.v.v.v.v.v.v.v.v.v.v.v.v.v.v.v.v.v.v.v.v.v.v.v.v.v.v.v.v.v.v.v.v.v.v.v.v.v.v.v.v.v.v.v.v.v.v.v.v.v.v.v.v.v.v.v.v.v.v.v.v.v.v.v.v.v.v.",
"v.v.v.v.v.v.v.v.v.v.v.v.v.v.v.v.v.v.v.v.v.v.v.v.v.v.v.v.v.v.v.v.v.v.v.v.v.v.v.v.v.v.v.v.v.v.v.v.v.v.v.v.v.v.v.v.v.v.v.v.v.v.v.v.v.v.v.v.v.v.v.v.v.v.v.v.v.v.v.v.",
"v.v.v.v.v.v.v.v.v.v.v.v.v.v.v.v.v.v.v.v.v.v.v.v.v.v.v.v.v.v.v.v.v.v.v.v.v.v.v.v.v.v.v.v.v.v.v.v.v.v.v.v.v.v.v.v.v.v.v.v.v.v.v.v.v.v.v.v.v.v.v.v.v.v.v.v.v.v.v.v.",
"v.v.v.v.v.v.v.v.v.v.v.v.v.v.v.v.v.v.v.v.v.v.v.v.v.v.v.v.v.v.v.v.v.v.v.v.v.v.v.v.v.v.v.v.v.v.v.v.v.v.v.v.v.v.v.v.v.v.v.v.v.v.v.v.v.v.v.v.v.v.v.v.v.v.v.v.v.v.v.v.",
"v.v.v.v.v.v.v.v.v.v.v.v.v.v.v.v.v.v.v.v.v.v.v.v.v.v.v.v.v.v.v.v.v.v.v.v.v.v.v.v.v.v.v.v.v.v.v.v.v.v.v.v.v.v.v.v.v.v.v.v.v.v.v.v.v.v.v.v.v.v.v.v.v.v.v.v.v.v.v.v.",
"v.v.v.v.v.v.v.v.v.v.v.v.v.v.v.v.v.v.v.v.v.v.v.v.v.v.v.v.v.v.v.v.v.v.v.v.v.v.v.v.v.v.v.v.v.v.v.v.v.v.v.v.v.v.v.v.v.v.v.v.v.v.v.v.v.v.v.v.v.v.v.v.v.v.v.v.v.v.v.v.",
"v.v.v.v.v.v.v.v.v.v.v.v.v.v.v.v.v.v.v.v.v.v.v.v.v.v.v.v.v.v.v.v.v.v.v.v.v.v.v.v.v.v.v.v.v.v.v.v.v.v.v.v.v.v.v.v.v.v.v.v.v.v.v.v.v.v.v.v.v.v.v.v.v.v.v.v.v.v.v.v.",
"v.v.v.v.v.v.v.v.v.v.v.v.v.v.v.v.v.v.v.v.v.v.v.v.v.v.v.v.v.v.v.v.v.v.v.v.v.v.v.v.v.v.v.v.v.v.v.v.v.v.v.v.v.v.v.v.v.v.v.v.v.v.v.v.v.v.v.v.v.v.v.v.v.v.v.v.v.v.v.v.",
"v.v.v.v.v.v.v.v.v.v.v.v.v.v.v.v.v.v.v.v.v.v.v.v.v.v.v.v.v.v.v.v.v.v.v.v.v.v.f f f f f 4 4 v.v.v.v.v.v.v.v.v.v.v.v.v.v.v.v.v.v.v.v.v.v.v.v.v.v.v.v.v.v.v.v.v.v.v.",
"v.v.v.v.v.v.v.v.v.v.v.v.v.v.v.v.v.v.v.v.v.v.v.v.v.v.v.v.v.v.v.v.v.v.v.v.f f #.e.e.e.e.e.#.f 4 4 v.v.v.v.v.v.v.v.v.v.v.v.v.v.v.v.v.v.v.v.v.v.v.v.v.v.v.v.v.v.v.v.",
"v.v.v.v.v.v.v.v.v.v.v.v.v.v.v.v.v.v.v.v.v.v.v.v.v.v.v.v.v.v.v.v.v.v.4 f #.e.e.e.e.e.e.e.e.e.#.f 4 4 v.v.v.v.v.v.v.v.v.v.v.v.v.v.v.v.v.v.v.v.v.v.v.v.v.v.v.v.v.v.",
"v.v.v.v.v.v.v.v.v.v.v.v.v.v.v.v.v.v.v.v.v.v.v.v.v.v.v.v.v.v.v.v.v.4 ( +.e.e.e.e.e.e.e.e.e.e.0.#.( f o v.v.v.v.v.v.v.v.v.v.v.v.v.v.v.v.v.v.v.v.v.v.v.v.v.v.v.v.v.",
"v.v.v.v.v.v.v.v.v.v.v.v.v.v.v.v.v.v.v.v.v.v.v.v.v.v.v.v.v.v.v.v.4 ( #.<.^ e.e.e.e.e.e.e.e.e.8.<.#.( f o v.v.v.v.v.v.v.v.v.v.v.v.v.v.v.v.v.v.v.v.v.v.v.v.v.v.v.v.",
"v.J v.v.v.v.v.v.v.v.v.v.v.v.v.v.v.v.v.v.v.v.v.v.v.v.v.v.v.v.v.4 f #.0.j I e.e.e.e.e.e.e.e.e.^ x z #.f 4 v.v.v.v.v.v.v.v.v.v.v.v.v.v.v.v.v.v.v.v.v.v.v.v.v.v.v.v.",
"v.[ v.v.v.v.v.v.v.v.v.v.v.v.v.v.v.v.v.v.v.v.v.v.v.v.v.v.v.v.v.4 ( #.5.y I e.e.e.e.e.e.e.e.#.J j 8 +.( f o v.v.v.v.v.v.v.v.v.v.v.v.v.v.v.v.v.v.v.v.v.v.v.v.v.v.v.",
"v.j v.v.v.v.v.v.v.v.v.v.v.v.v.v.v.v.v.v.v.v.v.v.v.v.v.v.v.v.4 f ( } r N I #.+.e.e.e.#.#.#.( [ x x u ( f o v.v.v.v.v.v.v.v.v.v.v.v.v.v.v.v.v.v.v.v.v.v.v.v.v.v.v.",
"v.v.v.v.v.v.v.v.v.v.v.v.v.v.v.v.v.v.v.v.v.v.v.v.v.v.v.v.v.v.4 ( E r x x <.<.e.e.e.e.e.e.e.+.5...x x y f o v.v.v.v.v.v.v.v.v.v.v.v.v.v.v.v.v.v.v.v.v.v.v.v.v.v.v.",
"v.v.v.v.v.v.v.v.v.v.v.v.v.v.v.v.v.v.v.v.v.v.v.v.v.v.v.v.v.4 f z t m x 1.h.d.e.e.e.e.e.e.e.e.5.c.%.x z 8 ; v.v.v.v.v.v.v.v.v.v.v.v.v.v.v.v.v.v.v.v.v.v.v.v.v.v.v.",
"v.0 v.v.v.v.v.v.v.v.v.v.v.v.v.v.v.v.v.v.v.v.v.v.v.v.v.v.v.4 e u x N 1.c.c.d.e.e.e.e.e.e.e.e.i.j.c.o.b l u v.v.v.v.v.v.v.v.v.v.v.v.v.v.v.v.v.v.v.v.v.v.v.v.v.v.v.",
"v.6 v.v.v.v.v.v.v.v.v.v.v.v.v.v.v.v.v.v.v.v.v.v.v.v.v.v.v.: l [ x ` c.c.d.j.e.e.e.e.e.e.e.e.i.8.c.c.Q x [ h v.v.v.v.v.v.v.v.v.v.v.v.v.v.v.v.v.v.v.v.v.v.v.v.v.v.",
"v.v.v.v.v.v.v.v.v.v.v.v.v.v.v.v.v.v.v.v.v.v.v.v.v.v.v.v.v.j %.D M 8.[ N 8.d.e.e.e.e.e.e.e.e.i.%.D %.,.x K ..i v.v.v.v.v.v.v.v.v.v.v.v.v.v.v.v.v.v.v.v.v.v.v.v.v.",
"v.v.v.v.v.v.v.v.v.v.v.v.v.v.v.v.v.v.v.v.v.v.v.v.v.v.v.v.p %.F N -.' - x o.h.e.e.e.e.e.e.e.e.u.[ x - ..o.N K ..q v.v.v.v.v.v.v.v.v.v.v.v.v.v.v.v.v.v.v.v.v.v.v.v.",
"v.v.v.v.v.v.v.v.v.v.v.v.v.v.v.v.v.v.v.v.v.v.v.v.v.v.v.` 8.Q x [ [ - % D :.d.e.e.e.e.e.e.e.e.i...N $ , o.^ x [ 4.^ v.v.v.v.v.v.v.v.v.v.v.v.v.v.v.v.v.v.v.v.v.v.v.",
"v.v.v.v.v.v.v.v.v.v.v.v.v.v.v.v.v.v.v.v.v.v.v.v.v.v.^ 1.%.N x x - $ $ I h.u.e.e.e.e.e.e.e.e.u.j.D $ $ < N z D :.1.T v.v.v.v.v.v.v.v.v.v.v.v.v.v.v.v.v.v.v.v.v.v.",
"v.v.v.v.v.v.v.v.v.v.v.v.v.v.v.v.v.v.v.v.v.v.v.v.v.Q 8.8.N p x 2 * & 7 8.i.e.e.e.e.e.e.e.e.e.e.c.o.7 & - 2 x p J q.1.P v.v.v.v.v.v.v.v.v.v.v.v.v.v.v.v.v.v.v.v.v.",
"v.v.v.v.v.v.v.v.v.v.v.v.v.v.v.v.v.v.v.v.v.v.v.v.b :.c.q.h 2 - & - % J g.e.e.e.e.e.e.e.e.e.e.e.h.c.b % , % - 3 l d.c.o.S v.v.v.v.v.v.v.v.v.v.v.v.v.v.v.v.v.v.v.v.",
"v.v.v.v.v.v.v.v.v.v.v.v.v.v.v.v.v.v.v.v.v.v.v.0 [ c.c.J 2 $ $ * - + J u.e.e.e.e.e.e.e.e.e.e.e.e.h.l $ , & $ $ 3 Q c.h.W v.v.v.v.v.v.v.v.v.v.v.v.v.v.v.v.v.v.v.v.",
"v.v.v.v.v.v.v.v.v.v.v.v.v.v.v.v.v.v.v.v.v.v.v.0 h.c.h.x * - $ * * 9 [ e.e.e.e.e.e.e.e.e.e.e.e.e.u.T 7 * & % * , D c.c.d.S v.v.v.v.v.v.v.v.v.v.v.v.v.v.v.v.v.v.v.",
"v.v.v.v.v.v.v.v.v.v.v.v.v.v.v.v.v.v.v.v.v.v.P h.c.c.4., - 5 & % & m <.e.e.#.#.( ( 6.6.6.( ( #.+.5.^ h & % & 3 - 2 u.c.c.d.L v.v.v.v.v.v.v.v.v.v.v.v.v.v.v.v.v.v.",
"v.v.v.v.v.v.v.v.v.v.v.v.v.v.v.v.v.v.v.v.v.I d.c.c.c.x & 3 2 5 - , Y +.#.#.( s { 5.c.c.c.6._ s ( ( m N * < 3 2 3 * J c.c.c.u.0 v.v.v.v.v.v.v.v.v.v.v.v.v.v.v.v.v.",
"v.v.v.v.v.v.v.v.v.v.v.v.v.v.v.v.v.v.v.v.L d.c.c.c.[ p 2 2 2 < * y { #.( ( f s _ c.c.c.c.c._ s d ( m F 5 - , 2 3 2 z %.c.c.c.u.0 v.v.v.v.v.v.v.v.v.v.v.v.v.v.v.v.",
"v.v.v.v.v.v.v.v.v.v.v.v.v.v.v.v.v.v.v.S u.c.c.c...y < , 2 2 % * p [ ( ( f o o _ 5.c.c.c.5._ o o f O m 2 - % 5 < < < h :.c.c.c.q.0 v.v.v.v.v.v.v.v.v.v.v.v.v.v.v.",
"v.v.v.v.v.v.v.v.v.v.v.v.v.v.v.v.v.v.S u.c.c.c.%.y , 5 * - 2 % y Z E ( f ( e.f o c.c.c.c.c.o f 0.( f A J 7 % 5 * - 5 < p <.c.c.c.q.0 v.v.v.v.v.v.v.v.v.v.v.v.v.v.",
"v.v.v.v.v.v.v.v.v.v.v.v.v.v.v.v.v.S q.c.c.c.%.p < 2 3 - - 3 $ p ~ [ ( o f ( ( f c.c.c.c.c.f ( ( f o Y F 7 % 5 * - 3 2 , j 1.c.c.c.4.0 v.v.v.v.v.v.v.v.v.v.v.v.v.",
"v.v.v.v.v.v.v.v.v.v.v.v.v.v.v.v.S q.c.q.c.:.p 2 2 2 3 - # # $ f N 5.#.c.o o 4 f _ c.c.c._ f 4 o o f #.E f % % # - 3 2 2 2 l 1.c.t.c.1.0 v.v.v.v.v.v.v.v.v.v.v.v.",
"v.v.v.v.v.v.v.v.v.v.v.v.v.v.v.w q.c.:.e.c.J , 2 & 2 , v.v.v.O A F ( c._ s o f f s c._ c.s f f o s _ 0.( n 4 o v.v.2 < & 2 2 Q c.4.1.c.1.0 v.v.v.v.v.v.v.v.v.v.v.",
"v.v.v.v.v.v.v.v.v.v.v.v.v.v.w :.c.:.,.c.:.h 2 & $ , - v.v.v.4 { Q _ s _ 4 f f ( ( c.s c.( ( f f 4 c.{ +.( 4 o v.v., - $ * 2 l 1.c.o.1.c.%.0 v.v.v.v.v.v.v.v.v.v.",
"v.v.v.v.v.v.v.v.v.v.v.v.v.0 ..8.W [ c.c.Q - * $ v.v.v.v.v.v.4 ( [ ( s f 4 f #.e.#._ ( _ #.e.#.f 4 c._ 0.( f o v.v.v.v.@ $ * , ` c.k.[ ^ 8.[ 0 v.v.v.v.v.v.v.v.v.",
"v.v.v.v.v.v.v.v.v.v.v.v.0 0 :.Q ^ c.c...y v.v.v.v.v.v.v.v.v.f Q #.#.f ( 4 ( e.e.e.s ( s e.e.e.( 4 s c.( } f o v.v.v.v.v.v.v.v.p :.c.h.I Q :.W 0 v.v.v.v.v.v.v.v.",
"v.v.v.v.v.v.v.v.v.v.v.v.0 Q q.u.c.c.%.i v.v.v.v.v.v.v.v.v.4 f 5.%.#.( ( 4 f #.e.e.e.e.e.e.e.#.f 4 f { ( e.( 4 v.v.v.v.v.v.v.v.v.h :.c.j.u.1.I 0 v.v.v.v.v.v.v.v.",
"v.v.v.v.v.v.v.v.v.v.v.0 :.h.c.c.4.J h v.v.v.v.v.v.v.v.v.v.4 ( e.~ +.( ( o f f #.e.#.#.#.e.#.f f o ( s ( e.#.4 v.v.v.v.v.v.v.v.v.0 l I q.c.c.h.| 0 v.v.v.v.v.v.v.",
"v.v.v.v.v.v.v.v.v.v.0 ..c.c.4.F l = v.v.v.v.v.v.v.v.v.v.v.o ( e.F ` +.#.o (   s #.#.( #.#.f   ( o #.f ( e.e.f v.v.v.v.v.v.v.v.v.v.0 = x J e.c.c.Q 0 v.v.v.v.v.v.",
"v.v.v.v.v.v.v.v.v.v.v.j x 0 @ @ v.v.v.v.v.v.v.v.v.v.v.v.v.. #.e.I F #.#.o f   > ( E f ( ( 4   f o #.#.+.e.e.f 4 v.v.v.v.v.v.v.v.v.v.v.0 0 @ i x h v.v.v.v.v.v.v.",
"v.v.v.v.v.v.v.v.v.v.v.0 0 v.v.v.v.v.v.v.v.v.v.v.v.v.v.v.v.. #.e.e.9 A e.e X f e ( ( f ( ( 4 f o 4 e.( #.e.e.( 4 v.v.v.v.v.v.v.v.v.v.v.v.v.v.v.v.v.v.v.v.v.v.v.v.",
"v.v.v.v.v.v.v.v.v.v.v.v.v.v.v.v.v.v.v.v.v.v.v.v.v.v.v.v.v.. ( #.#.F Y e.>   f f ( #.( #.( f f   4 e.( #.e.e.( o v.v.v.v.v.v.v.v.v.v.v.v.v.v.v.v.v.v.v.v.v.v.v.v.",
"v.v.v.v.v.v.v.v.v.v.v.v.v.v.v.v.v.v.v.v.v.v.v.v.v.v.v.v.v.. f #.#.( f #.s   > f ( #.#.#.( f 4   f #.f #.e.e.#.. v.v.v.v.v.v.v.v.v.v.v.v.v.v.v.v.v.v.v.v.v.v.v.v.",
"v.v.v.v.v.v.v.v.v.v.v.v.v.v.v.v.v.v.v.v.v.v.v.v.v.v.v.v.v.v.f #.#.#.f ( s e o s ( e.#.e.( f o 4 f ( f #.e.e.#.. v.v.v.v.v.v.v.v.v.v.v.v.v.v.v.v.v.v.v.v.v.v.v.v.",
"v.v.v.v.v.v.v.v.v.v.v.v.v.v.v.v.v.v.v.v.v.v.v.v.v.v.v.v.v.v.4 #.#.#.( f ( 4   f ( e.#.e.( f   4 f f ( #.#.#.( . v.v.v.v.v.v.v.v.v.v.v.v.v.v.v.v.v.v.v.v.v.v.v.v.",
"v.v.v.v.v.v.v.v.v.v.v.v.v.v.v.v.v.v.v.v.v.v.v.v.v.v.v.v.v.v.4 ( #.#.( f 4 f   ( e.e.e.e.e.(   f f f #.#.#.#.f . v.v.v.v.v.v.v.v.v.v.v.v.v.v.v.v.v.v.v.v.v.v.v.v.",
"v.v.v.v.v.v.v.v.v.v.v.v.v.v.v.v.v.v.v.v.v.v.v.v.v.v.v.v.v.v.. ( e.#.( ( f 4   #.e.e.e.e.e.#.  f f ( #.#.#.#.f v.v.v.v.v.v.v.v.v.v.v.v.v.v.v.v.v.v.v.v.v.v.v.v.v.",
"v.v.v.v.v.v.v.v.v.v.v.v.v.v.v.v.v.v.v.v.v.v.v.v.v.v.v.v.v.v.. f e.#.( ( ( f o #.f #.#.#.f #.o f ( ( #.#.#.#.4 v.v.v.v.v.v.v.v.v.v.v.v.v.v.v.v.v.v.v.v.v.v.v.v.v.",
"v.v.v.v.v.v.v.v.v.v.v.v.v.v.v.v.v.v.v.v.v.v.v.v.v.v.v.v.v.v.v.o ( e.#.f ( ( f   ( f #.f (   f ( ( ( #.#.#.( 4 v.v.v.v.v.v.v.v.v.v.v.v.v.v.v.v.v.v.v.v.v.v.v.v.v.",
"v.v.v.v.v.v.v.v.v.v.v.v.v.v.v.v.v.v.v.v.v.v.v.v.v.v.v.v.v.v.v.o ( e.#.4 f ( ( f   o o o   f ( ( f ( ( ( #.( . v.v.v.v.v.v.v.v.v.v.v.v.v.v.v.v.v.v.v.v.v.v.v.v.v.",
"v.v.v.v.v.v.v.v.v.v.v.v.v.v.v.v.v.v.v.v.v.v.v.v.v.v.v.v.v.v.v.o f #.#.f 4 f f f f f f ( ( ( f 4 f ( #.( #.f . v.v.v.v.v.v.v.v.v.v.v.v.v.v.v.v.v.v.v.v.v.v.v.v.v.",
"v.v.v.v.v.v.v.v.v.v.v.v.v.v.v.v.v.v.v.v.v.v.v.v.v.v.v.v.v.v.v.. f ( #.f f o 4 4 f f f f f f 4 4 f #.#.( ( . v.v.v.v.v.v.v.v.v.v.v.v.v.v.v.v.v.v.v.v.v.v.v.v.v.v.",
"v.v.v.v.v.v.v.v.v.v.v.v.v.v.v.v.v.v.v.v.v.v.v.v.v.v.v.v.v.v.v.v.4 ( ( f f 4 o         o 4 4 o 4 f e.e.( f . v.v.v.v.v.v.v.v.v.v.v.v.v.v.v.v.v.v.v.v.v.v.v.v.v.v.",
"v.v.v.v.v.v.v.v.v.v.v.v.v.v.v.v.v.v.v.v.v.v.v.v.v.v.v.v.v.v.v.v.4 f ( f 4 4 o   v.v.v.    o o 4 ( e.e.#.o . v.v.v.v.v.v.v.v.v.v.v.v.v.v.v.v.v.v.v.v.v.v.v.v.v.v.",
"v.v.v.v.v.v.v.v.v.v.v.v.v.v.v.v.v.v.v.v.v.v.v.v.v.v.v.v.v.v.v.v.. f f f 4 4   v.v.v.v.v.v.o 4 f ( e.e.#.. v.v.v.v.v.v.v.v.v.v.v.v.v.v.v.v.v.v.v.v.v.v.v.v.v.v.v.",
"v.v.v.v.v.v.v.v.v.v.v.v.v.v.v.v.v.v.v.v.v.v.v.v.v.v.v.v.v.v.v.v.. 4 f f 4 o   v.v.v.v.v.v.o 4 f #.e.#.( . v.v.v.v.v.v.v.v.v.v.v.v.v.v.v.v.v.v.v.v.v.v.v.v.v.v.v.",
"v.v.v.v.v.v.v.v.v.v.v.v.v.v.v.v.v.v.v.v.v.v.v.v.v.v.v.v.v.v.v.v.. 4 4 4 4   v.v.v.v.v.v.v.o 4 ( e.e.#.f . v.v.v.v.v.v.v.v.v.v.v.v.v.v.v.v.v.v.v.v.v.v.v.v.v.v.v.",
"v.v.v.v.v.v.v.v.v.v.v.v.v.v.v.v.v.v.v.v.v.v.v.v.v.v.v.v.v.v.v.v.v.o 4 4 4   v.v.v.v.v.v.v.o 4 ( e.e.#.f . v.v.v.v.v.v.v.v.v.v.v.v.v.v.v.v.v.v.v.v.v.v.v.v.v.v.v.",
"v.v.v.v.v.v.v.v.v.v.v.v.v.v.v.v.v.v.v.v.v.v.v.v.v.v.v.v.v.v.v.v.v.o 4 4 4   v.v.v.v.v.v.v.o 4 ( e.#.( 4 . v.v.v.v.v.v.v.v.v.v.v.v.v.v.v.v.v.v.v.v.v.v.v.v.v.v.v.",
"v.v.v.v.v.v.v.v.v.v.v.v.v.v.v.v.v.v.v.v.v.v.v.v.v.v.v.v.v.v.v.v.v.o 4 4 4   v.v.v.v.v.v.v.v.4 ( #.#.f . v.v.v.v.v.v.v.v.v.v.v.v.v.v.v.v.v.v.v.v.v.v.v.v.v.v.v.v.",
"v.v.v.v.v.v.v.v.v.v.v.v.v.v.v.v.v.v.v.v.v.v.v.v.v.v.v.v.v.v.v.v.o o 4 4 4 o v.v.v.v.v.v.v.v.O f e.e.f . v.v.v.v.v.v.v.v.v.v.v.v.v.v.v.v.v.v.v.v.v.v.v.v.v.v.v.v.",
"v.v.v.v.v.v.v.v.v.v.v.v.v.v.v.v.v.v.v.v.v.v.v.v.v.v.v.v.v.v.v.v.o 4 4 4 4 o v.v.v.v.v.v.v.v.o f e.e.4 . v.v.v.v.v.v.v.v.v.v.v.v.v.v.v.v.v.v.v.v.v.v.v.v.v.v.v.v.",
"v.v.v.v.v.v.v.v.v.v.v.v.v.v.v.v.v.v.v.v.v.v.v.v.v.v.v.v.v.v.v.v.v.o Z o o o v.v.v.v.v.v.v.v.O f ( ( 4 . v.v.v.v.v.v.v.v.v.v.v.v.v.v.v.v.v.v.v.v.v.v.v.v.v.v.v.v.",
"v.v.v.v.v.v.v.v.v.v.v.v.v.v.v.v.v.v.v.v.v.v.v.v.v.v.v.v.v.v.v.v.v.X > Z Z X v.v.v.v.v.v.v.v.O f ( ( f . v.v.v.v.v.v.v.v.v.v.v.v.v.v.v.v.v.v.v.v.v.v.v.v.v.v.v.v.",
"v.v.v.v.v.v.v.v.v.v.v.v.v.v.v.v.v.v.v.v.v.v.v.v.v.v.v.v.v.v.v.v.v.v.o o o v.v.v.v.v.v.v.v.  4 f ( ( f . v.v.v.v.v.v.v.v.v.v.v.v.v.v.v.v.v.v.v.v.v.v.v.v.v.v.v.v.",
"v.v.v.v.v.v.v.v.v.v.v.v.v.v.v.v.v.v.v.v.v.v.v.v.v.v.v.v.v.v.v.v.v.v.v.v.v.v.v.v.v.v.v.v.v.  f ( ( ( ( o . v.v.v.v.v.v.v.v.v.v.v.v.v.v.v.v.v.v.v.v.v.v.v.v.v.v.v.",
"v.v.v.v.v.v.v.v.v.v.v.v.v.v.v.v.v.v.v.v.v.v.v.v.v.v.v.v.v.v.v.v.v.v.v.v.v.v.v.v.v.v.v.v.v.o +.( ( ( #.o . v.v.v.v.v.v.v.v.v.v.v.v.v.v.v.v.v.v.v.v.v.v.v.v.v.v.v.",
"v.v.v.v.v.v.v.v.v.v.v.v.v.v.v.v.v.v.v.v.v.v.v.v.v.v.v.v.v.v.v.v.v.v.v.v.v.v.v.v.v.v.v.v.v.  f #.#.#.f o . v.v.v.v.v.v.v.v.v.v.v.v.v.v.v.v.v.v.v.v.v.v.v.v.v.v.v.",
"v.v.v.v.v.v.v.v.v.v.v.v.v.v.v.v.v.v.v.v.v.v.v.v.v.v.v.v.v.v.v.v.v.v.v.v.v.v.v.v.v.v.v.v.v.> 4 f 4 4 o o v.v.v.v.v.v.v.v.v.v.v.v.v.v.v.v.v.v.v.v.v.v.v.v.v.v.v.v.",
"v.v.v.v.v.v.v.v.v.v.v.v.v.v.v.v.v.v.v.v.v.v.v.v.v.v.v.v.v.v.v.v.v.v.v.v.v.v.v.v.v.v.v.v.v.> Z c.c.c.Z X v.v.v.v.v.v.v.v.v.v.v.v.v.v.v.v.v.v.v.v.v.v.v.v.v.v.v.v.",
"v.v.v.v.v.v.v.v.v.v.v.v.v.v.v.v.v.v.v.v.v.v.v.v.v.v.v.v.v.v.v.v.v.v.v.v.v.v.v.v.v.v.v.v.v.> Z c.c.c.X v.v.v.v.v.v.v.v.v.v.v.v.v.v.v.v.v.v.v.v.v.v.v.v.v.v.v.v.v.",
"v.v.v.v.v.v.v.v.v.v.v.v.v.v.v.v.v.v.v.v.v.v.v.v.v.v.v.v.v.v.v.v.v.v.v.v.v.v.v.v.v.v.v.v.v.v.      > v.v.v.v.v.v.v.v.v.v.v.v.v.v.v.v.v.v.v.v.v.v.v.v.v.v.v.v.v.v.",
"v.v.v.v.v.v.v.v.v.v.v.v.v.v.v.v.v.v.v.v.v.v.v.v.v.v.v.v.v.v.v.v.v.v.v.v.v.v.v.v.v.v.v.v.v.v.v.v.v.v.v.v.v.v.v.v.v.v.v.v.v.v.v.v.v.v.v.v.v.v.v.v.v.v.v.v.v.v.v.v.",
"v.v.v.v.v.v.v.v.v.v.v.v.v.v.v.v.v.v.v.v.v.v.v.v.v.v.v.v.v.v.v.v.v.v.v.v.v.v.v.v.v.v.v.v.v.v.v.v.v.v.v.v.v.v.v.v.v.v.v.v.v.v.v.v.v.v.v.v.v.v.v.v.v.v.v.v.v.v.v.v.",
"v.v.v.v.v.v.v.v.v.v.v.v.v.v.v.v.v.v.v.v.v.v.v.v.v.v.v.v.v.v.v.v.v.v.v.v.v.v.v.v.v.v.v.v.v.v.v.v.v.v.v.v.v.v.v.v.v.v.v.v.v.v.v.v.v.v.v.v.v.v.v.v.v.v.v.v.v.v.v.v.",
"v.v.v.v.v.v.v.v.v.v.v.v.v.v.v.v.v.v.v.v.v.v.v.v.v.v.v.v.v.v.v.v.v.v.v.v.v.v.v.v.v.v.v.v.v.v.v.v.v.v.v.v.v.v.v.v.v.v.v.v.v.v.v.v.v.v.v.v.v.v.v.v.v.v.v.v.v.v.v.v."
};
