/* XPM */
static char *Free_Converter_com_pegface4_34003855[] = {
/* columns rows colors chars-per-pixel */
"80 80 138 2 ",
"   c #5B5B94",
".  c #66669D",
"X  c #75759A",
"o  c #7B7BA5",
"O  c #7B7BAA",
"+  c #7979AC",
"@  c #7B7BAD",
"#  c #7B7BAE",
"$  c #7C7CAE",
"%  c #7F7FB0",
"&  c #7B809A",
"*  c #7B9597",
"=  c #86B89A",
"-  c #8383A3",
";  c #8989A7",
":  c #8C8CAA",
">  c #8E8EAD",
",  c #9293AE",
"<  c #8080B1",
"1  c #8181B2",
"2  c #8E8EBB",
"3  c #9595B1",
"4  c #9797B3",
"5  c #9292B5",
"6  c #9898B4",
"7  c #9999B5",
"8  c #9A9AB6",
"9  c #9D9DB7",
"0  c #9595B9",
"q  c #9191BD",
"w  c #9595BE",
"e  c #9E9EB8",
"r  c #9F9FBA",
"t  c #94AEAB",
"y  c #97A2B0",
"u  c #9EABB6",
"i  c #A0A1BA",
"p  c #A3A3BD",
"a  c #A5A5BE",
"s  c #A4ABBC",
"d  c #9E9EC1",
"f  c #A8A8C0",
"g  c #A8A8C3",
"h  c #AAAAC2",
"j  c #ABABC3",
"k  c #ACACC4",
"l  c #AEAEC4",
"z  c #ACACC7",
"x  c #AFAFC6",
"c  c #A3A3C9",
"v  c #A6A6C9",
"b  c #A9A9CB",
"n  c #AFAFC9",
"m  c #A9A9CD",
"M  c #ABABCE",
"N  c #ADADCE",
"B  c #B0B0C6",
"V  c #B1B1C8",
"C  c #B3B3C9",
"Z  c #B1B1CB",
"A  c #B5B5CA",
"S  c #B6B6CB",
"D  c #B6B6CE",
"F  c #B9B9CD",
"G  c #BABACE",
"H  c #B0B0D0",
"J  c #B3B3D2",
"K  c #B9B9D1",
"L  c #BCBCD0",
"P  c #BEBED1",
"I  c #BDBDD2",
"U  c #BEBED2",
"Y  c #B9B9D7",
"T  c #BFBFD7",
"R  c #C1C1D3",
"E  c #C2C2D4",
"W  c #C3C3D5",
"Q  c #C4C4D5",
"!  c #C5C5D6",
"~  c #C7C7D7",
"^  c #C5C5DB",
"/  c #C9C9D9",
"(  c #C8C8DB",
")  c #CACADA",
"_  c #CCCCDB",
"`  c #C8C8DF",
"'  c #CDCDDC",
"]  c #CFCFDD",
"[  c #CDCDDE",
"{  c #CFCFDF",
"}  c #D0D0DE",
"|  c #CACAE1",
" . c #CBCBE2",
".. c #CFCFE4",
"X. c #D3D3E0",
"o. c #D4D4E1",
"O. c #D7D7E3",
"+. c #D2D2E4",
"@. c #D9D9E3",
"#. c #D8D8E5",
"$. c #DADAE5",
"%. c #DBDBE6",
"&. c #D7D7E8",
"*. c #DADAEA",
"=. c #DBDBEB",
"-. c #DDDDE8",
";. c #DEDEE8",
":. c #DDDDEB",
">. c #DFDFEA",
",. c #E0E0E9",
"<. c #E0E0EB",
"1. c #E2E2EB",
"2. c #E3E3EC",
"3. c #E2E2EE",
"4. c #E7E6ED",
"5. c #E4E4EF",
"6. c #E6E6EE",
"7. c #E5E5F1",
"8. c #E7E7F1",
"9. c #E7E7F2",
"0. c #E9E9F0",
"q. c #EAEAF1",
"w. c #E9E9F2",
"e. c #EAEAF3",
"r. c #EDEDF3",
"t. c #EBEBF4",
"y. c #ECECF5",
"u. c #EDEDF5",
"i. c #F0F0F5",
"p. c #F2F2F6",
"a. c #F4F4F8",
"s. c #F7F7FB",
"d. c #F8F8FB",
"f. c #FAFAFC",
"g. c #FCFCFD",
"h. c #FEFEFE",
"j. c gray100",
"k. c None",
/* pixels */
"k.k.k.k.k.k.k.k.k.k.k.k.k.k.k.k.k.k.k.k.k.k.k.k.k.k.k.k.k.k.k.k.k.k.k.k.k.k.k.k.k.k.k.k.k.k.k.k.k.k.k.k.k.k.k.k.k.k.k.k.k.k.k.k.k.k.k.k.k.k.k.k.k.k.k.k.k.k.k.k.",
"k.k.k.k.k.k.k.k.k.k.k.k.k.k.k.k.k.k.k.k.k.k.k.k.k.k.k.k.k.k.k.k.k.k.k.k.k.k.k.k.k.k.k.k.k.k.k.k.k.k.k.k.k.k.k.k.k.k.k.k.k.k.k.k.k.k.k.k.k.k.k.k.k.k.k.k.k.k.k.k.",
"k.k.k.k.k.k.k.k.k.k.k.k.k.k.k.k.k.k.k.k.k.k.k.k.k.k.k.k.k.k.k.k.k.k.k.k.k.k.k.k.k.k.k.k.k.k.k.k.k.k.k.k.k.k.k.k.k.k.k.k.k.k.k.k.k.k.k.k.k.k.k.k.k.k.k.k.k.k.k.k.",
"k.k.k.k.k.k.k.k.k.k.k.k.k.k.k.k.k.k.k.k.k.k.k.k.k.k.k.k.k.k.k.k.k.k.k.k.k.k.k.k.k.k.k.k.k.k.k.k.k.k.k.k.k.k.k.k.k.k.k.k.k.k.k.k.k.k.k.k.k.k.k.k.k.k.k.k.k.k.k.k.",
"k.k.k.k.k.k.k.k.k.k.k.k.k.k.k.k.k.k.k.k.k.k.k.k.k.k.k.k.k.k.k.k.k.k.k.k.k.k.k.k.k.k.k.k.k.k.k.k.k.k.k.k.k.k.k.k.k.k.k.k.k.k.k.k.k.k.k.k.k.k.k.k.k.k.k.k.k.k.k.k.",
"k.k.k.k.k.k.k.k.k.k.k.k.k.k.k.k.k.k.k.k.k.k.k.k.k.k.k.k.k.k.k.k.k.k.k.k.k.k.k.k.k.k.k.k.k.k.k.k.k.k.k.k.k.k.k.k.k.k.k.k.k.k.k.k.k.k.k.k.k.k.k.k.k.k.k.k.k.k.k.k.",
"k.k.k.k.k.k.k.k.k.k.k.k.k.k.k.k.k.k.k.k.k.k.k.k.k.k.k.k.k.k.k.k.k.k.k.k.k.k.k.k.k.k.k.k.k.k.k.k.k.k.k.k.k.k.k.k.k.k.k.k.k.k.k.k.k.k.k.k.k.k.k.k.k.k.k.k.k.k.k.k.",
"k.k.k.k.k.k.k.k.k.k.k.k.k.k.k.k.k.k.k.k.k.k.k.k.k.k.k.k.k.k.k.k.k.k.k.k.k.k.k.k.k.k.k.k.k.k.k.k.k.k.k.k.k.k.k.k.k.k.k.k.k.k.k.k.k.k.k.k.k.k.k.k.k.k.k.k.k.k.k.k.",
"k.k.k.k.k.k.k.k.k.k.k.k.k.k.k.k.k.k.k.k.k.k.k.k.k.k.k.k.k.k.k.k.k.k.k.k.k.k.k.k.k.k.k.k.k.k.k.k.k.k.k.k.k.k.k.k.k.k.k.k.k.k.k.k.k.k.k.k.k.k.k.k.k.k.k.k.k.k.k.k.",
"k.k.k.k.k.k.k.k.k.k.k.k.k.k.k.k.k.k.k.k.k.k.k.k.k.k.k.k.k.k.k.k.k.k.k.k.k.k.k.k.k.k.k.k.k.k.k.k.k.k.k.k.k.k.k.k.k.k.k.k.k.k.k.k.k.k.k.k.k.k.k.k.k.k.k.k.k.k.k.k.",
"k.k.k.k.k.k.k.k.k.k.k.k.k.k.k.k.k.k.k.k.k.k.k.k.k.k.k.k.k.k.k.k.k.k.k.k.k.k.k.k.k.k.k.k.k.k.k.k.k.k.k.k.k.k.k.k.k.k.k.k.k.k.k.k.k.k.k.k.k.k.k.k.k.k.k.k.k.k.k.k.",
"k.k.k.k.k.k.k.k.k.k.k.k.k.k.k.k.k.k.k.k.k.k.k.k.k.k.k.k.k.k.k.k.k.k.k.k.k.k.k.q q m m m m m k.k.k.k.k.k.k.k.k.k.k.k.k.k.k.k.k.k.k.k.k.k.k.k.k.k.k.k.k.k.k.k.k.k.",
"k.k.k.k.k.k.k.k.k.k.k.k.k.k.k.k.k.k.k.k.k.k.k.k.k.k.k.k.k.k.k.k.k.k.k.k.q q m =.y.y.y.y.y.=.m m k.k.k.k.k.k.k.k.k.k.k.k.k.k.k.k.k.k.k.k.k.k.k.k.k.k.k.k.k.k.k.k.",
"k.k.k.k.k.k.k.k.k.k.k.k.k.k.k.k.k.k.k.k.k.k.k.k.k.k.k.k.k.k.k.k.k.k.q q m =.y.y.y.y.y.y.y.y.y.=.m q k.k.k.k.k.k.k.k.k.k.k.k.k.k.k.k.k.k.k.k.k.k.k.k.k.k.k.k.k.k.",
"k.! k.k.k.k.k.k.k.k.k.k.k.k.k.k.k.k.k.k.y y u u u u u k.k.k.k.k.k.# m  .=.y.y.y.y.y.y.y.y.y.y.y.=. .q k.k.k.k.k.= u u u y k.k.k.k.k.k.k.k.k.k.k.k.k.k.k.k.k.k.k.",
"k.@.k.k.k.k.k.k.C ~ ! / ! ! _ ] ] ] } ] O.p.j.j.j.j.a.C i k.k.k.# m  .=.y.y.y.y.y.y.y.y.y.y.y.y.y.=. .q k.k.k.h ~ q.q.r.} ! / ! ~ ~ ~ ~ ! / ! / F k.k.k.k.k.k.k.",
"k.V k.k.k.k.k.s O.q.r.q.q.p.j.j.j.j.j.j.j.a.a.4.2.1.4.p.X.u k.k.2 m =.=.=.y.y.y.y.y.y.y.y.y.y.y.y.y.=.m q k.F 0.r.} } } 4.r.q.q.q.q.q.0.q.q.r.p.>.s k.k.k.k.k.k.",
"k.k.k.k.k.k.k.s C R R O.O.>.1.1.2.%.} L C h j e 7 7 a _ q.X.t < m  .=.=.=.=.=.y.y.y.y.y.y.y.y.y.y.y.=. .0 C 4.>.F 9 9 7 V P X.O.} O.O.O.O.O.R E s s k.k.k.k.k.k.",
"k.k.k.k.k.k.k.k.k.* & : ; ; > , , , e i i p p h 7 7 a h ! q.} 7 v  .=.=. . . .=.=.=.y.y.y.=.=.y.y.=.=.n C 4.>.h x 7 i h i i 9 , , , , ; ; : & * k.k.k.k.k.k.k.k.",
"k.s k.k.k.k.k.k.k.k.X - , 7 p p p i p x j e 9 9 7 7 e F a ! q._ e  . .m  . .=.y.y.y.y.y.y.y.=.=.=. .V V 1.,.h V h 7 9 9 h x p i p p p 7 , - X k.k.k.k.k.k.k.k.k.",
"k.t k.k.k.k.k.k.k.k.* 7 p x x x a 4 : : : : : : > 9 7 e P p _ >.h v m  . .=.y.y.y.y.y.y.y.y.y. . .D x >.1.x B B 7 9 3 ; : : : 3 h x k x p 7 s k.k.k.k.k.k.k.k.k.",
"k.k.k.k.k.k.k.k.k.k.k.s s s - - - - - 7 i B x x B h 7 7 P E p R ] e  . .=.y.y.y.y.y.y.q.y.y.y.=.T f >.2.B x _ a 3 e B x p 7 - - - - - - s s k.k.k.k.k.k.k.k.k.k.",
"k.k.k.k.k.k.k.k.k.k.k.k.s s & ; a V V j h i i i i e 7 7 7 %.r.e ! x T =.y.y.y.y.y.y.y.y.y.y.y.q.P ! q.x F j.h 3 7 e i i a j C V p ; & s s k.k.k.k.k.k.k.k.k.k.k.",
"k.k.k.k.k.k.k.k.k.k.k.k.k.k.s > i k 7 > > : : : : , e 7 7 R j.a.i E p y.y.y.9.y.y.y.y.y.y.q.y.y.r ] F n j.j.9 7 7 4 : : , > 7 k p s s k.k.k.k.k.k.k.k.k.k.k.k.k.",
"k.k.k.k.k.k.k.k.k.k.k.k.k.k.k.s ; - ; > , e 9 9 e e 9 7 7 7 j.j.P x V ] y.>.y.y.y.y.y.y.y.9.9.E V ! 3 j.j.F , 8 e e e e 3 > ; - ; s k.k.k.k.k.k.k.k.k.k.k.k.k.k.",
"k.k.k.k.k.k.k.k.k.k.k.k.k.k.k.k.k.k., e 9 9 9 9 > : : 7 7 7 C j.j.p F P ] &.y.y.y.y.y.y.q.9.E i ! B C j.f.e 7 7 > ; : 4 e i 3 s k.k.k.k.k.k.k.k.k.k.k.k.k.k.k.k.",
"k.k.k.k.k.k.k.k.k.k.k.k.k.k.k.k.k.k.k.k.k.& & & & - 7 7 9 3 9 j.j.V F V p >.y.y.y.y.y.y.y.q.K C R 7 j.j.! 3 e 7 7 , & & - - s k.k.k.k.k.k.k.k.k.k.k.k.k.k.k.k.k.",
"k.k.k.k.k.k.k.k.k.k.k.k.k.k.k.k.k.k.k.k.k.k.k.k.& 9 9 9 7 3 : F j.f.a P x >.y.y.y.y.y.y.y.y.P F x V j.j., 3 7 7 e s s s k.k.k.k.k.k.k.k.k.k.k.k.k.k.k.k.k.k.k.k.",
"k.k.k.k.k.k.k.k.k.k.k.k.k.k.k.k.k.k.k.k.k.k.k.k.s s 3 3 - > > 9 j.O.2._ h 9.y.y.y.y.y.y.y.y.! C -.} j.} > , - : s s s k.k.k.k.k.k.k.k.k.k.k.k.k.k.k.k.k.k.k.k.k.",
"k.k.k.k.k.k.k.k.k.k.k.k.k.k.k.k.k.k.k.k.k.k.k.k.k.s s & > , 3 & O.4.%.j./ q.y.y.y.y.y.y.y.y./ 1.a.} f.3 > , , & s s k.k.k.k.k.k.k.k.k.k.k.k.k.k.k.k.k.k.k.k.k.k.",
"k.k.k.k.k.k.k.k.k.k.k.k.k.k.k.k.k.k.k.k.k.k.k.k.k.k.k.k.> , ; ; f j.R ! f.y.y.y.y.y.y.y.y.q.f.j.7 j.q.; : ; 4 - k.k.k.k.k.k.k.k.k.k.k.k.k.k.k.k.k.k.k.k.k.k.k.k.",
"k.k.k.k.k.k.k.k.k.k.k.k.k.k.k.k.k.k.k.k.k.k.k.k.k.k.k.k.& & - > X O.j.F &.=. . .9.9.9. . .:.y.R p.j., - > & - k.k.k.k.k.k.k.k.k.k.k.k.k.k.k.k.k.k.k.k.k.k.k.k.k.",
"k.k.k.k.k.k.k.k.k.k.k.k.k.k.k.k.k.k.k.k.k.k.k.k.k.k.k.k.k.o - > - 9 j.g.K c ..9.j.j.j.9...J C / j.] - ; > o O k.k.k.k.k.k.k.k.k.k.k.k.k.k.k.k.k.k.k.k.k.k.k.k.k.",
"k.k.k.k.k.k.k.k.k.k.k.k.k.k.k.k.k.k.k.k.k.k.k.k.k.k.k.k.k.# z - - - p.s.J c ..j.j.j.j.j...c / j.j.7 - - ; # # k.k.k.k.k.k.k.k.k.k.k.k.k.k.k.k.k.k.k.k.k.k.k.k.k.",
"k.k.k.k.k.k.k.k.k.k.k.k.k.k.k.k.k.k.k.k.k.k.k.k.k.k.k.k.k.#  . .7 - i y.< # ..9.j.j.j.9...% y.j.r.X ; ] m # k.k.k.k.k.k.k.k.k.k.k.k.k.k.k.k.k.k.k.k.k.k.k.k.k.k.",
"k.k.k.k.k.k.k.k.k.k.k.k.k.k.k.k.k.k.k.k.k.k.k.k.k.k.k.k.k.#  . . .[ : ( y.m # j.j.j.j.j.# H g.q.a g  .m m # k.k.k.k.k.k.k.k.k.k.k.k.k.k.k.k.k.k.k.k.k.k.k.k.k.k.",
"k.k.k.k.k.k.k.k.k.k.k.k.k.k.k.k.k.k.k.k.k.k.k.k.k.k.k.k.k.# m m m  .# b  . .m j.j.j.j.j.m +.s.] 5  .*. .q # k.k.k.k.k.k.k.k.k.k.k.k.k.k.k.k.k.k.k.k.k.k.k.k.k.k.",
"k.k.k.k.k.k.k.k.k.k.k.k.k.k.k.k.k.k.k.k.k.k.k.k.k.k.k.k.k.# q m  .=.m # # q m ..j.j.j...m c 9./ U ! y. .m # k.k.k.k.k.k.k.k.k.k.k.k.k.k.k.k.k.k.k.k.k.k.k.k.k.k.",
"k.k.k.k.k.k.k.k.k.k.k.k.k.k.k.k.k.k.k.k.k.k.k.k.k.k.k.k.k.# q m  .y...c # m m c j...j.c m m N +.Q %...*.m # k.k.k.k.k.k.k.k.k.k.k.k.k.k.k.k.k.k.k.k.k.k.k.k.k.k.",
"k.k.k.k.k.k.k.k.k.k.k.k.k.k.k.k.k.k.k.k.k.k.k.k.k.k.k.k.k.# q  .=...j.q m m  . .j.c j. . .m m w ..c ..y. .q k.k.k.k.k.k.k.k.k.k.k.k.k.k.k.k.k.k.k.k.k.k.k.k.k.k.",
"k.k.k.k.k.k.k.k.k.k.k.k.k.k.k.k.k.k.k.k.k.k.k.k.k.k.k.k.k.# m  .y...j.q m =.y.=... ...=.y.=.m q m c  .y.=.q k.k.k.k.k.k.k.k.k.k.k.k.k.k.k.k.k.k.k.k.k.k.k.k.k.k.",
"k.k.k.k.k.k.k.k.k.k.k.k.k.k.k.k.k.k.k.k.k.k.k.k.k.k.k.k.k.# m =. .j.c q  .y.y.y.c  .c y.y.y. .q  .m =.y.y.m k.k.k.k.k.k.k.k.k.k.k.k.k.k.k.k.k.k.k.k.k.k.k.k.k.k.",
"k.k.k.k.k.k.k.k.k.k.k.k.k.k.k.k.k.k.k.k.k.k.k.k.k.k.k.k.k.q  .y.P 3 m q m =.y.y.y.y.y.y.y.=.m q  .n a 5.y.m q k.k.k.k.k.k.k.k.k.k.k.k.k.k.k.k.k.k.k.k.k.k.k.k.k.",
"k.k.k.k.k.k.k.k.k.k.k.k.k.k.k.k.k.k.k.k.k.k.k.k.k.k.k.k.k.q =.y.3 d  .# m m =.y.=.=.=.y.=.m m #  . .7 X.y. .q k.k.k.k.k.k.k.k.k.k.k.k.k.k.k.k.k.k.k.k.k.k.k.k.k.",
"k.k.k.k.k.k.k.k.k.k.k.k.k.k.k.k.k.k.k.k.k.k.k.k.k.k.k.k.k.m y.y.n v =.#  .  m =.=. .=.=.m    .# =.=.P <.y. .# k.k.k.k.k.k.k.k.k.k.k.k.k.k.k.k.k.k.k.k.k.k.k.k.k.",
"k.k.k.k.k.k.k.k.k.k.k.k.k.k.k.k.k.k.k.k.k.k.k.k.k.k.k.k.q m y.y.=.=.=.# m   q  . .m  . .q   m # =.=.=.y.y.=.. k.k.k.k.k.k.k.k.k.k.k.k.k.k.k.k.k.k.k.k.k.k.k.k.k.",
"k.k.k.k.k.k.k.k.k.k.k.k.k.k.k.k.k.k.k.k.k.k.k.k.k.k.k.k.q  .y.y.=. .y.q # m q  . .m  . .q m # q y. .=.y.y.:.. k.k.k.k.k.k.k.k.k.k.k.k.k.k.k.k.k.k.k.k.k.k.k.k.k.",
"k.k.k.k.k.k.k.k.k.k.k.k.k.k.k.k.k.k.k.k.k.k.k.k.k.k.k.k.#  .y.y.=. .y.q   m m  .=. .=. .m m   q y. .=.=.*. .. k.k.k.k.k.k.k.k.k.k.k.k.k.k.k.k.k.k.k.k.k.k.k.k.k.",
"k.k.k.k.k.k.k.k.k.k.k.k.k.k.k.k.k.k.k.k.k.k.k.k.k.k.k.k.. =.y.y.=.m =.m   q m  .=.=.=. .m q   m =.m  .=.=.m . k.k.k.k.k.k.k.k.k.k.k.k.k.k.k.k.k.k.k.k.k.k.k.k.k.",
"k.k.k.k.k.k.k.k.k.k.k.k.k.k.k.k.k.k.k.k.k.k.k.k.k.k.k.k.. =.y.y.=.m  .m q # m  .y.=.y. .m # q m  .m =.=.=.m k.k.k.k.k.k.k.k.k.k.k.k.k.k.k.k.k.k.k.k.k.k.k.k.k.k.",
"k.k.k.k.k.k.k.k.k.k.k.k.k.k.k.k.k.k.k.k.k.k.k.k.k.k.k.k..  .=.=.=. .m m q   m  .y.=.y. .m   q  .m  .=.=.=.q k.k.k.k.k.k.k.k.k.k.k.k.k.k.k.k.k.k.k.k.k.k.k.k.k.k.",
"k.k.k.k.k.k.k.k.k.k.k.k.k.k.k.k.k.k.k.k.k.k.k.k.k.k.k.k.. m =.=.=.=.m m m    .y.y.y.y.y. .  m q m  .=.=. .q k.k.k.k.k.k.k.k.k.k.k.k.k.k.k.k.k.k.k.k.k.k.k.k.k.k.",
"k.k.k.k.k.k.k.k.k.k.k.k.k.k.k.k.k.k.k.k.k.k.k.k.k.k.k.k.k.m =.=.=.=. .m m   =.y.y.y.y.y.=.  q m  . .=.y. .. k.k.k.k.k.k.k.k.k.k.k.k.k.k.k.k.k.k.k.k.k.k.k.k.k.k.",
"k.k.k.k.k.k.k.k.k.k.k.k.k.k.k.k.k.k.k.k.k.k.k.k.k.k.k.k.k.q =.=.=.=. . .m # =.m =.=.=.m =.# m  . . .=.y.m . k.k.k.k.k.k.k.k.k.k.k.k.k.k.k.k.k.k.k.k.k.k.k.k.k.k.",
"k.k.k.k.k.k.k.k.k.k.k.k.k.k.k.k.k.k.k.k.k.k.k.k.k.k.k.k.k.q  .=.=.=. . . .m    .m =.m  .  m  . .m =.y. .# k.k.k.k.k.k.k.k.k.k.k.k.k.k.k.k.k.k.k.k.k.k.k.k.k.k.k.",
"k.k.k.k.k.k.k.k.k.k.k.k.k.k.k.k.k.k.k.k.k.k.k.k.k.k.k.k.k..  .=. . . .m  . .m   # # #   m  . .m q =.y. .# k.k.k.k.k.k.k.k.k.k.k.k.k.k.k.k.k.k.k.k.k.k.k.k.k.k.k.",
"k.k.k.k.k.k.k.k.k.k.k.k.k.k.k.k.k.k.k.k.k.k.k.k.k.k.k.k.k.. m =. .=. .m q m  . . .m m m m m m q m =.=.m # k.k.k.k.k.k.k.k.k.k.k.k.k.k.k.k.k.k.k.k.k.k.k.k.k.k.k.",
"k.k.k.k.k.k.k.k.k.k.k.k.k.k.k.k.k.k.k.k.k.k.k.k.k.k.k.k.k.k..  . .=.=.m q q m m m m m m q q # m m =. .m . k.k.k.k.k.k.k.k.k.k.k.k.k.k.k.k.k.k.k.k.k.k.k.k.k.k.k.",
"k.k.k.k.k.k.k.k.k.k.k.k.k.k.k.k.k.k.k.k.k.k.k.k.k.k.k.k.k.k.. m  .y.y.m q # q q #         # q m m  . .q k.k.k.k.k.k.k.k.k.k.k.k.k.k.k.k.k.k.k.k.k.k.k.k.k.k.k.k.",
"k.k.k.k.k.k.k.k.k.k.k.k.k.k.k.k.k.k.k.k.k.k.k.k.k.k.k.k.k.k.. # =.y.y. .q # #     k.k.k.  # q q m  .m q k.k.k.k.k.k.k.k.k.k.k.k.k.k.k.k.k.k.k.k.k.k.k.k.k.k.k.k.",
"k.k.k.k.k.k.k.k.k.k.k.k.k.k.k.k.k.k.k.k.k.k.k.k.k.k.k.k.k.k.k.. =.y.y. .m q # k.k.k.k.k.k.  q q m m m . k.k.k.k.k.k.k.k.k.k.k.k.k.k.k.k.k.k.k.k.k.k.k.k.k.k.k.k.",
"k.k.k.k.k.k.k.k.k.k.k.k.k.k.k.k.k.k.k.k.k.k.k.k.k.k.k.k.k.k.k..  .=.y.=.m q # k.k.k.k.k.k.  # q m m q . k.k.k.k.k.k.k.k.k.k.k.k.k.k.k.k.k.k.k.k.k.k.k.k.k.k.k.k.",
"k.k.k.k.k.k.k.k.k.k.k.k.k.k.k.k.k.k.k.k.k.k.k.k.k.k.k.k.k.k.k.. m =.y.y. .q # k.k.k.k.k.k.k.  q q q q . k.k.k.k.k.k.k.k.k.k.k.k.k.k.k.k.k.k.k.k.k.k.k.k.k.k.k.k.",
"k.k.k.k.k.k.k.k.k.k.k.k.k.k.k.k.k.k.k.k.k.k.k.k.k.k.k.k.k.k.k.. m =.y.y. .q # k.k.k.k.k.k.k.  q q q # k.k.k.k.k.k.k.k.k.k.k.k.k.k.k.k.k.k.k.k.k.k.k.k.k.k.k.k.k.",
"k.k.k.k.k.k.k.k.k.k.k.k.k.k.k.k.k.k.k.k.k.k.k.k.k.k.k.k.k.k.k.. q  .=.y. .q # k.k.k.k.k.k.k.  q q q # k.k.k.k.k.k.k.k.k.k.k.k.k.k.k.k.k.k.k.k.k.k.k.k.k.k.k.k.k.",
"k.k.k.k.k.k.k.k.k.k.k.k.k.k.k.k.k.k.k.k.k.k.k.k.k.k.k.k.k.k.k.k.. m =.=. .q k.k.k.k.k.k.k.k.  q q q # k.k.k.k.k.k.k.k.k.k.k.k.k.k.k.k.k.k.k.k.k.k.k.k.k.k.k.k.k.",
"k.k.k.k.k.k.k.k.k.k.k.k.k.k.k.k.k.k.k.k.k.k.k.k.k.k.k.k.k.k.k.k.. m y.y.m # k.k.k.k.k.k.k.k.# q q q # # k.k.k.k.k.k.k.k.k.k.k.k.k.k.k.k.k.k.k.k.k.k.k.k.k.k.k.k.",
"k.k.k.k.k.k.k.k.k.k.k.k.k.k.k.k.k.k.k.k.k.k.k.k.k.k.k.k.k.k.k.k.. q y.y.m # k.k.k.k.k.k.k.k.# q q q q # k.k.k.k.k.k.k.k.k.k.k.k.k.k.k.k.k.k.k.k.k.k.k.k.k.k.k.k.",
"k.k.k.k.k.k.k.k.k.k.k.k.k.k.k.k.k.k.k.k.k.k.k.k.k.k.k.k.k.k.k.k.. q  . .m # k.k.k.k.k.k.k.k.# # # Y # k.k.k.k.k.k.k.k.k.k.k.k.k.k.k.k.k.k.k.k.k.k.k.k.k.k.k.k.k.",
"k.k.k.k.k.k.k.k.k.k.k.k.k.k.k.k.k.k.k.k.k.k.k.k.k.k.k.k.k.k.k.k.. m  . .m # k.k.k.k.k.k.k.k.+ Y Y 2 + k.k.k.k.k.k.k.k.k.k.k.k.k.k.k.k.k.k.k.k.k.k.k.k.k.k.k.k.k.",
"k.k.k.k.k.k.k.k.k.k.k.k.k.k.k.k.k.k.k.k.k.k.k.k.k.k.k.k.k.k.k.k.. m  . .m q   k.k.k.k.k.k.k.k.# + + k.k.k.k.k.k.k.k.k.k.k.k.k.k.k.k.k.k.k.k.k.k.k.k.k.k.k.k.k.k.",
"k.k.k.k.k.k.k.k.k.k.k.k.k.k.k.k.k.k.k.k.k.k.k.k.k.k.k.k.k.k.k.. #  . . . .m   k.k.k.k.k.k.k.k.k.k.k.k.k.k.k.k.k.k.k.k.k.k.k.k.k.k.k.k.k.k.k.k.k.k.k.k.k.k.k.k.k.",
"k.k.k.k.k.k.k.k.k.k.k.k.k.k.k.k.k.k.k.k.k.k.k.k.k.k.k.k.k.k.k.. # =. . . .=.# k.k.k.k.k.k.k.k.k.k.k.k.k.k.k.k.k.k.k.k.k.k.k.k.k.k.k.k.k.k.k.k.k.k.k.k.k.k.k.k.k.",
"k.k.k.k.k.k.k.k.k.k.k.k.k.k.k.k.k.k.k.k.k.k.k.k.k.k.k.k.k.k.k.. # m =.=.=.m   k.k.k.k.k.k.k.k.k.k.k.k.k.k.k.k.k.k.k.k.k.k.k.k.k.k.k.k.k.k.k.k.k.k.k.k.k.k.k.k.k.",
"k.k.k.k.k.k.k.k.k.k.k.k.k.k.k.k.k.k.k.k.k.k.k.k.k.k.k.k.k.k.k.k.+ # q q m q 2 k.k.k.k.k.k.k.k.k.k.k.k.k.k.k.k.k.k.k.k.k.k.k.k.k.k.k.k.k.k.k.k.k.k.k.k.k.k.k.k.k.",
"k.k.k.k.k.k.k.k.k.k.k.k.k.k.k.k.k.k.k.k.k.k.k.k.k.k.k.k.k.k.k.k.+ Y j.j.j.Y 2 k.k.k.k.k.k.k.k.k.k.k.k.k.k.k.k.k.k.k.k.k.k.k.k.k.k.k.k.k.k.k.k.k.k.k.k.k.k.k.k.k.",
"k.k.k.k.k.k.k.k.k.k.k.k.k.k.k.k.k.k.k.k.k.k.k.k.k.k.k.k.k.k.k.k.k.# j.j.j.Y 2 k.k.k.k.k.k.k.k.k.k.k.k.k.k.k.k.k.k.k.k.k.k.k.k.k.k.k.k.k.k.k.k.k.k.k.k.k.k.k.k.k.",
"k.k.k.k.k.k.k.k.k.k.k.k.k.k.k.k.k.k.k.k.k.k.k.k.k.k.k.k.k.k.k.k.k.k.2       k.k.k.k.k.k.k.k.k.k.k.k.k.k.k.k.k.k.k.k.k.k.k.k.k.k.k.k.k.k.k.k.k.k.k.k.k.k.k.k.k.k.",
"k.k.k.k.k.k.k.k.k.k.k.k.k.k.k.k.k.k.k.k.k.k.k.k.k.k.k.k.k.k.k.k.k.k.k.k.k.k.k.k.k.k.k.k.k.k.k.k.k.k.k.k.k.k.k.k.k.k.k.k.k.k.k.k.k.k.k.k.k.k.k.k.k.k.k.k.k.k.k.k.",
"k.k.k.k.k.k.k.k.k.k.k.k.k.k.k.k.k.k.k.k.k.k.k.k.k.k.k.k.k.k.k.k.k.k.k.k.k.k.k.k.k.k.k.k.k.k.k.k.k.k.k.k.k.k.k.k.k.k.k.k.k.k.k.k.k.k.k.k.k.k.k.k.k.k.k.k.k.k.k.k."
};
