/* XPM */
static char *Free_Converter_com_pegface1_51183855[] = {
/* columns rows colors chars-per-pixel */
"80 80 122 2 ",
"   c #5B5B94",
".  c #66669D",
"X  c #7979AC",
"o  c #7B7BAE",
"O  c #7C7CAE",
"+  c #7B9597",
"@  c #86B89A",
"#  c #8383B2",
"$  c #8E8EBB",
"%  c #9090B2",
"&  c #9595B1",
"*  c #9595B6",
"=  c #9A9AB6",
"-  c #9191BD",
";  c #9E9EB8",
":  c #9F9FBA",
">  c #94AEAB",
",  c #97A2B0",
"<  c #9EABB6",
"1  c #A0A1BA",
"2  c #A3A3BD",
"3  c #A4ABBC",
"4  c #9E9EC1",
"5  c #A3A3C3",
"6  c #A8A8C0",
"7  c #A8A8C3",
"8  c #AAAAC2",
"9  c #ABABC3",
"0  c #ACACC4",
"q  c #AEAEC4",
"w  c #ACACC7",
"e  c #AFAFC6",
"r  c #A3A3C9",
"t  c #A6A6C9",
"y  c #A9A9CB",
"u  c #AFAFC9",
"i  c #A9A9CD",
"p  c #ABABCD",
"a  c #B0B0C6",
"s  c #B1B1C8",
"d  c #B3B3C9",
"f  c #B4B4C9",
"g  c #B6B6CB",
"h  c #B8B8CC",
"j  c #B9B9CD",
"k  c #B9B9CF",
"l  c #BABACE",
"z  c #B0B0D0",
"x  c #B9B9D1",
"c  c #BCBCD0",
"v  c #BEBED1",
"b  c #BEBED2",
"n  c #B9B9D7",
"m  c #BFBFD7",
"M  c #B3CCC2",
"N  c #B7C0C9",
"B  c #C1CFCF",
"V  c #C1C1D3",
"C  c #C2C2D4",
"Z  c #C3C3D5",
"A  c #C5C5D6",
"S  c #C7C7D7",
"D  c #C2C9D2",
"F  c #C5C5DB",
"G  c #C9C9D9",
"H  c #CBCBDB",
"J  c #CCCCDB",
"K  c #C8C8DF",
"L  c #CDCDDC",
"P  c #CFCFDD",
"I  c #D0D0DE",
"U  c #DBDCDD",
"Y  c #CACAE1",
"T  c #CBCBE2",
"R  c #CFCFE4",
"E  c #D3D3E0",
"W  c #D4D4E1",
"Q  c #D4D4E3",
"!  c #D7D7E3",
"~  c #D8D8E5",
"^  c #DADAE5",
"/  c #D9D9E6",
"(  c #DBDBE6",
")  c #DBDBE8",
"_  c #DBDBEB",
"`  c #DDDDE8",
"'  c #DEDEE8",
"]  c #DDDDEB",
"[  c #DFDFEA",
"{  c #DFDFED",
"}  c #DBE4E4",
"|  c #E0E0E9",
" . c #E2E2EB",
".. c #E3E3EC",
"X. c #E7E6ED",
"o. c #E4E4EF",
"O. c #E6E6EE",
"+. c #E5E5F1",
"@. c #E7E7F1",
"#. c #E7E7F2",
"$. c #E9E9F0",
"%. c #EAEAF1",
"&. c #E9E9F2",
"*. c #EAEAF3",
"=. c #EDEDF3",
"-. c #EBEBF4",
";. c #ECECF5",
":. c #EDEDF5",
">. c #F0F0F5",
",. c #F2F2F6",
"<. c #F3F3F8",
"1. c #F4F4F8",
"2. c #F5F5F9",
"3. c #F6F6F9",
"4. c #F7F7FB",
"5. c #F8F8FB",
"6. c #FAFAFC",
"7. c #FCFCFD",
"8. c #FDFDFD",
"9. c #FEFEFE",
"0. c gray100",
"q. c None",
/* pixels */
"q.q.q.q.q.q.q.q.q.q.q.q.q.q.q.q.q.q.q.q.q.q.q.q.q.q.q.q.q.q.q.q.q.q.q.q.q.q.q.q.q.q.q.q.q.q.q.q.q.q.q.q.q.q.q.q.q.q.q.q.q.q.q.q.q.q.q.q.q.q.q.q.q.q.q.q.q.q.q.q.",
"q.q.q.q.q.q.q.q.q.q.q.q.q.q.q.q.q.q.q.q.q.q.q.q.q.q.q.q.q.q.q.q.q.q.q.q.q.q.q.q.q.q.q.q.q.q.q.q.q.q.q.q.q.q.q.q.q.q.q.q.q.q.q.q.q.q.q.q.q.q.q.q.q.q.q.q.q.q.q.q.",
"q.q.q.q.q.q.q.q.q.q.q.q.q.q.q.q.q.q.q.q.q.q.q.q.q.q.q.q.q.q.q.q.q.q.q.q.q.q.q.q.q.q.q.q.q.q.q.q.q.q.q.q.q.q.q.q.q.q.q.q.q.q.q.q.q.q.q.q.q.q.q.q.q.q.q.q.q.q.q.q.",
"q.q.q.q.q.q.q.q.q.q.q.q.q.q.q.q.q.q.q.q.q.q.q.q.q.q.q.q.q.q.q.q.q.q.q.q.q.q.q.q.q.q.q.q.q.q.q.q.q.q.q.q.q.q.q.q.q.q.q.q.q.q.q.q.q.q.q.q.q.q.q.q.q.q.q.q.q.q.q.q.",
"q.q.q.q.q.q.q.q.q.q.q.q.q.q.q.q.q.q.q.q.q.q.q.q.q.q.q.q.q.q.q.q.q.q.q.q.q.q.q.q.q.q.q.q.q.q.q.q.q.q.q.q.q.q.q.q.q.q.q.q.q.q.q.q.q.q.q.q.q.q.q.q.q.q.q.q.q.q.q.q.",
"q.q.q.q.q.q.q.q.q.q.q.q.q.q.q.q.q.q.q.q.q.q.q.q.q.q.q.q.q.q.q.q.q.q.q.q.q.q.q.q.q.q.q.q.q.q.q.q.q.q.q.q.q.q.q.q.q.q.q.q.q.q.q.q.q.q.q.q.q.q.q.q.q.q.q.q.q.q.q.q.",
"q.q.q.q.q.q.q.q.q.q.q.q.q.q.q.q.q.q.q.q.q.q.q.q.q.q.q.q.q.q.q.q.q.q.q.q.q.q.q.q.q.q.q.q.q.q.q.q.q.q.q.q.q.q.q.q.q.q.q.q.q.q.q.q.q.q.q.q.q.q.q.q.q.q.q.q.q.q.q.q.",
"q.q.q.q.q.q.q.q.q.q.q.q.q.q.q.q.q.q.q.q.q.q.q.q.q.q.q.q.q.q.q.q.q.q.q.q.q.q.q.q.q.q.q.q.q.q.q.q.q.q.q.q.q.q.q.q.q.q.q.q.q.q.q.q.q.q.q.q.q.q.q.q.q.q.q.q.q.q.q.q.",
"q.q.q.q.q.q.q.q.q.q.q.q.q.q.q.q.q.q.q.q.q.q.q.q.q.q.q.q.q.q.q.q.q.q.q.q.q.q.q.q.q.q.q.q.q.q.q.q.q.q.q.q.q.q.q.q.q.q.q.q.q.q.q.q.q.q.q.q.q.q.q.q.q.q.q.q.q.q.q.q.",
"q.q.q.q.q.q.q.q.q.q.q.q.q.q.q.q.q.q.q.q.q.q.q.q.q.q.q.q.q.q.q.q.q.q.q.q.q.q.q.q.q.q.q.q.q.q.q.q.q.q.q.q.q.q.q.q.q.q.q.q.q.q.q.q.q.q.q.q.q.q.q.q.q.q.q.q.q.q.q.q.",
"q.q.q.q.q.q.q.q.q.q.q.q.q.q.q.q.q.q.q.q.q.q.q.q.q.q.q.q.q.q.q.q.q.q.q.q.q.q.q.q.q.q.q.q.q.q.q.q.q.q.q.q.q.q.q.q.q.q.q.q.q.q.q.q.q.q.q.q.q.q.q.q.q.q.q.q.q.q.q.q.",
"q.q.q.q.q.q.q.q.q.q.q.q.q.q.q.q.q.q.q.q.q.q.q.q.q.q.q.q.q.q.q.q.q.q.q.q.q.i i i i i q.q.q.q.q.q.q.q.q.q.q.q.q.q.q.q.q.q.q.q.q.q.q.q.q.q.q.q.q.q.q.q.q.q.q.q.q.q.",
"q.q.q.q.q.q.q.q.q.q.q.q.q.q.q.q.q.q.q.q.q.q.q.q.q.q.q.q.q.q.q.q.q.q.- i i T T T T T i i - q.q.q.q.q.q.q.q.q.q.q.q.q.q.q.q.q.q.q.q.q.q.q.q.q.q.q.q.q.q.q.q.q.q.q.",
"q.q.q.q.q.q.q.q.q.q.q.q.q.q.q.q.q.q.q.q.q.q.q.q.q.q.q.q.q.q.q.q.- i T _ _ ;.;.;.;.=._ _ T i $ q.q.q.q.q.q.q.q.q.q.q.q.q.q.q.q.q.q.q.q.q.q.q.q.q.q.q.q.q.q.q.q.q.",
"q.q.q.q.q.q.q.q.q.q.q.q.q.q.q.q.q.q.q.q.q.q.q.q.q.q.q.q.q.q.q.- i _ ;.;.;.;.;.;.;.;.;.;.=._ i 4 q.q.q.q.q.q.q.q.q.q.q.q.q.q.q.q.q.q.q.q.q.q.q.q.q.q.q.q.q.q.q.q.",
"q.q.q.q.q.q.q.q.q.q.q.q.q.q.q.q.q.q.q.q.q.q.q.q.q.q.q.q.q.q.- i _ =.;.;.;.;.;.;.;.;.;.;.;.;._ i - q.q.q.q.q.q.q.q.q.q.q.q.q.q.q.q.q.q.q.q.q.q.q.q.q.q.q.q.q.q.q.",
"q.q.q.q.q.q.q.q.q.q.q.q.q.q.q.q.q.q.q.q.q.q.q.q.q.q.q.q.q.O i T ;.;.;.;.;.;.;.;.;.;.;.;.;.;.;.T i o q.q.q.q.q.q.q.q.q.q.q.q.q.q.q.q.q.q.q.q.q.q.q.q.q.q.q.q.q.q.",
"q.q.q.q.q.q.q.q.q.q.q.q.q.q.q.q.q.q.q.q.q.q.q.q.q.q.q.q.q.- i T ;.;.;.;.;.;.;.;.;.;.;.;.;.;.;.T i - q.q.q.q.q.q.q.q.q.q.q.q.q.q.q.q.q.q.q.q.q.q.q.q.q.q.q.q.q.q.",
"q.q.q.q.q.q.q.q.q.q.q.q.q.q.q.3 3 J N q.G A q.q.q.q.q.q.O i T T _ _ ;.;.;.;.;.;.;.;.;.;.;._ _ T T i o q.q.q.q.q.Z S q.M G 3 3 q.q.q.q.q.q.q.q.q.q.q.q.q.q.q.q.q.",
"q.q.q.q.q.q.q.q.q.q.q.3 3 3 3 A | %.! Z W ^ a s > q.q.q.- i T T T _ _ _ _ _ ;.;.;._ _ _ _ _ T T T i - q.q.3 g q ! ! Z E %...S G ! W M q.q.q.q.q.q.q.q.q.q.q.q.q.",
"q.q.q.q.q.q.3 3 3 3 3 s J ' X.E J | @.J I X.A ^ Z c a % * r T T T T T _ _ _ ;.;.;._ _ _ T T T T m 4 * q j Z ^ S ..W J X...J J %.[ P g 8 A W 3 3 q.q.q.q.q.q.q.q.",
"q.q.q.q.q.3 3 ' ,.4...G 8 c ' X.^ P ....| X.W I A ( Z v c : 6 r T T _ ;.;.;.;.;.;.;.;.;._ T K : 2 j Z A ! S J E X.[ ....J ^ X.' V 6 S [ <.,.{ 3 3 q.q.q.q.q.q.q.",
"q.q.q.3 3 A g 2 V X.2.<.' S A ' X.' ^ ..X.X.^ J H I G I H c a 3 6 _ ;.;.;.;.;.;.;.;.;.;.;.a 3 a j G J G E J G ! ......^ ' X.[ S S ( <.<.X.A 3 s 3 3 3 q.q.q.q.q.",
"q.q.q.3 ^ X...E V 2 6 E ,.<.| W ..X.......X.W V ( S S H S c V c a j +.;.;.;.;.;.;.;.;.+.x 6 c c c G J G S ^ Z E ........X...! ' <.=.( 8 2 c J X.X.( 3 3 q.q.q.q.",
"q.q.3 s ^ X.,.6.=.X.E g s W %.=.[ X...X.X.( L Z I Z A S c V c c v a ! ;.;.;.;.;.;.;.;.g q c c V v v S G V I V J ^ X.X.....| %.%.! a s P X.=.6.,.X.` g 3 q.q.q.q.",
"q.3 3 8 j s s W ..%.5.4.^ g J =.>.%.%.5.>.! S c c c c c V c c c V c ! ;.;.;.;.;.;.;.#.x s Z c c v v c c c c c A ! =.5.%.%.>.=.! g ! 6.5.=.| W j a c 7 q 3 3 q.q.",
"3 3 X.=.X.' Z j g 6 c ' =.2.,.%.6.5.=.X.X.! Z c c c v V Z j S G s s [ ;.;.;.;.;.;.;.;.G q s G A c V Z c c j c V E +.X.=.6.6.=.,.2.=.` Z 8 s j c ' X.=.X.3 3 q.q.",
"3 3 Z W ' 2.9.%.%.^ ! S G ! 9.9.=...! S k 3 2 Z | J c a g c c =.9.Z o.;.;.;.;.;.;.;.=.! s 9.,.V c h q c G X.A 8 6 g S W ..%.6.9.^ J S W ^ %.%.9.5.[ W 3 3 3 q.q.",
"q.q.q.1 1 q J W X.5.9.<.2.6.6...S 9 1 8 c h g %.9.9.%.( c j 8 8 ( ;.;.;.;.;.;.;.;.;.;.J %.| q 8 h c ^ %.9.9.,.j j c 8 1 8 A | 6.6.2.<.9.5.X.3 3 3 3 3 3 q.q.q.q.",
"q.q.q.q.q.q.q., , < D ! ' ^ J s , q.q.q.q.q.q.B B U 9.9.9.9.^ = 8 <.;.;.;.;.;.;.;.;.;.4.9.8 & I 9.9.9.9.} B B q.q.q.q.q.q., q J ^ ' W G < 3 3 q.q.q.q.q.q.q.q.q.",
"q.q.q.q.q.q.q.q.q.q.q.+ @ @ @ q.q.q.q.q.q.q.q.q.q.q.q.c 6.9.9.9.;.o.;.;.;.;.;.;.=.;.;.;.; ..9.9.9.6.J x q.q.q.q.q.q.q.q.q.q.q.@ @ @ + q.q.q.q.q.q.q.q.q.q.q.q.q.",
"q.q.q.q.q.q.q.q.q.q.q.q.q.q.q.q.q.q.q.q.q.q.q.q.q.q.q.O R c =.9.2.;.;.;.;.R #.R +.R ;...^ 9.9.6.Z ' T o q.q.q.q.q.q.q.q.q.q.q.q.q.q.q.q.q.q.q.q.q.q.q.q.q.q.q.q.",
"q.q.q.q.q.q.q.q.q.q.q.q.q.q.q.q.q.q.q.q.q.q.q.q.q.q.q.o T _ _ ,.<.;.T r R +.9.9.9.%.R i 6.9.9.^ ;._ T o q.q.q.q.q.q.q.q.q.q.q.q.q.q.q.q.q.q.q.q.q.q.q.q.q.q.q.q.",
"q.q.q.q.q.q.q.q.q.q.q.q.q.q.q.q.q.q.q.q.q.q.q.q.q.q.q.o T _ ;.' T i o O R 9.9.9.9.9.R $ ;.E F =.;._ T o q.q.q.q.q.q.q.q.q.q.q.q.q.q.q.q.q.q.q.q.q.q.q.q.q.q.q.q.",
"q.q.q.q.q.q.q.q.q.q.q.q.q.q.q.q.q.q.q.q.q.q.q.q.q.q.q.o T _ _ T 5 T ;.i O 9.9.9.9.9.O z 6.2 i T _ _ T o q.q.q.q.q.q.q.q.q.q.q.q.q.q.q.q.q.q.q.q.q.q.q.q.q.q.q.q.",
"q.q.q.q.q.q.q.q.q.q.q.q.q.q.q.q.q.q.q.q.q.q.q.q.q.q.q.o i T T T # i T T i 9.9.9.9.9.i T _ 1 O T T T i o q.q.q.q.q.q.q.q.q.q.q.q.q.q.q.q.q.q.q.q.q.q.q.q.q.q.q.q.",
"q.q.q.q.q.q.q.q.q.q.q.q.q.q.q.q.q.q.q.q.q.q.q.q.q.q.q.o i T i T i o o - i R 9.9.9.R i - $ 7 r T i T i o q.q.q.q.q.q.q.q.q.q.q.q.q.q.q.q.q.q.q.q.q.q.q.q.q.q.q.q.",
"q.q.q.q.q.q.q.q.q.q.q.q.q.q.q.q.q.q.q.q.q.q.q.q.q.q.q.o - i i u p r o i i r 9.R 9.r i i O i 5 T i i - o q.q.q.q.q.q.q.q.q.q.q.q.q.q.q.q.q.q.q.q.q.q.q.q.q.q.q.q.",
"q.q.q.q.q.q.q.q.q.q.q.q.q.q.q.q.q.q.q.q.q.q.q.q.q.q.q.o - i R R R - i i T T 9.r 9.T T i i - R _ T i - o q.q.q.q.q.q.q.q.q.q.q.q.q.q.q.q.q.q.q.q.q.q.q.q.q.q.q.q.",
"q.q.q.q.q.q.q.q.q.q.q.q.q.q.q.q.q.q.q.q.q.q.q.q.q.q.q.o - T _ =.R - i _ =._ R T R _ =._ i - R =._ T - o q.q.q.q.q.q.q.q.q.q.q.q.q.q.q.q.q.q.q.q.q.q.q.q.q.q.q.q.",
"q.q.q.q.q.q.q.q.q.q.q.q.q.q.q.q.q.q.q.q.q.q.q.q.q.q.q.o i T ;.9.r - R ;.;.;.r T r ;.;.;.T - r 9.=.T i o q.q.q.q.q.q.q.q.q.q.q.q.q.q.q.q.q.q.q.q.q.q.q.q.q.q.q.q.",
"q.q.q.q.q.q.q.q.q.q.q.q.q.q.q.q.q.q.q.q.q.q.q.q.q.q.q.o i _ T R r - i _ ;.;.;.;.;.;.;._ i - r R T _ i o q.q.q.q.q.q.q.q.q.q.q.q.q.q.q.q.q.q.q.q.q.q.q.q.q.q.q.q.",
"q.q.q.q.q.q.q.q.q.q.q.q.q.q.q.q.q.q.q.q.q.q.q.q.q.q.q.- T ;.T R i o i i _ ;._ _ _ ;._ i i o i R T ;.T - q.q.q.q.q.q.q.q.q.q.q.q.q.q.q.q.q.q.q.q.q.q.q.q.q.q.q.q.",
"q.q.q.q.q.q.q.q.q.q.q.q.q.q.q.q.q.q.q.q.q.q.q.q.q.q.q.- _ =.T i _ o T   i _ _ T _ _ i   T o _ i T ;._ - q.q.q.q.q.q.q.q.q.q.q.q.q.q.q.q.q.q.q.q.q.q.q.q.q.q.q.q.",
"q.q.q.q.q.q.q.q.q.q.q.q.q.q.q.q.q.q.q.q.q.q.q.q.q.q.q.i ;.;.T T _ o i   - T T i T T -   i o _ T T ;.;.i q.q.q.q.q.q.q.q.q.q.q.q.q.q.q.q.q.q.q.q.q.q.q.q.q.q.q.q.",
"q.q.q.q.q.q.q.q.q.q.q.q.q.q.q.q.q.q.q.q.q.q.q.q.q.q.- i ;.;.T _ ;.- o i - T T i T T - i o - ;._ T ;.;.i - q.q.q.q.q.q.q.q.q.q.q.q.q.q.q.q.q.q.q.q.q.q.q.q.q.q.q.",
"q.q.q.q.q.q.q.q.q.q.q.q.q.q.q.q.q.q.q.q.q.q.q.q.q.q.- T ;.;.T _ ;.-   i i T _ T _ T i i   - ;._ T ;.;.T - q.q.q.q.q.q.q.q.q.q.q.q.q.q.q.q.q.q.q.q.q.q.q.q.q.q.q.",
"q.q.q.q.q.q.q.q.q.q.q.q.q.q.q.q.q.q.q.q.q.q.q.q.q.q.o T ;.;.T T _ i   - i T _ _ _ T i -   i _ T T ;.;.T o q.q.q.q.q.q.q.q.q.q.q.q.q.q.q.q.q.q.q.q.q.q.q.q.q.q.q.",
"q.q.q.q.q.q.q.q.q.q.q.q.q.q.q.q.q.q.q.q.q.q.q.q.q.q.. _ ;.;._ T T i - o i T ;._ ;.T i o - i T T _ ;.;._ . q.q.q.q.q.q.q.q.q.q.q.q.q.q.q.q.q.q.q.q.q.q.q.q.q.q.q.",
"q.q.q.q.q.q.q.q.q.q.q.q.q.q.q.q.q.q.q.q.q.q.q.q.q.q.. _ ;.;._ i T T -   i T ;._ ;.T i   - T T i _ ;.;._ . q.q.q.q.q.q.q.q.q.q.q.q.q.q.q.q.q.q.q.q.q.q.q.q.q.q.q.",
"q.q.q.q.q.q.q.q.q.q.q.q.q.q.q.q.q.q.q.q.q.q.q.q.q.q.. T _ _ _ i T i i   T ;.;.;.;.;.T   i i T i _ _ _ T . q.q.q.q.q.q.q.q.q.q.q.q.q.q.q.q.q.q.q.q.q.q.q.q.q.q.q.",
"q.q.q.q.q.q.q.q.q.q.q.q.q.q.q.q.q.q.q.q.q.q.q.q.q.q.. i _ _ T T i i i   _ ;.;.;.;.;._   i i i T T _ _ i . q.q.q.q.q.q.q.q.q.q.q.q.q.q.q.q.q.q.q.q.q.q.q.q.q.q.q.",
"q.q.q.q.q.q.q.q.q.q.q.q.q.q.q.q.q.q.q.q.q.q.q.q.q.q.q.i _ _ T T i - i o _ i _ _ _ i _ o i - i T T _ _ r q.q.q.q.q.q.q.q.q.q.q.q.q.q.q.q.q.q.q.q.q.q.q.q.q.q.q.q.",
"q.q.q.q.q.q.q.q.q.q.q.q.q.q.q.q.q.q.q.q.q.q.q.q.q.q.q.$ _ T T T T i - -   T i _ i T   - - i T T T T _ $ q.q.q.q.q.q.q.q.q.q.q.q.q.q.q.q.q.q.q.q.q.q.q.q.q.q.q.q.",
"q.q.q.q.q.q.q.q.q.q.q.q.q.q.q.q.q.q.q.q.q.q.q.q.q.q.q.4 T _ T T T T i - -   o o o   - - i T T Y T _ T 4 q.q.q.q.q.q.q.q.q.q.q.q.q.q.q.q.q.q.q.q.q.q.q.q.q.q.q.q.",
"q.q.q.q.q.q.q.q.q.q.q.q.q.q.q.q.q.q.q.q.q.q.q.q.q.q.q.. F G t T T T T T i - o o o - i T T T T Y i ;.T . q.q.q.q.q.q.q.q.q.q.q.q.q.q.q.q.q.q.q.q.q.q.q.q.q.q.q.q.",
"q.q.q.q.q.q.q.q.q.q.q.q.q.q.q.q.q.q.q.q.q.q.q.q.q.q.q.. i j i i i T T T T i i i i i Y T T T i i T ;.i . q.q.q.q.q.q.q.q.q.q.q.q.q.q.q.q.q.q.q.q.q.q.q.q.q.q.q.q.",
"q.q.q.q.q.q.q.q.q.q.q.q.q.q.q.q.q.q.q.q.q.q.q.q.q.q.q.q.i Z p i - - - i i i i i i i i i $ $ - i T ;.i q.q.q.q.q.q.q.q.q.q.q.q.q.q.q.q.q.q.q.q.q.q.q.q.q.q.q.q.q.",
"q.q.q.q.q.q.q.q.q.q.q.q.q.q.q.q.q.q.q.q.q.q.q.q.q.q.q.q.i =._ T i - o - - - i i i $ $ 4 o $ i Y _ ;.i q.q.q.q.q.q.q.q.q.q.q.q.q.q.q.q.q.q.q.q.q.q.q.q.q.q.q.q.q.",
"q.q.q.q.q.q.q.q.q.q.q.q.q.q.q.q.q.q.q.q.q.q.q.q.q.q.q.q.o ;.;.T i - o o               o o 4 i Y ;.;.o q.q.q.q.q.q.q.q.q.q.q.q.q.q.q.q.q.q.q.q.q.q.q.q.q.q.q.q.q.",
"q.q.q.q.q.q.q.q.q.q.q.q.q.q.q.q.q.q.q.q.q.q.q.q.q.q.q.q.. _ ;._ i i $   q.q.q.q.q.q.q.  4 i i _ ;._ . q.q.q.q.q.q.q.q.q.q.q.q.q.q.q.q.q.q.q.q.q.q.q.q.q.q.q.q.q.",
"q.q.q.q.q.q.q.q.q.q.q.q.q.q.q.q.q.q.q.q.q.q.q.q.q.q.q.q.. T ;.;.Y i -   q.q.q.q.q.q.q.  $ i T ;.;.T . q.q.q.q.q.q.q.q.q.q.q.q.q.q.q.q.q.q.q.q.q.q.q.q.q.q.q.q.q.",
"q.q.q.q.q.q.q.q.q.q.q.q.q.q.q.q.q.q.q.q.q.q.q.q.q.q.q.q.. i ;.;.Y i 4   q.q.q.q.q.q.q.  $ i T ;.;.i . q.q.q.q.q.q.q.q.q.q.q.q.q.q.q.q.q.q.q.q.q.q.q.q.q.q.q.q.q.",
"q.q.q.q.q.q.q.q.q.q.q.q.q.q.q.q.q.q.q.q.q.q.q.q.q.q.q.q.q.i _ ;._ i o   q.q.q.q.q.q.q.  X i _ ;._ i q.q.q.q.q.q.q.q.q.q.q.q.q.q.q.q.q.q.q.q.q.q.q.q.q.q.q.q.q.q.",
"q.q.q.q.q.q.q.q.q.q.q.q.q.q.q.q.q.q.q.q.q.q.q.q.q.q.q.q.q.- T _ _ i o q.q.q.q.q.q.q.q.q.o i _ _ T - q.q.q.q.q.q.q.q.q.q.q.q.q.q.q.q.q.q.q.q.q.q.q.q.q.q.q.q.q.q.",
"q.q.q.q.q.q.q.q.q.q.q.q.q.q.q.q.q.q.q.q.q.q.q.q.q.q.q.q.q.. i T _ i o q.q.q.q.q.q.q.q.q.o i _ T i . q.q.q.q.q.q.q.q.q.q.q.q.q.q.q.q.q.q.q.q.q.q.q.q.q.q.q.q.q.q.",
"q.q.q.q.q.q.q.q.q.q.q.q.q.q.q.q.q.q.q.q.q.q.q.q.q.q.q.q.q.. i _ _ _   q.q.q.q.q.q.q.q.q.  _ _ _ i . q.q.q.q.q.q.q.q.q.q.q.q.q.q.q.q.q.q.q.q.q.q.q.q.q.q.q.q.q.q.",
"q.q.q.q.q.q.q.q.q.q.q.q.q.q.q.q.q.q.q.q.q.q.q.q.q.q.q.q.q.. - T _ T   q.q.q.q.q.q.q.q.q.  T _ T - . q.q.q.q.q.q.q.q.q.q.q.q.q.q.q.q.q.q.q.q.q.q.q.q.q.q.q.q.q.q.",
"q.q.q.q.q.q.q.q.q.q.q.q.q.q.q.q.q.q.q.q.q.q.q.q.q.q.q.q.q.. - i i i   q.q.q.q.q.q.q.q.q.  i i i - . q.q.q.q.q.q.q.q.q.q.q.q.q.q.q.q.q.q.q.q.q.q.q.q.q.q.q.q.q.q.",
"q.q.q.q.q.q.q.q.q.q.q.q.q.q.q.q.q.q.q.q.q.q.q.q.q.q.q.q.q.. - i i -   q.q.q.q.q.q.q.q.q.  - i i - . q.q.q.q.q.q.q.q.q.q.q.q.q.q.q.q.q.q.q.q.q.q.q.q.q.q.q.q.q.q.",
"q.q.q.q.q.q.q.q.q.q.q.q.q.q.q.q.q.q.q.q.q.q.q.q.q.q.q.q.q.- i T i -   q.q.q.q.q.q.q.q.q.  - i T i - q.q.q.q.q.q.q.q.q.q.q.q.q.q.q.q.q.q.q.q.q.q.q.q.q.q.q.q.q.q.",
"q.q.q.q.q.q.q.q.q.q.q.q.q.q.q.q.q.q.q.q.q.q.q.q.q.q.q.q.o i T T i -   q.q.q.q.q.q.q.q.q.  - i T T i o q.q.q.q.q.q.q.q.q.q.q.q.q.q.q.q.q.q.q.q.q.q.q.q.q.q.q.q.q.",
"q.q.q.q.q.q.q.q.q.q.q.q.q.q.q.q.q.q.q.q.q.q.q.q.q.q.q.q.o _ T T T i O q.q.q.q.q.q.q.q.q.O i T T T _ o q.q.q.q.q.q.q.q.q.q.q.q.q.q.q.q.q.q.q.q.q.q.q.q.q.q.q.q.q.",
"q.q.q.q.q.q.q.q.q.q.q.q.q.q.q.q.q.q.q.q.q.q.q.q.q.q.q.q.i - _ _ _ i   q.q.q.q.q.q.q.q.q.  i _ _ _ - i q.q.q.q.q.q.q.q.q.q.q.q.q.q.q.q.q.q.q.q.q.q.q.q.q.q.q.q.q.",
"q.q.q.q.q.q.q.q.q.q.q.q.q.q.q.q.q.q.q.q.q.q.q.q.q.q.q.q.o n - - i - $ q.q.q.q.q.q.q.q.q.$ - i - - n o q.q.q.q.q.q.q.q.q.q.q.q.q.q.q.q.q.q.q.q.q.q.q.q.q.q.q.q.q.",
"q.q.q.q.q.q.q.q.q.q.q.q.q.q.q.q.q.q.q.q.q.q.q.q.q.q.q.q.o n 9.9.9.n   q.q.q.q.q.q.q.q.q.  n 9.9.9.n o q.q.q.q.q.q.q.q.q.q.q.q.q.q.q.q.q.q.q.q.q.q.q.q.q.q.q.q.q.",
"q.q.q.q.q.q.q.q.q.q.q.q.q.q.q.q.q.q.q.q.q.q.q.q.q.q.q.q.q.o 9.9.n   q.q.q.q.q.q.q.q.q.q.q.  n 9.9.o q.q.q.q.q.q.q.q.q.q.q.q.q.q.q.q.q.q.q.q.q.q.q.q.q.q.q.q.q.q.",
"q.q.q.q.q.q.q.q.q.q.q.q.q.q.q.q.q.q.q.q.q.q.q.q.q.q.q.q.q.q.$ $   q.q.q.q.q.q.q.q.q.q.q.q.q.  $ $ q.q.q.q.q.q.q.q.q.q.q.q.q.q.q.q.q.q.q.q.q.q.q.q.q.q.q.q.q.q.q.",
"q.q.q.q.q.q.q.q.q.q.q.q.q.q.q.q.q.q.q.q.q.q.q.q.q.q.q.q.q.q.q.q.q.q.q.q.q.q.q.q.q.q.q.q.q.q.q.q.q.q.q.q.q.q.q.q.q.q.q.q.q.q.q.q.q.q.q.q.q.q.q.q.q.q.q.q.q.q.q.q.",
"q.q.q.q.q.q.q.q.q.q.q.q.q.q.q.q.q.q.q.q.q.q.q.q.q.q.q.q.q.q.q.q.q.q.q.q.q.q.q.q.q.q.q.q.q.q.q.q.q.q.q.q.q.q.q.q.q.q.q.q.q.q.q.q.q.q.q.q.q.q.q.q.q.q.q.q.q.q.q.q."
};
