/* XPM */
static char *pegleft_[] = {
/* columns rows colors chars-per-pixel */
"80 80 132 2",
"   c #5EAD73",
".  c #55558E",
"X  c #595990",
"o  c #66669D",
"O  c #75759A",
"+  c #7B7BAE",
"@  c #73AC89",
"#  c #828D9F",
"$  c #86B89A",
"%  c #8989A7",
"&  c #8C8CAA",
"*  c #8E8EAD",
"=  c #8B9CA5",
"-  c #9293AE",
";  c #8E8EBB",
":  c #9595B1",
">  c #9797B3",
",  c #9898B4",
"<  c #9999B5",
"1  c #9A9AB6",
"2  c #9D9DB7",
"3  c #9191BD",
"4  c #9393BE",
"5  c #9E9EB8",
"6  c #97A2B0",
"7  c #A0A1BA",
"8  c #A3A3BD",
"9  c #A4ABBC",
"0  c #A7ADBE",
"q  c #A3BAB6",
"w  c #9E9EC1",
"e  c #A8A8C0",
"r  c #A9ABC1",
"t  c #AAAAC2",
"y  c #ABABC3",
"u  c #AEAEC4",
"i  c #AFAFC6",
"p  c #A3A3C9",
"a  c #A6A6C9",
"s  c #A9A9CD",
"d  c #ADADCE",
"f  c #ACB3C1",
"g  c #B0B0C6",
"h  c #B0BCC3",
"j  c #B1B1C8",
"k  c #B3B3C9",
"l  c #B6B6CB",
"z  c #B6BBC9",
"x  c #B8B8CC",
"c  c #B9B9CD",
"v  c #B9B9CF",
"b  c #BABACE",
"n  c #BABDCE",
"m  c #B7B7D5",
"M  c #B9B9D1",
"N  c #BCBCD0",
"B  c #BEBED1",
"V  c #BDBDD2",
"C  c #BEBED2",
"Z  c #B9B9D7",
"A  c #BFBFD7",
"S  c #B7C0C9",
"D  c #C1C1D3",
"F  c #C2C2D4",
"G  c #C3C3D5",
"H  c #C4C4D5",
"J  c #C5C5D6",
"K  c #C7C7D7",
"L  c #C2C9D2",
"P  c #C5C5DB",
"I  c #C9C9D9",
"U  c #CACADA",
"Y  c #CBCBDB",
"T  c #CCCCDB",
"R  c #C8C8DE",
"E  c #CDCDDC",
"W  c #CFCFDD",
"Q  c #CDCDDE",
"!  c #CFCFDF",
"~  c #D0D0DE",
"^  c #CACAE1",
"/  c #CBCBE2",
"(  c #CECEE1",
")  c #CFCFE4",
"_  c #D3D3E0",
"`  c #D4D4E1",
"'  c #D7D7E3",
"]  c #D8D8E5",
"[  c #DADAE5",
"{  c #D9D9E6",
"}  c #DBDBE6",
"|  c #DCDCE7",
" . c #DBDBE8",
".. c #DADAEA",
"X. c #DBDBEB",
"o. c #DCDCE8",
"O. c #DDDDE8",
"+. c #DEDEE8",
"@. c #DFDFEA",
"#. c #DBE4E4",
"$. c #E0E0E9",
"%. c #E0E0EB",
"&. c #E2E2EB",
"*. c #E1E1EC",
"=. c #E3E3EC",
"-. c #E2E2EE",
";. c #E7E6ED",
":. c #E4E4EF",
">. c #E6E6EE",
",. c #E5E5F1",
"<. c #E7E7F1",
"1. c #E7E7F2",
"2. c #E9E9F0",
"3. c #EAEAF1",
"4. c #E9E9F2",
"5. c #EAEAF3",
"6. c #EDEDF3",
"7. c #EBEBF4",
"8. c #ECECF5",
"9. c #EDEDF5",
"0. c #EFEFF5",
"q. c #F0F0F5",
"w. c #F0F0F7",
"e. c #F2F2F6",
"r. c #F5F5F9",
"t. c #F8F8FB",
"y. c #FAFAFC",
"u. c #FCFCFD",
"i. c #FDFDFD",
"p. c #FEFEFE",
"a. c gray100",
"s. c None",
/* pixels */
"s.s.s.s.s.s.s.s.s.s.s.s.s.s.s.s.s.s.s.s.s.s.s.s.s.s.s.s.s.s.s.s.s.s.s.s.s.s.s.s.s.s.s.s.s.s.s.s.s.s.s.s.s.s.s.s.s.s.s.s.s.s.s.s.s.s.s.s.s.s.s.s.s.s.s.s.s.s.s.s.",
"s.s.s.s.s.s.s.s.s.s.s.s.s.s.s.s.s.s.s.s.s.s.s.s.s.s.s.s.s.s.s.s.s.s.s.s.s.s.s.s.s.s.s.s.s.s.s.s.s.s.s.s.s.s.s.s.s.s.s.s.s.s.s.s.s.s.s.s.s.s.s.s.s.s.s.s.s.s.s.s.",
"s.s.s.s.s.s.s.s.s.s.s.s.s.s.s.s.s.s.s.s.s.s.s.s.s.s.s.s.s.s.s.s.s.s.s.s.s.s.s.s.s.s.s.s.s.s.s.s.s.s.s.s.s.s.s.s.s.s.s.$ q q q q $ s.s.s.s.s.s.s.s.s.s.s.s.s.s.s.",
"s.s.s.s.s.s.s.s.s.s.s.s.s.s.s.s.s.s.s.s.s.s.s.s.s.s.s.s.s.s.s.s.s.s.s.s.s.s.s.s.s.s.f h h h f f s.s.s.s.s.s.s.s.0 L #.+.a.a.;.' ` 9 s.s.s.s.s.s.s.s.s.s.s.s.s.s.",
"s.s.s.s.s.s.s.s.s.s.s.s.s.s.s.s.s.s.s.s.s.s.s.s.s.s.s.s.s.s.s.s.s.s.s.s.s.s.9 9 b N [ ;.;.;.=.I l s.s.s.s.l D &.=.t.a.a.i.a.$.G B s.s.s.s.s.s.s.s.s.s.s.s.s.s.s.",
"s.s.s.s.s.s.s.s.s.s.s.s.s.s.s.s.s.s.s.s.s.s.s.s.s.s.s.s.s.s.s.s.s.s.s.s.9 9 T [ =.2.2.$.[ [ O.D 7 9 9 9 } 6.a.a.y.y.t.~ j l 9 9 s.s.s.s.s.s.s.s.s.s.s.s.s.s.s.s.",
"s.s.s.s.s.s.s.s.s.s.s.s.s.s.s.s.s.s.s.s.s.s.s.s.s.s.s.s.s.s.s.s.9 9 N K } +.2.>.>.=.' W I T k l ~ O.e.a.a.i.r.q.' j e > > > 9 s.s.s.s.s.s.s.s.s.s.s.s.s.s.s.s.s.",
"s.s.s.s.s.s.s.s.s.s.s.s.s.s.s.s.s.s.s.s.s.s.s.s.s.s.s.s.s.s.s.9 9 [ +.>.;.>.>.>.' ~ I W b g I 6.a.a.a.6.6.$.D 7 8 8 2 u J K 9 s.s.s.s.s.s.s.s.s.s.s.s.s.s.s.s.s.",
"s.s.s.s.s.s.s.s.s.s.s.s.s.s.s.s.s.s.s.s.s.s.s.s.s.s.s.s.s.9 n [ &.;.>.>.>.+.W ~ T I G i J 6.a.a.a.6.O.E e > e 8 8 B I K E W 9 9 s.s.s.s.s.s.s.s.s.s.s.s.s.s.s.s.",
"s.s.s.s.s.s.s.s.s.s.s.s.s.s.s.s.s.s.s.s.s.s.s.s.s.s.s.9 h ' =.>.>.=.=.&.W E I T K j N 2.a.a.a.t.} l 7 1 1 e i l T T W W E T c - s.s.s.s.s.s.s.s.s.s.s.s.s.s.s.s.",
"s.s.s.s.s.s.s.s.s.s.s.s.s.s.s.s.s.s.s.s.s.s.s.s.s.s.9 9 >.=.=.=.>.=.` I T T E K k +.a.a.a.i.[ B 2 1 y y y j I E W I K K b 6 @ s.s.s.s.s.s.s.s.s.s.s.s.s.s.s.s.s.",
"s.s.s.s.s.s.s.s.s.s.s.s.s.s.s.s.s.s.s.s.s.s.s.s.s.$ W >.=.=.>.>.O.' I T T E K j } a.a.a.} D 7 > 7 t u u y N G D J i 2 5 s.s.s.s.s.s.s.s.s.s.s.s.s.s.s.s.s.s.s.s.",
"s.s.s.s.s.s.s.s.s.s.s.s.s.s.s.s.s.s.s.s.s.s.s.s.s.D &.>.=.>.} ' I I T T E I j ' a.a.6.B 8 > < e g u u u u y t y y 7 > 6 s.s.s.s.s.s.s.s.s.s.s.s.s.s.s.s.s.s.s.s.",
"s.s.s.s.s.s.s.s.s.s.s.s.s.s.s.s.s.s.s.s.s.s.s.s.s.D =.;.>.=.O.' T T T T T k ` a.a.6.5 * < 1 e i u u u u u u y t i B J G D D G @ s.s.s.s.s.s.s.s.s.s.s.s.s.s.s.s.",
"s.s.s.s.s.s.s.s.s.s.s.s.s.s.s.s.s.s.s.s.s.s.s.s.s.s.c ~ ' >.>.>.T T T T k ~ a.a.e.8 : 2 < e u u u u u u u y l G K T W W W W _ 7 s.s.s.s.s.s.s.s.s.s.s.s.s.s.s.s.",
"s.s.s.s.s.s.s.s.s.s.s.s.s.s.s.s.s.s.s.s.s.s.s.s.s.s.s.q z W O.=.T T W l E a.a.t.e - < 8 y b K J j y u y k J T E E T T I D i - s.s.s.s.s.s.s.s.s.s.s.s.s.s.s.s.s.",
"s.s.s.s.s.s.s.s.s.s.s.s.s.s.s.s.s.s.s.s.s.s.s.s.s.s.s.s.s.h E +.$.I T k t.a.a.+.> > 7 c K W I l u u i D E E E T T J b r 9 s.s.s.s.s.s.s.s.s.s.s.s.s.s.s.s.s.s.s.",
"s.s.s.s.s.s.s.s.s.s.s.s.s.s.s.s.s.s.s.s.s.s.s.s.s.s.s.s.s.s.S W } E l K a.a.a.t - 8 N ~ T J l y y i G T K K K b g 7 - # s.s.s.s.s.s.s.s.s.s.s.s.s.s.s.s.s.s.s.s.",
"s.s.s.s.s.s.s.s.s.s.s.s.s.s.s.s.s.s.s.s.s.s.s.s.s.s.s.s.s.s.s.h I W l I t.i.O.5 2 K W J c y y u g N K J N N N j u 8 e e 9 9 s.s.s.s.s.s.s.s.s.s.s.s.s.s.s.s.s.s.",
"s.s.s.s.s.s.s.s.s.s.s.s.s.s.s.s.s.s.s.s.s.s.s.s.s.s.s.s.s.s.s.q T E G B ' 2.c < c E c i t y u y c D N N N D K K I _ _ _ _ i s.s.s.s.s.s.s.s.s.s.s.s.s.s.s.s.s.s.",
"s.s.s.s.s.s.s.s.s.s.s.s.s.s.s.s.s.s.s.s.s.s.s.s.s.s.s.s.s.s.s.s.z T ~ g ~ 3.N > D l t t k l y y l D B D K T W E E W K K B @ s.s.s.s.s.s.s.s.s.s.s.s.s.s.s.s.s.s.",
"s.s.s.s.s.s.s.s.s.s.s.s.s.s.s.s.s.s.s.s.s.s.s.s.s.s.s.s.s.s.s.s.f E T K c +.' g i t i D I T D i B B B B G D D D j k j 2 $ s.s.s.s.s.s.s.s.s.s.s.s.s.s.s.s.s.s.s.",
"s.s.s.s.s.s.s.s.s.s.; ; Z Z Z ; s.s.s.s.s.s.s.s.s.s.s.s.s.s.s.s.q T T E l i.` G u u D E E T b j D D D B B B B D i - : s.s.s.s.s.s.s.s.s.s.s.s.s.s.s.s.s.s.s.s.s.",
"s.s.s.s.s.s.s.3 ; Z 1.a.a.a.a.a.1.Z Z s.s.s.s.s.s.s.s.s.s.s.s.s.s.l W T I =.r.K j D W E K c j D K E T T T T T E W I 2 s.s.s.s.s.s.s.s.s.s.s.s.s.s.s.s.s.s.s.s.s.",
"s.s.s.s.s.3 s ; Z a.Z a.Z 1.a.1.a.a.a.1.Z Z s.s.s.s.s.s.s.s.s.s.s.l W T K D a.' k c J B g l K W E T T T T E E I K N 9 s.s.s.s.s.s.s.s.s.s.s.s.s.s.s.s.s.s.s.s.s.",
"s.s.s.3 s s / Z 1.1.Z 1.Z Z a.Z 1.a.1.a.a.1.1.Z p s.s.s.s.s.s.s.s.c ~ T K B a.2.J y t i B K K J J T E W I K G u 7 9 s.s.s.s.s.s.s.s.s.s.s.s.s.s.s.s.s.s.s.s.s.s.",
"s.s.s.+ + 3 ; 3 8.8./ / s ; 1.; Z 1.Z a.1.a.a.a.1.1.Z p s.s.s.s.s.s.J E K ' a.r.I l y j l N N N b D D l l 8 > % @ s.s.s.s.s.s.s.s.s.s.s.s.s.s.s.s.s.s.s.s.s.s.s.",
"s.s.s.s.s.; Z + + s 8.8.s / ; s 3 1.Z a.1.a.a.1.a.a.a.1.Z p s.s.s.s.N E T I a.a.~ N u u y j K K K K K D N i u y = s.s.s.s.s.s.s.s.s.s.s.s.s.s.s.s.s.s.s.s.s.s.s.",
"s.s.s.s.. Z 1.1.; + + 8./ X./ / s ; Z 1.Z 1.a.1.a.1.a.p.a.1.Z p s.s.B E T l +.a.+.N y u u u T E E E E W K D D D 7 9 s.s.s.s.s.s.s.s.s.s.s.s.s.s.s.s.s.s.s.s.s.s.",
"s.s.s.s.s.+ Z ; s 3 3 / X.8.8.8.X./ s Z Z Z a.1.a.1.a.x J u.a.a.Z a b ` 7 - =.a.6.y 7 u u i B N b c b N D b u 8 s.s.s.s.s.s.s.s.s.s.s.s.s.s.s.s.s.s.s.s.s.s.s.s.",
"s.s.s.s.s.3 ; / X.X./ / 8.8./ 8.8.8.X.; s 3 a.Z 1.1.a.P ] H 6. .*.R D ' K 8 6.a.a.u 7 j g N b g e 7 5 5 8 @   & 3 3 s s 3 3 s.s.s.s.s.s.s.s.s.s.s.s.s.s.s.s.s.s.",
"s.s.s.s.s.3 / 8.a.8.8.s 8.8.8.3 / 8.8.X./ s Z s ) Z 1.m @.U y B +.=.I i 5 u a.a.a.u 8 G D B B D D D l y & w s / X.8.8.8.X./ s 3 3 s.s.s.s.s.s.s.s.s.s.s.s.s.s.s.",
"s.s.s.s.3 / 8.a.8.3 . s 8.8.X.s 3 / 8.8./ / ; s Z s Z Z ,.P | e.=.c 7 e 2 g a.a.p.8 8 D B B D G D D G D l 8 ( 8.a.a.a.a.a.a.8.X./ s 3 s.s.s.s.s.s.s.s.s.s.s.s.s.",
"s.s.s.s.3 X.a.a.8.3 . X.8.8./ s 3 s X.8.X./ s s ; s ; s Z 4 X.{ g D ` ` g +.a.a.2.> 8 D B B i 2 8 e t 8 > 8 ,.a.a.a.a.a.a.a.a.a.8.X./ s 3 s.s.s.s.s.s.s.s.s.s.s.",
"s.s.s.s.3 8.a.a.X.s / X.X./ s 3 3 s / 8.8./ / X.s / s / ; s d =.$.$.K N i a.a.a.K > 8 D B B c y > * & , P ^ 8.a.a.a.a.a.a.a.a.a.a.8.X./ s 3 s.s.s.s.s.s.s.s.s.s.",
"s.s.s.s.s a.a.8./ s / / s 3 3 3 s s s X.8.X./ X.8.X./ X.s / m *.~ k u e ` a.a.6.8 1 N B N D D J 5 ' @.r.8.X.X.a.a.a.a.a.a.a.a.a.a.a.8.X./ Z Z s.s.s.s.s.s.s.s.s.",
"s.s.s.s./ a.a.8.s s s 3 3 . + 3 3 s s / X.X./ X.8.8.X.X./ X.( v B E k K a.a.a.I > 7 G l u l l l 5 ] a.8.8.8.X.8.a.a.a.a.a.a.a.8.a.a.a.8.X.1.1.Z Z s.s.s.s.s.s.s.",
"s.s.s.3 / a.a.8.s s 3 . . s.s.. + 3 s / X.X./ X.8.8.8.X.X.X.! C B ~ G a.a.a.2.e 1 i b D l e < > F 8.8.8.8.8.X.8.a.a.a.a.a.a.8.a.8.a.8.8.X.1.a.a.1.Z s.s.s.s.s.s.",
"s.s.s.s X.8.8./ s 3 . s.s.s.s.s.. + 3 s / X./ X.8.8.8.8.8.4.T J W 2.a.a.a.a.j 7 y u i l l b y 2 B 8.8.8.8.8.8.8.a.a.a.a.a.a.a.8.a.8.a.8.X.s 1.a.a.1.Z s.s.s.s.s.",
"s.s.s.s X.8.8./ s . s.s.s.s.s.s.s.. + s / X.s / 8.8.8.8.8. .! J O.a.a.a.a.$.8 i u y t e t 5 > - V 8.8.8.8.8.8.8.a.a.a.a.a.a.8.a.8.8.8.8.X.s ; 1.a.a.1.Z s.s.s.s.",
"s.s.s.+ X.X.3 s s . s.s.s.s.s.s.s.s.. + s / s / X.8.8.8.<.W x I i.a.a.a.>.k u u y c D G b g g 8 Q 8.8.8.8.8.8.8.a.a.a.8.a.8.a.8.8.8.8.8.X.s 3 Z a.a.a.1.Z s.s.s.",
"s.s.s.s.+ s s s + s.s.s.s.s.s.s.s.s.s.. s / s s X.8.8.8.] H ` 3.a.a.a.a.` t y l N I E W E W Y D D *.8.8.8.8.X.8.a.a.a.8.8.8.8.8.8.8.8.8.X./ 3 p 1.a.a.a.Z s.s.s.",
"s.s.s.s.s.+ + + s.s.s.s.s.s.s.s.s.s.s.s.+ s s s X.8.8.8.) :.0.a.a.p.a.a.k y y l K E ~ ` %.@.-.:.=.@.5.8.8.8.X.8.a.a.8.8.8.8.8.8.8.8.8.8.X./ 3 p Z a.a.a.1.; s.s.",
"s.s.s.s.s.s.s.s.s.s.s.s.s.s.s.s.s.s.s.s.. 3 s s / 8.8.X./ 8.p.p.a.a.y.6.c g g u D ~ o.,.5.7.8.8.8.8.8.X.8.X./ X.a.a.8.8.8.8.8.8.8.8.8.X.X./ + ; Z a.a.a.a.; s.s.",
"s.s.s.s.s.s.s.s.s.s.s.s.s.s.s.s.s.s.s.s.s.+ s s s X.8./ X.8.a.a.a.8.9.w.-.J M I { <.7.8.8.8.8.8.X.8.X.8.X.X.s X.8.a.X.X.X.8.8.8.8.8.8.X.X./ + ; p a.a.1.a.Z s.s.",
"s.s.s.s.s.s.s.s.s.s.s.s.s.s.s.s.s.s.s.s.s.. s s s / X./ X.a.a.a.a.8.X.8.8.5.s ..8.8.8.8.8.X.8.X.8.X.8.X./ / s / 8.a.8./ / 8.8.8.8.8.8./ X./ + s.p a.a.1.a.p s.s.",
"s.s.s.s.s.s.s.s.s.s.s.s.s.s.s.s.s.s.s.s.s.. 3 s s s / s 8.a.a.a.a.8.X.8.8.8.s / X.8.8.8.X.8.X.X.X.X.X./ / s s s 8.a.8./ / 8.8.8.8.8.8./ X.3 . s.p a.a.1.1.p s.s.",
"s.s.s.s.s.s.s.s.s.s.s.s.s.s.s.s.s.s.s.s.s.s.+ s s s / s 8.a.a.a.8.8.X.X.8.X.s s / X.X.X.X.X.X.X.X./ / / s s s s X.8.a.X./ 8.8.8.8.8.X./ X.+ . s.; a.1.1.Z ; s.s.",
"s.s.s.s.s.s.s.s.s.s.s.s.s.s.s.s.s.s.s.s.s.s.. 3 s 3 s / 8.a.a.a.8.8./ / X./ 3 s / / / / / / / s / s / s / s 3 s X.8.a.8./ 8.8.8.8.8./ / X.+ s.s.; 1.1.1.p o s.s.",
"s.s.s.s.s.s.s.s.s.s.s.s.s.s.s.s.s.s.s.s.s.s.. 3 s 3 s X.8.8.a.a.8.X./ / / s 3 s / / s / s / s / s / s s s 3 3 s / 8.8.8.X.8.8.8.8.8./ X.s . s.s.o 1.1.1.; o s.s.",
"s.s.s.s.s.s.s.s.s.s.s.s.s.s.s.s.s.s.s.s.s.s.s.+ 3 3 s / X.8.8.8.8.X./ / s 3 3 s / s / s / s s 3 3 3 + + + . . s / X.8.8.8.8.8.8.8.X./ X.+ . s.s.o 1.1.a.o s.s.s.",
"s.s.s.s.s.s.s.s.s.s.s.s.s.s.s.s.s.s.s.s.s.s.s.. 3 + s / 8.X.8.8.8./ s / s 3 3 s s s s 3 3 3 + + . . s.s.s.s.s.+ / / 8.8.8.8.8.8.8./ / / . s.s.s.. Z 1.a.o s.s.s.",
"s.s.s.s.s.s.s.s.s.s.s.s.s.s.s.s.s.s.s.s.s.s.s.s.+ + s / X.8.X.8.8./ s s 3 + 3 s 3 + + . . . s.s.s.s.s.s.s.s.s.+ s / X.8.8.8.8.8.8./ X./ . s.s.s.. Z 1.a.; s.s.s.",
"s.s.s.s.s.s.s.s.s.s.s.s.s.s.s.s.s.s.s.s.s.s.s.s.s.+ s s / X.8.8.X./ s 3 + + . . . s.s.s.s.s.s.s.s.s.s.s.s.s.s.s.+ / / X.8.8.8.8.8./ X.s . s.s.s.s.; 1.a.Z ; s.s.",
"s.s.s.s.s.s.s.s.s.s.s.s.s.s.s.s.s.s.s.s.s.s.s.s.s.. s s X.8.X.8.X./ 3 + . s.s.s.s.s.s.s.s.s.s.s.s.s.s.s.s.s.s.s.s.+ / / X.8.8.8.8.X./ . s.s.s.s.s.. Z a.a.; s.s.",
"s.s.s.s.s.s.s.s.s.s.s.s.s.s.s.s.s.s.s.s.s.s.s.s.s.. s s / X.8.X./ / + . s.s.s.s.s.s.s.s.s.s.s.s.s.s.s.s.s.s.s.s.s.+ s s / / X.8.8.X./ . s.s.s.s.s.. Z 1.a.Z ; s.",
"s.s.s.s.s.s.s.s.s.s.s.s.s.s.s.s.s.s.s.s.s.s.s.s.s.s.+ s / X.X.X./ / + s.s.s.s.s.s.s.s.s.s.s.s.s.s.s.s.s.s.s.s.s.s.s.+ 3 s s s X.8.8./ 3 s.s.s.s.s.s.; Z a.1.; s.",
"s.s.s.s.s.s.s.s.s.s.s.s.s.s.s.s.s.s.s.s.s.s.s.s.s.s.. s s / X.X./ s . s.s.s.s.s.s.s.s.s.s.s.s.s.s.s.s.s.s.s.s.s.s.s.s.+ 3 s s s X.8.X./ 3 s.s.s.s.s.s.; 1.p ; s.",
"s.s.s.s.s.s.s.s.s.s.s.s.s.s.s.s.s.s.s.s.s.s.s.s.s.s.. s s / X./ / s . s.s.s.s.s.s.s.s.s.s.s.s.s.s.s.s.s.s.s.s.s.s.s.s.s.+ 3 s s / 8.8.X./ + s.s.s.s.s.; 1.; s.s.",
"s.s.s.s.s.s.s.s.s.s.s.s.s.s.s.s.s.s.s.s.s.s.s.s.s.s.s.+ s / X./ A w O s.s.s.s.s.s.s.s.s.s.s.s.s.s.s.s.s.s.s.s.s.s.s.s.s.s.+ 3 s / 8.8.8.X.+ s.s.s.s.s.; p ; s.s.",
"s.s.s.s.s.s.s.s.s.s.s.s.s.s.s.s.s.s.s.s.s.s.s.s.s.s.s.+ / s / s s 3 X s.s.s.s.s.s.s.s.s.s.s.s.s.s.s.s.s.s.s.s.s.s.s.s.s.s.s.+ 3 / 8.8.8.X.+ s.s.s.s.p Z o s.s.s.",
"s.s.s.s.s.s.s.s.s.s.s.s.s.s.s.s.s.s.s.s.s.s.s.s.s.s.s.+ / / s s s 3 . s.s.s.s.s.s.s.s.s.s.s.s.s.s.s.s.s.s.s.s.s.s.s.s.s.s.s.s.+ / X.8.X./ + s.s.s.s.o o s.s.s.s.",
"s.s.s.s.s.s.s.s.s.s.s.s.s.s.s.s.s.s.s.s.s.s.s.s.s.s.s.. s / s s s s . s.s.s.s.s.s.s.s.s.s.s.s.s.s.s.s.s.s.s.s.s.s.s.s.s.s.s.s.+ s / X./ + s.s.s.s.s.s.s.s.s.s.s.",
"s.s.s.s.s.s.s.s.s.s.s.s.s.s.s.s.s.s.s.s.s.s.s.s.s.s.s.. 3 s s / s s . s.s.s.s.s.s.s.s.s.s.s.s.s.s.s.s.s.s.s.s.s.s.s.s.s.s.s.s.+ s / / s + s.s.s.s.s.s.s.s.s.s.s.",
"s.s.s.s.s.s.s.s.s.s.s.s.s.s.s.s.s.s.s.s.s.s.s.s.s.s.s.s.3 s s s s + s.s.s.s.s.s.s.s.s.s.s.s.s.s.s.s.s.s.s.s.s.s.s.s.s.s.s.s.s.+ s s / + s.s.s.s.s.s.s.s.s.s.s.s.",
"s.s.s.s.s.s.s.s.s.s.s.s.s.s.s.s.s.s.s.s.s.s.s.s.s.s.s.s.3 / s / s . s.s.s.s.s.s.s.s.s.s.s.s.s.s.s.s.s.s.s.s.s.s.s.s.s.s.s.s.s.+ s / s + s.s.s.s.s.s.s.s.s.s.s.s.",
"s.s.s.s.s.s.s.s.s.s.s.s.s.s.s.s.s.s.s.s.s.s.s.s.s.s.s.s.s / / s + s.s.s.s.s.s.s.s.s.s.s.s.s.s.s.s.s.s.s.s.s.s.s.s.s.s.s.s.s.+ s / s / . s.s.s.s.s.s.s.s.s.s.s.s.",
"s.s.s.s.s.s.s.s.s.s.s.s.s.s.s.s.s.s.s.s.s.s.s.s.s.s.s.+ X./ s / . s.s.s.s.s.s.s.s.s.s.s.s.s.s.s.s.s.s.s.s.s.s.s.s.s.s.s.s.s.+ s s / s . s.s.s.s.s.s.s.s.s.s.s.s.",
"s.s.s.s.s.s.s.s.s.s.s.s.s.s.s.s.s.s.s.s.s.s.s.s.s.s.s.+ X./ / s + s.s.s.s.s.s.s.s.s.s.s.s.s.s.s.s.s.s.s.s.s.s.s.s.s.s.s.s.s.s / / / s . s.s.s.s.s.s.s.s.s.s.s.s.",
"s.s.s.s.s.s.s.s.s.s.s.s.s.s.s.s.s.s.s.s.s.s.s.s.s.s.s.s 8./ s X.s + s.s.s.s.s.s.s.s.s.s.s.s.s.s.s.s.s.s.s.s.s.s.s.s.s.s.s.+ / X.X./ 3 . s.s.s.s.s.s.s.s.s.s.s.s.",
"s.s.s.s.s.s.s.s.s.s.s.s.s.s.s.s.s.s.s.s.s.s.s.s.s.s.+ / 8.X.X.X.s + s.s.s.s.s.s.s.s.s.s.s.s.s.s.s.s.s.s.s.s.s.s.s.s.s.s.+ s 8.8./ s + . s.s.s.s.s.s.s.s.s.s.s.s.",
"s.s.s.s.s.s.s.s.s.s.s.s.s.s.s.s.s.s.s.s.s.s.s.s.s.s.+ 3 / 8.8.s 3 + s.s.s.s.s.s.s.s.s.s.s.s.s.s.s.s.s.s.s.s.s.s.s.s.s.s.+ X.8./ s + s.s.s.s.s.s.s.s.s.s.s.s.s.s.",
"s.s.s.s.s.s.s.s.s.s.s.s.s.s.s.s.s.s.s.s.s.s.s.s.s.; 1.1.Z s s 3 + s.s.s.s.s.s.s.s.s.s.s.s.s.s.s.s.s.s.s.s.s.s.s.s.s.s.; Z 1.1.1.o o s.s.s.s.s.s.s.s.s.s.s.s.s.s.",
"s.s.s.s.s.s.s.s.s.s.s.s.s.s.s.s.s.s.s.s.s.s.s.s.s.Z a.a.1.Z ; o s.s.s.s.s.s.s.s.s.s.s.s.s.s.s.s.s.s.s.s.s.s.s.s.s.s.s.; 1.a.a.1.Z o s.s.s.s.s.s.s.s.s.s.s.s.s.s.",
"s.s.s.s.s.s.s.s.s.s.s.s.s.s.s.s.s.s.s.s.s.s.s.s.; a.a.a.1.1.o s.s.s.s.s.s.s.s.s.s.s.s.s.s.s.s.s.s.s.s.s.s.s.s.s.s.s.; Z a.a.a.Z o s.s.s.s.s.s.s.s.s.s.s.s.s.s.s.",
"s.s.s.s.s.s.s.s.s.s.s.s.s.s.s.s.s.s.s.s.s.s.s.s.Z Z ; ; ; o s.s.s.s.s.s.s.s.s.s.s.s.s.s.s.s.s.s.s.s.s.s.s.s.s.s.s.s.; Z Z Z Z o s.s.s.s.s.s.s.s.s.s.s.s.s.s.s.s.",
"s.s.s.s.s.s.s.s.s.s.s.s.s.s.s.s.s.s.s.s.s.s.s.s.s.s.s.s.s.s.s.s.s.s.s.s.s.s.s.s.s.s.s.s.s.s.s.s.s.s.s.s.s.s.s.s.s.s.s.s.s.s.s.s.s.s.s.s.s.s.s.s.s.s.s.s.s.s.s.s.",
"s.s.s.s.s.s.s.s.s.s.s.s.s.s.s.s.s.s.s.s.s.s.s.s.s.s.s.s.s.s.s.s.s.s.s.s.s.s.s.s.s.s.s.s.s.s.s.s.s.s.s.s.s.s.s.s.s.s.s.s.s.s.s.s.s.s.s.s.s.s.s.s.s.s.s.s.s.s.s.s.",
"s.s.s.s.s.s.s.s.s.s.s.s.s.s.s.s.s.s.s.s.s.s.s.s.s.s.s.s.s.s.s.s.s.s.s.s.s.s.s.s.s.s.s.s.s.s.s.s.s.s.s.s.s.s.s.s.s.s.s.s.s.s.s.s.s.s.s.s.s.s.s.s.s.s.s.s.s.s.s.s.",
"s.s.s.s.s.s.s.s.s.s.s.s.s.s.s.s.s.s.s.s.s.s.s.s.s.s.s.s.s.s.s.s.s.s.s.s.s.s.s.s.s.s.s.s.s.s.s.s.s.s.s.s.s.s.s.s.s.s.s.s.s.s.s.s.s.s.s.s.s.s.s.s.s.s.s.s.s.s.s.s."
};
