/* XPM */
static char *Free_Converter_com_pegleft1_43273855[] = {
/* columns rows colors chars-per-pixel */
"80 80 145 2 ",
"   c #3FBB50",
".  c #6FCA7E",
"X  c #55558E",
"o  c #595990",
"O  c #5B5B94",
"+  c #66669D",
"@  c #7B7BAE",
"#  c #7C7CAE",
"$  c #7B9597",
"%  c #73AC89",
"&  c #86B89A",
"*  c #8383A3",
"=  c #8989A7",
"-  c #8C8CAA",
";  c #8E8EAD",
":  c #8B9CA5",
">  c #9293AE",
",  c #8080B1",
"<  c #8787B0",
"1  c #8F8FB9",
"2  c #8E8EBB",
"3  c #9595B1",
"4  c #9797B3",
"5  c #9898B4",
"6  c #9999B5",
"7  c #9A9AB6",
"8  c #9D9DB7",
"9  c #9191BD",
"0  c #9292BD",
"q  c #9393BE",
"w  c #9999BB",
"e  c #9E9EB8",
"r  c #9F9FBA",
"t  c #94AEAB",
"y  c #97A2B0",
"u  c #A0A1BA",
"i  c #A3A3BD",
"p  c #A4ABBC",
"a  c #A3BAB6",
"s  c #9BCCAA",
"d  c #A3A3C3",
"f  c #A8A8C0",
"g  c #A8A8C3",
"h  c #AAAAC2",
"j  c #ABABC3",
"k  c #A9ACC0",
"l  c #ADAEC3",
"z  c #A9A9C7",
"x  c #ACACC4",
"c  c #AEAEC4",
"v  c #AFAFC6",
"b  c #A3A3C9",
"n  c #A6A6C9",
"m  c #A9A9CB",
"M  c #AFAFC9",
"N  c #A9A9CD",
"B  c #ADADCE",
"V  c #B0B0C6",
"C  c #B0BCC3",
"Z  c #B1B1C8",
"A  c #B3B3C9",
"S  c #B5B5CA",
"D  c #B6B6CB",
"F  c #B3B3CE",
"G  c #B6B6CE",
"H  c #B8B8CC",
"J  c #B9B9CD",
"K  c #BABACE",
"L  c #B0B0D0",
"P  c #B3B3D2",
"I  c #BCBCD0",
"U  c #BEBED1",
"Y  c #B9B9D7",
"T  c #BCBCD8",
"R  c #B3CCC2",
"E  c #B7C0C9",
"W  c #BBD9C6",
"Q  c #C1C1D3",
"!  c #C2C2D4",
"~  c #C3C3D5",
"^  c #C4C4D5",
"/  c #C5C5D6",
"(  c #C7C7D7",
")  c #C5C5DB",
"_  c #C9C9D9",
"`  c #CACADA",
"'  c #CBCBDB",
"]  c #CCCCDB",
"[  c #CDCDDC",
"{  c #CFCFDD",
"}  c #CDCDDE",
"|  c #CFCFDF",
" . c #D0D0DE",
".. c #D8D8DF",
"X. c #CACAE1",
"o. c #CBCBE2",
"O. c #CFCFE4",
"+. c #D3D3E0",
"@. c #D4D4E1",
"#. c #D4D4E3",
"$. c #D7D7E3",
"%. c #D8D8E5",
"&. c #DADAE5",
"*. c #DBDBE6",
"=. c #D7D7E8",
"-. c #D8D8E9",
";. c #DBDBE8",
":. c #DBDBEB",
">. c #DCDCE8",
",. c #DDDDE8",
"<. c #DEDEE8",
"1. c #DFDFEA",
"2. c #DFDFED",
"3. c #E0E0E9",
"4. c #E2E2EB",
"5. c #E3E3EC",
"6. c #E2E2EE",
"7. c #E7E6ED",
"8. c #E4E4EF",
"9. c #E6E6EE",
"0. c #E5E5F1",
"q. c #E7E7F2",
"w. c #E9E9F0",
"e. c #EAEAF1",
"r. c #E9E9F2",
"t. c #EAEAF3",
"y. c #EDEDF3",
"u. c #EBEBF4",
"i. c #ECECF5",
"p. c #EEEEF6",
"a. c #F0F0F5",
"s. c #F0F0F7",
"d. c #F2F2F6",
"f. c #F4F4F7",
"g. c #F3F3F8",
"h. c #F4F4F8",
"j. c #F5F5F9",
"k. c #F8F8FB",
"l. c #FAFAFC",
"z. c #FCFCFD",
"x. c #FDFDFD",
"c. c #FDFDFE",
"v. c #FEFEFE",
"b. c gray100",
"n. c None",
/* pixels */
"n.n.n.n.n.n.n.n.n.n.n.n.n.n.n.n.n.n.n.n.n.n.n.n.n.n.n.n.n.n.n.n.n.n.n.n.n.n.n.n.n.n.n.n.n.n.n.n.n.n.n.n.n.n.n.n.n.n.n.n.n.n.n.n.n.n.n.n.n.n.n.n.n.n.n.n.n.n.n.n.",
"n.n.n.n.n.n.n.n.n.n.n.n.n.n.n.n.n.n.n.n.n.n.n.n.n.n.n.n.n.n.n.n.n.n.n.n.n.n.n.n.n.n.n.n.n.n.n.n.n.n.n.n.n.n.n.n.n.n.n.n.n.n.n.n.n.n.n.n.n.n.n.n.n.n.n.n.n.n.n.n.",
"n.n.n.n.n.n.n.n.n.n.n.n.n.n.n.n.n.n.n.n.n.n.n.n.n.n.n.n.n.n.n.n.n.n.n.n.n.n.n.n.n.n.n.n.n.n.n.n.n.n.n.n.n.n.n.n.n.n.n.n.n.n.n.n.n.n.n.n.n.n.n.n.n.n.n.n.n.n.n.n.",
"n.n.n.n.n.n.n.n.n.n.n.n.n.n.n.n.n.n.n.n.n.n.n.n.n.n.n.n.n.n.n.n.n.n.n.n.n.n.n.n.n.n.n.n.n.n.n.n.n.n.n.n.n.n.n.n.n.n.n.n.n.n.n.n.n.n.n.n.n.n.n.n.n.n.n.n.n.n.n.n.",
"n.n.n.n.n.n.n.n.n.n.n.n.n.n.n.n.n.n.n.n.n.n.n.n.n.n.n.n.n.n.n.n.n.n.n.n.n.n.n.n.n.n.n.n.n.n.n.n.n.n.n.n.n.n.n.n.n.n.n.n.n.n.n.n.n.n.n.n.n.n.n.n.n.n.n.n.n.n.n.n.",
"n.n.n.n.n.n.n.n.n.n.n.n.n.n.n.n.n.n.n.n.n.n.n.n.n.n.n.n.n.n.n.n.n.n.n.n.n.n.n.n.n.n.n.n.n.n.n.n.n.n.n.n.n.n.n.n.n.n.n.n.n.n.n.n.n.n.n.n.n.n.n.n.n.n.n.n.n.n.n.n.",
"n.n.n.n.n.n.n.n.n.n.n.n.n.n.n.n.n.n.n.n.n.n.n.n.n.n.n.n.n.n.n.n.n.n.n.n.n.n.n.n.n.n.n.n.n.n.n.n.n.n.n.n.n.n.n.n.n.n.n.n.n.n.n.n.n.n.n.n.n.n.n.n.n.n.n.n.n.n.n.n.",
"n.n.n.n.n.n.n.n.n.n.n.n.n.n.n.n.n.n.n.n.n.n.n.n.n.n.n.n.n.n.n.n.n.n.n.n.n.n.n.n.n.n.n.n.n.n.n.n.n.n.n.n.n.n.n.n.n.n.n.n.n.n.n.n.n.n.n.n.n.n.n.n.n.n.n.n.n.n.n.n.",
"n.n.n.n.n.n.n.n.n.n.n.n.n.n.n.n.n.n.n.n.n.n.n.n.n.n.n.n.n.n.n.n.n.n.n.n.n.n.n.n.n.n.n.n.n.n.n.n.n.n.n.n.n.n.n.n.n.n.n.n.n.n.n.n.n.n.n.n.n.n.n.n.n.n.n.n.n.n.n.n.",
"n.n.n.n.n.n.n.n.n.n.n.n.n.n.n.n.n.n.n.n.n.n.n.n.n.n.n.n.n.n.n.n.n.n.n.n.n.n.n.n.n.n.n.n.n.n.n.n.n.n.n.n.n.n.n.n.n.n.n.n.n.n.n.n.n.n.n.n.n.n.n.n.n.n.n.n.n.n.n.n.",
"n.n.n.n.n.n.n.n.n.n.n.n.n.n.n.n.n.n.n.n.n.n.n.n.n.n.n.n.n.n.n.n.n.n.n.n.n.n.n.n.n.n.n.n.n.n.n.n.n.n.n.n.n.n.n.n.n.n.n.n.n.n.n.n.n.n.n.n.n.n.n.n.n.n.n.n.n.n.n.n.",
"n.n.n.n.n.n.n.n.n.n.n.n.n.n.n.n.n.n.n.n.n.n.n.n.n.n.n.n.n.n.n.n.n.n.n.n.n.n.n.n.n.n.n.n.n.n.n.n.n.n.n.n.n.n.n.n.n.n.n.n.n.n.n.n.n.n.n.n.n.n.n.n.n.n.n.n.n.n.n.n.",
"n.n.n.n.n.n.n.n.n.n.n.n.n.n.n.n.n.n.n.n.n.n.n.n.n.n.n.n.n.n.n.n.n.n.n.n.n.n.n.n.n.n.n.n.n.n.n.n.n.n.n.n.n.n.n.n.n.n.n.n.n.n.n.n.n.n.n.n.n.n.n.n.n.n.n.n.n.n.n.n.",
"n.n.n.n.n.n.n.n.n.n.n.n.n.n.n.n.n.n.n.n.n.n.n.n.n.n.n.n.n.n.n.n.n.n.n.n.n.n.n.n.n.n.n.n.n.n.n.n.n.n.n.n.n.n.n.n.n.n.n.n.n.n.n.n.n.n.n.n.n.n.n.n.n.n.n.n.n.n.n.n.",
"n./ n.n.n.n.n.n.n.n.n.n.n.n.n.n.n.n.n.n.n.n.n.n.n.n.n.n.n.n.n.n.n.n.n.n.n.n.n.n.n.n.n.n.n.n.n.n.n.n.n.n.n.n.n.n.n.n.n.n.n.n.n.n.n.n.n.n.n.n.n.n.n.n.n.n.n.n.n.n.",
"n.$.n.n.n.n.n.n.n.n.n.n.n.n.n.n.n.n.n.n.n.n.n.n.n.n.n.n.n.n.n.n.n.n.n.n.p p p p Q Q v e n.n.n.n.n.n.n.n.n.n.n.n.n.n.n.n.n.n.n.n.n.n.n.n.n.n.n.n.n.n.n.n.n.n.n.n.",
"n.Z n.n.n.n.n.n.n.n.n.n.n.n.n.n.n.n.n.n.n.n.n.n.n.n.n.n.n.n.n.n.n.p p p A Q ' [ [ $.( V % n.n.n.n.n.n.n.n.n.n.n.n.n.n.n.n.n.n.n.n.n.n.n.n.n.n.n.n.n.n.n.n.n.n.n.",
"n.n.n.n.n.n.n.n.n.n.n.n.n.n.n.n.n.n.n.n.n.n.n.n.n.n.n.n.n.n.n.% & U / [ [ [ ' ~ K V V 4 : n.n.n.n.n.n.n.n.n.n.n.n.n.n.n.n.n.n.n.n.n.n.n.n.n.n.n.n.n.n.n.n.n.n.n.",
"n.n.n.n.n.n.n.n.n.n.n.n.n.n.n.n.n.n.n.n.n.n.n.n.n.n.n.n.n.& a [ %.5.$.' / D D ] [  .' / ~ e n.n.n.n.n.n.n.n.n.n.n.n.n.n.n.n.n.n.n.n.n.n.n.n.n.n.n.n.n.n.n.n.n.n.",
"n.p n.n.n.n.n.n.n.n.n.n.n.n.n.n.n.n.n.n.n.n.n.n.n.n.n.n.k [ $.9.*.( Q V Q 3.7.3.$. .( / K : n.n.n.n.n.n.n.n.n.n.n.n.n.n.n.n.n.n.n.n.n.n.n.n.n.n.n.n.n.n.n.n.n.n.",
"n.t n.n.n.n.n.n.n.n.n.n.n.n.n.n.n.n.n.n.n.n.n.n.n.n.i ( >.7.7.$.[ Q Q 3.w.7.<./ K V v Z e n.n.n.n.n.n.n.n.n.n.n.n.n.n.n.n.n.n.n.n.n.n.n.n.n.n.n.n.n.n.n.n.n.n.n.",
"n.n.n.n.n.n.n.n.n.n.n.n.n.n.n.n.n.n.n.n.n.n.n.n.n.A <.1.q.5.4.*.*.5.7.*.%./ D v Z / [ { @.v n.n.n.n.n.n.n.n.n.n.n.n.n.n.n.n.n.n.n.n.n.n.n.n.n.n.n.n.n.n.n.n.n.n.",
"n.n.n.n.n.n.n.n.n.n.n.n.n.n.n.n.n.n.n.n.n.n.n.n.y *.9.9.7.7.7.7.7.5.5.&.' Q ' @.<.7.*. .D 4 n.n.n.n.n.n.n.n.n.n.n.n.n.n.n.n.n.n.n.n.n.n.n.n.n.n.n.n.n.n.n.n.n.n.",
"n.n.n.n.n.n.n.n.n.n.n.n.n.n.n.n.n.n.n.n.n.n.n.n.E *.9.1.$.+.*.3.7.7.7.7.<.4.7.w.<.( K u ; * n.n.n.n.n.n.n.n.n.n.n.n.n.n.n.n.n.n.n.n.n.n.n.n.n.n.n.n.n.n.n.n.n.n.",
"n.n.n.n.n.n.n.n.n.2 2 Y Y Y 2 n.n.n.n.n.n.n.n.% / %.$.U V V Z Q +.K J $.7.9.$.D Z r > > i j $ n.n.n.n.n.n.n.n.n.n.n.n.n.n.n.n.n.n.n.n.n.n.n.n.n.n.n.n.n.n.n.n.n.",
"n.n.n.n.n.n.9 2 Y q.b.b.b.b.b.q.Y Y n.n.n.n.n.n.f V r $ t C / v H ~ +.J | | ] ~ K $.' v v v 4 n.n.n.n.n.n.n.n.n.n.n.n.n.n.n.n.n.n.n.n.n.n.n.n.n.n.n.n.n.n.n.n.n.",
"n.n.n.n.9 N 2 Y b.Y b.Y q.b.q.b.b.b.q.Y Y n.n.n.n.%   n.n.n.s R 7.H [ +.p A $.9.@.H f f u 3 > n.n.n.n.n.n.n.n.n.n.n.n.n.n.n.n.n.n.n.n.n.n.n.n.n.n.n.n.n.n.n.n.n.",
"n.n.9 N N o.Y q.q.Y q.Y Y b.Y q.b.q.b.b.q.q.Y b n.n.n.n.n.n.n.n.R J +.| [ y.e./ i k 7 4 u K 4 n.n.n.n.n.n.n.n.n.n.n.n.n.n.n.n.n.n.n.n.n.n.n.n.n.n.n.n.n.n.n.n.n.",
"n.n.@ @ 9 2 9 i.i.o.o.N 2 q.2 Y q.Y b.q.b.b.b.q.q.Y b n.n.n.n.n.s $.w.7.z.7.K D K K U v i e 3 n.n.n.n.n.n.n.n.n.n.n.n.n.n.n.n.n.n.n.n.n.n.n.n.n.n.n.n.n.n.n.n.n.",
"n.n.n.n.2 Y @ @ N i.i.N o.2 N 9 q.Y b.q.b.b.q.b.b.b.q.Y b n.. W <.w.j.k.@.Q Q %.*.%. .Q H e > n.n.n.n.n.n.n.n.n.n.n.n.n.n.n.n.n.n.n.n.n.n.n.n.n.n.n.n.n.n.n.n.n.",
"n.n.n.X Y q.q.2 @ @ i.o.:.o.o.N 2 Y q.Y q.b.q.b.q.b.b.b.q.F ' d.g.d.j.$.V $.5.b.b.b.4.<.[ / v & n.n.n.n.9 9 9 N N 9 9 9 n.n.n.n.n.n.n.n.n.n.n.n.n.n.n.n.n.n.n.n.",
"n.n.n.n.@ Y 2 N 9 9 o.:.i.i.i.:.o.N Y Y Y b.q.b.q.b.q.b.b.l.k.7.<.d.7.A $.b.b.b.b.b.b.b.d.7.+.' t d 9 N o.:.i.i.i.>.o.o.N 9 9 n.n.n.n.n.n.n.n.n.n.n.n.n.n.n.n.n.",
"n.n.n.n.9 2 o.:.:.o.o.i.i.o.i.i.i.:.2 N 9 b.Y q.q.b.Y b.q.b.q.) +.i.Z +.y.w.j.j.b.b.b.b.b.b.b.w.$.U v ' 5.b.b.b.b.b.b.u.:.o.o.N 9 9 n.n.n.n.n.n.n.n.n.n.n.n.n.n.",
"n.n.n.n.9 o.i.b.i.i.N i.i.i.9 o.i.i.:.o.N Y N O.Y q.Y q.Y b.Y L w.d.K Q ~ v p v +.j.b.b.b.b.b.b.b.7.%.K v a.b.b.b.b.b.b.b.u.i.o.N N 9 9 n.n.n.n.n.n.n.n.n.n.n.n.",
"n.n.n.9 o.i.b.i.9 X N i.i.:.N 9 o.i.i.o.o.2 N Y N Y Y q.Y q.Y o.p.2./ Z v f i f i A *.d.b.b.b.b.l.b.b.7.$.J *.k.b.b.b.b.b.b.i.i.i.i.o.N Y Y Y n.n.n.n.n.n.n.n.n.",
"n.n.n.9 :.b.b.i.9 X :.i.i.o.N 9 N :.i.:.o.N N 2 N 2 N Y 2 Y Y o.g.( I [ Q J $.Q v 3 7 K %.k.b.b.l.j.d.j.d.<.~ / b.b.b.b.b.b.b.i.i.i.:.o.q.q.b.Y Y n.n.n.n.n.n.n.",
"n.n.n.9 i.b.b.:.N o.:.:.o.N 9 9 N o.i.i.o.o.:.N o.N o.2 N 2 Y o.*.' ( K Q s.b.b.4.5 = 3 7 U 7.b.b.b.w.$.%.y.7.[ / b.b.b.b.b.b.b.i.i.i.:.Y q.b.b.q.Y n.n.n.n.n.n.",
"n.n.n.N b.b.i.o.N o.o.N 9 9 9 N N N :.i.:.o.:.i.:.o.:.N o.N Y u.<.~ K  .$.b.b.b.b.3.f ; > ; f 7.a.b.b.4.%.[ %.7.' / b.b.b.b.b.i.i.i.i.:.m 2 q.b.b.q.Y n.n.n.n.n.",
"n.n.n.o.b.b.i.N N N 9 9 X @ 9 9 N N o.:.:.o.:.i.u.:.:.o.:.o.u.w.~ / { i.b.b.b.b.b.' f f > ; ; f ] d.b.k.7.3.*.[ %./ ' k.b.b.i.b.i.i.u.:.N 9 Y b.b.b.q.Y n.n.n.n.",
"n.n.9 o.b.b.i.N N 9 X X n.n.X @ 9 N o.:.:.o.:.i.u.u.:.:.:.:.i.b.%.q.l.+.z.z.z.b.k.K f v v i 3 - 3 [ k.k.d.3.7.*.D / U +.b.b.b.u.i.i.u.:.N 9 b q.b.b.b.Y n.n.n.n.",
"n.n.N :.i.i.o.N 9 X n.n.n.n.n.X @ 9 N o.:.o.:.i.i.i.i.i.i.i.i.b.b.b.i.b.i.g.u.b.7.K f v v Z K i > 4 { y.s.@.,.7.&.D V *.y.b.q.b.i.i.i.:.o.9 b Y q.b.b.q.2 n.n.n.",
"n.n.N :.i.i.o.N X n.n.n.n.n.n.n.X @ N o.:.o.o.i.i.i.i.i.i.i.i.b.b.i.b.w.i.i.:.i.d.+.v v Z f Z / A ; 7 @.t.5.~ ] 7.[ ~ ( k.i.b.u.i.i.i.:.o.@ 2 Y q.b.b.q.2 n.n.n.",
"n.n.@ :.:.9 N N X n.n.n.n.n.n.n.n.X @ N o.o.o.:.i.i.i.i.:.i.b.b.b.b.i.i.i.i.i.i.i.i.4.+.K Z j Z Q v ; e $.7.*.D  .[ [ U U b.i.b.i.i.i.:.o.@ 2 b q.b.q.Y 2 n.n.n.",
"n.n.n.@ N N N @ n.n.n.n.n.n.n.n.n.n.X N o.o.N :.i.i.i.i.:.i.b.b.b.i.b.i.i.i.i.i.i.b.u.u.:.~ I U Q Q A ; u *.t.<.H ' [ ( K U b.q.i.i.:.:.o.@ &.b q.b.q.Y 2 n.n.n.",
"n.n.n.n.@ @ @ n.n.n.n.n.n.n.n.n.n.n.X 9 o.o.N :.i.i.i.i.:.i.b.b.b.b.i.i.i.i.i.i.i.i.u.i.i.6.( Z l D Q v ; u *.w.*.[ ' [ ~ v D  .i.i.:.:.o.@ $.n b.b.q.2 n.n.n.n.",
"n.n.n.n.n.n.n.n.n.n.n.n.n.n.n.n.n.n.n.@ N o.N o.:.i.i.:.:.i.b.b.b.i.i.i.i.i.i.i.i.i.u.u.:.i.:.( v f f D x ; i <.9.[ D [ ~ K U *.w.i.:.:.o.@ 7.H f.q.Y 2 n.n.n.n.",
"n.n.n.n.n.n.n.n.n.n.n.n.n.n.n.n.n.n.n., 9 o.N N =.i.:.o.:.b.b.b.b.b.i.o.i.i.i.i.i.i.i.:.i.:.:.6.<.~ Q D f p ; i %.&./ K ~ U f f %.i.:.o.o.@  .K :.q.b n.n.n.n.n.",
"n.n.n.n.n.n.n.n.n.n.n.n.n.n.n.n.n.n.n.n.9 N N B M :.:.o.:.b.b.b.b.b.i.o.i.i.i.:.i.i.2.:.:.:.:.:.o.O.=.2.^ D i ; U &.%.U V K V i :.u.:.o.N @ / i $.b n.n.n.n.n.n.",
"n.n.n.n.n.n.n.n.n.n.n.n.n.n.n.n.n.n.n.n.X N n r w o.o.o.i.b.b.b.b.i.i.o.:.i.:.o.:.,.o.o.o.o.o.o.o.o.N N P ) A 4 4 { %.( j D Q { 6.p.:.o.@ b I i =.X n.n.n.n.n.n.",
"n.n.n.n.n.n.n.n.n.n.n.n.n.n.n.n.n.n.n.@ X 9 N d N o.o.o.i.b.b.b.b.i.i.o.o.:.o.o.o.o.o.o.o.o.o.N N N N N 9 9 T j ; I %.@.V Z ~ ] 6.u.:.N X b 4 [ b n.n.n.n.n.n.n.",
"n.n.n.n.n.n.n.n.n.n.n.n.n.n.n.n.n.n.n.@ @ @ N N N N o.o.i.i.b.b.b.i.:.o.N o.N o.o.o.o.o.N N 9 9 9 @ @ @ @ @ O J 4 7 %.@.Q j Z ( 4.p.:.N X b m q.X n.n.n.n.n.n.n.",
"n.n.n.n.n.n.n.n.n.n.n.n.n.n.n.n.n.n.n.@ @ X 9 N N N o.o.:.i.i.b.b.i.:.o.N N 9 N N N 9 9 9 @ @ X X , , , , , , 9 ~ 3 K [ / v l J <.i.:.N X b Y X n.n.n.n.n.n.n.n.",
"n.n.n.n.n.n.n.n.n.n.n.n.n.n.n.n.n.n.n.@ @ X @ 9 9 9 N o.i.:.i.i.i.i.o.o.N N 9 9 9 @ @ X X n.n.n.n., , , , , , , < - u { { v D w.4.i.:.N 9 Y Y X n.n.n.n.n.n.n.n.",
"n.n.n.n.n.n.n.n.n.n.n.n.n.n.n.n.n.n.n.@ @ , X @ 9 9 N o.:.i.:.i.i.i.o.o.N 9 @ 9 X X n.n.n.n.n.n.n., , , , , , , , @ r ( ] v v K :.i.:.o.9 Y b n.n.n.n.n.n.n.n.n.",
"n.n.n.n.n.n.n.n.n.n.n.n.n.n.n.n.n.n.n.@ , , , X X @ N N o.:.i.i.i.:.o.N 9 @ @ X n.n.n.n.n.n.n.n.n., , , , , , , n.@ 7 v K M 7 l  .u.:.o.N 9 X n.n.n.n.n.n.n.n.n.",
"n.n.n.n.n.n.n.n.n.n.n.n.n.n.n.n.n.n.n.@ , , , , n.X 9 N o.i.:.i.i.:.o.N @ X n.n.n.n.n.n.n.n.n.n.n.n., , , , , , n.n.@ 7 8 g H ,.i.u.:.o.o.N X n.n.n.n.n.n.n.n.n.",
"n.n.n.n.n.n.n.n.n.n.n.n.n.n.n.n.n.n., , , , , , n.n.X N N o.:.i.:.:.o.9 @ X n.n.n.n.n.n.n.n.n.n.n.n., , , , , n.n.n.n.# 1 m o.o.:.i.i.o.o.o.N @ n.n.n.n.n.n.n.n.",
"n.n.n.n.n.n.n.n.n.n.n.n.n.n.n.n.n.n., , , , , , n.n.n.X N o.o.:.:.:.o.9 X n.n.n.n.n.n.n.n.n.n.n.n., , , , , , n.n.n.n.n.@ 9 N N o.:.i.:.i.:.N @ n.n.n.n.n.n.n.n.",
"n.n.n.n.n.n.n.n.n.n.n.n.n.n.n.n.n.n., , , , , n.n.n.n.n.X N o.:.:.o.o.9 o n.n.n.n.n.n.n.n.n.n.n.n., , , , , n.n.n.n.n.n.n.n.@ 9 N o.o.i.i.:.:.@ n.n.n.n.n.n.n.n.",
"n.n.n.n.n.n.n.n.n.n.n.n.n.n.n.n.n., , , , , n.n.n.n.n.n.X N o.o.o.o.o.N @ n.n.n.n.n.n.n.n.n.n.n.n., , , , , n.n.n.n.n.n.n.n.n.@ 9 N o.o.i.:.:.N @ n.n.n.n.n.n.n.",
"n.n.n.n.n.n.n.n.n.n.n.n.n.n.n.n.n., , , , , n.n.n.n.n.n.n.X N o.o.o.o.N @ n.n.n.n.n.n.n.n.n.n.n., , , , , n.n.n.n.n.n.n.n.n.n.n.n.@ N o.o.o.o.N @ n.n.n.n.n.n.n.",
"n.n.n.n.n.n.n.n.n.n.n.n.n.n.n.n., , , , , , n.n.n.n.n.n.n.n.@ N o.o.N N @ n.n.n.n.n.n.n.n.n.n., , , , , , n.n.n.n.n.n.n.n.n.n.n.n.n.@ N N o.o.o.N @ n.n.n.n.n.n.",
"n.n.n.n.n.n.n.n.n.n.n.n.n.n.n., , , , , , , n.n.n.n.n.n.n.n.X 9 N o.o.N 9 @ n.n.n.n.n.n.n.n., , , , , , n.n.n.n.n.n.n.n.n.n.n.n.n.n.n.@ N N o.o.N @ n.n.n.n.n.n.",
"n.n.n.n.n.n.n.n.n.n.n.n.n.n.n., , , , , , n.n.n.n.n.n.n.n.n.n.@ N o.o.N 9 @ n.n.n.n.n.n.n.n., , , , , , n.n.n.n.n.n.n.n.n.n.n.n.n.n.n.@ N N o.o.N @ n.n.n.n.n.n.",
"n.n.n.n.n.n.n.n.n.n.n.n.n.n.n.n., , , , , n.n.n.n.n.n.n.n.n.n.X 9 N N N 9 @ n.n.n.n.n.n.n.n.n., , , , n.n.n.n.n.n.n.n.n.n.n.n.n.n.n.n.n.@ N N o.o.@ n.n.n.n.n.n.",
"n.n.n.n.n.n.n.n.n.n.n.n.n.n.n.n., , , , n.n.n.n.n.n.n.n.n.n.n.n.@ 9 N 9 9 9 @ n.n.n.n.n.n.n., , , , n.n.n.n.n.n.n.n.n.n.n.n.n.n.n.n.n.n.@ N N o.o.N @ n.n.n.n.n.",
"n.n.n.n.n.n.n.n.n.n.n.n.n.n.n., , , , , n.n.n.n.n.n.n.n.n.n.n.n.X 9 9 9 N N @ n.n.n.n.n.n.n., , , , n.n.n.n.n.n.n.n.n.n.n.n.n.n.n.n.n.n.@ N N o.o.N @ n.n.n.n.n.",
"n.n.n.n.n.n.n.n.n.n.n.n.n.n.n., , , , , n.n.n.n.n.n.n.n.n.n.n.n.n.@ N N N N 9 @ n.n.n.n.n.n.n.n.n.n.n.n.n.n.n.n.n.n.n.n.n.n.n.n.n.n.n.n.n.@ N o.o.:.N @ n.n.n.n.",
"n.n.n.n.n.n.n.n.n.n.n.n.n.n.n.n.n.n.n.n.n.n.n.n.n.n.n.n.n.n.n.n.n.X 9 N N N N @ n.n.n.n.n.n.n.n.n.n.n.n.n.n.n.n.n.n.n.n.n.n.n.n.n.n.n.n.n.@ o.:.:.:.N @ n.n.n.n.",
"n.n.n.n.n.n.n.n.n.n.n.n.n.n.n.n.n.n.n.n.n.n.n.n.n.n.n.n.n.n.n.n.n.n.@ 9 N N o.9 @ n.n.n.n.n.n.n.n.n.n.n.n.n.n.n.n.n.n.n.n.n.n.n.n.n.n.n.n.@ i.i.i.N @ + n.n.n.n.",
"n.n.n.n.n.n.n.n.n.n.n.n.n.n.n.n.n.n.n.n.n.n.n.n.n.n.n.n.n.n.n.n.n.n.@ 9 o.o.o.o.@ n.n.n.n.n.n.n.n.n.n.n.n.n.n.n.n.n.n.n.n.n.n.n.n.n.n.n.@ o.:.o.N @ + n.n.n.n.n.",
"n.n.n.n.n.n.n.n.n.n.n.n.n.n.n.n.n.n.n.n.n.n.n.n.n.n.n.n.n.n.n.n.n.n.@ 9 o.i.o.9 @ n.n.n.n.n.n.n.n.n.n.n.n.n.n.n.n.n.n.n.n.n.n.n.n.n.n.n.@ N N 2 2 Y + n.n.n.n.n.",
"n.n.n.n.n.n.n.n.n.n.n.n.n.n.n.n.n.n.n.n.n.n.n.n.n.n.n.n.n.n.n.n.n.n.X @ @ @ 9 9 n.n.n.n.n.n.n.n.n.n.n.n.n.n.n.n.n.n.n.n.n.n.n.n.n.n.n.n.2 Y q.b.q.Y n.n.n.n.n.n.",
"n.n.n.n.n.n.n.n.n.n.n.n.n.n.n.n.n.n.n.n.n.n.n.n.n.n.n.n.n.n.n.n.n.n.Y b.q.Y Y 2 n.n.n.n.n.n.n.n.n.n.n.n.n.n.n.n.n.n.n.n.n.n.n.n.n.n.n.n.2 q.b.b.Y + n.n.n.n.n.n.",
"n.n.n.n.n.n.n.n.n.n.n.n.n.n.n.n.n.n.n.n.n.n.n.n.n.n.n.n.n.n.n.n.n.Y b.b.q.q.Y 2 n.n.n.n.n.n.n.n.n.n.n.n.n.n.n.n.n.n.n.n.n.n.n.n.n.n.n.2 Y b.b.Y + n.n.n.n.n.n.n.",
"n.n.n.n.n.n.n.n.n.n.n.n.n.n.n.n.n.n.n.n.n.n.n.n.n.n.n.n.n.n.n.n.n.Y 2 2 2 2 2 n.n.n.n.n.n.n.n.n.n.n.n.n.n.n.n.n.n.n.n.n.n.n.n.n.n.n.n.2 2 2 2 2 n.n.n.n.n.n.n.n.",
"n.n.n.n.n.n.n.n.n.n.n.n.n.n.n.n.n.n.n.n.n.n.n.n.n.n.n.n.n.n.n.n.n.n.n.n.n.n.n.n.n.n.n.n.n.n.n.n.n.n.n.n.n.n.n.n.n.n.n.n.n.n.n.n.n.n.n.n.n.n.n.n.n.n.n.n.n.n.n.n.",
"n.n.n.n.n.n.n.n.n.n.n.n.n.n.n.n.n.n.n.n.n.n.n.n.n.n.n.n.n.n.n.n.n.n.n.n.n.n.n.n.n.n.n.n.n.n.n.n.n.n.n.n.n.n.n.n.n.n.n.n.n.n.n.n.n.n.n.n.n.n.n.n.n.n.n.n.n.n.n.n.",
"n.n.n.n.n.n.n.n.n.n.n.n.n.n.n.n.n.n.n.n.n.n.n.n.n.n.n.n.n.n.n.n.n.n.n.n.n.n.n.n.n.n.n.n.n.n.n.n.n.n.n.n.n.n.n.n.n.n.n.n.n.n.n.n.n.n.n.n.n.n.n.n.n.n.n.n.n.n.n.n.",
"n.n.n.n.n.n.n.n.n.n.n.n.n.n.n.n.n.n.n.n.n.n.n.n.n.n.n.n.n.n.n.n.n.n.n.n.n.n.n.n.n.n.n.n.n.n.n.n.n.n.n.n.n.n.n.n.n.n.n.n.n.n.n.n.n.n.n.n.n.n.n.n.n.n.n.n.n.n.n.n."
};
