/* XPM */
static char *Free_Converter_com_pegleft2_11553855[] = {
/* columns rows colors chars-per-pixel */
"80 80 147 2 ",
"   c #2BE931",
".  c #5EAD73",
"X  c #55558E",
"o  c #56568F",
"O  c #66669D",
"+  c #696998",
"@  c #7B7BA5",
"#  c #7B7BAE",
"$  c #7C7CAE",
"%  c #7B809A",
"&  c #8989A7",
"*  c #8383AC",
"=  c #8E8EAD",
"-  c #8B9CA5",
";  c #9293AE",
":  c #8080B1",
">  c #8282B1",
",  c #8181B2",
"<  c #8383B2",
"1  c #8787B0",
"2  c #8B8BB3",
"3  c #8D8DB7",
"4  c #8E8EBB",
"5  c #9595B1",
"6  c #9797B3",
"7  c #9292B5",
"8  c #9595B6",
"9  c #9999B5",
"0  c #9A9AB6",
"q  c #9D9DB7",
"w  c #9292B9",
"e  c #9595B9",
"r  c #9191BD",
"t  c #9292BD",
"y  c #9393BE",
"u  c #9999BB",
"i  c #9E9EB8",
"p  c #9F9FBA",
"a  c #94AEAB",
"s  c #A0A1BA",
"d  c #A3A3BD",
"f  c #A5A5BE",
"g  c #A4ABBC",
"h  c #A3BAB6",
"j  c #9BCCAA",
"k  c #9E9EC1",
"l  c #A3A3C3",
"z  c #A8A8C0",
"x  c #AAAAC2",
"c  c #ABABC3",
"v  c #A9A9C7",
"b  c #AEAEC4",
"n  c #AFAFC6",
"m  c #A3A3C9",
"M  c #AFAFC9",
"N  c #A9A9CD",
"B  c #ABABCD",
"V  c #B0AFC7",
"C  c #ACB3C1",
"Z  c #B0B0C6",
"A  c #B0BCC3",
"S  c #B1B1C8",
"D  c #B3B3C9",
"F  c #B4B7C9",
"G  c #B5B5CA",
"H  c #B6B6CB",
"J  c #B6B6CE",
"K  c #B8B8CC",
"L  c #B9B9CD",
"P  c #B9BBCC",
"I  c #BABACE",
"U  c #B0B0D0",
"Y  c #B3B3D2",
"T  c #BCBCD0",
"R  c #BEBED1",
"E  c #B9B9D7",
"W  c #C1C1D3",
"Q  c #C2C2D4",
"!  c #C3C3D5",
"~  c #C4C4D5",
"^  c #C5C5D6",
"/  c #C7C7D7",
"(  c #C5C5DB",
")  c #C9C9D9",
"_  c #C8C8DB",
"`  c #CBCBDB",
"'  c #CCCCDB",
"]  c #C8C8DE",
"[  c #C8C8DF",
"{  c #CDCDDC",
"}  c #CFCFDD",
"|  c #D0D0DE",
" . c #DBDCDD",
".. c #CDE1D6",
"X. c #CACAE1",
"o. c #CBCBE2",
"O. c #CECEE1",
"+. c #CFCFE4",
"@. c #D3D3E0",
"#. c #D4D4E1",
"$. c #D4D7E0",
"%. c #D4D4E3",
"&. c #D7D7E3",
"*. c #D6D6E6",
"=. c #DADAE5",
"-. c #D9D9E6",
";. c #DBDBE6",
":. c #D7D7E8",
">. c #D8D8E9",
",. c #DBDBE8",
"<. c #DADAEA",
"1. c #DBDBEB",
"2. c #DDDDE8",
"3. c #DEDEE8",
"4. c #E0E0E9",
"5. c #E0E0EB",
"6. c #E2E2EB",
"7. c #E2E6EA",
"8. c #E3E3EC",
"9. c #E7E6ED",
"0. c #E4E4EF",
"q. c #E6E6EE",
"w. c #E5E5F1",
"e. c #E7E7F2",
"r. c #E9E9F0",
"t. c #EAEAF1",
"y. c #E9E9F2",
"u. c #EDEDF3",
"i. c #EBEBF4",
"p. c #ECECF5",
"a. c #EDEDF5",
"s. c #EEEEF6",
"d. c #F0F0F5",
"f. c #F0F0F7",
"g. c #F2F2F6",
"h. c #F7FDF7",
"j. c #F3F3F8",
"k. c #F4F4F8",
"l. c #F5F5F9",
"z. c #F8F8FB",
"x. c #FAFAFC",
"c. c #FCFCFD",
"v. c #FDFDFD",
"b. c #FCFFFC",
"n. c #FEFEFE",
"m. c gray100",
"M. c None",
/* pixels */
"M.M.M.M.M.M.M.M.M.M.M.M.M.M.M.M.M.M.M.M.M.M.M.M.M.M.M.M.M.M.M.M.M.M.M.M.M.M.M.M.M.M.M.M.M.M.M.M.M.M.M.M.M.M.M.M.M.M.M.M.M.M.M.M.M.M.M.M.M.M.M.M.M.M.M.M.M.M.M.M.",
"M.M.M.M.M.M.M.M.M.M.M.M.M.M.M.M.M.M.M.M.M.M.M.M.M.M.M.M.M.M.M.M.M.M.M.M.M.M.M.M.M.M.M.M.M.M.M.M.M.M.M.M.M.M.M.M.M.M.M.M.M.M.M.M.M.M.M.M.M.M.M.M.M.M.M.M.M.M.M.M.",
"M.M.M.M.M.M.M.M.M.M.M.M.M.M.M.M.M.M.M.M.M.M.M.M.M.M.M.M.M.M.M.M.M.M.M.M.M.M.M.M.M.M.M.M.M.M.M.M.M.M.M.M.M.M.M.M.M.M.M.M.M.M.M.M.M.M.M.M.M.M.M.M.M.M.M.M.M.M.M.M.",
"M.M.M.M.M.M.M.M.M.M.M.M.M.M.M.M.M.M.M.M.M.M.M.M.M.M.M.M.M.M.M.M.M.M.M.M.M.M.M.M.M.M.M.M.M.M.M.M.M.M.M.M.M.M.M.M.M.M.M.M.M.M.M.M.M.M.M.M.M.M.M.M.M.M.M.M.M.M.M.M.",
"M.M.M.M.M.M.M.M.M.M.M.M.M.M.M.M.M.M.M.M.M.M.M.M.M.M.M.M.M.M.M.M.M.M.M.M.M.M.M.M.M.M.M.M.M.M.M.M.M.M.M.M.M.M.M.M.M.M.M.M.M.M.M.M.M.M.M.M.M.M.M.M.M.M.M.M.M.M.M.M.",
"M.M.M.M.M.M.M.M.M.M.M.M.M.M.M.M.M.M.M.M.M.M.M.M.M.M.M.M.M.M.M.M.M.M.M.M.M.M.M.M.M.M.M.M.M.M.M.M.M.M.M.M.M.M.M.M.M.M.M.M.M.M.M.M.M.M.M.M.M.M.M.M.M.M.M.M.M.M.M.M.",
"M.M.M.M.M.M.M.M.M.M.M.M.M.M.M.M.M.M.M.M.M.M.M.M.M.M.M.M.M.M.M.M.M.M.M.M.M.M.M.M.M.M.M.M.M.M.M.M.M.M.M.M.M.M.M.M.M.M.M.M.M.M.M.M.M.M.M.M.M.M.M.M.M.M.M.M.M.M.M.M.",
"M.M.M.M.M.M.M.M.M.M.M.M.M.M.M.M.M.M.M.M.M.M.M.M.M.M.M.M.M.M.M.M.M.M.M.M.M.M.M.M.M.M.M.M.M.M.M.M.M.M.M.M.M.M.M.M.M.M.M.M.M.M.M.M.M.M.M.M.M.M.M.M.M.M.M.M.M.M.M.M.",
"M.M.M.M.M.M.M.M.M.M.M.M.M.M.M.M.M.M.M.M.M.M.M.M.M.M.M.M.M.M.M.M.M.M.M.M.M.M.M.M.M.M.M.M.M.M.M.M.M.M.M.M.M.M.M.M.M.M.M.M.M.M.M.M.M.M.M.M.M.M.M.M.M.M.M.M.M.M.M.M.",
"M.M.M.M.M.M.M.M.M.M.M.M.M.M.M.M.M.M.M.M.M.M.M.M.M.M.M.M.M.M.M.M.M.M.M.M.M.M.M.M.M.M.M.M.M.M.M.M.M.M.M.M.M.M.M.M.M.M.M.M.M.M.M.M.M.M.M.M.M.M.M.M.M.M.M.M.M.M.M.M.",
"M.M.M.M.M.M.M.M.M.M.M.M.M.M.M.M.M.M.M.M.M.M.M.M.M.M.M.M.M.M.M.M.M.M.M.M.M.M.M.M.M.M.M.M.M.M.M.M.M.M.M.M.M.M.M.M.M.M.M.M.M.M.M.M.M.M.M.M.M.M.M.M.M.M.M.M.M.M.M.M.",
"M.M.M.M.M.M.M.M.M.M.M.M.M.M.M.M.M.M.M.M.M.M.M.M.M.M.M.M.M.M.M.M.M.M.M.M.M.M.M.M.M.M.M.M.M.M.M.M.M.M.M.M.M.M.M.M.M.M.M.M.M.M.M.M.M.M.M.M.M.M.M.M.M.M.M.M.M.M.M.M.",
"M.M.M.M.M.M.M.M.M.M.M.M.M.M.M.M.M.M.M.M.M.M.M.M.M.M.M.M.M.M.M.M.M.M.M.M.M.M.M.M.M.M.M.M.M.M.M.M.M.M.M.M.M.M.M.M.M.M.M.M.M.M.M.M.M.M.M.M.M.M.M.M.M.M.M.M.M.M.M.M.",
"M.M.M.M.M.M.M.M.M.M.M.M.M.M.M.M.M.M.M.M.M.M.M.M.M.M.M.M.M.M.M.M.M.M.M.M.M.M.M.M.M.M.M.M.M.M.M.M.M.M.M.M.M.M.M.M.M.M.M.M.M.M.M.M.M.M.M.M.M.M.M.M.M.M.M.M.M.M.M.M.",
"M.^ M.M.M.M.M.M.M.M.M.M.M.M.M.M.M.M.M.M.M.M.M.M.M.M.M.M.M.M.M.M.M.M.M.M.M.M.M.M.M.M.M.M.M.M.M.M.M.M.M.M.M.M.M.M.M.M.M.M.M.M.M.M.M.M.M.M.M.M.M.M.M.M.M.M.M.M.M.M.",
"M.&.M.M.M.M.M.M.M.M.M.M.M.M.M.M.M.M.M.M.M.M.M.M.M.M.M.M.M.M.M.M.M.M.M.M.M.M.M.M.M.M.M.M.M.M.M.M.M.M.M.M.M.M.M.M.M.M.M.M.M.M.M.M.M.M.M.M.M.M.M.M.M.M.M.M.M.M.M.M.",
"M.S M.M.M.M.M.M.M.M.M.M.M.M.M.M.M.M.M.M.M.M.M.M.M.M.M.M.M.M.M.M.M.M.M.M.M.M.M.M.M.M.M.M.M.M.M.M.M.M.M.M.M.M.M.M.M.M.M.M.M.M.M.M.M.M.M.M.M.M.M.M.M.M.M.M.M.M.M.M.",
"M.M.M.M.M.M.M.M.M.M.M.M.M.M.M.M.M.M.M.M.M.M.M.M.M.M.M.M.M.M.M.M.M.M.M.M.M.M.M.M.M.M.M.M.M.M.M.M.M.M.M.M.M.M.M.M.M.M.M.M.M.M.M.M.M.M.M.M.M.M.M.M.M.M.M.M.M.M.M.M.",
"M.M.M.M.M.M.M.M.M.M.M.M.M.M.M.M.M.M.M.M.M.M.M.M.M.M.M.M.M.M.M.M.M.M.M.M.M.M.M.M.M.M.M.M.M.M.M.M.M.M.M.M.M.M.M.M.M.M.M.M.M.M.M.M.M.M.M.M.M.M.M.M.M.M.M.M.M.M.M.M.",
"M.g M.M.M.M.M.M.M.M.M.M.M.M.M.M.M.M.M.M.M.M.M.M.M.M.M.M.M.M.M.M.M.M.M.M.M.M.M.M.M.M.M.M.M.M.M.M.M.M.M.M.M.M.M.M.M.M.M.M.M.M.M.M.M.M.M.M.M.M.M.M.M.M.M.M.M.M.M.M.",
"M.a M.M.M.M.M.M.M.M.M.M.M.M.M.M.M.M.M.M.M.M.M.M.M.M.M.M.M.M.M.M.M.M.M.M.M.M.M.M.M.M.M.M.M.M.M.M.M.M.M.M.M.M.M.M.M.M.M.M.M.M.M.M.M.M.M.M.M.M.M.M.M.M.M.M.M.M.M.M.",
"M.M.M.M.M.M.M.M.M.M.M.M.M.M.M.M.M.M.M.M.M.M.M.M.M.M.M.M.M.M.M.M.M.M.M.M.M.M.M.M.M.M.M.M.M.M.M.M.M.M.M.M.M.M.M.M.M.M.M.M.M.M.M.M.M.M.M.M.M.M.M.M.M.M.M.M.M.M.M.M.",
"M.M.M.M.M.M.M.M.M.M.M.M.M.M.M.M.M.M.M.M.M.M.M.M.M.M.M.M.M.M.M.M.M.M.M.M.M.M.M.M.M.M.M.M.M.M.M.M.M.M.M.M.M.M.M.M.M.M.M.M.M.M.M.M.M.M.M.M.M.M.M.M.M.M.M.M.M.M.M.M.",
"M.M.M.M.M.M.M.M.M.M.M.M.M.M.M.M.M.M.M.M.M.M.M.M.M.M.M.M.M.M.M.M.M.M.M.M.M.M.M.M.M.M.M.M.M.M.M.M.M.M.M.M.M.M.M.M.M.M.M.M.M.M.M.M.M.M.M.M.M.M.M.M.M.M.M.M.M.M.M.M.",
"M.M.M.M.M.M.M.M.M.4 4 E E E 4 M.M.M.M.M.M.M.M.M.M.M.M.M.M.M.M.M.M.M.M.M.M.M.M.M.M.M.M.M.M.M.M.M.M.M.M.M.M.M.M.M.M.M.M.M.M.M.M.M.M.M.M.M.M.M.M.M.M.M.M.M.M.M.M.M.",
"M.M.M.M.M.M.r 4 E e.m.m.m.m.m.e.E E M.M.M.M.M.M.M.M.M.M.M.M.M.M.M.M.M.M.M.M.M.M.M.M.M.M.M.M.M.M.M.M.M.M.M.M.M.M.M.M.M.M.M.M.M.M.M.M.M.M.M.M.M.M.M.M.M.M.M.M.M.M.",
"M.M.M.M.r N 4 E m.E m.E e.m.e.m.m.m.e.E E M.M.M.M.M.M.M.M.M.M.M.M.M.M.M.M.M.M.M.M.M.M.M.M.M.M.M.M.M.M.M.M.M.M.M.M.M.M.M.M.M.M.M.M.M.M.M.M.M.M.M.M.M.M.M.M.M.M.M.",
"M.M.r N N o.E e.e.E e.E E m.E e.m.e.m.m.e.0.E m M.M.M.M.M.M.M.M.M.M.M.M.M.M.M.M.M.M.M.M.M.M.M.M.M.M.M.M.M.M.M.M.M.M.M.M.M.M.M.M.M.M.M.M.M.M.M.M.M.M.M.M.M.M.M.M.",
"M.M.# # r 4 r p.p.o.o.N 4 e.4 E e.E m.e.m.m.m.e.e.E m M.M.M.M.M.M.M.M.M.M.M.M.M.M.M.M.M.M.M.M.M.M.M.M.M.M.M.M.M.M.M.M.M.M.M.M.M.M.M.M.M.M.M.M.M.M.M.M.M.M.M.M.M.",
"M.M.M.M.4 E # # N p.p.N o.4 N r e.E m.e.m.m.e.m.m.m.e.E m M.M.M.M.M.M.M.M.M.M.M.M.M.j a M.M.M.M.M.M.M.M.M.M.M.M.M.M.M.M.M.M.M.M.M.M.M.M.M.M.M.M.M.M.M.M.M.M.M.M.",
"M.M.M.X E e.e.4 # # p.o.1.o.o.N 4 E e.E e.m.e.m.e.m.m.m.e.E m M.M.M.M.M.M.M.M.j ..7.&.^ I M.M.M.M.M.M.M.M.M.M.M.M.M.M.M.M.M.M.M.M.M.M.M.M.M.M.M.M.M.M.M.M.M.M.M.",
"M.M.M.M.# E 4 N r r o.1.p.p.p.1.o.N E E E m.e.m.e.m.e.m.m.m.m.E m B J ! / | h.m.m.m.m.u.6.R M.M.M.M.M.M.M.M.M.r r r N N r r M.M.M.M.M.M.M.M.M.M.M.M.M.M.M.M.M.M.",
"M.M.M.M.r 4 o.1.1.o.o.p.p.o.p.p.p.1.4 N r m.E e.e.m.E m.e.m.e.e.E o.( ^ | x.m.m.m.m.m.m.m.6.T M.M.M.M.M.r r N o.1.p.p.p.1.o.N r r M.M.M.M.M.M.M.M.M.M.M.M.M.M.M.",
"M.M.M.M.r o.p.m.p.p.N p.p.p.r o.p.i.1.o.N E N +.E e.E e.E m.E N o.o.O.0.8.u.m.m.m.m.m.k.m.m.6.I r r r N N o.1.p.m.m.m.m.m.m.p.1.o.N r M.M.M.M.M.M.M.M.M.M.M.M.M.",
"M.M.M.r o.p.m.p.r X N p.p.1.N r o.p.i.o.o.4 N E N E E e.E e.E N o.o.>.m.m.&.m.m.m.m.m.k.u.m.m.| 1.1.2.o.o.o.p.m.m.m.m.m.m.m.m.m.p.1.o.N r M.M.M.M.M.M.M.M.M.M.M.",
"M.M.M.r 1.m.m.p.r X 1.p.p.o.N r N 1.t.1.o.N N w N 4 N E 4 E E o.o.1.s.m.m.T m.m.m.m.m.m.k.2.6.&.j.p.m.p.1.o.p.m.m.m.m.m.m.m.m.m.m.p.1.o.N r M.M.M.M.M.M.M.M.M.M.",
"M.M.M.r p.m.m.1.N o.1.1.o.N r r N o.1.2.o.o.1.N o.N o.4 N 4 E o.1.p.m.m.m.b x.m.m.m.m.m.m.u./ | g.m.p.m.p.1.1.m.m.m.m.m.m.m.m.m.m.m.p.1.o.E E M.M.M.M.M.M.M.M.M.",
"M.M.M.N m.m.p.o.N o.o.N r r r N N N 1.` d b ( p.1.o.1.N o.N E o.p.m.m.m.m.x g.m.m.m.m.m.m.m.^ W 0.i.m.p.p.p.1.p.m.m.m.m.m.m.m.p.m.m.m.p.1.e.e.E E M.M.M.M.M.M.M.",
"M.M.M.o.m.m.p.N N N r r X # r r N N o.b D q s &.i.1.1.o.1.o.p.p.p.m.m.m.m.Z &.m.m.m.m.m.x.m.| R &.e.p.p.p.p.1.p.m.m.m.m.m.m.p.m.p.m.p.p.1.e.m.m.e.E M.M.M.M.M.M.",
"M.M.r o.m.m.p.N N r X X M.M.X # r N ] Q 2.| 9 I i.p.1.1.1.1.p.p.p.p.m.m.t.I } m.m.m.m.m.u.u.k.T Q e.p.p.p.p.p.p.m.m.m.m.m.m.m.p.m.p.m.p.1.N e.m.m.e.E M.M.M.M.M.",
"M.M.N 1.p.p.o.N r X M.M.M.M.M.X # r Y 0.&.D ` e.p.p.p.p.p.p.p.m.p.p.m.m.m.R } m.m.m.m.m.m.u.r./ D 1.p.p.p.p.p.p.m.m.m.m.m.m.p.m.p.p.p.p.1.N 4 e.m.m.e.E M.M.M.M.",
"M.M.N 1.p.p.o.N X M.M.M.M.M.M.M.X # ( g.W S ( i.p.p.p.p.p.p.p.m.p.m.p.m.m.6.^ m.m.m.m.m.m.m.u.| Z &.i.i.p.p.p.p.m.m.m.p.m.p.m.p.p.p.p.p.1.N r E m.m.m.e.E M.M.M.",
"M.M.# 1.1.r N N X M.M.M.M.M.M.M.M.X 2 ^ Q l ] 1.p.p.p.p.p.p.m.m.p.p.p.m.m.b } m.m.m.m.m.m.m.n.&.Z ` e.i.p.p.p.p.m.m.m.p.p.p.p.p.p.p.p.p.1.o.r m e.m.m.m.E M.M.M.",
"M.M.M.# N N N # M.M.M.M.M.M.M.M.M.M.+ x T k N 1.p.p.p.p.1.p.m.m.p.m.t.m.m.d 2.m.m.m.m.m.x.m.n.9.` D 6.p.p.p.p.p.m.m.p.p.p.p.p.p.p.p.p.p.1.o.r m E m.m.m.e.4 M.M.",
"M.M.M.M.# # # M.M.M.M.M.M.M.M.M.M.M.M.* x m N 1.p.p.p.1.p.p.m.m.p.p.p.j.m.b g.m.m.m.m.m.m.r.g.k.0.I ` t.1.o.o.1.m.m.p.p.p.p.p.p.p.p.p.1.1.o.# 4 E m.m.m.m.4 M.M.",
"M.M.M.M.M.M.M.M.M.M.M.M.M.M.M.M.M.M.M.M.* N N o.1.p.1.o.p.m.m.m.p.p.i.2.z Q m.m.m.m.m.m.m.z.{ 8.u.^ ^ 1.o.o.o.1.p.m.1.1.1.p.p.p.p.p.p.1.1.o.# 4 m m.m.e.m.E M.M.",
"M.M.M.M.M.M.M.M.M.M.M.M.M.M.M.M.M.M.M.M.M.# N N o.1.1.o.p.m.m.m.p.1.p.%.b | m.m.m.m.m.m.m.m.0.W &.} ^ ] o.o.N o.p.m.p.o.o.p.p.p.p.p.p.o.1.o.# M.m m.m.e.m.m M.M.",
"M.M.M.M.M.M.M.M.M.M.M.M.M.M.M.M.M.M.M.M.M.# r N N o.N o.p.m.m.m.p.1.e.R K j.m.m.m.m.m.m.m.k.m.4.K } W ( N N N N p.m.p.o.o.p.p.p.p.p.p.o.1.r X M.m m.m.e.e.m M.M.",
"M.M.M.M.M.M.M.M.M.M.M.M.M.M.M.M.M.M.M.M.M.M.# r N N N o.p.m.m.m.i.1.` D { k.m.m.m.m.m.m.m.g.x.m.%.S ^ U N N N N 1.p.m.1.o.p.p.p.p.p.1.o.1.# @ M.4 m.e.e.E 4 M.M.",
"M.M.M.M.M.M.M.M.M.M.M.M.M.M.M.M.M.M.M.M.M.M.X r r N o.o.p.m.m.m.i.] Z Z 2.m.m.m.m.m.m.m.m.m.u.u.k.{ b ( N N N N 1.p.m.p.o.p.p.p.p.p.o.o.1.# Q M.4 e.e.e.m O M.M.",
"M.M.M.M.M.M.M.M.M.M.M.M.M.M.M.M.M.M.M.M.M.# # N o.o.p.p.p.p.m.m.*.D Z | m.m.m.m.m.m.m.m.m.m.x.6.8.0.R v N N N N o.p.p.p.1.p.p.p.p.p.o.1.N o - M.O e.e.e.4 O M.M.",
"M.M.M.M.M.M.M.M.M.M.M.M.M.M.M.M.M.M.M.M.# N o.o.p.p.p.p.p.p.p.p.^ s d g.m.x.m.m.m.m.m.m.z.u.x./ ` &.Q g g g X N o.1.p.p.p.p.p.p.p.1.o.1.# o M.M.O e.e.m.O M.M.M.",
"M.M.M.M.M.M.M.M.M.M.M.M.M.M.M.M.M.M.M.# N o.p.p.m.m.m.p.p.p.p.:.q ; x j.m.z.n.m.m.m.m.m.m.r.u.r.6.T P g M.M.M.$ o.o.p.p.p.p.p.p.p.o.o.o.X M.M.M.X E e.m.O M.M.M.",
"M.M.M.M.M.M.M.M.M.M.M.M.M.M.M.M.M.M.# o.p.p.m.m.m.m.p.p.p.1.1.M 9 } D g.m.u.g.m.m.z.m.m.m.z.~ 2.r.6.T g M.M.M.$ N o.1.p.p.p.p.p.p.o.1.o.X M.M.M.X E e.m.4 M.M.M.",
"M.M.M.M.M.M.M.M.M.M.M.M.M.M.M.M.M.r N p.m.m.m.p.p.1.1.o.o.o.N 8 D Z v g.m.r.u.m.m.g.m.x.x.m.&.T &.t.0.P M.M.M.M.# o.o.1.p.p.p.p.i.o.1.N X M.M.M.M.4 e.m.E 4 M.M.",
"M.M.M.M.M.M.M.M.M.M.M.M.M.M.M.M.M.r N p.p.o.o.o.N N N N r r r 7 & d Z g.z.&.g.m.x.r.m.g.g.g.9.;.S W &.T M.M.M.M.M.# o.o.1.p.p.p.i.1.O.X M.M.M.M.M.X E m.m.4 M.M.",
"M.M.M.M.M.M.M.M.M.M.M.M.M.M.M.M.M.r N o.p.o.N r # # X X X X $ e % ~ T u.u.{ g.m.g.u.m.z.g.0.&.r.&.x S M.M.M.M.M.M.# N N o.o.1.p.p.1.o.X M.M.M.M.M.X E e.m.E 4 M.",
"M.M.M.M.M.M.M.M.M.M.M.M.M.M.M.M.M.M.# N N N N N r r #  . . .> u x 6 x g.g.| g.m.9.8.m.k.9.u.| &.u.^ g M.M.M.M.M.M.M.# r N N N 1.p.p.o.r M.M.M.M.M.M.4 E m.e.4 M.",
"M.M.M.M.M.M.M.M.M.M.M.M.M.M.M.M.M.M.M.# # N N N N N # # 4 4 y = 9 9 / 0.2./ g.m.&.4.m.k.4.r.{ ` 9.2.g M.M.M.M.M.M.M.M.# r N N N 1.p.1.o.r M.M.M.M.M.M.4 e.m 4 M.",
"M.M.M.M.M.M.M.M.M.M.M.M.M.M.M.M.M.M.M.M.M.# N o.o.p.t.o.m.m.u * @ 9 | r.{ D n.m.&.2.m.r.| 9.r.P | t.g M.M.M.M.M.M.M.M.M.# r N N o.p.p.1.o.# M.M.M.M.M.4 e.4 M.M.",
"M.M.M.M.M.M.M.M.M.M.M.M.M.M.M.M.M.M.M.M.M.M.# N o.p.p.o.e.( l 4 > 7 2.9.{ } x.x.| 2.k.9.W ;.t.^ T r.` M.M.M.M.M.M.M.M.M.M.# r N o.p.p.p.1.# M.M.M.M.M.4 m 4 M.M.",
"M.M.M.M.M.M.M.M.M.M.M.M.M.M.M.M.M.M.M.M.M.M.M.# N o.o.N # v E 4 3 Z 2.8.| 4.g.g./ { x.8.Z @.9.7.Z W j M.M.M.M.M.M.M.M.M.M.M.# r o.p.p.p.1.# M.M.M.M.m E O M.M.M.",
"M.M.M.M.M.M.M.M.M.M.M.M.M.M.M.M.M.M.M.M.M.M.M.M.# N N # # X X : e W 8.2.P 4.z.0.W Q x.9.V W r.r.D M.M.M.M.M.M.M.M.M.M.M.M.M.M.# o.1.p.1.o.# M.M.M.M.O O M.M.M.M.",
"M.M.M.M.M.M.M.M.M.M.M.M.M.M.M.M.M.M.M.M.M.M.M.M.M.X X X M.M.M.: w } r.&.Z 8.x.&.x ^ x.0.b C 2.t.A M.M.M.M.M.M.M.M.M.M.M.M.M.M.# N o.1.o.# M.M.M.M.M.M.M.M.M.M.M.",
"M.M.M.M.M.M.M.M.M.M.M.M.M.M.M.M.M.M.M.M.M.M.M.M.M.M.M.M.M.M.M.> e @.9.} R d.z.| & ` z.8.a   &.9.A M.M.M.M.M.M.M.M.M.M.M.M.M.M.# N o.o.N # M.M.M.M.M.M.M.M.M.M.M.",
"M.M.M.M.M.M.M.M.M.M.M.M.M.M.M.M.M.M.M.M.M.M.M.M.M.M.M.M.M.M.M.2 T 6.8.' %.u.9.^ & { x.9.a M.^ ;.Z M.M.M.M.M.M.M.M.M.M.M.M.M.M.# N N o.# M.M.M.M.M.M.M.M.M.M.M.M.",
"M.M.M.M.M.M.M.M.M.M.M.M.M.M.M.M.M.M.M.M.M.M.M.M.M.M.M.M.M.M.> 1 ~ t.8.S | 9.6.i . / u.0.a M.j ^ g M.M.M.M.M.M.M.M.M.M.M.M.M.M.# N o.N # M.M.M.M.M.M.M.M.M.M.M.M.",
"M.M.M.M.M.M.M.M.M.M.M.M.M.M.M.M.M.M.M.M.M.M.M.M.M.M.M.M.M.M.> q } 9.2.s 2.t.} & M.Q t.2.C M.M.M.M.M.M.M.M.M.M.M.M.M.M.M.M.M.# N o.N o.X M.M.M.M.M.M.M.M.M.M.M.M.",
"M.M.M.M.M.M.M.M.M.M.M.M.M.M.M.M.M.M.M.M.M.M.M.M.M.M.M.M.M.M.< K 4.r.T ; u.0.s M.M.g g g M.M.M.M.M.M.M.M.M.M.M.M.M.M.M.M.M.M.# N N o.N X M.M.M.M.M.M.M.M.M.M.M.M.",
"M.M.M.M.M.M.M.M.M.M.M.M.M.M.M.M.M.M.M.M.M.M.M.M.M.M.M.M.M.M.> K 4.t.Z 6 u.%.= M.M.M.g M.M.M.M.M.M.M.M.M.M.M.M.M.M.M.M.M.M.M.N o.o.o.N X M.M.M.M.M.M.M.M.M.M.M.M.",
"M.M.M.M.M.M.M.M.M.M.M.M.M.M.M.M.M.M.M.M.M.M.M.M.M.M.M.M.M.M.M.K 6.r.6 M.g g M.M.M.M.M.M.M.M.M.M.M.M.M.M.M.M.M.M.M.M.M.M.M.# o.1.1.o.r X M.M.M.M.M.M.M.M.M.M.M.M.",
"M.M.M.M.M.M.M.M.M.M.M.M.M.M.M.M.M.M.M.M.M.M.M.M.M.M.M.M.M.M.M.h ` D g M.M.M.M.M.M.M.M.M.M.M.M.M.M.M.M.M.M.M.M.M.M.M.M.M.# N p.p.o.N # X M.M.M.M.M.M.M.M.M.M.M.M.",
"M.M.M.M.M.M.M.M.M.M.M.M.M.M.M.M.M.M.M.M.M.M.M.M.M.M.M.M.M.M.M.M.g g M.M.M.M.M.M.M.M.M.M.M.M.M.M.M.M.M.M.M.M.M.M.M.M.M.M.# 1.p.o.N # M.M.M.M.M.M.M.M.M.M.M.M.M.M.",
"M.M.M.M.M.M.M.M.M.M.M.M.M.M.M.M.M.M.M.M.M.M.M.M.M.M.M.M.M.M.M.M.M.M.M.M.M.M.M.M.M.M.M.M.M.M.M.M.M.M.M.M.M.M.M.M.M.M.M.4 E e.e.e.O O M.M.M.M.M.M.M.M.M.M.M.M.M.M.",
"M.M.M.M.M.M.M.M.M.M.M.M.M.M.M.M.M.M.M.M.M.M.M.M.M.M.M.M.M.M.M.M.M.M.M.M.M.M.M.M.M.M.M.M.M.M.M.M.M.M.M.M.M.M.M.M.M.M.M.4 e.m.m.e.E O M.M.M.M.M.M.M.M.M.M.M.M.M.M.",
"M.M.M.M.M.M.M.M.M.M.M.M.M.M.M.M.M.M.M.M.M.M.M.M.M.M.M.M.M.M.M.M.M.M.M.M.M.M.M.M.M.M.M.M.M.M.M.M.M.M.M.M.M.M.M.M.M.M.4 E m.m.m.E O M.M.M.M.M.M.M.M.M.M.M.M.M.M.M.",
"M.M.M.M.M.M.M.M.M.M.M.M.M.M.M.M.M.M.M.M.M.M.M.M.M.M.M.M.M.M.M.M.M.M.M.M.M.M.M.M.M.M.M.M.M.M.M.M.M.M.M.M.M.M.M.M.M.M.4 E E E E O M.M.M.M.M.M.M.M.M.M.M.M.M.M.M.M.",
"M.M.M.M.M.M.M.M.M.M.M.M.M.M.M.M.M.M.M.M.M.M.M.M.M.M.M.M.M.M.M.M.M.M.M.M.M.M.M.M.M.M.M.M.M.M.M.M.M.M.M.M.M.M.M.M.M.M.M.M.M.M.M.M.M.M.M.M.M.M.M.M.M.M.M.M.M.M.M.M.",
"M.M.M.M.M.M.M.M.M.M.M.M.M.M.M.M.M.M.M.M.M.M.M.M.M.M.M.M.M.M.M.M.M.M.M.M.M.M.M.M.M.M.M.M.M.M.M.M.M.M.M.M.M.M.M.M.M.M.M.M.M.M.M.M.M.M.M.M.M.M.M.M.M.M.M.M.M.M.M.M.",
"M.M.M.M.M.M.M.M.M.M.M.M.M.M.M.M.M.M.M.M.M.M.M.M.M.M.M.M.M.M.M.M.M.M.M.M.M.M.M.M.M.M.M.M.M.M.M.M.M.M.M.M.M.M.M.M.M.M.M.M.M.M.M.M.M.M.M.M.M.M.M.M.M.M.M.M.M.M.M.M."
};
