/* XPM */
static char *Free_Converter_com_pegleft3_69783855[] = {
/* columns rows colors chars-per-pixel */
"80 80 150 2 ",
"   c #55558E",
".  c #56568F",
"X  c #595990",
"o  c #66669D",
"O  c #7B7BAE",
"+  c #7C7CAE",
"@  c #73AC89",
"#  c #828D9F",
"$  c #8383A3",
"%  c #8989A7",
"&  c #8C8CAA",
"*  c #8E8EAD",
"=  c #8B9CA5",
"-  c #9293AE",
";  c #8080B1",
":  c #8181B2",
">  c #8B8BB3",
",  c #8D8DB7",
"<  c #8E8EBB",
"1  c #9595B1",
"2  c #9797B3",
"3  c #9999B5",
"4  c #9A9AB6",
"5  c #9D9DB7",
"6  c #9191BD",
"7  c #9595BE",
"8  c #9E9EB8",
"9  c #94AEAB",
"0  c #97A2B0",
"q  c #A0A1BA",
"w  c #A3A3BD",
"e  c #A5A5BE",
"r  c #A4ABBC",
"t  c #9E9EC1",
"y  c #A3A3C3",
"u  c #A8A8C0",
"i  c #A8A8C3",
"p  c #AAAAC2",
"a  c #ABABC3",
"s  c #ACACC4",
"d  c #AEAEC4",
"f  c #AFAFC6",
"g  c #A3A3C9",
"h  c #A6A6C9",
"j  c #AFAFC9",
"k  c #A9A9CD",
"l  c #ABABCD",
"z  c #ABABCE",
"x  c #ADADCE",
"c  c #B0B0C6",
"v  c #B1B1C8",
"b  c #B3B3C9",
"n  c #B3B3CB",
"m  c #B4B4C9",
"M  c #B5B5CA",
"N  c #B6B6CB",
"B  c #B3B3CE",
"V  c #B6B6CE",
"C  c #B8B8CC",
"Z  c #B9B9CD",
"A  c #BABACD",
"S  c #B9B9CF",
"D  c #BABACE",
"F  c #BABDCE",
"G  c #B0B0D0",
"H  c #BCBCD0",
"J  c #BEBED1",
"K  c #BDBDD2",
"L  c #BEBED2",
"P  c #BBBBD4",
"I  c #B9B9D7",
"U  c #BFBFD7",
"Y  c #BCBCD8",
"T  c #C2C2D1",
"R  c #C1C1D3",
"E  c #C2C2D4",
"W  c #C3C3D5",
"Q  c #C4C4D5",
"!  c #C5C5D6",
"~  c #C7C7D7",
"^  c #C5C5DB",
"/  c #C9C9D9",
"(  c #CACADA",
")  c #CBCBDB",
"_  c #CCCCDB",
"`  c #C8C8DF",
"'  c #CDCDDC",
"]  c #CFCFDD",
"[  c #CDCDDE",
"{  c #D0D0DE",
"}  c #CACAE1",
"|  c #CBCBE2",
" . c #CECEE1",
".. c #CFCFE4",
"X. c #D3D3E0",
"o. c #D4D4E1",
"O. c #D4D4E3",
"+. c #D7D7E3",
"@. c #D2D2E4",
"#. c #D6D6E6",
"$. c #D8D8E5",
"%. c #DADAE5",
"&. c #D9D9E6",
"*. c #DBDBE6",
"=. c #DCDCE7",
"-. c #D7D7E8",
";. c #D8D8E9",
":. c #DBDBE8",
">. c #DADAEA",
",. c #DBDBEB",
"<. c #DCDCE8",
"1. c #DDDDE8",
"2. c #DEDEE8",
"3. c #DFDFEA",
"4. c #DFDFED",
"5. c #E0E0E9",
"6. c #E0E0EB",
"7. c #E2E2EB",
"8. c #E1E1EC",
"9. c #E3E3EC",
"0. c #E2E2EE",
"q. c #E7E6ED",
"w. c #E4E4EF",
"e. c #E6E6EE",
"r. c #E8E8EF",
"t. c #E5E5F1",
"y. c #E7E7F1",
"u. c #E7E7F2",
"i. c #E9E9F0",
"p. c #EAEAF1",
"a. c #E9E9F2",
"s. c #EAEAF3",
"d. c #EDEDF3",
"f. c #EBEBF4",
"g. c #ECECF5",
"h. c #EDEDF5",
"j. c #F0F0F5",
"k. c #F2F2F6",
"l. c #F4F4F7",
"z. c #F3F3F8",
"x. c #F4F4F8",
"c. c #F5F5F9",
"v. c #F6F6F9",
"b. c #F8F8FB",
"n. c #FAFAFC",
"m. c #FCFCFD",
"M. c #FDFDFD",
"N. c #FEFEFE",
"B. c gray100",
"V. c None",
/* pixels */
"V.V.V.V.V.V.V.V.V.V.V.V.V.V.V.V.V.V.V.V.V.V.V.V.V.V.V.V.V.V.V.V.V.V.V.V.V.V.V.V.V.V.V.V.V.V.V.V.V.V.V.V.V.V.V.V.V.V.V.V.V.V.V.V.V.V.V.V.V.V.V.V.V.V.V.V.V.V.V.V.",
"V.V.V.V.V.V.V.V.V.V.V.V.V.V.V.V.V.V.V.V.V.V.V.V.V.V.V.V.V.V.V.V.V.V.V.V.V.V.V.V.V.V.V.V.V.V.V.V.V.V.V.V.V.V.V.V.V.V.V.V.V.V.V.V.V.V.V.V.V.V.V.V.V.V.V.V.V.V.V.V.",
"V.V.V.V.V.V.V.V.V.V.V.V.V.V.V.V.V.V.V.V.V.V.V.V.V.V.V.V.V.V.V.V.V.V.V.V.V.V.V.V.V.V.V.V.V.V.V.V.V.V.V.V.V.V.V.V.V.V.V.V.V.V.V.V.V.V.V.V.V.V.V.V.V.V.V.V.V.V.V.V.",
"V.V.V.V.V.V.V.V.V.V.V.V.V.V.V.V.V.V.V.V.V.V.V.V.V.V.V.V.V.V.V.V.V.V.V.V.V.V.V.V.V.V.V.V.V.V.V.V.V.V.V.V.V.V.V.V.V.V.V.V.V.V.V.V.V.V.V.V.V.V.V.V.V.V.V.V.V.V.V.V.",
"V.V.V.V.V.V.V.V.V.V.V.V.V.V.V.V.V.V.V.V.V.V.V.V.V.V.V.V.V.V.V.V.V.V.V.V.V.V.V.V.V.V.V.V.V.V.V.V.V.V.V.V.V.V.V.V.V.V.V.V.V.V.V.V.V.V.V.V.V.V.V.V.V.V.V.V.V.V.V.V.",
"V.V.V.V.V.V.V.V.V.V.V.V.V.V.V.V.V.V.V.V.V.V.V.V.V.V.V.V.V.V.V.V.V.V.V.V.V.V.V.V.V.V.V.V.V.V.V.V.V.V.V.V.V.V.V.V.V.V.V.V.V.V.V.V.V.V.V.V.V.V.V.V.V.V.V.V.V.V.V.V.",
"V.V.V.V.V.V.V.V.V.V.V.V.V.V.V.V.V.V.V.V.V.V.V.V.V.V.V.V.V.V.V.V.V.V.V.V.V.V.V.V.V.V.V.V.V.V.V.V.V.V.V.V.V.V.V.V.V.V.V.V.V.V.V.V.V.V.V.V.V.V.V.V.V.V.V.V.V.V.V.V.",
"V.V.V.V.V.V.V.V.V.V.V.V.V.V.V.V.V.V.V.V.V.V.V.V.V.V.V.V.V.V.V.V.V.V.V.V.V.V.V.V.V.V.V.V.V.V.V.V.V.V.V.V.V.V.V.V.V.V.V.V.V.V.V.V.V.V.V.V.V.V.V.V.V.V.V.V.V.V.V.V.",
"V.V.V.V.V.V.V.V.V.V.V.V.V.V.V.V.V.V.V.V.V.V.V.V.V.V.V.V.V.V.V.V.V.V.V.V.V.V.V.V.V.V.V.V.V.V.V.V.V.V.V.V.V.V.V.V.V.V.V.V.V.V.V.V.V.V.V.V.V.V.V.V.V.V.V.V.V.V.V.V.",
"V.V.V.V.V.V.V.V.V.V.V.V.V.V.V.V.V.V.V.V.V.V.V.V.V.V.V.V.V.V.V.V.V.V.V.V.V.V.V.V.V.V.V.V.V.V.V.V.V.V.V.V.V.V.V.V.V.V.V.V.V.V.V.V.V.V.V.V.V.V.V.V.V.V.V.V.V.V.V.V.",
"V.V.V.V.V.V.V.V.V.V.V.V.V.V.V.V.V.V.V.V.V.V.V.V.V.V.V.V.V.V.V.V.V.V.V.V.V.V.V.V.V.V.V.V.V.V.V.V.V.V.V.V.V.V.V.V.V.V.V.V.V.V.V.V.V.V.V.V.V.V.V.V.V.V.V.V.V.V.V.V.",
"V.V.V.V.V.V.V.V.V.V.V.V.V.V.V.V.V.V.V.V.V.V.V.V.V.V.V.V.V.V.V.V.V.V.V.V.V.V.V.V.V.V.V.V.V.V.V.V.V.V.V.V.V.V.V.V.V.V.V.V.V.V.V.V.V.V.V.V.V.V.V.V.V.V.V.V.V.V.V.V.",
"V.V.V.V.V.V.V.V.V.V.V.V.V.V.V.V.V.V.V.V.V.V.V.V.V.V.V.V.V.V.V.V.V.V.V.V.V.V.V.V.V.V.V.V.V.V.V.V.V.V.V.V.V.V.V.V.V.V.V.V.V.V.V.V.V.V.V.V.V.V.V.V.V.V.V.V.V.V.V.V.",
"V.V.V.V.V.V.V.V.V.V.V.V.V.V.V.V.V.V.V.V.V.V.V.V.V.V.V.V.V.V.V.V.V.V.V.V.V.V.V.V.V.V.V.V.V.V.V.V.V.V.V.V.V.V.V.V.V.V.V.V.V.V.V.V.V.V.V.V.V.V.V.V.V.V.V.V.V.V.V.V.",
"V.! V.V.V.V.V.V.V.V.V.V.V.V.V.V.V.V.V.V.V.V.V.V.V.V.V.V.V.V.V.V.V.V.V.V.V.V.V.V.V.V.V.V.V.V.V.V.V.V.V.V.V.V.V.V.V.V.V.V.V.V.V.V.V.V.V.V.V.V.V.V.V.V.V.V.V.V.V.V.",
"V.+.V.V.V.V.V.V.V.V.V.V.V.V.V.V.V.V.V.V.V.V.V.V.V.V.V.V.V.V.V.V.V.V.V.V.V.V.V.V.V.V.V.V.V.V.V.V.V.V.V.V.V.V.V.V.V.V.V.V.V.V.V.V.V.V.V.V.V.V.V.V.V.V.V.V.V.V.V.V.",
"V.v V.V.V.V.V.V.V.V.V.V.V.V.V.V.V.V.V.V.V.V.V.V.V.V.V.V.V.V.V.V.V.V.V.V.V.2 w N b 5 @ V.V.V.V.V.V.V.V.V.V.V.V.V.V.V.V.V.V.V.V.V.V.V.V.V.V.V.V.V.V.V.V.V.V.V.V.V.",
"V.V.V.V.V.V.V.V.V.V.V.V.V.V.V.V.V.V.V.V.V.V.V.V.V.V.V.V.V.V.V.V.V.V.r w N ~ / { { Q u V.V.V.V.V.V.V.V.V.V.V.V.V.V.V.V.V.V.V.V.V.V.V.V.V.V.V.V.V.V.V.V.V.V.V.V.V.",
"V.V.V.V.V.V.V.V.V.V.V.V.V.V.V.V.V.V.V.V.V.V.V.V.V.V.V.V.V.V.r r r r ~ { { ' E H N f - @ V.V.V.V.V.V.V.V.V.V.V.V.V.V.V.V.V.V.V.V.V.V.V.V.V.V.V.V.V.V.V.V.V.V.V.V.",
"V.r V.V.V.V.V.V.V.V.V.V.V.V.V.V.V.V.V.V.V.V.V.V.V.V.V.V.r r H { 2.+.{ ! b N ~ ~ / H Z c @ V.V.V.V.V.V.V.V.V.V.V.V.V.V.V.V.V.V.V.V.V.V.V.V.V.V.V.V.V.V.V.V.V.V.V.",
"V.9 V.V.V.V.V.V.V.V.V.V.V.V.V.V.V.V.V.V.V.V.V.V.V.V.r r R o.i.2.{ ! c R +.*.1.+.*.{ o.Q 2 V.V.V.V.V.V.V.V.V.V.V.V.V.V.V.V.V.V.V.V.V.V.V.V.V.V.V.V.V.V.V.V.V.V.V.",
"V.V.V.V.V.V.V.V.V.V.V.V.V.V.V.V.V.V.V.V.V.V.V.V.V.9 ! o.9.9.+.) v L *.9.q.9.{ R c v s 1 V.V.V.V.V.V.V.V.V.V.V.V.V.V.V.V.V.V.V.V.V.V.V.V.V.V.V.V.V.V.V.V.V.V.V.V.",
"V.V.V.V.V.V.V.V.V.V.V.V.V.V.V.V.V.V.V.V.V.V.V.V.f { 2.u.q.2.+.+.7.7.7.5.{ H a f H R _ ~ 0 V.V.V.V.V.V.V.V.V.V.V.V.V.V.V.V.V.V.V.V.V.V.V.V.V.V.V.V.V.V.V.V.V.V.V.",
"V.V.V.V.V.V.V.V.V.V.V.V.V.V.V.V.V.V.V.V.V.V.V.q 1.e.e.q.w.q.q.9.q.7.{ / N H ~ +.7.*.{ H 2 V.V.V.V.V.V.V.V.V.V.V.V.V.V.V.V.V.V.V.V.V.V.V.V.V.V.V.V.V.V.V.V.V.V.V.",
"V.V.V.V.V.V.V.V.V.V.V.< < I I I I V.V.V.V.V.V.R 2.q.9.2.2.7.q.q.e.i.9.+.1.p.p.7.{ ! f * $ V.V.V.V.V.V.V.V.V.V.V.V.V.V.V.V.V.V.V.V.V.V.V.V.V.V.V.V.V.V.V.V.V.V.V.",
"V.V.V.V.V.V.V.V.6 < I u.B.B.B.B.u.u.I I I I = X.*.2.! N N Z ' *.R ~ 9.r.e.+.H Z 2 - * q 8 V.V.V.V.V.V.V.V.V.V.V.V.V.V.V.V.V.V.V.V.V.V.V.V.V.V.V.V.V.V.V.V.V.V.V.",
"V.V.V.V.V.6 k < I B.I B.I u.B.u.B.B.u.B.B.u.1 Z R e * f H Z f v Q Q Q 1.*._ c N ' N u v b - V.V.V.V.V.V.V.V.V.V.V.V.V.V.V.V.V.V.V.V.V.V.V.V.V.V.V.V.V.V.V.V.V.V.",
"V.V.V.6 k k | I u.u.I u.I I B.I u.u.I B.u.B.i.* & R i.h x F ! 2.Z *.L f N { 9.{ H b f q 2 = V.V.V.V.V.V.V.V.V.V.V.V.V.V.V.V.V.V.V.V.V.V.V.V.V.V.V.V.V.V.V.V.V.V.",
"V.V.V.O O 6 < 6 g.g.| | k < u.< I u.I B.u.B.B.4.v.i.B.B.B.I B X.v *.! W 9.d./ s a 1 - q c # V.V.V.V.V.V.V.V.V.V.V.V.V.V.V.V.V.V.V.V.V.V.V.V.V.V.V.V.V.V.V.V.V.V.",
"V.V.V.V.V.< I O O k g.g.k | < k 6 < I u.I u.B.u.B.u.B.u.B.B.n.W +.1.q.v.r.L c c v c a u u = V.V.V.V.V.V.V.V.V.V.V.V.V.V.V.V.V.V.V.V.V.V.V.V.V.V.V.V.V.V.V.V.V.V.",
"V.V.V.V.  I u.u.< O O g.| ,.| | k | k I I I B.u.B.u.B.I B.+.2.+.r.v.n.+.W F +.{ o./ Z u 1 = V.V.V.V.V.V.V.V.V.V.V.6 6 k k 6 6 6 V.V.V.V.V.V.V.V.V.V.V.V.V.V.V.V.",
"V.V.V.V.V.O I < k 6 6 | ,.g.g.g.,.g.,.< k 6 B.I u.I u.I ' / z.k.k.v.+.N { 1.n.b.v.+.+.R H q V.V.V.V.V.V.V.6 6 k | ,.g.g.g.,.| k k 6 V.V.V.V.V.V.V.V.V.V.V.V.V.V.",
"V.V.V.V.V.6 < | ,.,.| | g.g.| g.g.g.g.,.| k I k ..k I I u.X.u.u.b.9.v +.v.n.B.B.B.n.v.9.*.W Z t 7 6 6 6 k k | ,.g.B.B.B.B.B.B.g.,.| k 6 V.V.V.V.V.V.V.V.V.V.V.V.",
"V.V.V.V.V.6 | g.B.g.g.k g.g.g.6 | | g.g.| | < k I k < k I < I | q.Z { k.n.B.B.B.B.B.B.B.B.v.*.W Z V | | | ,.g.B.B.B.B.B.B.B.B.B.g.,.| k 6 V.V.V.V.V.V.V.V.V.V.V.",
"V.V.V.V.6 | g.B.g.6   k g.g.,.k t g ,.g.,.| k k < | k | < k < U -.N ' ' N N H d.B.B.B.B.B.B.B.v.{ / V / ,.,.d.B.B.B.B.B.B.B.B.B.B.g.,.| k 6 V.V.V.V.V.V.V.V.V.V.",
"V.V.V.V.6 ,.B.B.g.6   ,.g.g.| k 6 k | g.g.| | ,.k ,.| ,.k | k I  .o.v f e u e f ! v.B.B.B.B.B.B.B.n.{ ! H 9.B.B.B.B.B.B.B.B.B.B.B.B.g.,.| 6 6 V.V.V.V.V.V.V.V.V.",
"V.V.V.V.6 g.B.B.,.k | ,.,.| k 6 6 k k ;.g.,.| ,.f.f.,.,.| ,.| g.g.2.+.Z N H N e 8 w { v.B.B.B.z.v.n.v.q./ v 1.B.B.B.B.B.B.B.B.g.B.B.B.g.,.I 6 6 V.V.V.V.V.V.V.V.",
"V.V.V.V.k B.B.g.| k | | k 6 6 6 k k k | ,.,.| ,.f.f.g.,.,.,.,.g.g.n.,.2.v.B.B.R & * 8 u +.n.B.B.v.7.1.q.k.7.Z 7.B.B.B.B.B.B.g.B.g.B.g.g.,.u.I I V.V.V.V.V.V.V.V.",
"V.V.V.V.| B.B.g.k k k 6 6   O 6 6 6 k | ,.,.| ,.g.g.g.g.g.g.g.f.B.g.B.i.B.B.l.b./ 8 & 2 1 W b.b.B.b.+.o.{ 7.7.Z 9.B.B.B.B.B.B.g.B.g.B.,.,.B.B.u.I V.V.V.V.V.V.V.",
"V.V.V.6 | B.B.g.k k 6     V.V.  O O 6 k | ,.| ,.g.g.g.g.g.g.g.f.B.B.g.B.g.B.g.g.9.H e * * 1 W 2.B.B.j.7.*.{ +.1.H q.B.B.B.B.g.B.g.g.g.,.,.u.B.B.u.I V.V.V.V.V.V.",
"V.V.V.k ,.g.g.| k t   V.V.V.V.V.    O k | ,.| | g.g.g.g.g.g.f.B.B.g.B.g.B.g.g.g.f.l.+.W q * - u 7.B.v.d.q.9.' H ' Z d.g.B.g.g.g.g.g.,.,.,.< u.B.u.I V.V.V.V.V.V.",
"V.V.V.k ,.g.g.| k   V.V.V.V.V.V.V.V.  O k | | k ,.g.g.g.,.g.B.B.B.g.g.g.B.g.g.g.g.g.f.u.2.W 8 & f 9.z.q.X.9.9.~ c c ,.B.g.i.g.g.g.g.,.,.,.6 I B.B.I V.V.V.V.V.V.",
"V.V.V.O ,.,.6 k k   V.V.V.V.V.V.V.V.V.  t | | k ,.g.f.,.g.f.B.B.g.B.g.B.g.g.g.g.g.B.f.B.g.u.,.v * b q.d.,.W *.9./ R +.f.g.g.g.g.g.g.,.,.,.6 g u.B.u.I V.V.V.V.V.",
"V.V.V.V.O k k k O V.V.V.V.V.V.V.V.V.V.V.O k | k | g.,.) f.B.B.B.B.g.g.g.g.,.g.g.g.g.g.g.g.g.i.7.N & N 9.r./ F *._ / N +.g.g.g.g.g.,.,.,.,.6 < u.B.B.I V.V.V.V.V.",
"V.V.V.V.V.O O O V.V.V.V.V.V.V.V.V.V.V.V.  < | k | ,.|  .2.B.B.B.g.g.g.g.g.,.f.g.g.g.g.g.g.g.g.f.1.f & H q.i.~ Z ' ' W V 9.g.g.g.g.,.,.,.k O < u.u.B.I < V.V.V.V.",
"V.V.V.V.V.V.V.V.V.V.V.V.V.V.V.V.V.V.V.V.V.O k k | ,.| @.B.B.B.B.g.g.g.g.g.,.,.f.g.g.g.g.g.g.g.g.i./ q & R q.i.' _ _ ! R W i.g.g.g.| ,.,.k O < u.u.B.I < V.V.V.V.",
"V.V.V.V.V.V.V.V.V.V.V.V.V.V.V.V.V.V.V.V.V.  6 k k | k g.B.B.B.B.g.g.g.g.g.,.| ,.,.,.,.,.,.,.,.,.,. .H 8 & R q.r.! R ' W / u.g.g.g.| ,.,.O   u.u.u.B.I < V.V.V.V.",
"V.V.V.V.V.V.V.V.V.V.V.V.V.V.V.V.V.V.V.V.V.V.O k k | k g.B.B.B.g.g.g.,.g.,.| k | | ,.,.,.,.,.,.,.,.` V f 4 * ! 1.{ N W W ~ u.g.g.,.| ,.k O < u.u.B.B.I < V.V.V.V.",
"V.V.V.V.V.V.V.V.V.V.V.V.V.V.V.V.V.V.V.V.V.V.  6 6 k | g.B.B.B.g.g.g.| >.| | k ` | | | | | | | | | | G j f 4 - { +.X.c Z R +.f.g.| | ,.O O < u.u.B.B.< V.V.V.V.V.",
"V.V.V.V.V.V.V.V.V.V.V.V.V.V.V.V.V.V.V.V.V.V.V.O 6 k ,.g.g.B.B.g.g.>.| | k 6 k k ~ k | k | k | k k k k k k u - u +.*.A s A *.f.g.| ,.k O   g u.B.B.I < V.V.V.V.V.",
"V.V.V.V.V.V.V.V.V.V.V.V.V.V.V.V.V.V.V.V.V.V.V.  O k | ,.g.g.g.g.g.| | k < t k | k k k k k k k 6 6 + +   X y 4 1 _ *./ s H ) i.,.| ,.O O < u.u.B.B.< V.V.V.V.V.V.",
"V.V.V.V.V.V.V.V.V.V.V.V.V.V.V.V.V.V.V.V.V.V.V.V.O k | g.,.g.g.g.>.k ` k < < k k k k k 6 6 O O     V.V.V.V.< ^ & c 2.' V i W 9.| | k O   g u.B.B.I < V.V.V.V.V.V.",
"V.V.V.V.V.V.V.V.V.V.V.V.V.V.V.V.V.V.V.V.V.V.V.V.O k | ,.g.,.g.g.| k k 6 t < < O O O     V.V.V.V.V.V.V.V.V.  U Z 4 _ { H f v / | ,.O O   u.B.B.I < : + V.V.V.V.V.",
"V.V.V.V.V.V.V.V.V.V.V.V.V.V.V.V.V.V.V.V.V.V.V.V.O k | ,.,.g.g.,.| k 6 O +         V.V.V.V.V.V.V.V.V.V.V.V.  : 4 % v { / u H ,.+.k O   < B.B.u.< : + : V.V.V.V.V.",
"V.V.V.V.V.V.V.V.V.V.V.V.V.V.V.V.V.V.V.V.V.V.V.V.6 k | ,.,.g.,.| k 6 . .   + : + V.V.V.V.V.V.V.V.V.V.V.V.V.V.+ h Z u ' / i Z ' U + V.  g B.u.I < : + : : V.V.V.V.",
"V.V.V.V.V.V.V.V.V.V.V.V.V.V.V.V.V.V.V.V.V.V.V.V.6 k | ,.,.,.| k O . : + : : : : : V.V.V.V.V.V.V.V.V.V.V.V.V.  k I 8 Z H c 8 1 > V.V.  u.B.u.6 + : : : : : : V.V.",
"V.V.V.V.V.V.V.V.V.V.V.V.V.V.V.V.V.V.V.V.V.V.V.V.O k | ,.,.,.| k . V.: + : : + : : : V.V.V.V.V.V.V.V.V.V.V.V.  k | V 8 u u W k O V.V.  B.u.u.6 : ; ; : : : + V.V.",
"V.V.V.V.V.V.V.V.V.V.V.V.V.V.V.V.V.V.V.V.V.V.V.V.O k | ,.,.| k   V.V.V.: : : : : : + V.V.V.V.V.V.V.V.V.V.V.V.V.6 | | N c ' ,.O V.V.V.  B.u.I V.+ ; ; ; : : : V.V.",
"V.V.V.V.V.V.V.V.V.V.V.V.V.V.V.V.V.V.V.V.V.V.V.V.O k | ,.| | k   V.V.V.V.+ : : + : : : V.V.V.V.V.V.V.V.V.V.V.V.O | | | | g.g.O V.V.V.O I u.< V.: ; ; : + : : V.V.",
"V.V.V.V.V.V.V.V.V.V.V.V.V.V.V.V.V.V.V.V.V.V.V.V.O k | ,.| | O   V.V.V.V.V.: : : : : + ; V.V.V.V.V.V.V.V.V.V.V.O | | | | g.k O V.V.V.O   u.< V.V.; ; : : : + V.V.",
"V.V.V.V.V.V.V.V.V.V.V.V.V.V.V.V.V.V.V.V.V.V.V.V.O | k | k k O V.V.V.V.V.V.V.: : ; ; ; ; : V.V.V.V.V.V.V.V.V.V.O | | | g.,.O V.V.V.V.V.  I i.I V.V.V.: + : : V.V.",
"V.V.V.V.V.V.V.V.V.V.V.V.V.V.V.V.V.V.V.V.V.V.V.O k | | k k O   V.V.V.V.V.V.V.V.: : : ; ; : V.V.V.V.V.V.V.V.V.V.O | ,.g.,.| O V.V.V.V.V.V.      I V.V.: : : + V.V.",
"V.V.V.V.V.V.V.V.V.V.V.V.V.V.V.V.V.V.V.V.V.V.V.O | | | k k O V.V.V.V.V.V.V.V.V.V.+ : : + + : V.V.V.V.V.V.V.V.V.O k | ,.| O V.V.V.V.V.V.V.V.V.V.  V.V.: : : : : V.",
"V.V.V.V.V.V.V.V.V.V.V.V.V.V.V.V.V.V.V.V.V.V.V.t | | k k O   V.V.V.V.V.V.V.V.V.V.: : : : : : V.V.V.V.V.V.V.V.V.O k | | k O V.V.V.V.V.V.V.V.V.V.V.V.V.: + : : + V.",
"V.V.V.V.V.V.V.V.V.V.V.V.V.V.V.V.V.V.V.V.V.V.V.6 k k k k O V.V.V.V.V.V.V.V.V.V.V.V.+ : : : V.V.V.V.V.V.V.V.V.V.O k k | O V.V.V.V.V.V.V.V.V.V.V.V.V.V.: : : : : V.",
"V.V.V.V.V.V.V.V.V.V.V.V.V.V.V.V.V.V.V.V.V.V.V.k | k k k   V.V.V.V.V.V.V.V.V.V.V.V.: : : : V.V.V.V.V.V.V.V.V.V.O k | k O V.V.V.V.V.V.V.V.V.V.V.V.V.V.+ : : + : V.",
"V.V.V.V.V.V.V.V.V.V.V.V.V.V.V.V.V.V.V.V.V.V.O k | | | O V.V.V.V.V.V.V.V.V.V.V.V.: + + : V.V.V.V.V.V.V.V.V.V.O k | k | O V.V.V.V.V.V.V.V.V.V.V.V.V.: : + : + : V.",
"V.V.V.V.V.V.V.V.V.V.V.V.V.V.V.V.V.V.V.V.V.V.k ,.| | | O V.V.V.V.V.V.V.V.V.V.V.V.: : : : V.V.V.V.V.V.V.V.V.V.O k k | k O V.V.V.V.V.V.V.V.V.V.V.V.V.: : : : : : V.",
"V.V.V.V.V.V.V.V.V.V.V.V.V.V.V.V.V.V.V.V.V.k g.| | ,.k O V.V.V.V.V.V.V.V.V.V.V.V.V.V.V.V.V.V.V.V.V.V.V.V.V.V.k | | | k O V.V.V.V.V.V.V.V.V.V.V.V.V.V.V.V.V.V.V.V.",
"V.V.V.V.V.V.V.V.V.V.V.V.V.V.V.V.V.V.V.V.O | g.,.,.,.k O V.V.V.V.V.V.V.V.V.V.V.V.V.V.V.V.V.V.V.V.V.V.V.V.V.O | ,.,.| 6 O V.V.V.V.V.V.V.V.V.V.V.V.V.V.V.V.V.V.V.V.",
"V.V.V.V.V.V.V.V.V.V.V.V.V.V.V.V.V.V.V.V.O 6 | g.g.k O V.V.V.V.V.V.V.V.V.V.V.V.V.V.V.V.V.V.V.V.V.V.V.V.V.O k g.g.| k 6 O V.V.V.V.V.V.V.V.V.V.V.V.V.V.V.V.V.V.V.V.",
"V.V.V.V.V.V.V.V.V.V.V.V.V.V.V.V.V.V.V.< u.u.I k k 6 O V.V.V.V.V.V.V.V.V.V.V.V.V.V.V.V.V.V.V.V.V.V.V.V.V.O ,.g.| k O O V.V.V.V.V.V.V.V.V.V.V.V.V.V.V.V.V.V.V.V.V.",
"V.V.V.V.V.V.V.V.V.V.V.V.V.V.V.V.V.V.V.I B.B.u.I < o V.V.V.V.V.V.V.V.V.V.V.V.V.V.V.V.V.V.V.V.V.V.V.V.V.< I u.u.u.o o V.V.V.V.V.V.V.V.V.V.V.V.V.V.V.V.V.V.V.V.V.V.",
"V.V.V.V.V.V.V.V.V.V.V.V.V.V.V.V.V.V.< B.B.B.u.u.o V.V.V.V.V.V.V.V.V.V.V.V.V.V.V.V.V.V.V.V.V.V.V.V.V.V.< u.B.B.u.I o V.V.V.V.V.V.V.V.V.V.V.V.V.V.V.V.V.V.V.V.V.V.",
"V.V.V.V.V.V.V.V.V.V.V.V.V.V.V.V.V.V.I I < < < o V.V.V.V.V.V.V.V.V.V.V.V.V.V.V.V.V.V.V.V.V.V.V.V.V.V.< I B.B.B.I o V.V.V.V.V.V.V.V.V.V.V.V.V.V.V.V.V.V.V.V.V.V.V.",
"V.V.V.V.V.V.V.V.V.V.V.V.V.V.V.V.V.V.V.V.V.V.V.V.V.V.V.V.V.V.V.V.V.V.V.V.V.V.V.V.V.V.V.V.V.V.V.V.V.V.< I I I I o V.V.V.V.V.V.V.V.V.V.V.V.V.V.V.V.V.V.V.V.V.V.V.V.",
"V.V.V.V.V.V.V.V.V.V.V.V.V.V.V.V.V.V.V.V.V.V.V.V.V.V.V.V.V.V.V.V.V.V.V.V.V.V.V.V.V.V.V.V.V.V.V.V.V.V.V.V.V.V.V.V.V.V.V.V.V.V.V.V.V.V.V.V.V.V.V.V.V.V.V.V.V.V.V.V.",
"V.V.V.V.V.V.V.V.V.V.V.V.V.V.V.V.V.V.V.V.V.V.V.V.V.V.V.V.V.V.V.V.V.V.V.V.V.V.V.V.V.V.V.V.V.V.V.V.V.V.V.V.V.V.V.V.V.V.V.V.V.V.V.V.V.V.V.V.V.V.V.V.V.V.V.V.V.V.V.V.",
"V.V.V.V.V.V.V.V.V.V.V.V.V.V.V.V.V.V.V.V.V.V.V.V.V.V.V.V.V.V.V.V.V.V.V.V.V.V.V.V.V.V.V.V.V.V.V.V.V.V.V.V.V.V.V.V.V.V.V.V.V.V.V.V.V.V.V.V.V.V.V.V.V.V.V.V.V.V.V.V.",
"V.V.V.V.V.V.V.V.V.V.V.V.V.V.V.V.V.V.V.V.V.V.V.V.V.V.V.V.V.V.V.V.V.V.V.V.V.V.V.V.V.V.V.V.V.V.V.V.V.V.V.V.V.V.V.V.V.V.V.V.V.V.V.V.V.V.V.V.V.V.V.V.V.V.V.V.V.V.V.V."
};
