/* XPM */
static char *pegright_[] = {
/* columns rows colors chars-per-pixel */
"80 80 151 2",
"   c #55558E",
".  c #56568F",
"X  c #595990",
"o  c #66669D",
"O  c #7B7BAE",
"+  c #7C7CAE",
"@  c #73AC89",
"#  c #828D9F",
"$  c #86B89A",
"%  c #8383A3",
"&  c #8989A7",
"*  c #8C8CAA",
"=  c #8E8EAD",
"-  c #8B9CA5",
";  c #9293AE",
":  c #8080B1",
">  c #8181B2",
",  c #8B8BB3",
"<  c #8D8DB7",
"1  c #8E8EBB",
"2  c #9595B1",
"3  c #9797B3",
"4  c #9999B5",
"5  c #9A9AB6",
"6  c #9D9DB7",
"7  c #9191BD",
"8  c #9595BE",
"9  c #9E9EB8",
"0  c #94AEAB",
"q  c #97A2B0",
"w  c #A0A1BA",
"e  c #A3A3BD",
"r  c #A5A5BE",
"t  c #A4ABBC",
"y  c #9E9EC1",
"u  c #A3A3C3",
"i  c #A8A8C0",
"p  c #A8A8C3",
"a  c #AAAAC2",
"s  c #ABABC3",
"d  c #ACACC4",
"f  c #AEAEC4",
"g  c #AFAFC6",
"h  c #A3A3C9",
"j  c #A6A6C9",
"k  c #AFAFC9",
"l  c #A9A9CD",
"z  c #ABABCD",
"x  c #ABABCE",
"c  c #ADADCE",
"v  c #B0B0C6",
"b  c #B1B1C8",
"n  c #B3B3C9",
"m  c #B3B3CB",
"M  c #B4B4C9",
"N  c #B5B5CA",
"B  c #B6B6CB",
"V  c #B3B3CE",
"C  c #B6B6CE",
"Z  c #B8B8CC",
"A  c #B9B9CD",
"S  c #BABACD",
"D  c #B9B9CF",
"F  c #BABACE",
"G  c #BABDCE",
"H  c #B0B0D0",
"J  c #BCBCD0",
"K  c #BEBED1",
"L  c #BDBDD2",
"P  c #BEBED2",
"I  c #BBBBD4",
"U  c #B9B9D7",
"Y  c #BFBFD7",
"T  c #BCBCD8",
"R  c #C2C2D1",
"E  c #C1C1D3",
"W  c #C2C2D4",
"Q  c #C3C3D5",
"!  c #C4C4D5",
"~  c #C5C5D6",
"^  c #C7C7D7",
"/  c #C5C5DB",
"(  c #C9C9D9",
")  c #CACADA",
"_  c #CBCBDB",
"`  c #CCCCDB",
"'  c #C8C8DF",
"]  c #CDCDDC",
"[  c #CFCFDD",
"{  c #CDCDDE",
"}  c #D0D0DE",
"|  c #CACAE1",
" . c #CBCBE2",
".. c #CECEE1",
"X. c #CFCFE4",
"o. c #D3D3E0",
"O. c #D4D4E1",
"+. c #D4D4E3",
"@. c #D7D7E3",
"#. c #D2D2E4",
"$. c #D6D6E6",
"%. c #D8D8E5",
"&. c #DADAE5",
"*. c #D9D9E6",
"=. c #DBDBE6",
"-. c #DCDCE7",
";. c #D7D7E8",
":. c #D8D8E9",
">. c #DBDBE8",
",. c #DADAEA",
"<. c #DBDBEB",
"1. c #DCDCE8",
"2. c #DDDDE8",
"3. c #DEDEE8",
"4. c #DFDFEA",
"5. c #DFDFED",
"6. c #E0E0E9",
"7. c #E0E0EB",
"8. c #E2E2EB",
"9. c #E1E1EC",
"0. c #E3E3EC",
"q. c #E2E2EE",
"w. c #E7E6ED",
"e. c #E4E4EF",
"r. c #E6E6EE",
"t. c #E8E8EF",
"y. c #E5E5F1",
"u. c #E7E7F1",
"i. c #E7E7F2",
"p. c #E9E9F0",
"a. c #EAEAF1",
"s. c #E9E9F2",
"d. c #EAEAF3",
"f. c #EDEDF3",
"g. c #EBEBF4",
"h. c #ECECF5",
"j. c #EDEDF5",
"k. c #F0F0F5",
"l. c #F2F2F6",
"z. c #F4F4F7",
"x. c #F3F3F8",
"c. c #F4F4F8",
"v. c #F5F5F9",
"b. c #F6F6F9",
"n. c #F8F8FB",
"m. c #FAFAFC",
"M. c #FCFCFD",
"N. c #FDFDFD",
"B. c #FEFEFE",
"V. c gray100",
"C. c None",
/* pixels */
"C.C.C.C.C.C.C.C.C.C.C.C.C.q C.C.C.C.C.C.C.C.C.C.C.C.C.C.C.C.C.C.C.C.C.C.C.C.C.C.C.C.C.C.C.C.C.C.C.C.C.C.C.C.C.C.C.C.C.C.C.C.C.C.C.q C.C.C.C.C.C.C.C.C.C.C.C.C.C.",
"C.C.C.C.C.C.C.C.C.C.C.C.$ 0.8.C.C.C.C.C.C.C.C.C.C.C.C.C.C.C.C.C.C.C.C.C.C.C.C.C.C.C.C.C.C.C.C.C.C.C.C.C.C.C.C.C.C.C.C.C.C.C.C.C.` l.t C.C.C.C.C.C.C.C.C.C.C.C.C.",
"C.C.C.C.C.C.C.C.C.C.C.C.C.C.C.C.C.C.C.C.C.C.C.C.C.C.C.C.C.C.C.C.C.C.C.C.C.C.C.C.C.C.C.C.C.C.C.C.C.C.C.C.C.C.C.C.C.C.C.C.C.C.C.C.C.C.C.C.C.C.C.C.C.C.C.C.C.C.C.C.",
"C.C.C.C.C.C.C.C.C.C.C.C.C.C.C.C.C.C.C.C.C.C.C.C.C.C.C.C.C.C.C.C.C.C.C.C.C.C.C.C.C.C.C.C.C.C.C.C.C.C.C.C.C.C.C.C.C.C.C.C.C.C.C.C.C.C.C.C.C.C.C.C.C.C.C.C.C.C.C.C.",
"C.C.C.C.C.C.C.C.C.C.C.C.C.C.C.C.C.C.C.C.C.C.C.C.C.C.C.C.C.C.C.C.C.C.C.C.C.C.C.C.C.C.C.C.C.C.C.C.C.C.C.C.C.C.C.C.C.C.C.C.C.C.C.C.C.C.C.C.C.C.C.C.C.C.C.C.C.C.C.C.",
"C.C.C.C.C.C.C.C.C.C.C.C.C.C.C.C.C.C.C.C.C.C.C.C.C.C.C.C.C.C.C.C.C.C.C.C.C.C.C.C.C.C.C.C.C.C.C.C.C.C.C.C.C.C.C.C.C.C.C.C.C.C.C.C.C.C.C.C.C.C.C.C.C.C.C.C.C.C.C.C.",
"C.C.C.C.C.C.C.C.C.C.C.C.C.C.C.C.C.C.C.C.C.C.C.C.C.C.C.C.C.C.C.C.C.C.C.C.C.C.C.C.C.C.C.C.C.C.C.C.C.C.C.C.C.C.C.C.C.C.C.C.C.C.C.C.C.C.C.C.C.C.C.C.C.C.C.C.C.C.C.C.",
"C.C.C.C.C.C.C.C.C.C.C.C.C.C.C.C.C.C.C.C.C.C.C.C.C.C.C.C.C.C.C.C.C.C.C.C.C.C.C.C.C.C.C.C.C.C.C.C.C.C.C.C.C.C.C.C.C.C.C.C.C.C.C.C.C.C.C.C.C.C.C.C.C.C.C.C.C.C.C.C.",
"C.C.C.C.C.C.C.C.C.C.C.C.C.C.C.C.C.C.C.C.C.C.C.C.C.C.C.C.C.C.C.C.C.C.C.C.C.C.C.C.C.C.C.C.C.C.C.C.C.C.C.C.C.C.C.C.C.C.C.C.C.C.C.C.C.C.C.C.C.C.C.C.C.C.C.C.C.C.C.C.",
"C.C.C.C.C.C.C.C.C.C.C.C.C.C.C.C.C.C.C.C.C.C.C.C.C.C.C.C.C.C.C.C.C.C.C.C.C.C.C.C.C.C.C.C.C.C.C.C.C.C.C.C.C.C.C.C.C.C.C.C.C.C.C.C.C.C.C.C.C.C.C.C.C.C.C.C.C.C.C.C.",
"C.C.C.C.C.C.C.C.C.C.C.C.C.C.C.C.C.C.C.C.C.C.C.C.C.C.C.C.C.C.C.C.C.C.C.C.C.C.C.C.C.C.C.C.C.C.C.C.C.C.C.C.C.C.C.C.C.C.C.C.C.C.C.C.C.C.C.C.C.C.C.C.C.C.C.C.C.C.C.C.",
"C.C.C.C.C.C.C.C.C.C.C.C.C.C.C.C.C.C.C.C.C.C.C.C.C.C.C.C.C.C.C.C.C.C.C.C.C.C.C.C.C.C.C.C.C.C.C.C.C.C.C.C.C.C.C.C.C.C.C.C.C.C.C.C.C.C.C.C.C.C.C.C.C.C.C.C.C.C.C.C.",
"C.C.C.C.C.C.C.C.C.C.C.C.C.C.C.C.C.C.C.C.C.C.C.C.C.C.C.C.C.C.C.C.C.C.C.C.C.C.C.C.C.C.C.C.C.C.C.C.C.C.C.C.C.C.C.C.C.C.C.C.C.C.C.C.C.C.C.C.C.C.C.C.C.C.C.C.C.C.C.C.",
"C.C.C.C.C.C.C.C.C.C.C.C.C.C.C.C.C.C.C.C.C.C.C.C.C.C.C.C.C.C.C.C.C.C.C.C.C.C.C.C.C.C.C.C.C.C.C.C.C.C.C.C.C.C.C.C.C.C.C.C.C.C.C.C.C.C.C.C.C.C.C.C.C.C.C.C.C.C.C.C.",
"C.C.C.C.C.C.C.C.C.C.C.C.C.C.C.C.C.C.C.C.C.C.C.C.C.C.C.C.C.C.C.C.C.C.C.C.C.C.C.C.C.C.C.C.C.C.C.C.C.C.C.C.C.C.C.C.C.C.C.C.C.C.C.C.C.C.C.C.C.C.C.C.C.C.C.C.C.C.C.C.",
"C.C.C.C.C.C.C.C.C.C.C.C.C.C.C.C.C.C.C.C.C.C.C.C.C.C.C.C.C.C.C.C.C.C.C.C.C.@ 6 n B e 3 C.C.C.C.C.C.C.C.C.C.C.C.C.C.C.C.C.C.C.C.C.C.C.C.C.C.C.C.C.C.C.C.C.C.C.C.C.",
"C.C.C.C.C.C.C.C.C.C.C.C.C.C.C.C.C.C.C.C.C.C.C.C.C.C.C.C.C.C.C.C.C.C.C.C.C.i Q } } ( ^ B e $ C.C.C.C.C.C.C.C.C.C.C.C.C.C.C.C.C.C.C.C.C.C.C.C.C.C.C.C.C.C.C.C.C.C.",
"C.C.C.C.C.C.C.C.C.C.C.C.C.C.C.C.C.C.C.C.C.C.C.C.C.C.C.C.C.C.C.C.C.C.C.C.@ ; v B J Q ] } } ^ E l C.C.C.C.C.C.C.C.C.C.C.C.C.C.C.C.C.C.C.C.C.C.C.C.C.C.C.C.C.C.C.C.",
"C.C.C.C.C.C.C.C.C.C.C.C.C.C.C.C.C.C.C.C.C.C.C.C.C.C.C.C.C.C.C.C.C.C.C.@ v A K ^ ^ ^ B n ~ } O.6.l l l C.C.C.C.C.C.C.C.C.C.C.C.C.C.C.C.C.C.C.C.C.C.C.C.C.C.C.C.C.",
"C.C.C.C.C.C.C.C.C.C.C.C.C.C.C.C.C.C.C.C.C.C.C.C.C.C.C.C.C.C.C.C.C.C.C.3 Q O.[ &.@.2.&.@.E g ~ o.3.p.O.E $ C.C.C.C.C.C.C.C.C.C.C.C.C.C.C.C.C.C.C.C.C.C.C.C.C.C.C.",
"C.C.C.C.C.C.C.C.C.C.C.C.C.C.C.C.C.C.C.C.C.C.C.C.C.C.C.C.C.C.C.C.C.C.C.C.3 s b b E } 0.w.8.=.K b ` @.0.0.O.Q 0 C.C.C.C.C.C.C.C.C.C.C.C.C.C.C.C.C.C.C.C.C.C.C.C.C.",
"C.C.C.C.C.C.C.C.C.C.C.C.C.C.C.C.C.C.C.C.C.C.C.C.C.C.C.C.C.C.C.C.C.C.C.q ^ ` E K v s J [ 6.6.8.8.@.@.3.r.r.6.o.g C.C.C.C.C.C.C.C.C.C.C.C.C.C.C.C.C.C.C.C.C.C.C.C.",
"C.C.C.C.C.C.C.C.C.C.C.C.C.C.C.C.C.C.C.C.C.C.C.C.C.C.C.C.C.C.C.C.C.C.C.3 J [ =.6.@.^ K B ( } 8.r.0.r.r.r.r.r.w.2.w C.C.C.C.C.C.C.C.C.C.C.C.C.C.C.C.C.C.C.C.C.C.C.",
"C.C.C.C.C.C.C.C.C.C.C.C.C.C.C.C.C.C.C.C.C.C.C.C.C.C.C.C.C.C.C.C.C.C.C.% = f ~ } 6.a.a.3.@.8.p.p.r.0.8.3.2.0.w.3.E C.C.C.C.C.C.U U U U 1 1 C.C.C.C.C.C.C.C.C.C.C.",
"C.C.C.C.C.C.C.C.C.C.C.C.C.C.C.C.C.C.C.C.C.C.C.C.C.C.C.C.C.C.C.C.C.C.C.9 w = ; 3 F K @.r.p.0.^ E &.[ A B B ~ 3.=.o.- U U U U i.i.V.V.V.V.i.U 1 7 C.C.C.C.C.C.C.C.",
"C.C.C.C.C.C.C.C.C.C.C.C.C.C.C.C.C.C.C.C.C.C.C.C.C.C.C.C.C.C.C.C.C.C.; n b i B ` n v ( =.2.Q Q Q b f F J v = i K A 2 i.V.V.i.V.V.i.V.i.U V.U V.U 1 l 7 C.C.C.C.C.",
"C.C.C.C.C.C.C.C.C.C.C.C.C.C.C.C.C.C.C.C.C.C.C.C.C.C.C.C.C.C.C.C.C.C.- 3 w g n K o.8.o.B f E =.A 2.^ G c j a.R * = p.V.i.V.U i.i.U V.U U i.U i.i.U  .l l 7 C.C.C.",
"C.C.C.C.C.C.C.C.C.C.C.C.C.C.C.C.C.C.C.C.C.C.C.C.C.C.C.C.C.C.C.C.C.C.# v w ; 2 a s ( f.0.Q ^ &.n o.V U V.V.V.i.b.5.V.V.i.V.U i.U 1 i.1 l  . .h.h.7 1 7 O O C.C.C.",
"C.C.C.C.C.C.C.C.C.C.C.C.C.C.C.C.C.C.C.C.C.C.C.C.C.C.C.C.C.C.C.C.C.C.- i i s b b b v K p.n.0.3.O.! m.V.V.i.V.i.V.i.V.i.U i.U 1 7 l 1  .l h.h.l O O U 1 C.C.C.C.C.",
"C.C.C.C.C.C.C.C.C.C.C.C.C.C.C.C.7 7 7 l l 7 7 C.C.C.C.C.C.C.C.C.C.C.- 2 i A ( o.o.@.F Q @.n.v.a.@.3.@.N.U V.i.V.i.V.U U U l  .l  . .<. .h.O O 1 i.i.U   C.C.C.C.",
"C.C.C.C.C.C.C.C.C.C.C.C.C.C.7 l l  .<.h.h.h.<. .l 7 7 C.C.C.C.C.C.C.w J E @.@.v.v.n.3.} B @.v.c.l.c.( { U i.U i.U V.7 l 1 <.h.<.h.h.h.<. .7 7 l 1 U O C.C.C.C.C.",
"C.C.C.C.C.C.C.C.C.C.C.C.7 l  .<.h.V.V.V.V.V.V.h.<. .l l 7 7 7 8 y F Q =.0.v.m.V.V.V.m.n.O.n 8.n.t.p.X.y.U U l X.l U l  .<.h.h.h.h. .h.h. . .<.<. .1 7 C.C.C.C.C.",
"C.C.C.C.C.C.C.C.C.C.C.7 l  .<.h.V.V.V.V.V.V.V.V.V.h.<. . .| C F Q &.n.N.V.V.V.V.V.V.V.m.k.} A t.| T 1 U l 1 l U l 1  . .h.h. . .7 h.h.h.l h.h.V.h. .7 C.C.C.C.C.",
"C.C.C.C.C.C.C.C.C.C.7 l  .<.h.V.V.V.V.V.V.V.V.V.V.h.<.<.) B ^ o.n.V.V.V.V.V.V.V.f.J n B [ [ N ;.T 1 l 1  .l  .1 l l  .<.h.<.l 7 l <.h.h.l   7 h.V.h. .7 C.C.C.C.",
"C.C.C.C.C.C.C.C.C.7 7  .<.h.V.V.V.V.V.V.V.V.V.V.V.V.q.P ~ o.n.V.B.V.V.V.V.V.v.^ f i i i f b o...U l  .l <. .<.l <. . .h.h. .l 7 l  .h.h.<.  7 h.V.V.<.7 C.C.C.C.",
"C.C.C.C.C.C.C.C.7 7 U <.h.V.V.V.h.V.V.V.V.V.V.V.V.3.n ( w.v.m.v.v.B.V.V.c.} e w i n K M S O.4.h.h. .<. .<.<.h.h.<. .<.h.<.l l 7 7 l  .<.<. .l <.V.V.h.7 C.C.C.C.",
"C.C.C.C.C.C.C.C.U U i.<.h.h.V.h.V.h.V.V.V.V.V.V.6.F 6.l.w.3.6.n.V.V.m.@.a 6 = & W N.V.b.-.>.M.h.h.<.<.<.<.h.h.h.<. .<.<. .l l l 7 7 7 l  . .l  .h.V.V.l C.C.C.C.",
"C.C.C.C.C.C.C.U i.V.V.<.<.V.h.V.h.V.V.V.V.V.V.0.A 6.8.} O.@.n.V.n.n.E 3 3 * 9 ( n.x.V.V.g.V.h.V.h.h.h.h.h.h.h.h.<. .<.<. .l 7 7 7 O   7 7 l l l h.V.V. .C.C.C.C.",
"C.C.C.C.C.C.U i.V.V.i.<.<.h.h.h.V.h.V.V.V.V.w.J 3.@.O.&.8.k.V.B.2.E 3 = = r K 9.j.h.V.h.V.h.V.V.h.h.h.h.h.h.h.h.<. .<. .l 7 O O   C.C.    7 l l h.V.V. .7 C.C.C.",
"C.C.C.C.C.C.U i.V.i.1 <.<.<.h.h.h.h.h.V.h.f.F [ J ] 8.r.f.v.B.8.s ; = w ~ +.z.g.h.h.h.V.h.V.h.V.V.h.h.h.h.h.h.h. . .<. .l O     C.C.C.C.C.  7 l  .h.h.<.l C.C.C.",
"C.C.C.C.C.C.U V.V.U 7 <.<.<.h.h.h.h.g.h.V.1.v v ^ 0.0.O.w.c.0.v * 6 Q 1.u.g.h.h.h.h.h.V.h.h.h.V.V.V.h.<.h.h.h.<.l  . .l O   C.C.C.C.C.C.C.C.  l  .h.h.<.l C.C.C.",
"C.C.C.C.C.U i.V.i.h 7 <.<.<.h.h.h.h.h.h.h.+.E ^ 0.=.Q =.f.r.n = b >.i.h.V.h.V.h.h.h.h.h.V.h.V.h.V.V.h.h.<.h.h.<.l  . .7   C.C.C.C.C.C.C.C.C.  l l 7 <.<.O C.C.C.",
"C.C.C.C.C.U V.V.i.1 7 <.<.<.<.h.h.h.h.h.@.B ( ` =.F ( p.0.B * N 7.g.h.h.h.h.h.h.h.h.<.h.h.h.h.V.V.V.V.s.' <.h. .l  .l O C.C.C.C.C.C.C.C.C.C.C.O l l l O C.C.C.C.",
"C.C.C.C.1 U V.i.i.1 O l <.<.<.h.h.h.h.7.Z Q ] ] F ^ a.r.J * d 2.g.h.h.h.h.h.h.h.h.h.<.h.h.h.h.h.V.V.V.4... .<. .l  .7   C.C.C.C.C.C.C.C.C.C.C.C.O O O C.C.C.C.C.",
"C.C.C.C.1 U V.i.i.1 O l <.<. .h.h.h.d.! E ^ ] ` ` p.r.E * w _ s.h.h.h.h.h.h.h.h.h.<.<.h.h.h.h.h.V.V.V.V.#. .<. .l l O C.C.C.C.C.C.C.C.C.C.C.C.C.C.C.C.C.C.C.C.C.",
"C.C.C.C.1 U V.i.i.i.  O <.<. .h.h.h.i.) E [ K ~ p.r.E * 6 L ..,.<.<.<.<.<.<.<.<.<. .<.h.h.h.h.h.V.V.V.V.h.l  .l l 7   C.C.C.C.C.C.C.C.C.C.C.C.C.C.C.C.C.C.C.C.C.",
"C.C.C.C.1 U V.V.i.i.1 O l <. .<.h.h.e.^ W Q B o.=.~ = 5 f D ' <.<.<.<.<.<.<.<. . .x | :.h.<.h.h.h.V.V.V.h.l  .l l O C.C.C.C.C.C.C.C.C.C.C.C.C.C.C.C.C.C.C.C.C.C.",
"C.C.C.C.C.1 V.V.i.i.1 O O <. . .h.h.*.E A n o.@.} ; 4 d k H  . . . . . . . . . .' z |  .<. .h.h.h.V.V.V.h. .l 7 7   C.C.C.C.C.C.C.C.C.C.C.C.C.C.C.C.C.C.C.C.C.C.",
"C.C.C.C.C.1 U V.V.i.h   O l <. .h.g.%.B a A &.@.s ; p z x l l l l  .l  .l  .l / l l 7 l  . .<.h.h.V.V.h.h.<.l 7 O C.C.C.C.C.C.C.C.C.C.C.C.C.C.C.C.C.C.C.C.C.C.C.",
"C.C.C.C.C.C.1 V.V.i.i.1 O O <. .<.s._ F f ( &.` 2 4 u X   O O 7 7 l l l l l l l  .l 7 7 l  . .h.h.h.h.h.<. .l O   C.C.C.C.C.C.C.C.C.C.C.C.C.C.C.C.C.C.C.C.C.C.C.",
"C.C.C.C.C.C.1 U V.V.i.h   O l  . .q.Q s B } 3.v * / < C.C.C.C.    O O 7 7 l l l l l 7 7 l  .l <.h.h.h.<.h. .l O C.C.C.C.C.C.C.C.C.C.C.C.C.C.C.C.C.C.C.C.C.C.C.C.",
"C.C.C.C.C.: : 1 U V.V.i.  O O <.| ) v f K [ ` 4 F Y . C.C.C.C.C.C.C.C.C.  . O O O 7 7 7 7 l l  .h.h.<.h.<. .l O C.C.C.C.C.C.C.C.C.C.C.C.C.C.C.C.C.C.C.C.C.C.C.C.",
"C.C.C.C.C.: : : 1 i.V.V.1   O l $.>.K a ^ } b & 5 >   C.C.C.C.C.C.C.C.C.C.C.C.        O O 7 l  .<.h.h.<.<. .l O C.C.C.C.C.C.C.C.C.C.C.C.C.C.C.C.C.C.C.C.C.C.C.C.",
"C.C.C.C.: : : : 1 U i.V.h   C.+ T [ F a ( ` i D j O C.C.C.C.C.C.C.C.C.C.C.C.C.C.: : :       7 l  .<.h.<.<. .l 7 C.C.C.C.C.C.C.C.C.C.C.C.C.C.C.C.C.C.C.C.C.C.C.C.",
"C.C.: : : : : : : 1 i.V.i.  C.C., 2 6 g K A 6 I l   C.C.C.C.C.C.C.C.C.C.C.C.C.: : : : : : :   O l  .<.<.<. .l 7 C.C.C.C.C.C.C.C.C.C.C.C.C.C.C.C.C.C.C.C.C.C.C.C.",
"C.C.: : : : : : : 1 i.i.V.  C.C.O l Q i i 9 C  .l   C.C.C.C.C.C.C.C.C.C.C.C.: : : : : : : : C.  l  .<.<.<. .l O C.C.C.C.C.C.C.C.C.C.C.C.C.C.C.C.C.C.C.C.C.C.C.C.",
"C.C.: : : : : : : C.U i.V.  C.C.C.O <.[ b m  . .7 C.C.C.C.C.C.C.C.C.C.C.C.C.: : : : : : : C.C.C.  l  .<.<. .l O C.C.C.C.C.C.C.C.C.C.C.C.C.C.C.C.C.C.C.C.C.C.C.C.",
"C.C.: : : : : : : C.1 i.U O C.C.C.O h.h. . . . .O C.C.C.C.C.C.C.C.C.C.C.C.: : : : : : : C.C.C.C.  l  . .<. .l O C.C.C.C.C.C.C.C.C.C.C.C.C.C.C.C.C.C.C.C.C.C.C.C.",
"C.C.: : : : : : C.C.1 i.  O C.C.C.O l h. . . . .O C.C.C.C.C.C.C.C.C.C.C.: : : : : : : C.C.C.C.C.  O  . .<. .l O C.C.C.C.C.C.C.C.C.C.C.C.C.C.C.C.C.C.C.C.C.C.C.C.",
"C.C.: : : : C.C.C.U i.U   C.C.C.C.C.O <.h. . . .O C.C.C.C.C.C.C.C.C.C.: : : : : : : C.C.C.C.C.C.C.O l l  .l  .O C.C.C.C.C.C.C.C.C.C.C.C.C.C.C.C.C.C.C.C.C.C.C.C.",
"C.C.: : : : C.C.U       C.C.C.C.C.C.O  .<.h.<. .O C.C.C.C.C.C.C.C.C.C.: : : : : : C.C.C.C.C.C.C.C.  O l l  . .l O C.C.C.C.C.C.C.C.C.C.C.C.C.C.C.C.C.C.C.C.C.C.C.",
"C.: : : : : C.C.  C.C.C.C.C.C.C.C.C.C.O  .<. .l O C.C.C.C.C.C.C.C.C.: : : : : : C.C.C.C.C.C.C.C.C.C.O l l  . . .O C.C.C.C.C.C.C.C.C.C.C.C.C.C.C.C.C.C.C.C.C.C.C.",
"C.: : : : : C.C.C.C.C.C.C.C.C.C.C.C.C.O l  . .l O C.C.C.C.C.C.C.C.C.: : : : : : C.C.C.C.C.C.C.C.C.C.  O l l  . .7 C.C.C.C.C.C.C.C.C.C.C.C.C.C.C.C.C.C.C.C.C.C.C.",
"C.: : : : : C.C.C.C.C.C.C.C.C.C.C.C.C.C.O  .l l O C.C.C.C.C.C.C.C.C.C.: : : : C.C.C.C.C.C.C.C.C.C.C.C.O l l l l 7 C.C.C.C.C.C.C.C.C.C.C.C.C.C.C.C.C.C.C.C.C.C.C.",
"C.: : : : : C.C.C.C.C.C.C.C.C.C.C.C.C.C.O l  .l O C.C.C.C.C.C.C.C.C.C.: : : : C.C.C.C.C.C.C.C.C.C.C.C.  l l l  .l C.C.C.C.C.C.C.C.C.C.C.C.C.C.C.C.C.C.C.C.C.C.C.",
"C.: : : : : : C.C.C.C.C.C.C.C.C.C.C.C.C.O  .l  .l O C.C.C.C.C.C.C.C.C.C.: : : : C.C.C.C.C.C.C.C.C.C.C.C.O  . . .l O C.C.C.C.C.C.C.C.C.C.C.C.C.C.C.C.C.C.C.C.C.C.",
"C.: : : : : : C.C.C.C.C.C.C.C.C.C.C.C.C.O l  .l l O C.C.C.C.C.C.C.C.C.C.: : : : C.C.C.C.C.C.C.C.C.C.C.C.O  . . .<.l C.C.C.C.C.C.C.C.C.C.C.C.C.C.C.C.C.C.C.C.C.C.",
"C.C.C.C.C.C.C.C.C.C.C.C.C.C.C.C.C.C.C.C.O l  . . .l C.C.C.C.C.C.C.C.C.C.C.C.C.C.C.C.C.C.C.C.C.C.C.C.C.C.O l <. . .h.l C.C.C.C.C.C.C.C.C.C.C.C.C.C.C.C.C.C.C.C.C.",
"C.C.C.C.C.C.C.C.C.C.C.C.C.C.C.C.C.C.C.C.O 7  .<.<. .O C.C.C.C.C.C.C.C.C.C.C.C.C.C.C.C.C.C.C.C.C.C.C.C.C.O l <.<.<.h. .O C.C.C.C.C.C.C.C.C.C.C.C.C.C.C.C.C.C.C.C.",
"C.C.C.C.C.C.C.C.C.C.C.C.C.C.C.C.C.C.C.C.O 7 l  .h.h.l O C.C.C.C.C.C.C.C.C.C.C.C.C.C.C.C.C.C.C.C.C.C.C.C.C.O l h.h. .7 O C.C.C.C.C.C.C.C.C.C.C.C.C.C.C.C.C.C.C.C.",
"C.C.C.C.C.C.C.C.C.C.C.C.C.C.C.C.C.C.C.C.C.O O l  .h.<.O C.C.C.C.C.C.C.C.C.C.C.C.C.C.C.C.C.C.C.C.C.C.C.C.C.O 7 l l U i.i.1 C.C.C.C.C.C.C.C.C.C.C.C.C.C.C.C.C.C.C.",
"C.C.C.C.C.C.C.C.C.C.C.C.C.C.C.C.C.C.C.C.C.C.o o i.i.i.U 1 C.C.C.C.C.C.C.C.C.C.C.C.C.C.C.C.C.C.C.C.C.C.C.C.C.o 1 U i.V.V.U C.C.C.C.C.C.C.C.C.C.C.C.C.C.C.C.C.C.C.",
"C.C.C.C.C.C.C.C.C.C.C.C.C.C.C.C.C.C.C.C.C.C.o U i.V.V.i.1 C.C.C.C.C.C.C.C.C.C.C.C.C.C.C.C.C.C.C.C.C.C.C.C.C.C.o i.i.V.V.V.1 C.C.C.C.C.C.C.C.C.C.C.C.C.C.C.C.C.C.",
"C.C.C.C.C.C.C.C.C.C.C.C.C.C.C.C.C.C.C.C.C.C.C.o U V.V.V.U 1 C.C.C.C.C.C.C.C.C.C.C.C.C.C.C.C.C.C.C.C.C.C.C.C.C.C.o 1 1 1 U U C.C.C.C.C.C.C.C.C.C.C.C.C.C.C.C.C.C.",
"C.C.C.C.C.C.C.C.C.C.C.C.C.C.C.C.C.C.C.C.C.C.C.C.o U U U U 1 C.C.C.C.C.C.C.C.C.C.C.C.C.C.C.C.C.C.C.C.C.C.C.C.C.C.C.C.C.C.C.C.C.C.C.C.C.C.C.C.C.C.C.C.C.C.C.C.C.C.",
"C.C.C.C.C.C.C.C.C.C.C.C.C.C.C.C.C.C.C.C.C.C.C.C.C.C.C.C.C.C.C.C.C.C.C.C.C.C.C.C.C.C.C.C.C.C.C.C.C.C.C.C.C.C.C.C.C.C.C.C.C.C.C.C.C.C.C.C.C.C.C.C.C.C.C.C.C.C.C.C.",
"C.C.C.C.C.C.C.C.C.C.C.C.C.C.C.C.C.C.C.C.C.C.C.C.C.C.C.C.C.C.C.C.C.C.C.C.C.C.C.C.C.C.C.C.C.C.C.C.C.C.C.C.C.C.C.C.C.C.C.C.C.C.C.C.C.C.C.C.C.C.C.C.C.C.C.C.C.C.C.C.",
"C.C.C.C.C.C.C.C.C.C.C.C.C.C.C.C.C.C.C.C.C.C.C.C.C.C.C.C.C.C.C.C.C.C.C.C.C.C.C.C.C.C.C.C.C.C.C.C.C.C.C.C.C.C.C.C.C.C.C.C.C.C.C.C.C.C.C.C.C.C.C.C.C.C.C.C.C.C.C.C.",
"C.C.C.C.C.C.C.C.C.C.C.C.C.C.C.C.C.C.C.C.C.C.C.C.C.C.C.C.C.C.C.C.C.C.C.C.C.C.C.C.C.C.C.C.C.C.C.C.C.C.C.C.C.C.C.C.C.C.C.C.C.C.C.C.C.C.C.C.C.C.C.C.C.C.C.C.C.C.C.C.",
"C.C.C.C.C.C.C.C.C.C.C.C.C.C.C.C.C.C.C.C.C.C.C.C.C.C.C.C.C.C.C.C.C.C.C.C.C.C.C.C.C.C.C.C.C.C.C.C.C.C.C.C.C.C.C.C.C.C.C.C.C.C.C.C.C.C.C.C.C.C.C.C.C.C.C.C.C.C.C.C."
};
