/* XPM */
static char *pegright_[] = {
/* columns rows colors chars-per-pixel */
"80 80 143 2",
"   c #3FBB50",
".  c #6FCA7E",
"X  c #55558E",
"o  c #595990",
"O  c #5B5B94",
"+  c #66669D",
"@  c #7B7BAE",
"#  c #7C7CAE",
"$  c #7B9597",
"%  c #73AC89",
"&  c #86B89A",
"*  c #8383A3",
"=  c #8989A7",
"-  c #8C8CAA",
";  c #8E8EAD",
":  c #9293AE",
">  c #8080B1",
",  c #8787B0",
"<  c #8F8FB9",
"1  c #8E8EBB",
"2  c #9595B1",
"3  c #9797B3",
"4  c #9898B4",
"5  c #9999B5",
"6  c #9A9AB6",
"7  c #9D9DB7",
"8  c #9191BD",
"9  c #9292BD",
"0  c #9393BE",
"q  c #9999BB",
"w  c #9E9EB8",
"e  c #9F9FBA",
"r  c #94AEAB",
"t  c #97A2B0",
"y  c #A0A1BA",
"u  c #A3A3BD",
"i  c #A4ABBC",
"p  c #9BCCAA",
"a  c #A3A3C3",
"s  c #A8A8C0",
"d  c #A8A8C3",
"f  c #AAAAC2",
"g  c #ABABC3",
"h  c #A9ACC0",
"j  c #ADAEC3",
"k  c #A9A9C7",
"l  c #ACACC4",
"z  c #AEAEC4",
"x  c #AFAFC6",
"c  c #A3A3C9",
"v  c #A6A6C9",
"b  c #A9A9CB",
"n  c #AFAFC9",
"m  c #A9A9CD",
"M  c #ADADCE",
"N  c #B0B0C6",
"B  c #B0BCC3",
"V  c #B1B1C8",
"C  c #B3B3C9",
"Z  c #B5B5CA",
"A  c #B6B6CB",
"S  c #B3B3CE",
"D  c #B6B6CE",
"F  c #B8B8CC",
"G  c #B9B9CD",
"H  c #BABACE",
"J  c #B0B0D0",
"K  c #B3B3D2",
"L  c #BCBCD0",
"P  c #BEBED1",
"I  c #B9B9D7",
"U  c #BCBCD8",
"Y  c #B3CCC2",
"T  c #B7C0C9",
"R  c #BBD9C6",
"E  c #C1C1D3",
"W  c #C2C2D4",
"Q  c #C3C3D5",
"!  c #C4C4D5",
"~  c #C5C5D6",
"^  c #C7C7D7",
"/  c #C5C5DB",
"(  c #C9C9D9",
")  c #CACADA",
"_  c #CBCBDB",
"`  c #CCCCDB",
"'  c #CDCDDC",
"]  c #CFCFDD",
"[  c #CDCDDE",
"{  c #CFCFDF",
"}  c #D0D0DE",
"|  c #D8D8DF",
" . c #CACAE1",
".. c #CBCBE2",
"X. c #CFCFE4",
"o. c #D3D3E0",
"O. c #D4D4E1",
"+. c #D4D4E3",
"@. c #D7D7E3",
"#. c #D8D8E5",
"$. c #DADAE5",
"%. c #DBDBE6",
"&. c #D7D7E8",
"*. c #D8D8E9",
"=. c #DBDBE8",
"-. c #DBDBEB",
";. c #DCDCE8",
":. c #DDDDE8",
">. c #DEDEE8",
",. c #DFDFEA",
"<. c #DFDFED",
"1. c #E0E0E9",
"2. c #E2E2EB",
"3. c #E3E3EC",
"4. c #E2E2EE",
"5. c #E7E6ED",
"6. c #E4E4EF",
"7. c #E6E6EE",
"8. c #E5E5F1",
"9. c #E7E7F2",
"0. c #E9E9F0",
"q. c #EAEAF1",
"w. c #E9E9F2",
"e. c #EAEAF3",
"r. c #EDEDF3",
"t. c #EBEBF4",
"y. c #ECECF5",
"u. c #EEEEF6",
"i. c #F0F0F5",
"p. c #F0F0F7",
"a. c #F2F2F6",
"s. c #F4F4F7",
"d. c #F3F3F8",
"f. c #F4F4F8",
"g. c #F5F5F9",
"h. c #F8F8FB",
"j. c #FAFAFC",
"k. c #FCFCFD",
"l. c #FDFDFD",
"z. c #FDFDFE",
"x. c #FEFEFE",
"c. c gray100",
"v. c None",
/* pixels */
"v.v.v.v.v.v.v.v.v.v.v.v.v.v.v.v.v.v.v.v.v.v.v.v.v.v.v.v.v.v.v.v.v.v.v.v.v.v.v.v.v.v.v.v.v.v.v.v.v.v.v.v.v.v.v.v.v.v.v.v.v.v.v.v.v.v.v.v.v.v.v.v.v.v.v.v.v.v.v.v.",
"v.v.v.v.v.v.v.v.v.v.v.v.v.v.v.v.v.v.v.v.v.v.v.v.v.v.v.v.v.v.v.v.v.v.v.v.v.v.v.v.v.v.v.v.v.v.v.v.v.v.v.v.v.v.v.v.v.v.v.v.v.v.v.v.v.v.v.v.v.v.v.v.v.v.v.v.v.v.v.v.",
"v.v.v.v.v.v.v.v.v.v.v.v.v.v.v.v.v.v.v.v.v.v.v.v.v.v.v.v.v.v.v.v.v.v.v.v.v.v.v.v.v.v.v.v.v.v.v.v.v.v.v.v.v.v.v.v.v.v.v.v.v.v.v.v.v.v.v.v.v.v.v.v.v.v.v.v.v.v.v.v.",
"v.v.v.v.v.v.v.v.v.v.v.v.v.v.v.v.v.v.v.v.v.v.v.v.v.v.v.v.v.v.v.v.v.v.v.v.v.v.v.v.v.v.v.v.v.v.v.v.v.v.v.v.v.v.v.v.v.v.v.v.v.v.v.v.v.v.v.v.v.v.v.v.v.v.v.v.v.v.v.v.",
"v.v.v.v.v.v.v.v.v.v.v.v.v.v.v.v.v.v.v.v.v.v.v.v.v.v.v.v.v.v.v.v.v.v.v.v.v.v.v.v.v.v.v.v.v.v.v.v.v.v.v.v.v.v.v.v.v.v.v.v.v.v.v.v.v.v.v.v.v.v.v.v.v.v.v.v.v.v.v.v.",
"v.v.v.v.v.v.v.v.v.v.v.v.v.v.v.v.v.v.v.v.v.v.v.v.v.v.v.v.v.v.v.v.v.v.v.v.v.v.v.v.v.v.v.v.v.v.v.v.v.v.v.v.v.v.v.v.v.v.v.v.v.v.v.v.v.v.v.v.v.v.v.v.v.v.v.v.v.v.v.v.",
"v.v.v.v.v.v.v.v.v.v.v.v.v.v.v.v.v.v.v.v.v.v.v.v.v.v.v.v.v.v.v.v.v.v.v.v.v.v.v.v.v.v.v.v.v.v.v.v.v.v.v.v.v.v.v.v.v.v.v.v.v.v.v.v.v.v.v.v.v.v.v.v.v.v.v.v.v.v.v.v.",
"v.v.v.v.v.v.v.v.v.v.v.v.v.v.v.v.v.v.v.v.v.v.v.v.v.v.v.v.v.v.v.v.v.v.v.v.v.v.v.v.v.v.v.v.v.v.v.v.v.v.v.v.v.v.v.v.v.v.v.v.v.v.v.v.v.v.v.v.v.v.v.v.v.v.v.v.v.v.v.v.",
"v.v.v.v.v.v.v.v.v.v.v.v.v.v.v.v.v.v.v.v.v.v.v.v.v.v.v.v.v.v.v.v.v.v.v.v.v.v.v.v.v.v.v.v.v.v.v.v.v.v.v.v.v.v.v.v.v.v.v.v.v.v.v.v.v.v.v.v.v.v.v.v.v.v.v.v.v.v.v.v.",
"v.v.v.v.v.v.v.v.v.v.v.v.v.v.v.v.v.v.v.v.v.v.v.v.v.v.v.v.v.v.v.v.v.v.v.v.v.v.v.v.v.v.v.v.v.v.v.v.v.v.v.v.v.v.v.v.v.v.v.v.v.v.v.v.v.v.v.v.v.v.v.v.v.v.v.v.v.v.v.v.",
"v.v.v.v.v.v.v.v.v.v.v.v.v.v.v.v.v.v.v.v.v.v.v.v.v.v.v.v.v.v.v.v.v.v.v.v.v.v.v.v.v.v.v.v.v.v.v.v.v.v.v.v.v.v.v.v.v.v.v.v.v.v.v.v.v.v.v.v.v.v.v.v.v.v.v.v.v.v.v.v.",
"v.v.v.v.v.v.v.v.v.v.v.v.v.v.v.v.v.v.v.v.v.v.v.v.v.v.v.v.v.v.v.v.v.v.v.v.v.v.v.v.v.v.v.v.v.v.v.v.v.v.v.v.v.v.v.v.v.v.v.v.v.v.v.v.v.v.v.v.v.v.v.v.v.v.v.v.v.v.v.v.",
"v.v.v.v.v.v.v.v.v.v.v.v.v.v.v.v.v.v.v.v.v.v.v.v.v.v.v.v.v.v.v.v.v.v.v.v.v.v.v.v.v.v.v.v.v.v.v.v.v.v.v.v.v.v.v.v.v.v.v.v.v.v.v.v.v.v.v.v.v.v.v.v.v.v.v.v.v.v.v.v.",
"v.v.v.v.v.v.v.v.v.v.v.v.v.v.v.v.v.v.v.v.v.v.v.v.v.v.v.v.v.v.v.v.v.v.v.v.w z E E g s i i v.v.v.v.v.v.v.v.v.v.v.v.v.v.v.v.v.v.v.v.v.v.v.v.v.v.v.v.v.v.v.v.v.v.v.v.",
"v.v.v.v.v.v.v.v.v.v.v.v.v.v.v.v.v.v.v.v.v.v.v.v.v.v.v.v.v.v.v.v.v.v.v.i x ^ o.} ' ( E i i i m v.v.v.v.v.v.v.v.v.v.v.v.v.v.v.v.v.v.v.v.v.v.v.v.v.v.v.v.v.v.v.v.v.",
"v.v.v.v.v.v.v.v.v.v.v.v.v.v.v.v.v.v.v.v.v.v.v.v.v.v.v.v.v.v.v.v.v.v.v.i 3 N V H Q ` ] ' ' ^ P & m v.v.v.v.v.v.v.v.v.v.v.v.v.v.v.v.v.v.v.v.v.v.v.v.v.v.v.v.v.v.v.",
"v.v.v.v.v.v.v.v.v.v.v.v.v.v.v.v.v.v.v.v.v.v.v.v.v.v.v.v.v.v.v.v.v.v.i Q ^ ( o.` ` A A ~ ( @.3.$.` i m v.v.v.v.v.v.v.v.v.v.v.v.v.v.v.v.v.v.v.v.v.v.v.v.v.v.v.v.v.",
"v.v.v.v.v.v.v.v.v.v.v.v.v.v.v.v.v.v.v.v.v.v.v.v.v.v.v.v.v.v.v.v.v.v.i H ^ ^ } O.1.7.1.E N E ^ $.5.@.' h m v.v.v.v.v.v.v.v.v.v.v.v.v.v.v.v.v.v.v.v.v.v.v.v.v.v.v.",
"v.v.v.v.v.v.v.v.v.v.v.v.v.v.v.v.v.v.v.v.v.v.v.v.v.v.v.v.v.v.v.v.v.v.i w V x x H ^ >.3.0.2.E P ` @.7.7.:.^ m v.v.v.v.v.v.v.v.v.v.v.v.v.v.v.v.v.v.v.v.v.v.v.v.v.v.",
"v.v.v.v.v.v.v.v.v.v.v.v.v.v.v.v.v.v.v.v.v.v.v.v.v.v.v.v.v.v.v.v.v.v.i O.] ` ~ C z A ^ %.%.5.5.%.%.2.3.7.1.:.C v.v.v.v.v.v.v.v.v.v.v.v.v.v.v.v.v.v.v.v.v.v.v.v.v.",
"v.v.v.v.v.v.v.v.v.v.v.v.v.v.v.v.v.v.v.v.v.v.v.v.v.v.v.v.v.v.v.v.v.v.3 A ] :.5.:.O.( E ( $.2.3.7.7.7.7.7.7.5.%.t v.v.v.v.v.v.v.v.v.v.v.v.v.v.v.v.v.v.v.v.v.v.v.v.",
"v.v.v.v.v.v.v.v.v.v.v.v.v.v.v.v.v.v.v.v.v.v.v.v.v.v.v.v.v.v.v.v.v.v.* ; y H ^ :.0.0.2.>.7.7.7.7.1.%.O.@.1.5.%.T v.v.v.v.v.v.v.v.v.v.v.v.v.v.v.v.v.v.v.v.v.v.v.v.",
"v.v.v.v.v.v.v.v.v.v.v.v.v.v.v.v.v.v.v.v.v.v.v.v.v.v.v.v.v.v.v.v.v.i f s : : w C A @.7.5.@.G H o.E V N N P @.@.^ % v.v.v.v.v.v.v.v.1 I I I 1 1 v.v.v.v.v.v.v.v.v.",
"v.v.v.v.v.v.v.v.v.v.v.v.v.v.v.v.v.v.v.v.v.v.v.v.v.v.v.v.v.v.v.v.v.3 z x x ( @.H Q ` } } G O.Q A z ^ B r $ e x s v.v.v.v.v.v.I I 9.c.c.c.c.c.9.I 1 8 v.v.v.v.v.v.",
"v.v.v.v.v.v.v.v.v.v.v.v.v.v.v.v.v.v.v.v.v.v.v.v.v.v.v.v.v.v.v.v.v.: 3 y s s A o.5.@.C s o.] A 5.Y p v.v.v.  % v.v.v.v.I I 9.c.c.c.9.c.9.I c.I c.I 1 m 8 v.v.v.v.",
"v.v.v.v.v.v.v.v.v.v.v.v.v.v.v.v.v.v.v.v.v.v.v.v.v.v.v.v.v.v.v.v.v.3 G y 3 6 g u ~ q.r.' ] o.H Y v.v.v.v.v.v.v.v.c I 9.9.c.c.9.c.9.I c.I I 9.I 9.9.I ..m m 8 v.v.",
"v.v.v.v.v.v.v.v.v.v.v.v.v.v.v.v.v.v.v.v.v.v.v.v.v.v.v.v.v.v.v.v.v.2 7 s x P H H A G 5.j.7.0.O.p v.v.v.v.v.c I 9.9.c.c.c.9.c.I 9.I 1 9.1 m ....y.y.8 1 8 @ @ v.v.",
"v.v.v.v.v.v.v.v.v.v.v.v.v.v.v.v.v.v.v.v.v.v.v.v.v.v.v.v.v.v.v.v.v.: 7 A E ] :.%.%.E E o.h.g.q.>.R . v.c I 9.c.c.c.9.c.c.9.c.I 9.8 m 1 ..m y.y.m @ @ I 1 v.v.v.v.",
"v.v.v.v.v.v.v.v.v.v.v.v.v.v.v.v.v.v.v.v.8 8 8 m m 8 8 8 v.v.v.v.& x ^ ` :.3.x.l.l.3.@.C @.g.a.f.a._ S 9.c.c.c.9.c.9.c.9.I 9.I 1 m ....-...y.@ @ 1 9.9.I X v.v.v.",
"v.v.v.v.v.v.v.v.v.v.v.v.v.v.v.v.v.8 8 m ....-.y.y.y.-...m 9 a r ^ O.3.f.c.c.c.c.c.c.l.@.C 7.a.:.5.h.j.c.c.9.c.9.c.9.c.I I I m ..-.y.y.y.-...8 8 m 1 I @ v.v.v.v.",
"v.v.v.v.v.v.v.v.v.v.v.v.v.v.8 8 m ....-.y.c.c.c.c.c.c.6._ l E o.q.c.c.c.c.c.c.c.g.f.q.r.o.V r.+./ 8.c.9.c.I c.9.9.I c.8 m 1 -.y.y.y...y.y.....-.-...1 8 v.v.v.v.",
"v.v.v.v.v.v.v.v.v.v.v.v.8 8 m m ..y.y.c.c.c.c.c.c.c.i.V H $.5.c.c.c.c.c.c.c.f.o.z s N Q E H a.w.J I c.I 9.I 9.I X.m I m ..-.y.y...8 y.y.y.m y.y.c.y...8 v.v.v.v.",
"v.v.v.v.v.v.v.v.v.I I I m ..y.y.y.y.c.c.c.c.c.c.h.%.G O.7.c.c.j.c.c.c.c.a.%.C u s u s N V ~ ,.u. .I 9.I 9.I I m I m 1 ....y.y...8 m -.y.y.m X 8 y.c.y...8 v.v.v.",
"v.v.v.v.v.v.v.I I c.9.9...-.y.y.y.c.c.c.c.c.c.z.~ Q >.a.h.i.g.j.c.c.h.$.G 3 3 x E @.G E ' L ^ d...I I 1 I m 1 m 1 m m ..-.y.-.m 8 m ..y.y.-.X 8 y.c.c.-.8 v.v.v.",
"v.v.v.v.v.v.I 9.c.c.9.I -.y.y.y.c.c.c.c.c.c.c.! ` 5.r.$.@.0.c.c.c.7.P 6 2 = 3 3.c.c.a.P H ^ ) =...I 1 m 1 ..m ..m -.....y.y...m 8 8 m ..-.-...m -.c.c.y.8 v.v.v.",
"v.v.v.v.v.I 9.c.c.9.1 m -.y.y.y.y.c.c.c.c.c.~ ( 7.$.' $.3.c.c.i.3.s ; : ; g 2.c.c.c.c.@.} G ! >.t.I m ..m -...-.y.-...-.y.-.m m m 8 8 8 m ....m ..y.c.c.m v.v.v.",
"v.v.v.v.I 9.c.c.c.I 8 m -.y.y.y.c.y.c.c.k.( ^ %.` $.2.7.h.c.a.` f ; ; : s g ( c.c.c.c.c.r.} ~ ! e.y...-...-.-.y.y.-...-.-...m m 8 8 @ X 8 8 m m m y.c.c...v.v.v.",
"v.v.v.v.I c.c.c.9.c 8 m -.y.y.y.t.l.c.c.O.P ~ A $.5.1.i.h.h.' 2 - 2 u x z f G h.c.z.z.k.o.j.9.$.z.y.-.-.-.-.y.y.y.-...-.-...m 8 @ X v.v.X X 8 m m y.c.c...8 v.v.",
"v.v.v.1 9.c.c.9.I c 8 ..-.y.y.y.z.9.c.y.%.N A @.7.:.o.i.r.] 3 : u H C g z s F 5.k.t.p.u.k.y.c.l.c.y.y.y.y.y.y.y.y.-...-...m 8 @ X v.v.v.v.v.X 8 m ..y.y.-.m v.v.",
"v.v.v.1 9.c.c.9.I 1 @ ..-.y.y.y.y.c.y.j.^ Q ] 0.` Q 3.r.O.5 ; C Q C g x x V O.d.u.-.y.y.y.c.y.c.c.y.y.y.y.y.y.y.y.....-...m @ X v.v.v.v.v.v.v.X m ..y.y.-.m v.v.",
"v.v.v.1 I 9.c.9.c 1 @ ..-.y.y.y.c.y.x.P P ` ] } A %.0.@.7 ; V E V g V H o.4.u.y.y.y.y.y.y.y.c.c.c.c.y.-.y.y.y.y.-.......m @ X v.v.v.v.v.v.v.v.X m m 8 -.-.@ v.v.",
"v.v.v.1 I 9.c.9.c | @ ..-.-.y.y.8.c.P H ^ ' ( A :.q.$.y ; V E P L L ! =.e.y.c.y.y.y.y.y.y.c.y.c.c.c.y.-.y.y.y.y.-.m ....m X v.v.v.v.v.v.v.v.v.v.@ m m m @ v.v.v.",
"v.v.v.v.1 9.c.c.v O.@ ..-.-.y.y.o.Z x Q ' ` ` :.0.%.y ; x E A z C ( 4.y.y.y.y.y.y.y.y.y.y.y.c.c.c.c.y.-.y.y.y.y.-.m ....8 X v.v.v.v.v.v.v.v.v.v.v.@ @ @ v.v.v.v.",
"v.v.v.v.1 I 9.s.D 5.@ ..-.-.y.9.%.L L Q ' A ] 7.:.u ; g A s s V ^ *.y.-.y.y.y.y.y.y.y.y.y.y.y.c.c.c.y.-.-.y.y.-...m ..m @ v.v.v.v.v.v.v.v.v.v.v.v.v.v.v.v.v.v.v.",
"v.v.v.v.v.c 9.=.G o.@ ....-.y.=.s f P Q G ~ @.@.s - s f A E Q :.4.-.-.y.-.y.y.y.y.y.y.y...y.c.c.c.c.c.-...-.y.&.m m ..8 > v.v.v.v.v.v.v.v.v.v.v.v.v.v.v.v.v.v.v.",
"v.v.v.v.v.v.c +.s Q @ m ..-.y.;.u N G N L $.$.P ; u A Q <.&.X...-.-.-.-.-.-.y.y.-.y.y.y...y.c.c.c.c.c.-...-.-.n M b m 8 v.v.v.v.v.v.v.v.v.v.v.v.v.v.v.v.v.v.v.v.",
"v.v.v.v.v.v.X #.u L c @ ..-.y.4.{ E C f ^ $.} 3 3 C / K m m ................-.-...-.y.-...y.y.c.c.c.c.y.......q e v m X v.v.v.v.v.v.v.v.v.v.v.v.v.v.v.v.v.v.v.v.",
"v.v.v.v.v.v.v.c [ 4 c X m -.y.4.` E V V o.$.H ; d U 0 8 m m m m m ..................-.....y.y.c.c.c.c.y.......m a m 8 X @ v.v.v.v.v.v.v.v.v.v.v.v.v.v.v.v.v.v.v.",
"v.v.v.v.v.v.v.X 9.k c X m -.y.4.^ C g E O.$.6 4 D O @ @ @ @ @ 8 8 8 m m ..........m ..m ..-.y.c.c.c.y.y.....m m m m @ @ @ v.v.v.v.v.v.v.v.v.v.v.v.v.v.v.v.v.v.v.",
"v.v.v.v.v.v.v.v.X I c X m -.y.,.F z x ~ ] G 2 W 9 > > > > > > X X @ @ 8 8 8 m m m 8 m m ..-.y.c.c.y.y.-.....m m m 8 X @ @ v.v.v.v.v.v.v.v.v.v.v.v.v.v.v.v.v.v.v.",
"v.v.v.v.v.v.v.v.X I I 8 m -.y.4.0.A x ] } y - , > > > > > > > v.v.v.v.X X @ @ 8 8 8 m m ....y.y.y.y.-.y...m 8 8 8 @ X @ @ v.v.v.v.v.v.v.v.v.v.v.v.v.v.v.v.v.v.v.",
"v.v.v.v.v.v.v.v.v.c I 8 ..-.y.=.G N N ` ^ 7 # > > > > > > > > v.v.v.v.v.v.v.X X 8 @ 8 m ....y.y.y.-.y.-...m 8 8 @ X > @ @ v.v.v.v.v.v.v.v.v.v.v.v.v.v.v.v.v.v.v.",
"v.v.v.v.v.v.v.v.v.X 8 m ..-.t.} j 6 x H x 6 # v.> > > > > > > v.v.v.v.v.v.v.v.v.X @ @ 8 m ..-.y.y.y.-...m m @ X X > > > @ v.v.v.v.v.v.v.v.v.v.v.v.v.v.v.v.v.v.v.",
"v.v.v.v.v.v.v.v.v.X m ....-.t.y.-.D f 7 6 # v.v.> > > > > > v.v.v.v.v.v.v.v.v.v.v.v.X @ m ..-.y.y.-.y...m 8 X v.> > > > @ v.v.v.v.v.v.v.v.v.v.v.v.v.v.v.v.v.v.v.",
"v.v.v.v.v.v.v.v.@ m ......y.y.-.....b < # v.v.v.v.> > > > > v.v.v.v.v.v.v.v.v.v.v.v.X @ 8 ..-.-.y.-...m m X v.v.> > > > > > v.v.v.v.v.v.v.v.v.v.v.v.v.v.v.v.v.v.",
"v.v.v.v.v.v.v.v.@ m -.y.-.y.-...m m 8 @ v.v.v.v.v.> > > > > > v.v.v.v.v.v.v.v.v.v.v.v.X 8 ..-.-.-.....m X v.v.v.> > > > > > v.v.v.v.v.v.v.v.v.v.v.v.v.v.v.v.v.v.",
"v.v.v.v.v.v.v.v.@ -.-.y.y.....m 8 @ v.v.v.v.v.v.v.v.> > > > > v.v.v.v.v.v.v.v.v.v.v.v.o 8 ....-.-...m X v.v.v.v.v.> > > > > v.v.v.v.v.v.v.v.v.v.v.v.v.v.v.v.v.v.",
"v.v.v.v.v.v.v.@ m -.-.y.....m 8 @ v.v.v.v.v.v.v.v.v.> > > > > v.v.v.v.v.v.v.v.v.v.v.v.@ m ..........m X v.v.v.v.v.v.> > > > > v.v.v.v.v.v.v.v.v.v.v.v.v.v.v.v.v.",
"v.v.v.v.v.v.v.@ m ........m @ v.v.v.v.v.v.v.v.v.v.v.v.> > > > > v.v.v.v.v.v.v.v.v.v.v.@ m ........m X v.v.v.v.v.v.v.> > > > > v.v.v.v.v.v.v.v.v.v.v.v.v.v.v.v.v.",
"v.v.v.v.v.v.@ m ......m m @ v.v.v.v.v.v.v.v.v.v.v.v.v.> > > > > > v.v.v.v.v.v.v.v.v.v.@ m m ....m @ v.v.v.v.v.v.v.v.> > > > > > v.v.v.v.v.v.v.v.v.v.v.v.v.v.v.v.",
"v.v.v.v.v.v.@ m ....m m @ v.v.v.v.v.v.v.v.v.v.v.v.v.v.v.> > > > > > v.v.v.v.v.v.v.v.@ 8 m ....m 8 X v.v.v.v.v.v.v.v.> > > > > > > v.v.v.v.v.v.v.v.v.v.v.v.v.v.v.",
"v.v.v.v.v.v.@ m ....m m @ v.v.v.v.v.v.v.v.v.v.v.v.v.v.v.> > > > > > v.v.v.v.v.v.v.v.@ 8 m ....m @ v.v.v.v.v.v.v.v.v.v.> > > > > > v.v.v.v.v.v.v.v.v.v.v.v.v.v.v.",
"v.v.v.v.v.v.@ ....m m @ v.v.v.v.v.v.v.v.v.v.v.v.v.v.v.v.v.> > > > v.v.v.v.v.v.v.v.v.@ 8 m m m 8 X v.v.v.v.v.v.v.v.v.v.> > > > > v.v.v.v.v.v.v.v.v.v.v.v.v.v.v.v.",
"v.v.v.v.v.@ m ....m m @ v.v.v.v.v.v.v.v.v.v.v.v.v.v.v.v.v.v.> > > > v.v.v.v.v.v.v.@ 8 8 8 m 8 @ v.v.v.v.v.v.v.v.v.v.v.v.> > > > v.v.v.v.v.v.v.v.v.v.v.v.v.v.v.v.",
"v.v.v.v.v.@ m ....m m @ v.v.v.v.v.v.v.v.v.v.v.v.v.v.v.v.v.v.> > > > v.v.v.v.v.v.v.@ m m 8 8 8 X v.v.v.v.v.v.v.v.v.v.v.v.> > > > > v.v.v.v.v.v.v.v.v.v.v.v.v.v.v.",
"v.v.v.v.@ m -.....m @ v.v.v.v.v.v.v.v.v.v.v.v.v.v.v.v.v.v.v.v.v.v.v.v.v.v.v.v.v.@ 8 m m m m @ v.v.v.v.v.v.v.v.v.v.v.v.v.> > > > > v.v.v.v.v.v.v.v.v.v.v.v.v.v.v.",
"v.v.v.v.@ m -.-.-...@ v.v.v.v.v.v.v.v.v.v.v.v.v.v.v.v.v.v.v.v.v.v.v.v.v.v.v.v.v.@ m m m m 8 X v.v.v.v.v.v.v.v.v.v.v.v.v.v.v.v.v.v.v.v.v.v.v.v.v.v.v.v.v.v.v.v.v.",
"v.v.v.v.+ @ m y.y.y.@ v.v.v.v.v.v.v.v.v.v.v.v.v.v.v.v.v.v.v.v.v.v.v.v.v.v.v.v.@ 8 ..m m 8 @ v.v.v.v.v.v.v.v.v.v.v.v.v.v.v.v.v.v.v.v.v.v.v.v.v.v.v.v.v.v.v.v.v.v.",
"v.v.v.v.v.+ @ m ..-...@ v.v.v.v.v.v.v.v.v.v.v.v.v.v.v.v.v.v.v.v.v.v.v.v.v.v.v.@ ........8 @ v.v.v.v.v.v.v.v.v.v.v.v.v.v.v.v.v.v.v.v.v.v.v.v.v.v.v.v.v.v.v.v.v.v.",
"v.v.v.v.v.+ I 1 1 m m @ v.v.v.v.v.v.v.v.v.v.v.v.v.v.v.v.v.v.v.v.v.v.v.v.v.v.v.@ 8 ..y...8 @ v.v.v.v.v.v.v.v.v.v.v.v.v.v.v.v.v.v.v.v.v.v.v.v.v.v.v.v.v.v.v.v.v.v.",
"v.v.v.v.v.v.I 9.c.9.I 1 v.v.v.v.v.v.v.v.v.v.v.v.v.v.v.v.v.v.v.v.v.v.v.v.v.v.v.v.8 8 @ @ @ X v.v.v.v.v.v.v.v.v.v.v.v.v.v.v.v.v.v.v.v.v.v.v.v.v.v.v.v.v.v.v.v.v.v.",
"v.v.v.v.v.v.+ I c.c.9.1 v.v.v.v.v.v.v.v.v.v.v.v.v.v.v.v.v.v.v.v.v.v.v.v.v.v.v.v.1 I I 9.c.I v.v.v.v.v.v.v.v.v.v.v.v.v.v.v.v.v.v.v.v.v.v.v.v.v.v.v.v.v.v.v.v.v.v.",
"v.v.v.v.v.v.v.+ I c.c.I 1 v.v.v.v.v.v.v.v.v.v.v.v.v.v.v.v.v.v.v.v.v.v.v.v.v.v.v.1 I 9.9.c.c.I v.v.v.v.v.v.v.v.v.v.v.v.v.v.v.v.v.v.v.v.v.v.v.v.v.v.v.v.v.v.v.v.v.",
"v.v.v.v.v.v.v.v.1 1 1 1 1 v.v.v.v.v.v.v.v.v.v.v.v.v.v.v.v.v.v.v.v.v.v.v.v.v.v.v.v.1 1 1 1 1 I v.v.v.v.v.v.v.v.v.v.v.v.v.v.v.v.v.v.v.v.v.v.v.v.v.v.v.v.v.v.v.v.v.",
"v.v.v.v.v.v.v.v.v.v.v.v.v.v.v.v.v.v.v.v.v.v.v.v.v.v.v.v.v.v.v.v.v.v.v.v.v.v.v.v.v.v.v.v.v.v.v.v.v.v.v.v.v.v.v.v.v.v.v.v.v.v.v.v.v.v.v.v.v.v.v.v.v.v.v.v.v.v.v.v.",
"v.v.v.v.v.v.v.v.v.v.v.v.v.v.v.v.v.v.v.v.v.v.v.v.v.v.v.v.v.v.v.v.v.v.v.v.v.v.v.v.v.v.v.v.v.v.v.v.v.v.v.v.v.v.v.v.v.v.v.v.v.v.v.v.v.v.v.v.v.v.v.v.v.v.v.v.v.v.v.v.",
"v.v.v.v.v.v.v.v.v.v.v.v.v.v.v.v.v.v.v.v.v.v.v.v.v.v.v.v.v.v.v.v.v.v.v.v.v.v.v.v.v.v.v.v.v.v.v.v.v.v.v.v.v.v.v.v.v.v.v.v.v.v.v.v.v.v.v.v.v.v.v.v.v.v.v.v.v.v.v.v.",
"v.v.v.v.v.v.v.v.v.v.v.v.v.v.v.v.v.v.v.v.v.v.v.v.v.v.v.v.v.v.v.v.v.v.v.v.v.v.v.v.v.v.v.v.v.v.v.v.v.v.v.v.v.v.v.v.v.v.v.v.v.v.v.v.v.v.v.v.v.v.v.v.v.v.v.v.v.v.v.v.",
"v.v.v.v.v.v.v.v.v.v.v.v.v.v.v.v.v.v.v.v.v.v.v.v.v.v.v.v.v.v.v.v.v.v.v.v.v.v.v.v.v.v.v.v.v.v.v.v.v.v.v.v.v.v.v.v.v.v.v.v.v.v.v.v.v.v.v.v.v.v.v.v.v.v.v.v.v.v.v.v.",
"v.v.v.v.v.v.v.v.v.v.v.v.v.t v.v.v.v.v.v.v.v.v.v.v.v.v.v.v.v.v.v.v.v.v.v.v.v.v.v.v.v.v.v.v.v.v.v.v.v.v.v.v.v.v.v.v.v.v.v.v.v.v.v.v.t v.v.v.v.v.v.v.v.v.v.v.v.v.v."
};
