/* XPM */
static char *pegright_[] = {
/* columns rows colors chars-per-pixel */
"80 80 134 2",
"   c #5EAD73",
".  c #55558E",
"X  c #595990",
"o  c #66669D",
"O  c #75759A",
"+  c #7B7BAE",
"@  c #73AC89",
"#  c #828D9F",
"$  c #86B89A",
"%  c #8989A7",
"&  c #8C8CAA",
"*  c #8E8EAD",
"=  c #8B9CA5",
"-  c #9293AE",
";  c #8E8EBB",
":  c #9595B1",
">  c #9797B3",
",  c #9898B4",
"<  c #9999B5",
"1  c #9A9AB6",
"2  c #9D9DB7",
"3  c #9191BD",
"4  c #9393BE",
"5  c #9E9EB8",
"6  c #94AEAB",
"7  c #97A2B0",
"8  c #A0A1BA",
"9  c #A3A3BD",
"0  c #A4ABBC",
"q  c #A7ADBE",
"w  c #A3BAB6",
"e  c #9E9EC1",
"r  c #A8A8C0",
"t  c #A9ABC1",
"y  c #AAAAC2",
"u  c #ABABC3",
"i  c #AEAEC4",
"p  c #AFAFC6",
"a  c #A3A3C9",
"s  c #A6A6C9",
"d  c #A9A9CD",
"f  c #ADADCE",
"g  c #ACB3C1",
"h  c #B0B0C6",
"j  c #B0BCC3",
"k  c #B1B1C8",
"l  c #B3B3C9",
"z  c #B6B6CB",
"x  c #B6BBC9",
"c  c #B8B8CC",
"v  c #B9B9CD",
"b  c #B9BBCC",
"n  c #B9B9CF",
"m  c #BABACE",
"M  c #BABDCE",
"N  c #B7B7D5",
"B  c #B9B9D1",
"V  c #BCBCD0",
"C  c #BEBED1",
"Z  c #BDBDD2",
"A  c #BEBED2",
"S  c #B9B9D7",
"D  c #BFBFD7",
"F  c #B7C0C9",
"G  c #C1C1D3",
"H  c #C2C2D4",
"J  c #C3C3D5",
"K  c #C4C4D5",
"L  c #C5C5D6",
"P  c #C7C7D7",
"I  c #C2C9D2",
"U  c #C5C5DB",
"Y  c #C9C9D9",
"T  c #CACADA",
"R  c #CBCBDB",
"E  c #CCCCDB",
"W  c #C8C8DE",
"Q  c #CDCDDC",
"!  c #CFCFDD",
"~  c #CDCDDE",
"^  c #CFCFDF",
"/  c #D0D0DE",
"(  c #CACAE1",
")  c #CBCBE2",
"_  c #CECEE1",
"`  c #CFCFE4",
"'  c #D3D3E0",
"]  c #D4D4E1",
"[  c #D7D7E3",
"{  c #D8D8E5",
"}  c #DADAE5",
"|  c #D9D9E6",
" . c #DBDBE6",
".. c #DCDCE7",
"X. c #DBDBE8",
"o. c #DADAEA",
"O. c #DBDBEB",
"+. c #DCDCE8",
"@. c #DDDDE8",
"#. c #DEDEE8",
"$. c #DFDFEA",
"%. c #DBE4E4",
"&. c #E0E0E9",
"*. c #E0E0EB",
"=. c #E2E2EB",
"-. c #E1E1EC",
";. c #E3E3EC",
":. c #E2E2EE",
">. c #E7E6ED",
",. c #E4E4EF",
"<. c #E6E6EE",
"1. c #E5E5F1",
"2. c #E7E7F1",
"3. c #E7E7F2",
"4. c #E9E9F0",
"5. c #EAEAF1",
"6. c #E9E9F2",
"7. c #EAEAF3",
"8. c #EDEDF3",
"9. c #EBEBF4",
"0. c #ECECF5",
"q. c #EDEDF5",
"w. c #EFEFF5",
"e. c #F0F0F5",
"r. c #F0F0F7",
"t. c #F2F2F6",
"y. c #F5F5F9",
"u. c #F8F8FB",
"i. c #FAFAFC",
"p. c #FCFCFD",
"a. c #FDFDFD",
"s. c #FEFEFE",
"d. c gray100",
"f. c None",
/* pixels */
"f.f.f.f.f.f.f.f.f.f.f.f.f.7 f.f.f.f.f.f.f.f.f.f.f.f.f.f.f.f.f.f.f.f.f.f.f.f.f.f.f.f.f.f.f.f.f.f.f.f.f.f.f.f.f.f.f.f.f.f.f.f.f.f.f.7 f.f.f.f.f.f.f.f.f.f.f.f.f.f.",
"f.f.f.f.f.f.f.f.f.f.f.f.$ ;.=.$ w w w w $ f.f.f.f.f.f.f.f.f.f.f.f.f.f.f.f.f.f.f.f.f.f.f.f.f.f.f.f.f.f.f.f.f.f.f.f.f.f.f.f.f.f.f.E t.0 f.f.f.f.f.f.f.f.f.f.f.f.f.",
"f.f.f.f.f.f.f.f.f.f.f.f.f.f.$ ] [ >.d.d.#.%.I q f.f.f.f.f.f.f.f.g g j j j g f.f.f.f.f.f.f.f.f.f.f.f.f.f.f.f.f.f.f.f.f.f.f.f.f.f.f.f.f.f.f.f.f.f.f.f.f.f.f.f.f.f.",
"f.f.f.f.f.f.f.f.f.f.f.f.f.f.f.C J &.d.a.d.d.u.;.=.G z f.f.f.f.z Y ;.>.>.>.} V m l f.f.f.f.f.f.f.f.f.f.f.f.f.f.f.f.f.f.f.f.f.f.f.f.f.f.f.f.f.f.f.f.f.f.f.f.f.f.f.",
"f.f.f.f.f.f.f.f.f.f.f.f.f.f.f.f.f.9 z k / u.i.i.d.d.8. .Q b f.8 G @.} } &.4.4.;.} E v z f.f.f.f.f.f.f.f.f.f.f.f.f.f.f.f.f.f.f.f.f.f.f.f.f.f.f.f.f.f.f.f.f.f.f.f.",
"f.f.f.f.f.f.f.f.f.f.f.f.f.f.f.f.f.f.> > > r k [ e.y.a.d.d.t.@./ z l E Y ! [ ;.<.<.4.#. .P V $ f.f.f.f.f.f.f.f.f.f.f.f.f.f.f.f.f.f.f.f.f.f.f.f.f.f.f.f.f.f.f.f.f.",
"f.f.f.f.f.f.f.f.f.f.f.f.f.f.f.f.f.$ P L i 2 9 9 8 G &.8.8.d.d.d.8.Y h m ! Y / [ <.<.<.>.<.#.} G f.f.f.f.f.f.f.f.f.f.f.f.f.f.f.f.f.f.f.f.f.f.f.f.f.f.f.f.f.f.f.f.",
"f.f.f.f.f.f.f.f.f.f.f.f.f.f.f.f.= Q ! Q P Y C 9 9 r > r Q @.8.d.d.d.8.L p J Y E / ! #.<.<.<.>.=.} M $ f.f.f.f.f.f.f.f.f.f.f.f.f.f.f.f.f.f.f.f.f.f.f.f.f.f.f.f.f.",
"f.f.f.f.f.f.f.f.f.f.f.f.f.f.f.f.- v E Q ! ! E E z p r 1 1 8 z  .u.d.d.d.4.V k P E Y Q ! =.;.;.<.<.;.[ j 6 f.f.f.f.f.f.f.f.f.f.f.f.f.f.f.f.f.f.f.f.f.f.f.f.f.f.f.",
"f.f.f.f.f.f.f.f.f.f.f.f.f.f.f.f.f.@ 7 m P P Y ! Q Y k u u u 1 2 C } a.d.d.d.#.l P Q E E Y ] ;.<.;.;.;.<./ $ f.f.f.f.f.f.f.f.f.f.f.f.f.f.f.f.f.f.f.f.f.f.f.f.f.f.",
"f.f.f.f.f.f.f.f.f.f.f.f.f.f.f.f.f.f.f.f.5 2 p L G J V u i i y 8 > 8 G  .d.d.d. .k P Q E E Y [ @.<.<.;.;.<.! $ f.f.f.f.f.f.f.f.f.f.f.f.f.f.f.f.f.f.f.f.f.f.f.f.f.",
"f.f.f.f.f.f.f.f.f.f.f.f.f.f.f.f.f.f.f.f.7 > 8 u u y u i i i i h r < > 9 C 8.d.d.[ k Y Q E E Y Y [  .<.;.<.=.G f.f.f.f.f.f.f.f.f.f.f.f.f.f.f.f.f.f.f.f.f.f.f.f.f.",
"f.f.f.f.f.f.f.f.f.f.f.f.f.f.f.f.@ J G G J L C p y u i i i i i i p r 1 < * 5 8.d.d.] l E E E E E [ @.;.<.>.;.G f.f.f.f.f.f.f.f.f.f.f.f.f.f.f.f.f.f.f.f.f.f.f.f.f.",
"f.f.f.f.f.f.f.f.f.f.f.f.f.f.f.f.8 ' ! ! ! ! E P J z u i i i i i i i r < 2 : 9 t.d.d./ l E E E E <.<.<.[ / v f.f.f.f.f.f.f.f.f.f.f.f.f.f.f.f.f.f.f.f.f.f.f.f.f.f.",
"f.f.f.f.f.f.f.f.f.f.f.f.f.f.f.f.f.- p G Y E E Q Q E L l u i u k L P m u 9 < - r u.d.d.Q z ! E E ;.@.! x w f.f.f.f.f.f.f.f.f.f.f.f.f.f.f.f.f.f.f.f.f.f.f.f.f.f.f.",
"f.f.f.f.f.f.f.f.f.f.f.f.f.f.f.f.f.f.f.@ t m L E E Q Q Q G p i i z Y ! P v 8 > > #.d.d.u.l E Y &.#.Q j f.f.f.f.f.f.f.f.f.f.f.f.f.f.f.f.f.f.f.f.f.f.f.f.f.f.f.f.f.",
"f.f.f.f.f.f.f.f.f.f.f.f.f.f.f.f.f.f.f.f.# - 8 h m P P P E J p u u z L E / V 9 - y d.d.d.P z Q  .! F f.f.f.f.f.f.f.f.f.f.f.f.f.f.f.f.f.f.f.f.f.f.f.f.f.f.f.f.f.f.",
"f.f.f.f.f.f.f.f.f.f.f.f.f.f.f.f.f.f.@ r r r 9 i k V V V L P V h i u u v L ! P 2 5 @.a.u.Y z ! Y j f.f.f.f.f.f.f.f.f.f.f.f.f.f.f.f.f.f.f.f.f.f.f.f.f.f.f.f.f.f.f.",
"f.f.f.f.f.f.f.f.f.f.f.f.f.f.f.f.f.f.p ' ' ' ' Y P P G V V V G v u i u y p v Q v < v 4.[ C J Q E w f.f.f.f.f.f.f.f.f.f.f.f.f.f.f.f.f.f.f.f.f.f.f.f.f.f.f.f.f.f.f.",
"f.f.f.f.f.f.f.f.f.f.f.f.f.f.f.f.f.f.@ C P P ! Q Q ! E P G C G z u u z l y y z G > V 5./ h / E x f.f.f.f.f.f.f.f.f.f.f.f.f.f.f.f.f.f.f.f.f.f.f.f.f.f.f.f.f.f.f.f.",
"f.f.f.f.f.f.f.f.f.f.f.f.f.f.f.f.f.f.f.$ 2 k l k G G G J C C C C p G E Y G p y p h [ #.v P E Q g f.f.f.f.f.f.f.f.f.f.f.f.f.f.f.f.f.f.f.f.f.f.f.f.f.f.f.f.f.f.f.f.",
"f.f.f.f.f.f.f.f.f.f.f.f.f.f.f.f.f.f.f.f.f.: - p G C C C C G G G k m E Q Q G i i J ] a.z Q E E w f.f.f.f.f.f.f.f.f.f.f.f.f.f.f.f.; S S S ; ; f.f.f.f.f.f.f.f.f.f.",
"f.f.f.f.f.f.f.f.f.f.f.f.f.f.f.f.f.f.f.f.f.2 Y ! Q E E E E E Q P G k v P Q ! G k P y.;.Y E ! z f.f.f.f.f.f.f.f.f.f.f.f.f.f.S S 3.d.d.d.d.d.3.S ; 3 f.f.f.f.f.f.f.",
"f.f.f.f.f.f.f.f.f.f.f.f.f.f.f.f.f.f.f.f.f.@ V P Y Q Q E E E E Q ! P z h C L v l [ d.G P E ! z f.f.f.f.f.f.f.f.f.f.f.S S 3.d.d.d.3.d.3.S d.S d.S ; d 3 f.f.f.f.f.",
"f.f.f.f.f.f.f.f.f.f.f.f.f.f.f.f.f.f.f.f.f.f.@ 8 i J P Y ! Q E L L P P C p y u L 4.d.C P E / v f.f.f.f.f.f.f.f.a S 3.3.d.d.3.d.3.S d.S S 3.S 3.3.S ) d d 3 f.f.f.",
"f.f.f.f.f.f.f.f.f.f.f.f.f.f.f.f.f.f.f.f.f.f.f.@ % > 9 z z G G m V V V z k u z Y y.d.[ P Q L f.f.f.f.f.f.a S 3.3.d.d.d.3.d.S 3.S ; 3.; d ) ) 0.0.3 ; 3 + + f.f.f.",
"f.f.f.f.f.f.f.f.f.f.f.f.f.f.f.f.f.f.f.f.f.f.f.= u i p V G P P P P P k u i i V / d.d.Y E Q V f.f.f.f.a S 3.d.d.d.3.d.d.3.d.S 3.3 d ; ) d 0.0.d + + S ; f.f.f.f.f.",
"f.f.f.f.f.f.f.f.f.f.f.f.f.f.f.f.f.f.f.f.f.f.f.8 G G G P ! Q Q Q Q E i i i u V #.d.#.z E Q C f.f.a S 3.d.s.d.3.d.3.d.3.S 3.S ; d ) ) O.) 0.+ + ; 3.3.S . f.f.f.f.",
"f.f.f.f.f.f.f.f.f.f.f.f.f.f.f.f.f.f.f.f.f.f.f.f.9 i m G V m v m V C p i i 8 u 8.d.;.- 8 ] m s S d.d.p.L c d.3.d.3.d.S S S d ) O.0.0.0.O.) 3 3 d ; S + f.f.f.f.f.",
"f.f.f.f.f.f.f.f.f.f.f.f.f.f.f.f.f.f.3 3 d d 3 3 &   @ 9 5 5 8 r h m V h k 8 i d.d.8.9 P [ G W -.X.8.K { U d.3.3.S d.3 d ; O.0.0.0.) 0.0.) ) O.O.) ; 3 f.f.f.f.f.",
"f.f.f.f.f.f.f.f.f.f.f.f.f.f.f.3 3 d ) O.0.0.0.O.) d e & u z G G G C C G J 9 i d.d.d.i 5 p Y ;.#.C u T $.N 3.S ` d S d ) O.0.0.) 3 0.0.0.d 0.0.d.0.) 3 f.f.f.f.f.",
"f.f.f.f.f.f.f.f.f.f.f.f.f.3 d ) O.0.d.d.d.d.d.d.0._ 9 z G J G G J G C C G 9 9 s.d.d.h 2 r 8 v ;.t...U 1.S S d S d ; ) ) 0.0.) 3 d O.0.0.d . 3 0.d.0.) 3 f.f.f.f.",
"f.f.f.f.f.f.f.f.f.f.f.3 d ) O.0.d.d.d.d.d.d.d.d.d.1.9 > 9 y r 9 2 p C C G 9 > 4.d.d.#.h ] ] G h | O.4 S d ; d ; d d ) O.0.O.d 3 d ) 0.0.O.. 3 0.d.d.O.3 f.f.f.f.",
"f.f.f.f.f.f.f.f.f.f.3 d ) O.0.d.d.d.d.d.d.d.d.d.d.0.( U , & * > u v C C G 9 > P d.d.d.p V P &.&.;.f d ; ) d ) d O.) ) 0.0.) d 3 3 d ) O.O.) d O.d.d.0.3 f.f.f.f.",
"f.f.f.f.f.f.f.f.f.S S ) O.0.d.d.d.d.d.d.d.d.d.d.d.O.O.0.y.$.[ 5 L G G V C V 1 9 8.d.d.] r i l / -.N ) d O.) O.0.O.) O.0.O.d d d 3 3 3 d ) ) d ) 0.d.d.d f.f.f.f.",
"f.f.f.f.f.f.f.S S 3.3.O.0.d.d.d.0.d.d.d.d.d.d.d.0.O.0.0.0.d.{ 5 z z z i z J 8 > Y d.d.d.P l Q C n _ O.) O.O.0.0.O.) O.O.) d d 3 3 + . 3 3 d d d 0.d.d.) f.f.f.f.",
"f.f.f.f.f.f.S 3.d.d.3.O.0.0.d.0.d.0.d.d.d.d.d.d.0.O.0.0.0.0.0.H > < r z G m p 1 r 4.d.d.d.J / C A ^ O.O.O.0.0.0.O.) O.O.) d 3 + . f.f.. . 3 d d 0.d.d.) 3 f.f.f.",
"f.f.f.f.f.S 3.d.d.3.d O.0.d.0.d.0.d.d.d.d.d.d.d.0.0.0.0.0.0.0.C 2 u m z z p i u 8 k d.d.d.d.4.! L E 6.0.0.0.0.0.O.) O.) d 3 + . f.f.f.f.f.. 3 d ) 0.0.O.d f.f.f.",
"f.f.f.f.S 3.d.d.3.; d O.0.0.0.0.d.0.d.d.d.d.d.d.0.0.0.0.0.0.0.Z - > 5 y r y u i p 9 &.d.d.d.d.@.L ^ X.0.0.0.0.0.) d O.) d + . f.f.f.f.f.f.f.. d ) 0.0.O.d f.f.f.",
"f.f.f.S 3.d.d.d.S 3 d O.0.0.0.0.0.d.0.d.0.d.d.d.0.0.0.0.0.0.0.~ 9 h h m J G v u i i l <.d.d.d.a.Y c ! 2.0.0.0.O.) d ) d + . f.f.f.f.f.f.f.f.. d d 3 O.O.+ f.f.f.",
"f.f.f.S d.d.d.3.a 3 ) O.0.0.0.0.0.0.0.0.0.d.d.d.0.O.0.0.0.0.-.G G R ! Q ! Q Y V z u y ] d.d.d.d.5.] K { 0.0.0.O.d d ) d . f.f.f.f.f.f.f.f.f.f.+ d d d + f.f.f.f.",
"f.f.; 3.d.d.d.S a 3 ) O.0.0.0.0.0.0.0.0.0.0.d.d.0.O.0.0.0.7.$.;.,.:.$.*.] / Q P z u u l d.d.s.d.d.w.,.` 0.0.0.O.d d d + f.f.f.f.f.f.f.f.f.f.f.f.+ + + f.f.f.f.f.",
"f.f.; d.d.d.d.S ; + ) O.O.0.0.0.0.0.0.0.0.0.d.d.O.) O.0.O.0.0.0.0.0.9.7.1.+./ G i h h v 8.i.d.d.s.s.0.) O.0.0.) d d 3 . f.f.f.f.f.f.f.f.f.f.f.f.f.f.f.f.f.f.f.f.",
"f.f.S d.3.d.d.a ; + ) O.O.0.0.0.0.0.0.O.O.O.d.0.O.d O.O.0.O.0.O.0.0.0.0.0.9.2.| Y B L :.r.q.0.d.d.d.0.O.) 0.O.d d d + f.f.f.f.f.f.f.f.f.f.f.f.f.f.f.f.f.f.f.f.f.",
"f.f.a d.3.d.d.a f.+ ) O.) 0.0.0.0.0.0.) ) 0.d.0.) d ) ) O.0.O.0.O.0.O.0.0.0.0.0.o.d 7.0.0.O.0.d.d.d.d.O.) O.) d d d . f.f.f.f.f.f.f.f.f.f.f.f.f.f.f.f.f.f.f.f.f.",
"f.f.a 3.3.d.d.a f.. 3 O.) 0.0.0.0.0.0.) ) 0.d.0.d d d ) ) O.O.O.O.O.0.O.0.0.0.O.) d 0.0.0.O.0.d.d.d.d.0.d ) d d d 3 . f.f.f.f.f.f.f.f.f.f.f.f.f.f.f.f.f.f.f.f.f.",
"f.f.; S 3.3.d.; f.. + O.) O.0.0.0.0.0.) O.d.0.O.d d d d ) ) ) O.O.O.O.O.O.O.O.) d d O.0.O.O.0.0.d.d.d.0.d ) d d d + f.f.f.f.f.f.f.f.f.f.f.f.f.f.f.f.f.f.f.f.f.f.",
"f.f.o a 3.3.3.; f.f.+ O.) ) 0.0.0.0.0.) 0.d.0.O.d 3 d ) d ) d ) d ) ) ) ) ) ) ) d 3 ) O.) ) 0.0.d.d.d.0.) d 3 d 3 . f.f.f.f.f.f.f.f.f.f.f.f.f.f.f.f.f.f.f.f.f.f.",
"f.f.o ; 3.3.3.o f.f.. d O.) 0.0.0.0.0.O.0.0.0.) d 3 3 d d d ) d ) d ) d ) d ) ) d 3 d ) ) ) O.0.d.d.0.0.O.d 3 d 3 . f.f.f.f.f.f.f.f.f.f.f.f.f.f.f.f.f.f.f.f.f.f.",
"f.f.f.o d.3.3.o f.f.. + O.) O.0.0.0.0.0.0.0.O.) d . . + + + 3 3 3 d d ) d ) d ) d 3 3 d ) ) O.0.0.0.0.O.) d 3 3 + f.f.f.f.f.f.f.f.f.f.f.f.f.f.f.f.f.f.f.f.f.f.f.",
"f.f.f.o d.3.S . f.f.f.. ) ) ) 0.0.0.0.0.0.0.) ) + f.f.f.f.f.. . + + 3 3 3 d d d d 3 3 d ) d ) 0.0.0.O.0.) d + 3 . f.f.f.f.f.f.f.f.f.f.f.f.f.f.f.f.f.f.f.f.f.f.f.",
"f.f.f.; d.3.S . f.f.f.. ) O.) 0.0.0.0.0.0.O.) d + f.f.f.f.f.f.f.f.f.. . . + + 3 d 3 + 3 d d ) 0.0.O.0.O.) d + + f.f.f.f.f.f.f.f.f.f.f.f.f.f.f.f.f.f.f.f.f.f.f.f.",
"f.f.; S d.3.; f.f.f.f.. d O.) 0.0.0.0.0.O.) ) + f.f.f.f.f.f.f.f.f.f.f.f.f.f.f.. . . + + 3 d ) O.0.0.O.) d d + f.f.f.f.f.f.f.f.f.f.f.f.f.f.f.f.f.f.f.f.f.f.f.f.f.",
"f.f.; d.d.S . f.f.f.f.f.. ) O.0.0.0.0.O.) ) + f.f.f.f.f.f.f.f.f.f.f.f.f.f.f.f.f.f.f.f.. + 3 ) O.0.O.0.O.d d . f.f.f.f.f.f.f.f.f.f.f.f.f.f.f.f.f.f.f.f.f.f.f.f.f.",
"f.; S d.3.S . f.f.f.f.f.. ) O.0.0.O.) ) d d + f.f.f.f.f.f.f.f.f.f.f.f.f.f.f.f.f.f.f.f.f.. + ) ) O.0.O.) d d . f.f.f.f.f.f.f.f.f.f.f.f.f.f.f.f.f.f.f.f.f.f.f.f.f.",
"f.; 3.d.S ; f.f.f.f.f.f.3 ) 0.0.O.d d d 3 + f.f.f.f.f.f.f.f.f.f.f.f.f.f.f.f.f.f.f.f.f.f.f.+ ) ) O.O.O.) d + f.f.f.f.f.f.f.f.f.f.f.f.f.f.f.f.f.f.f.f.f.f.f.f.f.f.",
"f.; a 3.; f.f.f.f.f.f.3 ) O.0.O.d d d 3 + f.f.f.f.f.f.f.f.f.f.f.f.f.f.f.f.f.f.f.f.f.f.f.f.. d ) O.O.) d d . f.f.f.f.f.f.f.f.f.f.f.f.f.f.f.f.f.f.f.f.f.f.f.f.f.f.",
"f.f.; 3.; f.f.f.f.f.+ ) O.0.0.) d d 3 + f.f.f.f.f.f.f.f.f.f.f.f.f.f.f.f.f.f.f.f.f.f.f.f.f.. d ) ) O.) d d . f.f.f.f.f.f.f.f.f.f.f.f.f.f.f.f.f.f.f.f.f.f.f.f.f.f.",
"f.f.; a ; f.f.f.f.f.+ O.0.0.0.) d 3 + f.f.f.f.f.f.f.f.f.f.f.f.f.f.f.f.f.f.f.f.f.f.f.f.f.f.O e D ) O.) d + f.f.f.f.f.f.f.f.f.f.f.f.f.f.f.f.f.f.f.f.f.f.f.f.f.f.f.",
"f.f.f.o S a f.f.f.f.+ O.0.0.0.) 3 + f.f.f.f.f.f.f.f.f.f.f.f.f.f.f.f.f.f.f.f.f.f.f.f.f.f.f.X 3 d d ) d ) + f.f.f.f.f.f.f.f.f.f.f.f.f.f.f.f.f.f.f.f.f.f.f.f.f.f.f.",
"f.f.f.f.o o f.f.f.f.+ ) O.0.O.) + f.f.f.f.f.f.f.f.f.f.f.f.f.f.f.f.f.f.f.f.f.f.f.f.f.f.f.f.. 3 d d d ) ) + f.f.f.f.f.f.f.f.f.f.f.f.f.f.f.f.f.f.f.f.f.f.f.f.f.f.f.",
"f.f.f.f.f.f.f.f.f.f.f.+ ) O.) d + f.f.f.f.f.f.f.f.f.f.f.f.f.f.f.f.f.f.f.f.f.f.f.f.f.f.f.f.. d d d d ) d . f.f.f.f.f.f.f.f.f.f.f.f.f.f.f.f.f.f.f.f.f.f.f.f.f.f.f.",
"f.f.f.f.f.f.f.f.f.f.f.+ d ) ) d + f.f.f.f.f.f.f.f.f.f.f.f.f.f.f.f.f.f.f.f.f.f.f.f.f.f.f.f.. d d ) d d 3 . f.f.f.f.f.f.f.f.f.f.f.f.f.f.f.f.f.f.f.f.f.f.f.f.f.f.f.",
"f.f.f.f.f.f.f.f.f.f.f.f.+ ) d d + f.f.f.f.f.f.f.f.f.f.f.f.f.f.f.f.f.f.f.f.f.f.f.f.f.f.f.f.f.+ d d d d 3 f.f.f.f.f.f.f.f.f.f.f.f.f.f.f.f.f.f.f.f.f.f.f.f.f.f.f.f.",
"f.f.f.f.f.f.f.f.f.f.f.f.+ d ) d + f.f.f.f.f.f.f.f.f.f.f.f.f.f.f.f.f.f.f.f.f.f.f.f.f.f.f.f.f.. d ) d ) 3 f.f.f.f.f.f.f.f.f.f.f.f.f.f.f.f.f.f.f.f.f.f.f.f.f.f.f.f.",
"f.f.f.f.f.f.f.f.f.f.f.f.. ) d ) d + f.f.f.f.f.f.f.f.f.f.f.f.f.f.f.f.f.f.f.f.f.f.f.f.f.f.f.f.f.+ d ) ) d f.f.f.f.f.f.f.f.f.f.f.f.f.f.f.f.f.f.f.f.f.f.f.f.f.f.f.f.",
"f.f.f.f.f.f.f.f.f.f.f.f.. d ) d d + f.f.f.f.f.f.f.f.f.f.f.f.f.f.f.f.f.f.f.f.f.f.f.f.f.f.f.f.f.. ) d ) O.+ f.f.f.f.f.f.f.f.f.f.f.f.f.f.f.f.f.f.f.f.f.f.f.f.f.f.f.",
"f.f.f.f.f.f.f.f.f.f.f.f.. d ) ) ) d f.f.f.f.f.f.f.f.f.f.f.f.f.f.f.f.f.f.f.f.f.f.f.f.f.f.f.f.f.+ d ) ) O.+ f.f.f.f.f.f.f.f.f.f.f.f.f.f.f.f.f.f.f.f.f.f.f.f.f.f.f.",
"f.f.f.f.f.f.f.f.f.f.f.f.. 3 ) O.O.) + f.f.f.f.f.f.f.f.f.f.f.f.f.f.f.f.f.f.f.f.f.f.f.f.f.f.f.+ d O.d ) 0.d f.f.f.f.f.f.f.f.f.f.f.f.f.f.f.f.f.f.f.f.f.f.f.f.f.f.f.",
"f.f.f.f.f.f.f.f.f.f.f.f.. + d ) 0.0.d + f.f.f.f.f.f.f.f.f.f.f.f.f.f.f.f.f.f.f.f.f.f.f.f.f.f.+ d O.O.O.0.) + f.f.f.f.f.f.f.f.f.f.f.f.f.f.f.f.f.f.f.f.f.f.f.f.f.f.",
"f.f.f.f.f.f.f.f.f.f.f.f.f.f.+ d ) 0.O.+ f.f.f.f.f.f.f.f.f.f.f.f.f.f.f.f.f.f.f.f.f.f.f.f.f.f.+ 3 d 0.0.) 3 + f.f.f.f.f.f.f.f.f.f.f.f.f.f.f.f.f.f.f.f.f.f.f.f.f.f.",
"f.f.f.f.f.f.f.f.f.f.f.f.f.f.o o 3.3.3.S ; f.f.f.f.f.f.f.f.f.f.f.f.f.f.f.f.f.f.f.f.f.f.f.f.f.f.+ 3 d d S 3.3.; f.f.f.f.f.f.f.f.f.f.f.f.f.f.f.f.f.f.f.f.f.f.f.f.f.",
"f.f.f.f.f.f.f.f.f.f.f.f.f.f.o S 3.d.d.3.; f.f.f.f.f.f.f.f.f.f.f.f.f.f.f.f.f.f.f.f.f.f.f.f.f.f.f.o ; S 3.d.d.S f.f.f.f.f.f.f.f.f.f.f.f.f.f.f.f.f.f.f.f.f.f.f.f.f.",
"f.f.f.f.f.f.f.f.f.f.f.f.f.f.f.o S d.d.d.S ; f.f.f.f.f.f.f.f.f.f.f.f.f.f.f.f.f.f.f.f.f.f.f.f.f.f.f.o 3.3.d.d.d.; f.f.f.f.f.f.f.f.f.f.f.f.f.f.f.f.f.f.f.f.f.f.f.f.",
"f.f.f.f.f.f.f.f.f.f.f.f.f.f.f.f.o S S S S ; f.f.f.f.f.f.f.f.f.f.f.f.f.f.f.f.f.f.f.f.f.f.f.f.f.f.f.f.o ; ; ; S S f.f.f.f.f.f.f.f.f.f.f.f.f.f.f.f.f.f.f.f.f.f.f.f.",
"f.f.f.f.f.f.f.f.f.f.f.f.f.f.f.f.f.f.f.f.f.f.f.f.f.f.f.f.f.f.f.f.f.f.f.f.f.f.f.f.f.f.f.f.f.f.f.f.f.f.f.f.f.f.f.f.f.f.f.f.f.f.f.f.f.f.f.f.f.f.f.f.f.f.f.f.f.f.f.f.",
"f.f.f.f.f.f.f.f.f.f.f.f.f.f.f.f.f.f.f.f.f.f.f.f.f.f.f.f.f.f.f.f.f.f.f.f.f.f.f.f.f.f.f.f.f.f.f.f.f.f.f.f.f.f.f.f.f.f.f.f.f.f.f.f.f.f.f.f.f.f.f.f.f.f.f.f.f.f.f.f.",
"f.f.f.f.f.f.f.f.f.f.f.f.f.f.f.f.f.f.f.f.f.f.f.f.f.f.f.f.f.f.f.f.f.f.f.f.f.f.f.f.f.f.f.f.f.f.f.f.f.f.f.f.f.f.f.f.f.f.f.f.f.f.f.f.f.f.f.f.f.f.f.f.f.f.f.f.f.f.f.f.",
"f.f.f.f.f.f.f.f.f.f.f.f.f.f.f.f.f.f.f.f.f.f.f.f.f.f.f.f.f.f.f.f.f.f.f.f.f.f.f.f.f.f.f.f.f.f.f.f.f.f.f.f.f.f.f.f.f.f.f.f.f.f.f.f.f.f.f.f.f.f.f.f.f.f.f.f.f.f.f.f.",
"f.f.f.f.f.f.f.f.f.f.f.f.f.f.f.f.f.f.f.f.f.f.f.f.f.f.f.f.f.f.f.f.f.f.f.f.f.f.f.f.f.f.f.f.f.f.f.f.f.f.f.f.f.f.f.f.f.f.f.f.f.f.f.f.f.f.f.f.f.f.f.f.f.f.f.f.f.f.f.f."
};
