/* XPM */
static char *pegright_[] = {
/* columns rows colors chars-per-pixel */
"80 80 149 2",
"   c #2BE931",
".  c #5EAD73",
"X  c #55558E",
"o  c #56568F",
"O  c #636397",
"+  c #66669D",
"@  c #696998",
"#  c #7B7BA5",
"$  c #7B7BAE",
"%  c #7C7CAE",
"&  c #7B809A",
"*  c #86B89A",
"=  c #8989A7",
"-  c #8383AC",
";  c #8E8EAD",
":  c #8B9CA5",
">  c #9293AE",
",  c #8080B1",
"<  c #8282B1",
"1  c #8181B2",
"2  c #8383B2",
"3  c #8787B0",
"4  c #8B8BB3",
"5  c #8D8DB7",
"6  c #8E8EBB",
"7  c #9797B3",
"8  c #9292B5",
"9  c #9595B6",
"0  c #9999B5",
"q  c #9A9AB6",
"w  c #9D9DB7",
"e  c #9292B9",
"r  c #9595B9",
"t  c #9191BD",
"y  c #9292BD",
"u  c #9393BE",
"i  c #9999BB",
"p  c #9E9EB8",
"a  c #9F9FBA",
"s  c #94AEAB",
"d  c #97A2B0",
"f  c #A0A1BA",
"g  c #A3A3BD",
"h  c #A5A5BE",
"j  c #A4ABBC",
"k  c #A3BAB6",
"l  c #9BCCAA",
"z  c #9E9EC1",
"x  c #A3A3C3",
"c  c #A8A8C0",
"v  c #AAAAC2",
"b  c #ABABC3",
"n  c #A9A9C7",
"m  c #AEAEC4",
"M  c #AFAFC6",
"N  c #A3A3C9",
"B  c #AFAFC9",
"V  c #A9A9CD",
"C  c #ABABCD",
"Z  c #B0AFC7",
"A  c #ACB3C1",
"S  c #B0B0C6",
"D  c #B0BCC3",
"F  c #B1B1C8",
"G  c #B3B3C9",
"H  c #B4B7C9",
"J  c #B5B5CA",
"K  c #B6B6CB",
"L  c #B6B6CE",
"P  c #B8B8CC",
"I  c #B9B9CD",
"U  c #B9BBCC",
"Y  c #BABACE",
"T  c #B0B0D0",
"R  c #B3B3D2",
"E  c #BCBCD0",
"W  c #BEBED1",
"Q  c #B9B9D7",
"!  c #C1C1D3",
"~  c #C2C2D4",
"^  c #C3C3D5",
"/  c #C4C4D5",
"(  c #C5C5D6",
")  c #C7C7D7",
"_  c #C5C5DB",
"`  c #C9C9D9",
"'  c #C8C8DB",
"]  c #CBCBDB",
"[  c #CCCCDB",
"{  c #C8C8DE",
"}  c #C8C8DF",
"|  c #CDCDDC",
" . c #CFCFDD",
".. c #D0D0DE",
"X. c #DBDCDD",
"o. c #CDE1D6",
"O. c #CACAE1",
"+. c #CBCBE2",
"@. c #CECEE1",
"#. c #CFCFE4",
"$. c #D3D3E0",
"%. c #D4D4E1",
"&. c #D4D7E0",
"*. c #D4D4E3",
"=. c #D7D7E3",
"-. c #D6D6E6",
";. c #DADAE5",
":. c #D9D9E6",
">. c #DBDBE6",
",. c #D7D7E8",
"<. c #D8D8E9",
"1. c #DBDBE8",
"2. c #DADAEA",
"3. c #DBDBEB",
"4. c #DDDDE8",
"5. c #DEDEE8",
"6. c #E0E0E9",
"7. c #E0E0EB",
"8. c #E2E2EB",
"9. c #E2E6EA",
"0. c #E3E3EC",
"q. c #E7E6ED",
"w. c #E4E4EF",
"e. c #E6E6EE",
"r. c #E5E5F1",
"t. c #E7E7F2",
"y. c #E9E9F0",
"u. c #EAEAF1",
"i. c #E9E9F2",
"p. c #EDEDF3",
"a. c #EBEBF4",
"s. c #ECECF5",
"d. c #EDEDF5",
"f. c #EEEEF6",
"g. c #F0F0F5",
"h. c #F0F0F7",
"j. c #F2F2F6",
"k. c #F7FDF7",
"l. c #F3F3F8",
"z. c #F4F4F8",
"x. c #F5F5F9",
"c. c #F8F8FB",
"v. c #FAFAFC",
"b. c #FCFCFD",
"n. c #FDFDFD",
"m. c #FCFFFC",
"M. c #FEFEFE",
"N. c gray100",
"B. c None",
/* pixels */
"B.B.B.B.B.B.B.B.B.B.B.B.B.d B.B.B.B.B.B.B.B.B.B.B.B.B.B.B.B.B.B.B.B.B.B.B.B.B.B.B.B.B.B.B.B.B.B.B.B.B.B.B.B.B.B.B.B.B.B.B.B.B.B.B.d B.B.B.B.B.B.B.B.B.B.B.B.B.B.",
"B.B.B.B.B.B.B.B.B.B.B.B.* 0.8.B.B.B.B.B.B.B.B.B.B.B.B.B.B.B.B.B.B.B.B.B.B.B.B.B.B.B.B.B.B.B.B.B.B.B.B.B.B.B.B.B.B.B.B.B.B.B.B.B.[ j.j B.B.B.B.B.B.B.B.B.B.B.B.B.",
"B.B.B.B.B.B.B.B.B.B.B.B.B.B.B.B.B.B.B.B.B.B.B.B.B.B.B.B.B.B.B.B.B.B.B.B.B.B.B.B.B.B.B.B.B.B.B.B.B.B.B.B.B.B.B.B.B.B.B.B.B.B.B.B.B.B.B.B.B.B.B.B.B.B.B.B.B.B.B.B.",
"B.B.B.B.B.B.B.B.B.B.B.B.B.B.B.B.B.B.B.B.B.B.B.B.B.B.B.B.B.B.B.B.B.B.B.B.B.B.B.B.B.B.B.B.B.B.B.B.B.B.B.B.B.B.B.B.B.B.B.B.B.B.B.B.B.B.B.B.B.B.B.B.B.B.B.B.B.B.B.B.",
"B.B.B.B.B.B.B.B.B.B.B.B.B.B.B.B.B.B.B.B.B.B.B.B.B.B.B.B.B.B.B.B.B.B.B.B.B.B.B.B.B.B.B.B.B.B.B.B.B.B.B.B.B.B.B.B.B.B.B.B.B.B.B.B.B.B.B.B.B.B.B.B.B.B.B.B.B.B.B.B.",
"B.B.B.B.B.B.B.B.B.B.B.B.B.B.B.B.B.B.B.B.B.B.B.B.B.B.B.B.B.B.B.B.B.B.B.B.B.B.B.B.B.B.B.B.B.B.B.B.B.B.B.B.B.B.B.B.B.B.B.B.B.B.B.B.B.B.B.B.B.B.B.B.B.B.B.B.B.B.B.B.",
"B.B.B.B.B.B.B.B.B.B.B.B.B.B.B.B.B.B.B.B.B.B.B.B.B.B.B.B.B.B.B.B.B.B.B.B.B.B.B.B.B.B.B.B.B.B.B.B.B.B.B.B.B.B.B.B.B.B.B.B.B.B.B.B.B.B.B.B.B.B.B.B.B.B.B.B.B.B.B.B.",
"B.B.B.B.B.B.B.B.B.B.B.B.B.B.B.B.B.B.B.B.B.B.B.B.B.B.B.B.B.B.B.B.B.B.B.B.B.B.B.B.B.B.B.B.B.B.B.B.B.B.B.B.B.B.B.B.B.B.B.B.B.B.B.B.B.B.B.B.B.B.B.B.B.B.B.B.B.B.B.B.",
"B.B.B.B.B.B.B.B.B.B.B.B.B.B.B.B.B.B.B.B.B.B.B.B.B.B.B.B.B.B.B.B.B.B.B.B.B.B.B.B.B.B.B.B.B.B.B.B.B.B.B.B.B.B.B.B.B.B.B.B.B.B.B.B.B.B.B.B.B.B.B.B.B.B.B.B.B.B.B.B.",
"B.B.B.B.B.B.B.B.B.B.B.B.B.B.B.B.B.B.B.B.B.B.B.B.B.B.B.B.B.B.B.B.B.B.B.B.B.B.B.B.B.B.B.B.B.B.B.B.B.B.B.B.B.B.B.B.B.B.B.B.B.B.B.B.B.B.B.B.B.B.B.B.B.B.B.B.B.B.B.B.",
"B.B.B.B.B.B.B.B.B.B.B.B.B.B.B.B.B.B.B.B.B.B.B.B.B.B.B.B.B.B.B.B.B.B.B.B.B.B.B.B.B.B.B.B.B.B.B.B.B.B.B.B.B.B.B.B.B.B.B.B.B.B.B.B.B.B.B.B.B.B.B.B.B.B.B.B.B.B.B.B.",
"B.B.B.B.B.B.B.B.B.B.B.B.B.B.B.B.B.B.B.B.B.B.B.B.B.B.B.B.B.B.B.B.B.B.B.B.B.B.B.B.B.B.B.B.B.B.B.B.B.B.B.B.B.B.B.B.B.B.B.B.B.B.B.B.B.B.B.B.B.B.B.B.B.B.B.B.B.B.B.B.",
"B.B.B.B.B.B.B.B.B.B.B.B.B.B.B.B.B.B.B.B.B.B.B.B.B.B.B.B.B.B.B.B.B.B.B.B.B.B.B.B.B.B.B.B.B.B.B.B.B.B.B.B.B.B.B.B.B.B.B.B.B.B.B.B.B.B.B.B.B.B.B.B.B.B.B.B.B.B.B.B.",
"B.B.B.B.B.B.B.B.B.B.B.B.B.B.B.B.B.B.B.B.B.B.B.B.B.B.B.B.B.B.B.B.B.B.B.B.B.B.B.B.B.B.B.B.B.B.B.B.B.B.B.B.B.B.B.B.B.B.B.B.B.B.B.B.B.B.B.B.B.B.B.B.B.B.B.B.B.B.B.B.",
"B.B.B.B.B.B.B.B.B.B.B.B.B.B.B.B.B.B.B.B.B.B.B.B.B.B.B.B.B.B.B.B.B.B.B.B.B.B.B.B.B.B.B.B.B.B.B.B.B.B.B.B.B.B.B.B.B.B.B.B.B.B.B.B.B.B.B.B.B.B.B.B.B.B.B.B.B.B.B.B.",
"B.B.B.B.B.B.B.B.B.B.B.B.B.B.B.B.B.B.B.B.B.B.B.B.B.B.B.B.B.B.B.B.B.B.B.B.B.B.B.B.B.B.B.B.B.B.B.B.B.B.B.B.B.B.B.B.B.B.B.B.B.B.B.B.B.B.B.B.B.B.B.B.B.B.B.B.B.B.B.B.",
"B.B.B.B.B.B.B.B.B.B.B.B.B.B.B.B.B.B.B.B.B.B.B.B.B.B.B.B.B.B.B.B.B.B.B.B.B.B.B.B.B.B.B.B.B.B.B.B.B.B.B.B.B.B.B.B.B.B.B.B.B.B.B.B.B.B.B.B.B.B.B.B.B.B.B.B.B.B.B.B.",
"B.B.B.B.B.B.B.B.B.B.B.B.B.B.B.B.B.B.B.B.B.B.B.B.B.B.B.B.B.B.B.B.B.B.B.B.B.B.B.B.B.B.B.B.B.B.B.B.B.B.B.B.B.B.B.B.B.B.B.B.B.B.B.B.B.B.B.B.B.B.B.B.B.B.B.B.B.B.B.B.",
"B.B.B.B.B.B.B.B.B.B.B.B.B.B.B.B.B.B.B.B.B.B.B.B.B.B.B.B.B.B.B.B.B.B.B.B.B.B.B.B.B.B.B.B.B.B.B.B.B.B.B.B.B.B.B.B.B.B.B.B.B.B.B.B.B.B.B.B.B.B.B.B.B.B.B.B.B.B.B.B.",
"B.B.B.B.B.B.B.B.B.B.B.B.B.B.B.B.B.B.B.B.B.B.B.B.B.B.B.B.B.B.B.B.B.B.B.B.B.B.B.B.B.B.B.B.B.B.B.B.B.B.B.B.B.B.B.B.B.B.B.B.B.B.B.B.B.B.B.B.B.B.B.B.B.B.B.B.B.B.B.B.",
"B.B.B.B.B.B.B.B.B.B.B.B.B.B.B.B.B.B.B.B.B.B.B.B.B.B.B.B.B.B.B.B.B.B.B.B.B.B.B.B.B.B.B.B.B.B.B.B.B.B.B.B.B.B.B.B.B.B.B.B.B.B.B.B.B.B.B.B.B.B.B.B.B.B.B.B.B.B.B.B.",
"B.B.B.B.B.B.B.B.B.B.B.B.B.B.B.B.B.B.B.B.B.B.B.B.B.B.B.B.B.B.B.B.B.B.B.B.B.B.B.B.B.B.B.B.B.B.B.B.B.B.B.B.B.B.B.B.B.B.B.B.B.B.B.B.B.B.B.B.B.B.B.B.B.B.B.B.B.B.B.B.",
"B.B.B.B.B.B.B.B.B.B.B.B.B.B.B.B.B.B.B.B.B.B.B.B.B.B.B.B.B.B.B.B.B.B.B.B.B.B.B.B.B.B.B.B.B.B.B.B.B.B.B.B.B.B.B.B.B.B.B.B.B.B.B.B.B.6 Q Q Q 6 6 B.B.B.B.B.B.B.B.B.",
"B.B.B.B.B.B.B.B.B.B.B.B.B.B.B.B.B.B.B.B.B.B.B.B.B.B.B.B.B.B.B.B.B.B.B.B.B.B.B.B.B.B.B.B.B.B.B.B.B.B.B.B.B.B.B.B.B.B.B.B.B.B.Q Q t.N.N.N.N.N.t.Q 6 t B.B.B.B.B.B.",
"B.B.B.B.B.B.B.B.B.B.B.B.B.B.B.B.B.B.B.B.B.B.B.B.B.B.B.B.B.B.B.B.B.B.B.B.B.B.B.B.B.B.B.B.B.B.B.B.B.B.B.B.B.B.B.B.B.B.B.Q Q t.N.N.N.t.N.t.Q N.Q N.Q 6 V t B.B.B.B.",
"B.B.B.B.B.B.B.B.B.B.B.B.B.B.B.B.B.B.B.B.B.B.B.B.B.B.B.B.B.B.B.B.B.B.B.B.B.B.B.B.B.B.B.B.B.B.B.B.B.B.B.B.B.B.B.B.N Q w.r.N.N.t.N.t.Q N.Q Q t.Q t.t.Q +.V V t B.B.",
"B.B.B.B.B.B.B.B.B.B.B.B.B.B.B.B.B.B.B.B.B.B.B.B.B.B.B.B.B.B.B.B.B.B.B.B.B.B.B.B.B.B.B.B.B.B.B.B.B.B.B.B.B.N Q t.t.N.N.N.t.N.Q t.Q 6 t.6 V +.+.s.s.t 6 t $ $ B.B.",
"B.B.B.B.B.B.B.B.B.B.B.B.B.B.B.B.B.B.B.B.B.B.B.B.B.B.B.B.B.B.B.B.B.B.B.B.s V B.B.B.B.B.B.B.B.B.B.B.B.B.N Q t.N.N.N.t.N.N.t.N.Q t.t V 6 +.V s.s.V $ $ Q 6 B.B.B.B.",
"B.B.B.B.B.B.B.B.B.B.B.B.B.B.B.B.B.B.B.B.B.B.B.B.B.B.B.B.B.B.B.B.B.B.B.Y ) =.9.o.V B.B.B.B.B.B.B.B.N Q t.N.N.N.t.N.t.N.t.Q t.Q 6 V +.+.3.+.s.$ $ 6 t.t.Q X B.B.B.",
"B.B.B.B.B.B.B.B.B.B.B.B.B.B.B.B.B.B.t t V V t t t B.B.B.B.B.B.B.B.B.W 8.p.N.N.N.m.k.&.( ~ L C N Q N.N.N.N.t.N.t.N.t.N.Q Q Q V +.3.s.s.s.3.+.t t V 6 Q $ B.B.B.B.",
"B.B.B.B.B.B.B.B.B.B.B.B.B.B.B.t t V +.3.s.s.s.3.+.V t t B.B.B.B.B.W 8.N.N.N.N.N.N.N.c.$.( _ O.Q t.t.N.t.N.Q N.t.t.Q N.t V 6 3.s.s.s.+.s.s.+.+.3.3.+.6 t B.B.B.B.",
"B.B.B.B.B.B.B.B.B.B.B.B.B.t V +.3.s.N.N.N.N.N.N.s.3.+.V V t t y P 8.N.N.x.N.N.N.N.N.p.8.e.@.+.+.V Q N.Q t.Q t.Q #.V Q V +.3.s.s.+.t s.s.s.V s.s.N.s.+.t B.B.B.B.",
"B.B.B.B.B.B.B.B.B.B.B.t V +.3.s.N.N.N.N.N.N.N.N.N.s.+.+.+.3.3.<...M.n.p.z.N.N.N.N.N.=.N.N.<.+.+.V Q t.Q t.Q Q V Q V 6 +.+.s.s.+.t V 3.s.s.V X t s.N.s.+.t B.B.B.",
"B.B.B.B.B.B.B.B.B.B.t V +.3.s.N.N.N.N.N.N.N.N.N.N.s.+.3.s.N.s.x.:.0.4.z.N.N.N.N.N.n.W N.N.f.3.+.+.Q Q 6 Q V 6 V 6 V V +.3.i.3.V t V +.s.s.3.X t s.N.N.3.t B.B.B.",
"B.B.B.B.B.B.B.B.B.Q Q +.3.s.N.N.N.N.N.N.N.N.N.N.N.3.3.s.N.s.N.j.$.) p.N.N.N.N.N.N.c.m N.N.N.s.3.+.Q 6 V 6 +.V +.V 3.O.{ 4.1.+.V t t V +.3.3.+.V 3.N.N.s.t B.B.B.",
"B.B.B.B.B.B.B.Q Q t.t.3.s.N.N.N.s.N.N.N.N.N.N.N.s.3.s.s.s.N.a.e.W ^ N.N.N.N.N.N.N.j.b N.N.N.N.s.+.Q V +.V 3.+.3.f.' b h ` 2.V V V t t t V +.+.V +.s.N.N.V B.B.B.",
"B.B.B.B.B.B.Q t.N.N.t.3.s.s.N.s.N.s.N.N.N.N.N.N.s.3.s.s.s.s.i.*.E %.N.v.N.N.N.N.N.>.S N.N.N.N.s.s.s.+.3.+.3.3.a.1.f p G Z +.V V t t $ X t t V V V s.N.N.+.B.B.B.",
"B.B.B.B.B.Q t.N.N.t.V 3.s.N.s.N.s.N.N.N.N.N.N.N.s.s.s.s.s.s.w.( Y z.p.p.N.N.N.N.N. .Y u.M.N.s.s.s.s.3.3.3.3.s.a.P 0  .5.~ } V t $ X B.B.X X t V V s.N.N.+.t B.B.",
"B.B.B.B.Q t.N.N.t.6 V 3.s.s.s.s.N.s.N.N.N.N.N.N.s.s.s.s.s.s.4.J ) u.p.N.N.N.N.N.N.| W N.M.N.s.s.N.s.s.s.s.s.s.s.r.' J =.q.R t $ X B.B.B.B.B.X t V +.s.s.3.V B.B.",
"B.B.B.Q t.N.N.N.Q t V 3.s.s.s.s.s.N.s.N.s.N.N.N.s.s.s.s.s.a.*.F %.p.N.N.N.N.N.N.N.) 8.N.N.h.N.s.N.s.s.s.s.s.s.s.s._ B ! j._ $ X B.B.B.B.B.B.B.X V +.s.s.3.V B.B.",
"B.B.B.Q N.N.N.t.N t +.3.s.s.s.s.s.s.s.s.s.N.N.N.s.s.s.s.s.t.] M =.M.N.N.N.N.N.N.N. .m N.v.d.s.s.N.N.s.s.s.s.s.s.3.} x ~ ) 4 X B.B.B.B.B.B.B.B.X V V t 3.3.$ B.B.",
"B.B.6 t.N.N.N.Q N t +.3.s.s.s.s.s.s.s.s.s.s.N.N.s.s.s.s.s.7.K ` q.M.N.c.N.N.N.N.N.5.g M.N.s.N.s.N.N.s.3.s.s.s.s.3.V z E c @ B.B.B.B.B.B.B.B.B.B.$ V V V $ B.B.B.",
"B.B.6 N.N.N.N.Q 6 $ +.3.3.s.s.s.s.s.s.s.s.s.N.N.3.+.+.3.a.' Y e.z.g.y.M.N.N.N.N.N.z.M b.l.s.s.s.N.N.s.s.3.s.s.s.3.V N v - B.B.B.B.B.B.B.B.B.B.B.B.$ $ $ B.B.B.B.",
"B.B.Q N.t.N.N.N 6 $ +.3.3.s.s.s.s.s.s.3.3.3.N.s.3.+.+.+.<.) ) u.q.[ c.N.N.N.N.N.N.M.^ c 4.s.s.s.N.N.N.s.+.3.s.3.+.V V - B.B.B.B.B.B.B.B.B.B.B.B.B.B.B.B.B.B.B.B.",
"B.B.N N.t.N.N.N B.$ +.3.+.s.s.s.s.s.s.+.+.s.N.s.+.V +.+.{ /  .;.! q.N.N.N.N.N.N.N.N...m *.s.3.s.N.N.N.s.+.3.3.+.V V $ B.B.B.B.B.B.B.B.B.B.B.B.B.B.B.B.B.B.B.B.B.",
"B.B.N t.t.N.N.N B.X t 3.+.s.s.s.s.s.s.+.+.s.N.s.V V V V _ ! ..K 6.N.x.M.N.N.N.N.N.N.z.P E t.3.s.N.N.N.s.+.V +.V V t $ B.B.B.B.B.B.B.B.B.B.B.B.B.B.B.B.B.B.B.B.B.",
"B.B.6 Q t.t.N.6 B.# $ 3.+.3.s.s.s.s.s.+.3.N.s.3.V V V V T / G $.N.c.g.N.N.N.N.N.N.N.x. .J ' 3.s.N.N.N.s.+.V V V t $ B.B.B.B.B.B.B.B.B.B.B.B.B.B.B.B.B.B.B.B.B.B.",
"B.B.+ N t.t.t.6 B.^ $ 3.+.+.s.s.s.s.s.+.s.N.s.3.V V V V _ M | z.p.g.N.N.N.N.N.N.N.N.N.5.M F _ s.N.N.N.s.+.+.V t t X B.B.B.B.B.B.B.B.B.B.B.B.B.B.B.B.B.B.B.B.B.B.",
"B.B.+ 6 t.t.t.+ B.: X V 3.+.s.s.s.s.s.3.s.s.s.+.V V V V n E e.0.8.v.N.N.N.N.N.N.N.N.N.N...m K -.N.N.s.s.s.s.+.+.V $ $ B.B.B.B.B.B.B.B.B.B.B.B.B.B.B.B.B.B.B.B.B.",
"B.B.B.+ N.t.t.+ B.B.X $ 3.+.3.s.s.s.s.s.s.s.3.+.V X X O 9 ~ =.` ) v.g.x.N.N.N.N.N.n.c.N.j.c f ^ s.s.s.s.s.s.s.s.+.+.V $ B.B.B.B.B.B.B.B.B.B.B.B.B.B.B.B.B.B.B.B.",
"B.B.B.+ N.t.Q X B.B.B.X +.+.+.s.s.s.s.s.s.s.+.+.$ B.B.B.B.U E 8.u.p.y.N.N.N.M.N.N.n.c.N.z.v > w ,.s.s.s.s.N.N.N.s.s.+.V $ B.B.B.B.B.B.B.B.B.B.B.B.B.B.B.B.B.B.B.",
"B.B.B.6 N.t.Q X B.B.B.X +.3.+.s.s.s.s.s.s.3.+.V $ B.B.B.B.E 8.u.4.( c.N.N.N.c.M.N.z.p.N.g.K | 0 B 3.3.s.s.s.N.N.N.N.s.s.+.$ B.B.B.B.B.B.B.B.B.B.B.B.B.B.B.B.B.B.",
"B.B.6 Q N.t.6 B.B.B.B.o V 3.+.s.s.s.s.s.3.+.+.$ B.B.B.B.U e.u.=.W %.M.v.v.N.j.n.N.g.y.N.j.b m G 9 V +.+.+.3.3.s.s.N.N.N.s.V t B.B.B.B.B.B.B.B.B.B.B.B.B.B.B.B.B.",
"B.B.6 N.N.Q X B.B.B.B.B.X +.3.s.s.s.s.3.+.+.$ B.B.B.B.B.Y =.! G ;.q.j.j.z.N.u.v.N.g.=.c.g.G g = 8 t t t V V V V +.+.+.s.s.V t B.B.B.B.B.B.B.B.B.B.B.B.B.B.B.B.B.",
"B.6 Q N.t.Q X B.B.B.B.B.X +.3.s.s.3.+.+.V V $ B.B.B.B.B.B.F v ;.y.=.q.z.x.N.p.g.N.g. .p.p.E ^ & r % X X X X $ $ t V +.s.+.V t B.B.B.B.B.B.B.B.B.B.B.B.B.B.B.B.B.",
"B.6 t.N.Q 6 B.B.B.B.B.B.t +.s.s.3.V V V t $ B.B.B.B.B.B.B.B.) y.;...p.q.x.N.0.q.N.g...g.g.v 7 v i < X.X.X.$ t t V V V V V $ B.B.B.B.B.B.B.B.B.B.B.B.B.B.B.B.B.B.",
"B.6 N t.6 B.B.B.B.B.B.t +.3.s.3.V V V t $ B.B.B.B.B.B.B.B.B.5.q.` [ y.6.z.N.5.>.N.j.) 4.e.) q 0 ; u 6 6 $ $ V V V V V $ $ B.B.B.B.B.B.B.B.B.B.B.B.B.B.B.B.B.B.B.",
"B.B.6 t.6 B.B.B.B.B.$ +.3.s.s.+.V V t $ B.B.B.B.B.B.B.B.B.%.y.$.I u.e...y.N.4.=.N.n.I | y...q # - i b.N.+.s.s.+.+.V $ B.B.B.B.B.B.B.B.B.B.B.B.B.B.B.B.B.B.B.B.B.",
"B.B.6 N 6 B.B.B.B.B.$ 3.s.s.s.+.V t $ B.B.B.B.B.B.B.B.B.B.` y.Y ) y.>.! q.x.>...c.v. .| q.4.8 , 6 x ' r.+.s.s.+.V $ B.B.B.B.B.B.B.B.B.B.B.B.B.B.B.B.B.B.B.B.B.B.",
"B.B.B.+ Q N B.B.B.B.$ 3.s.s.s.+.t $ B.B.B.B.B.B.B.B.B.B.B.l W F 8.q.$.S q.c.| ) g.x.5...0.5.F 5 6 Q n $ V +.+.V $ B.B.B.B.B.B.B.B.B.B.B.B.B.B.B.B.B.B.B.B.B.B.B.",
"B.B.B.B.+ + B.B.B.B.$ +.3.s.3.+.$ B.B.B.B.B.B.B.B.B.B.B.B.B.B.H y.y.! M q.c.^ ! y.x.6.K 4.0.! r , X X $ $ V V $ B.B.B.B.B.B.B.B.B.B.B.B.B.B.B.B.B.B.B.B.B.B.B.B.",
"B.B.B.B.B.B.B.B.B.B.B.$ +.3.+.V $ B.B.B.B.B.B.B.B.B.B.B.B.B.B.D y.4.A m q.c.) v ;.x.q.F =.y.| e , B.B.B.X X X B.B.B.B.B.B.B.B.B.B.B.B.B.B.B.B.B.B.B.B.B.B.B.B.B.",
"B.B.B.B.B.B.B.B.B.B.B.$ V +.+.V $ B.B.B.B.B.B.B.B.B.B.B.B.B.B.D q.=.  s q.c.` = %.x.g.E ..q.$.r 1 B.B.B.B.B.B.B.B.B.B.B.B.B.B.B.B.B.B.B.B.B.B.B.B.B.B.B.B.B.B.B.",
"B.B.B.B.B.B.B.B.B.B.B.B.$ +.V V $ B.B.B.B.B.B.B.B.B.B.B.B.B.B.S ;.( B.s q.c.[ = ( q.p.$.[ 0.8.E 4 B.B.B.B.B.B.B.B.B.B.B.B.B.B.B.B.B.B.B.B.B.B.B.B.B.B.B.B.B.B.B.",
"B.B.B.B.B.B.B.B.B.B.B.B.$ V +.V $ B.B.B.B.B.B.B.B.B.B.B.B.B.B.B.^ l B.s e.p.` . p 6.q.$.F 0.u.^ 3 , B.B.B.B.B.B.B.B.B.B.B.B.B.B.B.B.B.B.B.B.B.B.B.B.B.B.B.B.B.B.",
"B.B.B.B.B.B.B.B.B.B.B.B.X +.V +.V $ B.B.B.B.B.B.B.B.B.B.B.B.B.B.B.B.B.A 4.u.^ B.= ..y.5.g 4.q. .a < B.B.B.B.B.B.B.B.B.B.B.B.B.B.B.B.B.B.B.B.B.B.B.B.B.B.B.B.B.B.",
"B.B.B.B.B.B.B.B.B.B.B.B.X V +.V V $ B.B.B.B.B.B.B.B.B.B.B.B.B.B.B.B.B.B.E >.j B.B.j j p.> E y.6.K 2 B.B.B.B.B.B.B.B.B.B.B.B.B.B.B.B.B.B.B.B.B.B.B.B.B.B.B.B.B.B.",
"B.B.B.B.B.B.B.B.B.B.B.B.X V +.+.+.V B.B.B.B.B.B.B.B.B.B.B.B.B.B.B.B.B.B.B.j B.B.B.j j j j F u.6.K 2 B.B.B.B.B.B.B.B.B.B.B.B.B.B.B.B.B.B.B.B.B.B.B.B.B.B.B.B.B.B.",
"B.B.B.B.B.B.B.B.B.B.B.B.X t +.3.3.+.$ B.B.B.B.B.B.B.B.B.B.B.B.B.B.B.B.B.B.B.B.B.B.B.j j B.j y.8.K B.B.B.B.B.B.B.B.B.B.B.B.B.B.B.B.B.B.B.B.B.B.B.B.B.B.B.B.B.B.B.",
"B.B.B.B.B.B.B.B.B.B.B.B.X $ V +.s.s.V $ B.B.B.B.B.B.B.B.B.B.B.B.B.B.B.B.B.B.B.B.B.B.B.B.B.j j ) k B.B.B.B.B.B.B.B.B.B.B.B.B.B.B.B.B.B.B.B.B.B.B.B.B.B.B.B.B.B.B.",
"B.B.B.B.B.B.B.B.B.B.B.B.B.B.$ V +.s.3.$ B.B.B.B.B.B.B.B.B.B.B.B.B.B.B.B.B.B.B.B.B.B.B.B.B.B.j j B.B.B.B.B.B.B.B.B.B.B.B.B.B.B.B.B.B.B.B.B.B.B.B.B.B.B.B.B.B.B.B.",
"B.B.B.B.B.B.B.B.B.B.B.B.B.B.+ + t.t.t.Q 6 B.B.B.B.B.B.B.B.B.B.B.B.B.B.B.B.B.B.B.B.B.B.B.B.B.B.B.B.B.B.B.B.B.B.B.B.B.B.B.B.B.B.B.B.B.B.B.B.B.B.B.B.B.B.B.B.B.B.B.",
"B.B.B.B.B.B.B.B.B.B.B.B.B.B.+ Q t.N.N.t.6 B.B.B.B.B.B.B.B.B.B.B.B.B.B.B.B.B.B.B.B.B.B.B.B.B.B.B.B.B.B.B.B.B.B.B.B.B.B.B.B.B.B.B.B.B.B.B.B.B.B.B.B.B.B.B.B.B.B.B.",
"B.B.B.B.B.B.B.B.B.B.B.B.B.B.B.+ Q N.N.N.Q 6 B.B.B.B.B.B.B.B.B.B.B.B.B.B.B.B.B.B.B.B.B.B.B.B.B.B.B.B.B.B.B.B.B.B.B.B.B.B.B.B.B.B.B.B.B.B.B.B.B.B.B.B.B.B.B.B.B.B.",
"B.B.B.B.B.B.B.B.B.B.B.B.B.B.B.B.+ Q Q Q Q 6 B.B.B.B.B.B.B.B.B.B.B.B.B.B.B.B.B.B.B.B.B.B.B.B.B.B.B.B.B.B.B.B.B.B.B.B.B.B.B.B.B.B.B.B.B.B.B.B.B.B.B.B.B.B.B.B.B.B.",
"B.B.B.B.B.B.B.B.B.B.B.B.B.B.B.B.B.B.B.B.B.B.B.B.B.B.B.B.B.B.B.B.B.B.B.B.B.B.B.B.B.B.B.B.B.B.B.B.B.B.B.B.B.B.B.B.B.B.B.B.B.B.B.B.B.B.B.B.B.B.B.B.B.B.B.B.B.B.B.B.",
"B.B.B.B.B.B.B.B.B.B.B.B.B.B.B.B.B.B.B.B.B.B.B.B.B.B.B.B.B.B.B.B.B.B.B.B.B.B.B.B.B.B.B.B.B.B.B.B.B.B.B.B.B.B.B.B.B.B.B.B.B.B.B.B.B.B.B.B.B.B.B.B.B.B.B.B.B.B.B.B.",
"B.B.B.B.B.B.B.B.B.B.B.B.B.B.B.B.B.B.B.B.B.B.B.B.B.B.B.B.B.B.B.B.B.B.B.B.B.B.B.B.B.B.B.B.B.B.B.B.B.B.B.B.B.B.B.B.B.B.B.B.B.B.B.B.B.B.B.B.B.B.B.B.B.B.B.B.B.B.B.B.",
"B.B.B.B.B.B.B.B.B.B.B.B.B.B.B.B.B.B.B.B.B.B.B.B.B.B.B.B.B.B.B.B.B.B.B.B.B.B.B.B.B.B.B.B.B.B.B.B.B.B.B.B.B.B.B.B.B.B.B.B.B.B.B.B.B.B.B.B.B.B.B.B.B.B.B.B.B.B.B.B.",
"B.B.B.B.B.B.B.B.B.B.B.B.B.B.B.B.B.B.B.B.B.B.B.B.B.B.B.B.B.B.B.B.B.B.B.B.B.B.B.B.B.B.B.B.B.B.B.B.B.B.B.B.B.B.B.B.B.B.B.B.B.B.B.B.B.B.B.B.B.B.B.B.B.B.B.B.B.B.B.B."
};
