/* XPM */
static char *Free_Converter_com_screen_shot_2016_03_17_at_1_35_56_pm_39774040[] = {
/* columns rows colors chars-per-pixel */
"50 250 58 1 ",
"  c #45565E",
". c #465760",
"X c #4A5C65",
"o c #4D5E69",
"O c #51656F",
"+ c #536971",
"@ c #596F7B",
"# c #5C727E",
"$ c #5E7582",
"% c #5E7884",
"& c #5E7A8B",
"* c #607683",
"= c #617A86",
"- c #627D8B",
"; c #637F90",
": c #66818D",
"> c #69838E",
", c #668192",
"< c #6B8595",
"1 c #6E8896",
"2 c #668598",
"3 c #6B8799",
"4 c #6D8A9B",
"5 c #718A97",
"6 c #738D9C",
"7 c #76909D",
"8 c #79919E",
"9 c #6F8DA0",
"0 c #718FA0",
"q c #7592A2",
"w c #7B95A4",
"e c #7E99A7",
"r c #7D97A8",
"t c #7E99A8",
"y c #8196A5",
"u c #8996A4",
"i c #8299A6",
"p c #8B98A7",
"a c #849CAA",
"s c #8C9DAC",
"d c #919EAE",
"f c #87A0AE",
"g c #8AA1AF",
"h c #91A0AF",
"j c #8DA4B1",
"k c #93A4B2",
"l c #94A9B6",
"z c #98A9B6",
"x c #96ABB8",
"c c #9AAEBB",
"v c #9EB1BD",
"b c #A1B2BF",
"n c #A4B5C1",
"m c #A7B8C3",
"M c #AABBC6",
"N c #AEBEC9",
"B c #AFC0C9",
"V c #B1C1CA",
/* pixels */
"###++++O++XX+++X++XX+XXOXX+XXXXXXXoXooXXXX.....   ",
"8y8755>>>>>>=>>=*=*>======**==****$$***#$$#$####@@",
"y8y557>>>>>>>=>===========***=***$$**$$$##$###@#@@",
"8y8755>>>====>=>>>======*=*****=*$*$*$*$*$$##@#@@@",
"i8i8u8575>>>=>>==============**>*%**$**$*$#$#$#$@#",
"8i8u8855>>>>>=>==>============***%%$*$*$$$$#$###$#",
"i88888557>>>=>>==**=========*=***$$$***$#$$$###$@@",
"8ii8u8uu8755>>>=>>>=>=>=======>*-----&&***$%%%%%%%",
"uu8i8i88i575>>>>:::==::==>======*--*--;*%%%%$$&&%$",
"88i8i88u8757>>>>::=::-=:====>==>------=*%%%%$&$&%*",
"u88u8i8u888855>>:::::==-=====:===&;=-;==--&-&&&;&-",
"i8i8ii888u88555>::=:::::>=>=====;&=;--&;--&&&&&&*-",
"8ii88ui8u888>5>>:::::=:=-=-====:--;-&-;-&---2&&&--",
"888ui88i888u777>>>:=:-=::--->==:&---;;&&;&&&&&&&&-",
"888888i88888585>>>:==:--=-:-===:---&&-;&&;;&&&&&&&",
"8ui88u88u888758>>>::::-:--=::=:=&&;&;&&;&&&;&&2&-&",
"u88888888888877515>:>=::===:%==:-&&-&-&&&&&&2&&&*;",
"888888888888787555::>==::==::%=%&&==&;;-&&&&&&&&&;",
"888888888888877551::=:======--=-----&-&&;&&;&&&&&&",
"888888577777777777115>>::::=--===*&*&&&&&&&&&&&&&;",
"88887857777777757755>>>>:=:=--===--&&&&&&&&&&&&&&;",
"8887788877777777775>5>>>=:::-====-&&*&-&&&&&&&&&&&",
"888558575757577755777555>>>>::::==-*&-&*&&&&&&&&&&",
"888877878757775577555>>5>>>::::=;*&&*&&*&&&&&&&&&&",
"888588757757777777777111>>>>>>::>====-&&*&&&&&&&&&",
"887555757455555555555555>71>>>::>-====*&&&*&&&&&&&",
"787555557157557757555555711>>>>:>=-=-==&&&&&*&&;&&",
"757585575754755575555511>>1>>>>:>=-====-**&&&&&&&2",
"7771>>5511155151>5557117155171>>5-;>=--*&&&*&&&&&&",
"7571>55511455515555511115551>11>5;;;=---&*-&&&*&&&",
"777>5>>54151515151577111511>7>11;;;;-=*--**&&&&&&&",
"777555>>>1115415555511711111121155;;-;;-&&-&&&&&&&",
"7875112>24111114;66y;y6;8;y;;655;5;;;*,*;***;****;",
"78751>>>>21111116;6;8;8;;8;655;66;;5;**;;;;**;*;*;",
"e7e777>>>2224144;y8;;y;88;8;33535555,,<;;;*;--;-;*",
"7e8577>1>2>1141168;y8;8;;6;856;55;33,;<;;;;*----**",
"e77777>>2>><444186;;u;y;8;;8;63333<<;;;;;-------*;",
"8ei877555,,,>>>4;683;6;666568;535353353<;5;;;---;*",
"e8i877554>,,2>>4;68;6;8;;8;;;;83333333<35;;;;;--*;",
"8i8877554,,,,,,448;8;8;86;6565555333<<<;;5;;;---;*",
"eiiww7677><>,,;,;;6;6;8;6;6;53<56;3335338;5;;;;;;;",
"yiywww66722>,,,,6;;6;6;666;635535355;5;58;;55;;;*;",
"eiy88w776<>1;,,,;;y;68;;;6655335533355;5;;;;5;;;;*",
"iiiwyy777444,,,,;;;6;;;86;;5335<6;55;36;8;8;;;;5,*",
"ipiiye8ww5542,,,;;6;6;;;;;6635333<<56;5656;555;;;;",
"iiieyy777444,,,,;;;;;;66646;<5<53<3<;65;;;6;;;;5;<",
"iaiiiiyww770131,6;6;;;;;333;<333<5<65;6;5;;55;;5,*",
"aapiii88w7773<3,;;;;;64;;4;6<<5333<<;6;5;555;6;;,,",
"piiiiii88777>55>>>,,>,>23333<3115<53<<<<<<<<<,<,,,",
"agffiiiiu8885555>>,,2,,,;3;3<;<33<<<<<5;<,<<<<,,<,",
"gpfppiiii787755>2<>,,>,,2;;<<;533<<5<33;,<<<<,<<,,",
"igiipii8i887575>2>,>,,2,;;<<<<135<3<<<33<<<<,<<,,,",
"pggpggipiiii888535,,,,;,;<;<;333<<<<<<;<<<<,<<<<<<",
"gggggifiiii8888545,,,,,;;<;;;;;;<<<<<<<<<<<<<<<<<<",
"ggggpgiiii8i887545,,,;;;;;<;;333,<<<<<<;<<<<<<<<<<",
"khjggjgggigiiii877121,;,;;;;;;;<;,<,,<<<*<<<<<<<<<",
"kkgggdgpgpigiii777111;;;;;;;;;<;,,,<,<,,<<<<<<<<35",
"kgkgjggggigiii8777113;;;;;;,;;;;,<,,<,<<<,<<<<<<35",
"kzkkzjkgzgggpiiiww777<<>;;;;;;;;;,,,,<<<<<<<5<<<<<",
"kkkkkkjkdjgjgig88w777<<1;;;;;;;;,,,,<,<<<<3333<<<<",
"lklglhkgjgpjpgpiy8777>11;;;;;;;;;,,,<,<<<3333355<3",
"jllkzzkkzzzgggjgssiii656,,;;;;&;*;;;,<<35533u33353",
"llkzzlkljgzzzgkpgayiy666;;3;;;&;,;;;<<,355u3<3<333",
"kjlllllkzzgzgkkpssiyi676<;;;&;;;;;;;<,<33533<<335<",
"gzzjjlllllzzzkzdjkass888556;;;&;&;;;><>15077999591",
"jjgzlllzkzzzkzzdjkaas888;56;;;;;;;&;22270545555599",
"zgjlklllzzzzzkzdhhsss78865;;;;;-;;;;2<>75009719411",
"jzjlllzlzzzbzzbzzzkkkaia8yy668533>1211277777771777",
"zzjllllzzcczbzzzzzlkliai8w8666353<<342107770775470",
"jljlllzlzzcczzzzzzkkkaaa888666335<<<11109577777777",
"llzzlcvzzbbbbbbbvbvvvjkjaauwywwww7q77077q7q7e77777",
"lllzzzvvvbbbbbzbbvvvvkkkuayywywww7w70777e7e777e777",
"lllllxvvzbbbbbbbbvbvvhkkraarrrrqw788667777777777q7",
"lllvvvvvnnmnmmmmmmnnnvvvljkfsayrieeyewwie7eeeee77q",
"cllvccmvbmnnmmmmmmnnmbccklkasayyiwywywwieee77e77eq",
"llcvvvmvbnmmmmmmmmnnncbclkksasryeeeeewweeeeee77e77",
"lxlvcvnnbmmmmmmmmmmmmmnnvvvxxxasftaiiaiaefeee7q707",
"xllcvxnnbnmbmmmmmmmmmnnmvvbxxxaffieiiaftfee7e7e777",
"lllvvvnvnmmmmbmmmmmmmmnmbvvxlxfsfieeaieiefeee7qe00",
"llllllxxzbbzmbbmmmmmmmmmnmnbbbxxxffffeffeeeee7qq77",
"lljlllcccvbvbbnmnnMnMMnMnnMvnvcxxfagaaaftfqeeqqq77",
"jlllclcccvbbnnvnnnMMnMMMnMnnnvxxxgafaaftfteeeq7700",
"cllclxcxzcccnbmbnnmnnMMMMMMMnMnnblxljfjteeqeeq7q00",
"lzllxxxxccvcvnbbnnmmMMnMMMMMMmvvblxlfffttfqqq7qq00",
"lzxxxxxxxcccnbnnnvMnnNMNnMMnMnnnnxxxfffteeqqeqqq09",
"bbvxcccxccccvccvnvnnnnnnMMMMMMnMmcccfffreeeeq00000",
"bvbvccxcxczcvvvvvvnnnnnMMMMMMMMnmvcvgfgreeqqqq0000",
"bbvxcccxcxccccvvvvnnnMnMMMMMMMnMmvvcfggreeqq700000",
"mmmccvccxvccxxxvccvnvMMnMMmNMBmmMvbvjffeqeqqqqqq09",
"mmmcvcxxxxccxxxcccvvvmnMMMMMNMMMmvbbffjqqeqqqq0099",
"mmmccvxccccxxcccvcvnvmnnMMNNNNMmmvvbjffeeqqqqqq000",
"BMBvnmcccccccccccvvvnmnnMmmMMMMMMmnmjljreeqeqqqq0q",
"MMMnmnxcccccccccccvvvmnmmmMMMBMMMmnnlljreeqqqqqe00",
"MMMnvvxcccccccccccvvvnmmMMmNMMMMMmnnljlererqqqqq00",
"BBBMBmvcccxccccvcvvvvmnnmMmMMMMMMmmnxxxreeqrqqqq0q",
"BBBMBBvvcccccccvccnvvnnmmmmMMMMMMmnMxxxrerqqqqeqq0",
"BBBBBMccccxccccvccvvvnnnmmmBMMMMMmmmxxxeeeqqqeqqqq",
"BBVVBBmmmxcxcccvvvvmnmmmmBmMMMMMMnnnxjxqqqqqqqqq0q",
"BBBVBBnnmxxcxccvvvnnvmnmmmmMMMMmMmnmjllqqeqqe0q0qq",
"BBBVBBmnmxcccccvvvnvnmmmmBBmMMMMmmmnxllqqqqe00eeq0",
"BBBBBBBBBxcccccvvcvnvMmmMMMNBBMNBnnmjjfq00qqq9q099",
"BBBBBBBMBccvccccvvmvvmmmMMMNMBNNBmmmjfj0q0qqqq0qq9",
"BBBBBBMMMccccccvvvvvnmmmMMMNNNNNBmmmjjjq00qqq00090",
"BBBMMBBBBBBBnvnvvcnnnMmmMMMMNNMMMmmMjjf70090990000",
"BMMBMMBBBMBMvvnvvvnnnmmmMMMNNNMMmmmmfjj70000000000",
"MBBMBMBBBBBMvvvvccnnnmMMMMMNNMMMBmmmjjf90000000000",
"MMMBBBBBVVBBmBMnnvnvvnnmMmmmmmnMMcvvfff91009009190",
"BMmBBBBBVVVVBMBbnnnnvmnnmMMmmMnMMvvvfff40999099900",
"MMBBBBBBVVVVVVBvnnnvnnnnMMMMmMMmBcvmffe90001999909",
"MMmMMmBBVVVVVVBvvvxxccccxxxvvvcxcfffeee00000099900",
"MMmMMMBBBVVVVBBvvvcccxccxccvvvcccfffeee90009999900",
"MMMBBMBBBVVVBBBvvvcccxcccxxvvvcxcfffeee00090999900",
"MMMMMBMBMBBBBBBvccjjjjjjfffjjlfffeerqqr99q99909000",
"MMMMMMMMBBBBBbBxccfxljjjfjjjljfffqrrqqq9q999900906",
"MMMMMMMMbVBBBMBxccjxjjjjfjfjjjjffreeqqeqq999099900",
"BMBMMBBBVVBBMBBvvcffftftttttrrrrerqqqqq99q9q000900",
"MbVBMBBMVBVBBbBvvvfffttfrrrrrtrrrqqqrqqqqq99q99qq0",
"BBMBMBBBBBVBMBBvvvffftfttrrrtrrreqqeqqq9q9q900qq00",
"BMMBMMBBMBBBMMBvnnfrfrrrrrrqrq9qqrqrqqrqqqq900qq00",
"MMMMBMMVMBBBBMBvnvfffrrrrrrrqrqqqqqqqrqqqqqq000q90",
"MMMMNNBBBBBBBMBvvntffeeeqeeqqqqqqqrqqrqqqq00q00q09",
"BBBBBBBBBBBBMBBvvvfffrqeqreqqrqqqqqqqqqrqqqq000000",
"BNNBVBBBBBBBMBmvvvftteeqeeeeqeqrqqqqrqrqqqq0q00q0q",
"BBBBVVBBBBBBBMBcvvtffqeeeqqqrqqqrqqqqrqqqq0q00q0q0",
"VVVVVVVVVBBBxcxfffqqeqeeqrqrqrqqqqqqqqqqqqqqq0qq0q",
"VVVVVVVVBBBBccxefeqeqeqqqqqqqqrqeqrqqeqqqqqqq0q000",
"VVVVVVVVVBBBcxcftfeeeqeqqrqqqqqqqqqqqeqqqqqqqqq00q",
"VVVVVVVVBnnmfffeeeqqqeqrqqrqqqrqeqqqqqq0qqqqq0qqq0",
"VVVVVVVVVnbbkhgeeeeeqqqeqqqqqqqeqqqeqqqq0qq0qqqq0q",
"VVVVVVVVVbbbhhgeeee7qeqeqeqqqeqqqqqqqqqqqqqqq0qqq0",
"mmVVMMNNVmMmlllffee8eeqqeqqqqqqqqqqqqqqqqq0q00009q",
"mmMNMMNNNMnMlljfffeeeqe7qqeqqqqeeqqqqqqqqqqqq00qq9",
"mmmMMMNNBmmmlllfff8ee7eeqeqqqqqqqqqqqqqq0q0qq0009q",
"nnnmmnMMMMMMxcxffffffeeeqeeqqqqqeqeqqeqqeqqqqqqqq9",
"nnnmmmMMMMMMcxcffffffeeeeeqqeqqeqqe7qqqqqqqqqqqq9q",
"nnnmmmMMMMMMcccffffffefeqeeqqqqqqeqeqqeqqqqqqqqqqq",
"nbnnmmmmmmmMnnnllljjjfjfttaweqqw7qeqeqqqqqqqq0qq99",
"nnnnnmmmmMMMbnvllljjjfffaateeeeeeeqeqqe0qqq0q000q9",
"bnnnnnmmMmMmnvvxlljjjffjtfteeeeqeqeqqeeqqqqqq09q9q",
"vvcnnnnmnmnmnnvccclklffffffttrqeqeqeqeqqqqq009qq09",
"vvvnnvmnnmnnnnnxccjjjffgfffrtteeeeqeqeqqqqqq9qq900",
"vvvnnnmnmnmnvnvcccjllgggaffrtteqeqeqqqeqqqq9q9qq09",
"xllccccnvnnvvvvccclxxjjjgfgrfeeqeqeeeqeqeqqqqq00q0",
"lxlcccvcnvvnvvvcccxxxjljggfatteeeeeeqeqqqeqqq00q00",
"xlxcccvbvvnnvvvcccxxxjjjfffaatteeeeeeqee0eqqq00qq0",
"xxxcxccvvvvvvvvvvvvccxxxjjjqqeqqqq9qqqqqqqqqq0q0q0",
"xxxxxxvvvvvvvvbvvvcccxxxjfjeeeqeeqqeqqqqe00qq09qq0",
"xxxxcxvvvvvbvbvvvvcvcxxxjjfqeqqqqqqeqqqqqqqqqqqq0q",
"xxccvcvnnbbbnnnnnnnvncccjjjrrrrqqeqqqqqq0q0qq9q9q0",
"vcxvvcvvvnbbvnnnnnvnvcccjjxrwrqqeqqeeqqqqqq0q99qq0",
"xxxcvcnvnvvnnnnnvnbnbcccjjlrrrqqqqeqqqe000009qq00q",
"xccccvvvvvnvnnbnnnbbbxxxjjjtttrreeqeeqqqee0eqqqq90",
"ccccccvnvnnvnbnnnnnnbcxxjjjrtfrreete9tqeeqqqqqq000",
"cxxvccvvvnnnnbbmnnnvbxcxjjjrtfrreeqtt9t9qqqqqq0q09",
"cccvcvvnnvnvnnnnnnnbbxxlffjrfttteqeq9t9eqq0qqq900q",
"ccccvcnvvnnnnnnnnnbbvlllfjjrttfteeqet9t9qqqqq0q000",
"cccvcvvnnnnnnnnnnnbbbzxxfffrfrttfq9e9e9eqqqqqqq00q",
"cccvvcnvnnnnnnnnnncvvhjlrrfrrrrrtetee9e9qqqq0000q0",
"cccccvnnvmnnnnnbnncvvkkjffrrrrrre99tq99qqq00q0000q",
"ccccvcnvnnnnnnnnbnvvvkjjrffrfrrrttttqeqqqqqq0q0q00",
"cczbccbbbnnnnnmbnvvcclllfttrqeeq9eqqq9e9eqqqqqqq00",
"ccccbcbbbnnnnbmbvvvvcljltftreeqeeqeqeq9eqqeqeqqqq0",
"cccbccbbbbnnnnmvnnvvvlljttteeqeqqqqqe9teeqqqqqqq0q",
"ccccbbbbbbbbvbbvvvcccxxxfjjeeeqeeqeq9eq9qqqq999q00",
"cbcbvvvbbbbbvvbvvvcccxxxjffteeqqtqqqtqqqqqqqe99900",
"vcccvvvvbbbbvnvvvvvccxxxjfjteeeeqtqt9etqqqqq999q00",
"vcvbvcvvvvvvccccxxxxxlllljlftfeefqqqqq9qqq009qq9q9",
"vvcvvvvvzvvvcccxcxxxxllxjljaffeetqttqqqqqq09q99qqq",
"vcvvvvvvvvvcccxxcxxxxxxjljlfffeeteqe9qeqq99qq999q9",
"xxxxxxxxxxxxllljjjjjfjjjjjjfffttf9eqeq9qqeq99qqqqe",
"xxxcxcxcxxxxllljjjjjjjjjjljfffetteeqe9e9e99q9qqqqq",
"xxxxxxxxxxxxjlljjjjjfjjjjjjfffeetqeeqqqe9eq99qq9qq",
"llxjljlljjjjgffffaaffffffjfffffefettqqq9qqqeqeqeee",
"llxxllljljjlgffafffafftffffffffffettqqeqqqqqqqeqee",
"llxjjxjlljjjfgffefffffffffffffefettteqqqqqeqeeqeee",
"jjxjjjjfjfffafftfteftttetftffffef99e999999qeqeeeee",
"ljljjljjjfffftffefeefeefefefffefeeeq999999eqqeeeee",
"jlljfjfjjfffffftffefefeffffffffefqqe999999qqqeeeee",
"ffffffffffjfjfffffeffefeefeefeeee900999999qeeqeqqe",
"fffffffffffjfjfffffffeefeefeeeqee09999999qeqqeeqqq",
"jfffffffffjfjjjffffffffefefeeeeee00q999999eeqeeeeq",
"fffffffffjljxxllllfffeefeeeqqe00999099999qe9e99q99",
"ffjffffffljllllllljffeeeeeeqqq000909999099e9eqqq99",
"ffffffffflljlllllxfffefeeeeqqqq000909999999eqqqq99",
"ffftfffffffjljljljfjjfef00099999999999900qq0q99q99",
"arffttfffjjfllllljjjfffe000299999999999000qqq9q999",
"afffftffffffjljlxljfjfff009992009999999000qqqq9q29",
"rrttttttefffjjfjjjxllfffeee99929992999909009999922",
"rrartttfefftfgjjljljljfjeqe99299992999909999999992",
"rrttteateiffjggljjfxjjjfeee29992229999909999999929",
"rwrrertteffifffjjlllxfffeqe2929299990eq0q092922922",
"qrrreeteefiaffflljjlxfffeee929292999qqq09999922922",
"rwrrrrrrraaffffjljlllggjrrr939299999qqqqq999992222",
"qqqqqqrrrrrrfaajgjjjljgjqqq223323999yyrrrr99922222",
"0qqqqqrrrryrafaggjljjjjgqqq332923999rrrrrr99922222",
"q0qrrqrqryrrfafgjjjljgjjqqq322923999rrrrrr999222;;",
"q99q99rqqrrrarafgfjfjjjjtrr299293999yqqysrrqr222;;",
"999qqqqqqrrqaarffgjggjjjtrr992933999rqryrrqrr2922;",
"000q9qrqqrrrrarsffgjjjjfttt929299999qrrrrrrrr299;2",
"000009qqqqqqqrryraaaaffftft9q9399999rqqyrr99999222",
"0060q9qqqu9yyrqrrfaarsfftff9q9999900uyyq9yy0y3332;",
"00006qqqq0y9qyryrrrfafffttt99q9490009rqyyq0y036522",
"6660q9qq9999qqy9rrrrrrarrrrqq040966999009993333322",
"099y6q69qy9yqy9yrqrrrrryrrrqqq69669699933933933322",
"0686q60uqq0y0qy0qqrryyyayyyqqq6696996666933633332;",
"9y6668069y6yy000qqqq9yr9qqq0qq00666696336636636334",
"66y6q604006606yyqqqq9qyq0q088q66666666665666363445",
"6696680u6yy90y06yqqqyq9qqqw00qq6666663636363636363",
"680009yy0y6y0yqyqqyqyqqqy8y0yy6099uu3939uu39u3669u",
"y6y0yy99u6y0u0yqyyqyyqy89y8y086yu939u9u939u306669u",
"6y3y6y9yq00yy00yyqy8qyqqy98908y6u39933u3u93966q999",
"yyyyyyyruuuqyyyryyyyyyyryyuyuqyu9uu9u99u93uu0u099u",
"0y0yrrryyqyyrrryyyryyrryqyyyuq0u9u9ur9u9u99u9qqyuu",
"yyyyrryyyyyyyyyryyyyyryyyyyrququu9u99u9u9uuq9uyq99",
"yuyyayyasyyyyayayayuyaayyyyyyyuyrurruurruquruyyy9u",
"yyyyyayyyyyyyayayaaaayyayyyyyyyyurruruuruuuqyyyyuu",
"ayryaayyyyayayyasrsrrssryyrurryrrurrrrrrurrrrrrrur",
"aasyayrssyaassaarrsssrsrpssrsppprrduuuruurudrddrru",
"aaauassssaaauapusssrsrssrsssrsrsrdrrrrrdrdrudrdruu",
"yaaayrsraauaaaassrsrssfrsrprdrsrdrdrdudrurdrrdrrur",
"rssasssrsuasassrsrdsrssssssssrddhdrddddddddddrdddd",
"ssaasrssaasassssssssssssasasssssrdddrdrdddrdddddrd",
"asrsrsrsapaasassssrssssssssasssrrhhrddrhddddddrddd",
"sssdsfsssssssssrssssrssssssssddddhhhdddddddddddddd",
"ssfssfsrhssssssrssssssssrsahhssshhhsjfhhhfhhhhhhdd",
"sssfssssssdrrdsdrpsssssshsshssfsshfhhhhhhhhhkhhhdd",
"ahhassdhsdrspsrdsssprdssashsshssshhshhhhhhkkkkkkdd",
"hhahsssrrddsrssspsssddsshhhafshhhhshhhhkhkkkkkkkdb",
"hshrhhsssussdspspsssrssshssfshsshhshhhhkkkkkkkkkdd",
"sshahrssssspssusssssddssshhhhhhhshhhhhhhdkkkkkkkdd",
"sahshsdssssspdssdssssdssshshhhhhhhhfhhhkkkhkkhhkbd",
"ssssrhssssssspdrrsssssdshsshhfhshhhhhkhkkdkkkkkkdd",
"ssssssspsssussssrddssddsdddddkdkdddzzdddkdkkzzzdbd",
"sdssssssspssssssssdsrdssdddkkkddddddddzzkkkkdkkzdd",
"dsssspsssrdsssssssssdddddddkdkdddzzddzzdddzkzdkkbd",
"sussssssspdussussdhsddddhdddddkdddddddddzkkkdzkzdd",
"ssssssppdrussssdsshhshsdhhdhdddkdddzdzdddbzdzzzddb",
"sssssssspsssssussssshshdhhdhddddzddddzdbdddzdzdzbd",
"ssusspdrspusssdsshhhhsdsddhduddddddddddzzdzdzzzzdd",
"ussupsusussusssdhssshhdddddddddddddzzdddzzzzddzddd",
"ssdprpspdusssdssdsdddddhdddddddddddddbddzdbdbdzddb",
"ruppdppsrpspspsdddhhhddduddddudddddddddddzdddddddd",
"dpsdpsspsssssssddddkkddddddddddddddddddbdddddddddd",
"psprsppspsppdsdddddddhdduddddduddddddddddddddddddd",
"dsdsdsspdsssddddddkdkhdddddudddddududduuuudduuuuuu",
"sdpdsdsdpsdpsddddddkkddhddddududdduuuuduuuuuuuuuuu",
"sdsssdsspdssdddddzkdkdhhddddddduduuuuuuuuuuuuuuudu",
"ddddddpdssdsdddddddkdkkhddduddduuuuuuuuuuuuuuuuuuu",
"ddsdsdsdssdsdddddkkddddzddddddddduuuuuuuuuuuuuuuuu",
"dddddsdssdsdddpddkkdzddddddddduuuuuuuu9uu9uuuuuuuu"
};
