/* XPM */
static char *Free_Converter_com_screen_shot_2016_03_17_at_1_36_26_pm_83934041[] = {
/* columns rows colors chars-per-pixel */
"50 219 51 1 ",
"  c #45545D",
". c #475A64",
"X c #495A63",
"o c #4C616B",
"O c #566B77",
"+ c #596D77",
"@ c #576C79",
"# c #596E7A",
"$ c #5A717E",
"% c #577282",
"& c #5B7584",
"* c #5E7985",
"= c #5A7788",
"- c #5E7A8B",
"; c #5F7D90",
": c #617B86",
"> c #627D8B",
", c #617F91",
"< c #66808D",
"1 c #648294",
"2 c #6A8595",
"3 c #6E8896",
"4 c #678699",
"5 c #69879A",
"6 c #6D8A9D",
"7 c #718D9D",
"8 c #75909E",
"9 c #6F8DA0",
"0 c #718EA0",
"q c #7491A2",
"w c #7A95A5",
"e c #7D98A7",
"r c #7D97A8",
"t c #7E99A8",
"y c #8097A9",
"u c #839CAB",
"i c #889FAC",
"p c #87A0AE",
"a c #89A1AF",
"s c #8CA3B1",
"d c #90A7B4",
"f c #94A9B6",
"g c #96ABB8",
"h c #9AAEBB",
"j c #9CB0BC",
"k c #A0B2BE",
"l c #A3B5C2",
"z c #A7B9C3",
"x c #AABBC6",
"c c #AEBFC8",
"v c #B2C1CB",
/* pixels */
"         XXXXXXXXXX              XX...XXXXXXXooooo",
"$$######+$$$$$$$+++++OOOOOOOoO@+#$##%%%-&**>***->>",
"#$####+++#$#$$$+$++++OOOOOOOOO@@###$%&$&*&***:::>>",
"$#####+++$$#:+$++++++OOOOOOOO+####$#$$&&*****:-*>*",
"$##@##++OO+O####$$+++OOOOO@@@@###$$#&$$*&*:*:**>**",
"#####+O+OO+@##$###++OOOoOO@@@@###$#%$$$****:*:****",
"###@@@+O@@++$$####++OOOOOO@@#####$$#&$$*&***::***:",
"$&$$###@@+++####$#++OOOOOO@#####$$$#**$>**>*:*>-=-",
"$$$$++#++#+++#####@@@O@@OO@####%$$&&>&>*::::::<<*-",
"$*$$++#+#+++#+@###@@@OO@OO@#####$$$$:&$&:::::::+-*",
"***$*&#+####++####@@@@@#O@@#$$%%$$&&::&>::<::::<-*",
"*::$+&&*####++##@#@@@@@@@@@##$$%$$:&&>>>::::<:::&*",
"&&&&&&+####+##############$$$$$$$>$&::::>:::::::>*",
"*:-**&$*-&$&###$####$%###$$$$$$-$&>&::>>><><<<::>>",
"***&**&&&$$$#$##$$########$$$$$-$>*::>>><><><:<:*:",
"*****&&*&$$&$#&###$#$#%###$$$$$$$>$:>:>>>>><<:::>:",
"----$--$&>$>&&&$&&$$&#*#&*:$:$::::::<:<<:<:<<:<<>>",
"---->--->$>&$$:*$&$$#*#&&#$$$:&:$::::<:<<<:<<:<:>>",
"--------&:&>:$#$$#&$++*+$#$&$::$::$:<:<:<<<<<:<::>",
"---;----->&>>>::>>*>***:::::::::::<<:<<<:<:<<<:<>>",
"--;------$>-->-***:*&&*$$::::*::::<:<<::<<<:<:<::>",
"-;;=----->>->$**:*&&**:$::$::::::<::::<<:<<<<<:<>:",
"=;=;--------->>$:>:::::::::::::>:::<<<:<<:<<<<<<>>",
";=;;-;-------->>>:::::::::::::>><:<:<:<:<<<<<<<:>:",
";=;=;;;=-;----->:::::::::::::>><:<:><><<<<<<<<<<>>",
";;;=;==;------->>>:>>:::::::>>:<>><<><<:+<<<<<<:>>",
";;;;=;;;;;------>>:::::>:::>::>>><<>><><<<<<<:<<>3",
"=;;=;;=;;---;-->:>>::>>*::::<<>>><><<><<<<:<<<<<>>",
"-;=;=;;;-----*&-:->>>*>>>>::::>><<:<<<:<<<<<<<<:<:",
"-;;=;=;=---*-*>:-::>>*>*:::>::>><<<:<<<<<<<<<<:<:<",
"-;;;;==;----*----->->>::>:>:::>>:<<<<<<<<<<<<<><<:",
"--%;;;==--&*-*---:-->>>>:>>:::<>:<::<<<<<:<<<><>>:",
"------------$-$--->->----->>--$2$>>>->>>2->>>>2>>>",
"----->-->$>-->>--------,--#>2#2$2>>>2>2>>>2>>>>>>>",
"$>$,------->->-$---->-->-->-----2#>$>>->>-->>>>>>,",
">>>->->----$-$->>#--#2-#->--2#-2-2$2--->>2>>>2>>,>",
">>>>>>>>>**--*-*#>--#--->--->--#-$$2#2->>>>>>>2->>",
"$>>$>>>>>*>*>*:-->>>>>>>>>->>>--,2-2--->----->2$>:",
"2>>>>>>$:**>:-:>>>->>>->>>>->>22,>---->--$>-->-->>",
">$>>$>>>>::*>>>$$->->->->>>>>>->>,2-->---2---->->>",
">>>-->>>>::>:>>>>>2>>22->>>>2>2,>,>22>2>>2>>>>>>>>",
">->>>>*-&>>:>:&>>>-->>>222>2>,>,222>>22>>>>>2->>>>",
"->>>>>-->>>>>>>>$>>>>-2->>>>,>,,;2222>2222$2>>>>>>",
"--->>-2>>>>>>>>>2,2>222>2222>222>2222223222222>23>",
">,,-,->>>>>>>>2>2>22;22222>2>2>>222;22233322222>>3",
">>-,>->>>>>>>>>2>22>2222>22>2222;2222323332222>2,>",
">,>,->2,>2>22>2222722233222232222222333333323233,8",
",>,,2>>,>,>>22>2222222332222222222223333y3323333,,",
",>-,-,,,,2,,2,22222222223222222222223237,8,,83>8>8",
",222,>22,22222222232y22y397977737779y2777788388833",
"2>>>2,,2,22222,22222222233377739373777777778338,83",
">22,,>2,,2,,2222222yy22y737737737793y777777,38,y33",
"222,22222222222229292229777777q7997737y2q778777883",
"22222>222212222222922yy27777q77773y7y3y7777778888y",
"222222222222222yy222222277777777y377y7737878787783",
"222222222229292292y2y99yq9yq7yqqy979993yqq88q87y8y",
"232222233232222929922y9y99y9qqqq9799q9qqqqq78qqq88",
"223322222322y229y29y9999y9y79yy7y29y7q7qqqqq888q88",
"373372272yy2929292922y9999299q99997yq7qqq7y7qwqq88",
"333333732232272792y92y99y2y7999yq9999q9qqy7ywqwq88",
"332993372232y2292yy299y969999999q999qqqqqy7qy7qy88",
"333227372y37229222929229626526592999999966y0qqwq9y",
"322237773273992229997999656565555955699999y9qqqq7y",
"322y9337y237222y922972926655555559999599999yqyqq70",
"8383388877777366566566664944444,444446494699000090",
"33333333777766336569564644444444444464646699000000",
"383883383877363665956666464414,4,44464466499000090",
"8883888838873776635656664444444,4;,,14114444466666",
"888383838888737336255666444444;,;,,411114144464466",
"888838383888733663666666946444,44;,;14141144449666",
"888888883888777733356446,44444,44,,,,,,,,,11144464",
"8y88883888887777666664664444,44,4,,,,,,,,,11444466",
"8y8888888888778368666656444444,44;,,,4;;1,11,44464",
"88y88y888w8w888738306366444444444;,,;,;;;,,1144444",
"8888888888w8888880366666464444444;1;;,,;;;11144,66",
"y8y88y888w88888880066665464444444;;4,,;,;;11,44444",
"888888887777870006306666949444444,4,4,,,,,1,,1,4,4",
"888888887778008370066666949444444444,,4,,,,1,,1,1,",
"888888387888770003606666499494444444,,,,;,,,1,4,1,",
"83883833365356666656666699449444444444,44,4114,11,",
"388397557575557595559565965549444444444,4,1,4,,4,1",
"833899373565755959955559666649444444,4,4,44,,4,,,,",
"77736666756565554454555555554449544444444144414411",
"7377566655565555544455655555944454444444444,141141",
"67766556655559554444555565646494554444444444441144",
"67666666666655554141444455454959594949944944444444",
"76966656666655554444444455554595549554544564444444",
"669666666566555,4,44444455565555944459599544644444",
"69949969669666444444544454454464555959599559999966",
"96996496666646944444444444454444595595999999999906",
"66499496669995644455444444454444559559995995999966",
"999999669666466465556444554449494955999999999rwrqe",
"9969966966669494655554445944644459599999q9999wrreq",
"699666969696469456555444555544645555999999999wrqqw",
"9999996996699999999999699999495959999q9qqqqqqprpup",
"999669996996999999999999999999949595999qqqqrqypuup",
"999999996969990009009999999999656666900qqqwqwpttpp",
"999999996000qqqeeeutuuypyytwqq996000qqqqwquutddddd",
"999999990090qqqeettttuuuuuuqqq996q0q0qqwwwuutdsddd",
"999999996000qqqtettuuupuuuuqqq996008qq0wwquttsdddd",
"999699696009weeappsdssssssswrw0qqqwqwweeeesssjjhlk",
"999999699900eewaspdsdssssspwrwq08qqqwwwettssshhjkk",
"999669969009ewwpppdsdsssassrrwq0888wwwwettssshjhlk",
"999999990699wwwuppuutteeytteeewqwww8eeeuptdddlllxx",
"696996099999wqwpppptteeeyuttttwqqwwweeeuuudddlklxx",
"996969999999wwwptptpteeeuytrrtqwq8qweeetttdddlllzz",
"799999999999000qqqqqqwqwreeeewwweewweewuuuaapfffjj",
"0099999999996000q9qqqqwqrewwwwwqqwweeeettupppfdfjj",
"9009999999997008q9qqqqqweeewwwwwwewqeeeuuupppfffkk",
"080099066990666999990qqwwwwwewwqqeeeeeeutupuuapaff",
"000699900006006799900qq0wweeqewqqeeeeeeuueuuuapaff",
"000099609660760699900qq0ewqeeeqeqweeeeeeuuuuuaaifd",
"008600000900099996000000qq00qqqqqewwttrtptapidddjh",
"000000000996009999009000q0qqqqwqqwwwttrptpppiddsjh",
"000000800000909999909909qqq00qqqqwwwetttuuppiddshj",
"000000680606009669699999969000qqqqwwtttpuussifffkk",
"00000066660699999999966999990000qwwwyyyuuusaafffkk",
"0080006006066996969999999699q0qqqwwqtyyuuppsiffdkk",
"000099660444969446694496496990qqqeeeuuysppdddjjjll",
"600090066940464996646966499990qqqweeutyassdddjjjzl",
"000000666494944969996666999999qqqyryyyyssidddjjjzz",
"000066669949496644444946944966qqrpypuppfgfhhhjjjzz",
"006406666494649449464946449999qwqyippupffgkhjjjjzz",
"600060669669494664644666994960qqwiiyupugffhhhjjjzz",
"009906669669444944444644666996qq9sipfdfggggggggggj",
"999900669464994494444666666669qqwyiidfffggggggggjj",
"099999969649449449444464666969qq9ssyfdffgfgggggggh",
"90969666949944444449466696900qqqqssshhhhkkdddgggkk",
"099969666494444449444949994000eeqpppjhhjjjffshfhhj",
"999966669646464944494994999000qqepspjjjjjhddshhhjl",
"9009966666664644944449990900qqpepddsllzzllhhhhhjcz",
"900996969446646444944949900qqqeeesddllllzzhhhhhjzc",
"999669969464444644494449999qqqeeedspllllllhhhhhhzz",
"99999666999666949494999900qeeeppphhhczczczjjhcczcc",
"999966999469666494499994qq0eeeppphhhczzzzzjjjcczcc",
"999960969966669444944999qqqeeeppphhhzcczzczjhccvcc",
"999999964949649949949000qqqeeeppphhhlclcccccvvvvcc",
"669690499499669499999000qqeeeeppphhhczccccccvvvvcc",
"999996499944944944994000eqqeeeppphhhczccvvccvvvvzc",
"999699999499996999990000qqqeeessphhhlczcvvvvvvvvcz",
"999696699669669699990000qqqeeeppphjhccccvvvvvvvvzc",
"999999944664699699990000qqqeeessphhhzcccvcvvvvvvcz",
"009999699966696999000000eqqeeepppjjjcccccvvvvvvvll",
"000999699466966999000000qqqeeeppsjjjccccvcvvvvvvjl",
"008060409499969999990000eqqeeeppphjjccccvcvvvvvcll",
"000000609994694999999000qqqeeeppphffzzzcccccccccll",
"qqq006069499699999990000qq0eeepppfffzzzcccccccccll",
"0q0800009964946996990000qq0eeepepfhfzzcccccccccczl",
"0q0969999999966969696000q0qeeqeeedddjljjllczcccccc",
"000909999969696666990000qqqeeeppefddjljcllcczccccc",
"0q0990999699696694966000qqqeqepepdddjjjlllzzzccccz",
"000996009999699999060060q00qqqeeessphhhhhhzzzczccc",
"000999909999699699999999000qqeeeepspjhhhhhzzzccccc",
"00999990099996699999999900qqqeeeepspjhhhhhzzlccccc",
"0009999099009999999990600q0qqqqeepeeddshhflljczzcz",
"090999999909999999990000qqqqqqqqeeppdsshhhjllzzzcc",
"9000099099000009990990900qqqqqqeeeppdsdhhhlzlzzzzc",
"000090099000000099966000000qqqeqqeeepppppssssfhhhh",
"0qq009000000q000996660090q0qqqqqeeeeepppppsfdhffjj",
"q000090990000qq099699000000qqqqeqeeeppppppfsshhhjh",
"0q0q0qq00q0q0qq000000999000qqqqqqeqeeeeeeeepeppeps",
"q0qq000qq0q0000q000096996600qqqqqqeqeeeeeeeeeppepp",
"q0q0q0q00qq0q0q0q09006990000q0qqqeqeeeeeeeeeepepss",
"0q00q0qqqqqq0q0q0q0099q900060006qqqqeqeqeeeeeeeeee",
"q0q000qqqqqq0q0qq000q9qq009999009qqqqeeeeeeeqeeeep",
"0qq000qqqqqqq0q00q000099090999009qqqeqeqeeeqeeeepe",
"qqqqqeqqqqq0qq000q000009996969999qqqqqqq88qeeqeqee",
"qqqqqqqqqqqq0000q00000099996669900qqqeqqeqeeqeqeee",
"eqqqqqqqqqqqq0000q0000999996969900q0qqqqeqeeeeqeeq",
"qeeeqeqqq0000000999960909996999990000qqqqqqqqqeqee",
"eeqqqeqqq0000009900999969696699990000q0qqqqeqeeqee",
"qeeqeqqqq000999099009699969999999090q0qqqqqqqeqeee",
"eeeeeeqee0qq9099999999969999996999999990qq0q0eqeee",
"eeeeeeqqqq00669999999699999999999999990900q0qqeqee",
"eeeeeeeqqq0000009999996999999996999999990000qqeeee",
"eppeeeqq0990444994969969999966666966999906qqqeeepp",
"eeeeeeqqq0994949699969999994666649499999999q9eeepp",
"peeeeeqqq044444969699999999900669999999999qqqqeepe",
"qeeeeq990444444444444666494964944494444999q99eeepp",
"eqeqqq9994444444440446466494494464446446999q9eeepp",
"qeeqeq09444444444464444464949444444464494999qeeepe",
"9999004444;;;;;4,,44444444444444444444669499qqqqee",
"9999094444;44;;4,44,444444444444444444494999qqqqep",
"999900944;;4;;;;,;44444444444444444444449999qqqeee",
"646444444,,,;,;4,,4,4444444444444,;44444460060qqee",
"464464444,,;,;;;,,,4,44444,444;44444444444049qqq88",
"044446444,4;;;;,,,4,44444;44444444,;444444600qqqee",
"444,44,,,;;;;;;,,,,4,4,4444444444;444,4444444999q0",
"111,,4;,;;;;;;;44;,,4;;4;;4444444,44,,4444444000qq",
"1114,4,,,;;;;;;;,,4,;4444444444444,4444,44444600q0",
",,;;,,,;;;;;=;;;,;;4;,;;44;44444444444444444464600",
",,,;;,;;;==;;;;;;;;,,,4;;;4444444444,4444444464400",
",,,,,,,;;-;;-;;;;;,,;,144;,44444444444444444565699",
",4,;,;;;;----=;;;=,;;;;;4,,44,4441141111,,,,,,,,,,",
",4,,,;;;;---=-==;;;,;4,,,,,44,,4414111411,1,,,,,,4",
",,,;;,=;;--:--;;=;;,;;1;,44,441411114111,11,,,,,5,",
"4;4;,,,,,;;;----;=;;;;4;1,,4,,,,,;;;;;;-;-==-;----",
";4;14,,,;;;;-=--;=;;;;;;,4,,,1,,,;;;;;;----===---;",
"4;;1,;,,;;;;--;-==;;;,14114,11,,,-;;;----=-=-----;",
"144444441111;;;;;;1;;1,,,,,;-;-;;==*=============%",
"14<44<14,,11;;;;;;,,,,,1,1,,;;:---=====&&=&=&==&==",
"11<414114,1,>>;;;;1;,1,,,,,;;;-;>*=-===&===&=&=&=%",
"6660006444411111111,1,,1,;;:-;=:====&&===%%&%&&&%%",
"640000666144111111,1,,,,;;;<;;:=*==&&&=%%=%=&%%&%%",
"37900066444111411,1,11;1;;,;;-:=-&===%%=&=%%&%%%%%",
"88quueeee67411<1,1,,,,:;:-:=*:==&=&&%=%%%%%%%%&%%%",
"888eeueee6471<41<1,:,:;;---***===&&&%%%%%=%%%%&&%%",
"888uueeee664<4<41<;1,;;;*--***==&%=&&&=%%%%%%&%&%%",
"qq9yyqyyrqq0,67344<<,;;--*-*&&&=--$-;,;,22;->,,>23",
"7qqqwyqqr8qq873,44,<<><-*-=&&=%=$&-%>,;222,->>>>23",
"qq9ywwyyr7qq7,6,44,<<;;>=-**=&&&$-->,,,222---,,>22",
"7yyqq9qyryyyyyw88q4662431<1->>-->>>>22279933,yy7id",
"y7y7y0yqqrrrwwy8886634222,,:-->;>,,,222997622y7ydi",
"7y7yqwqyrrrrwyw7qq336444>2,:>-->>>>,222279222qyqid",
"yyyyyyyiuuyyyyyqqqqqwwww7772>2,,,2,,997yqq379qqyii",
"8yyyyyiyuuuuyyy8qeqewwww777,22,1,,,1397qqq977yy7ii",
"yyyyyyyyyiiiyyyy7y7y8yyy778,>3>,>>2>y33q88333yyyii",
"yyyiyiiiiiiiiyyyyy888888333,>,,>>222332yyyy8yyyyii",
"yyyiiyiiyiiyyyiyyyy888y8,33>>3,>:222773y888yyyyyii"
};
